<svg width="30" height="32" viewBox="0 0 30 32" fill="none" xmlns="http://www.w3.org/2000/svg">
<path d="M25.0061 10.6587L17.5054 3.65048C16.8178 2.99501 15.9276 2.63264 15.0052 2.63264C14.0827 2.63264 13.1925 2.99501 12.5049 3.65048L5.00425 10.6587C4.60718 11.0372 4.29031 11.5015 4.07476 12.0208C3.8592 12.54 3.7499 13.1022 3.75414 13.6699V25.3148C3.75414 26.3749 4.14926 27.3916 4.85259 28.1412C5.55591 28.8908 6.50982 29.3119 7.50448 29.3119H22.5058C23.5005 29.3119 24.4544 28.8908 25.1577 28.1412C25.861 27.3916 26.2562 26.3749 26.2562 25.3148V13.6566C26.2586 13.0911 26.1485 12.5314 25.933 12.0147C25.7175 11.4979 25.4015 11.0357 25.0061 10.6587ZM17.5054 26.6472H12.5049V19.9853C12.5049 19.632 12.6366 19.2931 12.8711 19.0432C13.1055 18.7933 13.4235 18.653 13.755 18.653H16.2553C16.5868 18.653 16.9048 18.7933 17.1392 19.0432C17.3737 19.2931 17.5054 19.632 17.5054 19.9853V26.6472ZM23.7559 25.3148C23.7559 25.6682 23.6242 26.0071 23.3898 26.2569C23.1553 26.5068 22.8374 26.6472 22.5058 26.6472H20.0056V19.9853C20.0056 18.9252 19.6105 17.9086 18.9072 17.159C18.2038 16.4093 17.2499 15.9882 16.2553 15.9882H13.755C12.7604 15.9882 11.8065 16.4093 11.1031 17.159C10.3998 17.9086 10.0047 18.9252 10.0047 19.9853V26.6472H7.50448C7.17293 26.6472 6.85495 26.5068 6.62051 26.2569C6.38607 26.0071 6.25436 25.6682 6.25436 25.3148V13.6566C6.25459 13.4674 6.29261 13.2804 6.36589 13.1081C6.43918 12.9358 6.54605 12.7822 6.6794 12.6573L14.1801 5.66236C14.4082 5.44875 14.7015 5.33095 15.0052 5.33095C15.3088 5.33095 15.6021 5.44875 15.8302 5.66236L23.3309 12.6573C23.4642 12.7822 23.5711 12.9358 23.6444 13.1081C23.7177 13.2804 23.7557 13.4674 23.7559 13.6566V25.3148Z" fill="#FFC42E"/>
</svg>
