<svg width="26" height="26" viewBox="0 0 26 26" fill="none" xmlns="http://www.w3.org/2000/svg">
<path d="M19.0352 9.09983H6.36885C6.03292 9.09983 5.71075 9.23679 5.47321 9.48058C5.23567 9.72437 5.10222 10.055 5.10222 10.3998C5.10222 10.7446 5.23567 11.0752 5.47321 11.319C5.71075 11.5628 6.03292 11.6998 6.36885 11.6998H19.0352C19.3711 11.6998 19.6933 11.5628 19.9308 11.319C20.1683 11.0752 20.3018 10.7446 20.3018 10.3998C20.3018 10.055 20.1683 9.72437 19.9308 9.48058C19.6933 9.23679 19.3711 9.09983 19.0352 9.09983ZM13.9686 14.2997H6.36885C6.03292 14.2997 5.71075 14.4367 5.47321 14.6805C5.23567 14.9243 5.10222 15.2549 5.10222 15.5997C5.10222 15.9445 5.23567 16.2751 5.47321 16.5189C5.71075 16.7627 6.03292 16.8997 6.36885 16.8997H13.9686C14.3046 16.8997 14.6267 16.7627 14.8643 16.5189C15.1018 16.2751 15.2353 15.9445 15.2353 15.5997C15.2353 15.2549 15.1018 14.9243 14.8643 14.6805C14.6267 14.4367 14.3046 14.2997 13.9686 14.2997ZM12.702 0C11.0386 0 9.39156 0.336249 7.85482 0.989547C6.31807 1.64285 4.92175 2.6004 3.74557 3.80754C1.37018 6.24547 0.0357017 9.552 0.0357017 12.9998C0.0246286 16.0016 1.03734 18.9127 2.89829 21.2286L0.365025 23.8285C0.189271 24.0114 0.0702124 24.2435 0.0228733 24.4957C-0.0244659 24.7479 0.00203534 25.0088 0.0990331 25.2455C0.204237 25.4794 0.374784 25.676 0.589025 25.8102C0.803266 25.9445 1.05154 26.0103 1.30233 25.9995H12.702C16.0613 25.9995 19.283 24.6299 21.6584 22.192C24.0338 19.754 25.3683 16.4475 25.3683 12.9998C25.3683 9.552 24.0338 6.24547 21.6584 3.80754C19.283 1.36961 16.0613 0 12.702 0ZM12.702 23.3996H4.35491L5.53288 22.1906C5.76879 21.947 5.9012 21.6175 5.9012 21.2741C5.9012 20.9307 5.76879 20.6012 5.53288 20.3576C3.87433 18.6573 2.84151 16.4194 2.61037 14.0252C2.37923 11.6309 2.96408 9.22853 4.26527 7.22724C5.56646 5.22595 7.50349 3.7496 9.74634 3.04971C11.9892 2.34982 14.3991 2.4697 16.5655 3.38892C18.7319 4.30815 20.5207 5.96984 21.6272 8.09091C22.7337 10.212 23.0895 12.6612 22.6338 15.0212C22.1781 17.3813 20.9393 19.5062 19.1283 21.0339C17.3173 22.5616 15.0462 23.3977 12.702 23.3996Z" fill="white"/>
</svg>
