<svg width="13" height="13" viewBox="0 0 13 13" fill="none" xmlns="http://www.w3.org/2000/svg">
<g clip-path="url(#clip0_22_3508)">
<path d="M9.7149 9.71686C8.78897 10.4227 7.6615 10.8137 6.4974 10.8327C2.70573 10.8327 0.539062 6.49936 0.539062 6.49936C1.21284 5.24372 2.14734 4.14669 3.2799 3.28186M5.3599 2.29603C5.73274 2.20876 6.11447 2.16513 6.4974 2.16603C10.2891 2.16603 12.4557 6.49936 12.4557 6.49936C12.1269 7.11448 11.7348 7.69359 11.2857 8.22728M7.64573 7.6477C7.49696 7.80735 7.31756 7.93541 7.11823 8.02422C6.9189 8.11304 6.70372 8.16079 6.48553 8.16464C6.26734 8.16849 6.05061 8.12836 5.84827 8.04663C5.64593 7.9649 5.46212 7.84325 5.30781 7.68895C5.15351 7.53464 5.03186 7.35083 4.95013 7.14849C4.8684 6.94615 4.82826 6.72942 4.83211 6.51123C4.83596 6.29304 4.88372 6.07786 4.97254 5.87853C5.06135 5.6792 5.18941 5.4998 5.34906 5.35103" stroke="#898A8D" stroke-width="2" stroke-linecap="round" stroke-linejoin="round"/>
<path d="M0.539062 0.541016L12.4557 12.4577" stroke="#898A8D" stroke-width="2" stroke-linecap="round" stroke-linejoin="round"/>
</g>
<defs>
<clipPath id="clip0_22_3508">
<rect width="13" height="13" fill="white"/>
</clipPath>
</defs>
</svg>
