<svg width="15" height="18" viewBox="0 0 15 18" fill="none" xmlns="http://www.w3.org/2000/svg">
<path fill-rule="evenodd" clip-rule="evenodd" d="M0 7.3392C0 3.28049 3.39166 0 7.49422 0C11.6083 0 15 3.28049 15 7.3392C15 9.38444 14.2562 11.2832 13.0319 12.8926C11.6813 14.6678 10.0166 16.2146 8.14283 17.4286C7.71398 17.7092 7.32694 17.7304 6.85628 17.4286C4.97183 16.2146 3.30714 14.6678 1.96809 12.8926C0.742926 11.2832 0 9.38444 0 7.3392ZM5.02441 7.5677C5.02441 8.92736 6.13391 9.99677 7.49431 9.99677C8.85556 9.99677 9.9758 8.92736 9.9758 7.5677C9.9758 6.21863 8.85556 5.09718 7.49431 5.09718C6.13391 5.09718 5.02441 6.21863 5.02441 7.5677Z" fill="#F10027"/>
</svg>
