<svg width="39" height="87" viewBox="0 0 39 87" fill="none" xmlns="http://www.w3.org/2000/svg">
<path d="M39.0011 0L31.1345 55.4841V67.6906C31.1356 70.1427 30.7333 72.571 29.9506 74.8368C29.168 77.1027 28.0202 79.1616 26.5729 80.896C25.1256 82.6304 23.4072 84.0062 21.5158 84.9449C19.6244 85.8836 17.5971 86.3667 15.5498 86.3667C11.7564 86.3626 8.09421 84.7034 5.2483 81.6995C2.40239 78.6956 0.567692 74.5528 0.0874126 70.046C0.113876 69.5161 0.113876 68.9847 0.0874126 68.4548V65.7644C0.0874126 65.1467 0.131116 64.5395 0.0874126 63.9009L0 55.526V55.191L1.79185 47.6744L13.1548 0.0418757L39.0011 0Z" fill="#FFC42E"/>
</svg>
