<svg width="26" height="23" viewBox="0 0 26 23" fill="none" xmlns="http://www.w3.org/2000/svg">
<path d="M22.9585 2.43652C21.6192 1.05844 19.844 0.217335 17.9533 0.0651463C16.0627 -0.0870427 14.1813 0.459714 12.6491 1.60665C11.0417 0.379544 9.04086 -0.176886 7.04966 0.0494144C5.05845 0.275715 3.22474 1.26794 1.9178 2.82627C0.610854 4.38461 -0.0722454 6.3933 0.00605851 8.44785C0.0843625 10.5024 0.918254 12.4502 2.33981 13.899L10.1855 21.9642C10.8425 22.6278 11.7273 22.9997 12.6491 22.9997C13.5709 22.9997 14.4558 22.6278 15.1128 21.9642L22.9585 13.899C24.4336 12.3758 25.2616 10.3154 25.2616 8.16775C25.2616 6.02013 24.4336 3.95974 22.9585 2.43652ZM21.1771 12.1096L13.3314 20.1618C13.2421 20.2544 13.1358 20.3278 13.0187 20.3779C12.9016 20.4281 12.776 20.4539 12.6491 20.4539C12.5223 20.4539 12.3966 20.4281 12.2795 20.3779C12.1624 20.3278 12.0562 20.2544 11.9669 20.1618L4.1212 12.0707C3.13039 11.0312 2.57557 9.63487 2.57557 8.18072C2.57557 6.72656 3.13039 5.33021 4.1212 4.29074C5.13085 3.26766 6.49256 2.69399 7.91139 2.69399C9.33023 2.69399 10.6919 3.26766 11.7016 4.29074C11.819 4.41227 11.9588 4.50874 12.1127 4.57457C12.2667 4.6404 12.4318 4.67429 12.5986 4.67429C12.7654 4.67429 12.9305 4.6404 13.0845 4.57457C13.2384 4.50874 13.3782 4.41227 13.4956 4.29074C14.5053 3.26766 15.867 2.69399 17.2858 2.69399C18.7046 2.69399 20.0664 3.26766 21.076 4.29074C22.0804 5.31659 22.6535 6.70536 22.6724 8.15956C22.6913 9.61376 22.1545 11.0177 21.1771 12.0707V12.1096Z" fill="white"/>
</svg>
