<svg width="41" height="32" viewBox="0 0 41 32" fill="none" xmlns="http://www.w3.org/2000/svg">
<g clip-path="url(#clip0_22_4543)">
<path d="M39.5178 5.05129C38.7018 4.20308 37.5749 3.70187 36.2926 3.70187H29.8423V3.62476C29.8423 2.66088 29.4538 1.73556 28.7932 1.11868C28.1326 0.463249 27.2389 0.0776989 26.2675 0.0776989H14.6103C13.6 0.0776989 12.7063 0.463249 12.0457 1.11868C11.3852 1.77412 10.9966 2.66088 10.9966 3.62476V3.70187H4.58515C3.30286 3.70187 2.176 4.20308 1.36 5.05129C0.544001 5.86095 0 7.0176 0 8.25136V27.4517C0 28.7241 0.505144 29.8421 1.36 30.6518C2.176 31.4615 3.34172 32.0012 4.58515 32.0012H36.2926C37.5749 32.0012 38.7018 31.5 39.5178 30.6518C40.3338 29.8421 40.8778 28.6855 40.8778 27.4517V8.25136C40.8778 6.97904 40.3727 5.86095 39.5178 5.05129ZM38.8572 27.4517H38.8184C38.8184 28.1457 38.5464 28.7626 38.0801 29.2253C37.6138 29.6879 36.9921 29.9578 36.2926 29.9578H4.58515C3.88572 29.9578 3.26401 29.6879 2.79772 29.2253C2.33143 28.7626 2.05943 28.1457 2.05943 27.4517V8.25136C2.05943 7.55737 2.33143 6.94049 2.79772 6.47783C3.26401 6.01517 3.88572 5.74528 4.58515 5.74528H12.0846C12.6675 5.74528 13.1337 5.28262 13.1337 4.7043V3.5862C13.1337 3.1621 13.2892 2.77655 13.5612 2.50666C13.8332 2.23678 14.2217 2.08256 14.6492 2.08256H26.2675C26.6949 2.08256 27.0835 2.23678 27.3555 2.50666C27.6275 2.77655 27.7829 3.1621 27.7829 3.5862V4.7043C27.7829 5.28262 28.2492 5.74528 28.8321 5.74528H36.3315C37.0309 5.74528 37.6526 6.01517 38.1189 6.47783C38.5852 6.94049 38.8572 7.55737 38.8572 8.25136V27.4517Z" fill="white"/>
<path d="M20.4367 8.36758C17.7944 8.36758 15.3853 9.44712 13.6756 11.1435C11.927 12.8785 10.8778 15.2304 10.8778 17.8521C10.8778 20.4738 11.9658 22.8642 13.6756 24.5607C15.4241 26.2956 17.7944 27.3366 20.4367 27.3366C23.079 27.3366 25.4882 26.2571 27.1979 24.5607C28.9465 22.8257 29.9956 20.4738 29.9956 17.8521C29.9956 15.2304 28.9076 12.84 27.1979 11.1435C25.4882 9.44712 23.079 8.36758 20.4367 8.36758ZM25.7213 23.1341C24.3613 24.445 22.4962 25.2932 20.4367 25.2932C18.3773 25.2932 16.5121 24.445 15.1521 23.1341C13.7921 21.7847 12.9761 19.9341 12.9761 17.8907C12.9761 15.8472 13.831 13.9966 15.1521 12.6472C16.5121 11.2978 18.3773 10.4881 20.4367 10.4881C22.4962 10.4881 24.3613 11.3363 25.7213 12.6472C27.0813 13.9966 27.8973 15.8472 27.8973 17.8907C27.9362 19.9341 27.0813 21.7847 25.7213 23.1341Z" fill="white"/>
<path d="M34.2746 12.1061C35.3261 12.1061 36.1786 11.2603 36.1786 10.2169C36.1786 9.17355 35.3261 8.32773 34.2746 8.32773C33.223 8.32773 32.3706 9.17355 32.3706 10.2169C32.3706 11.2603 33.223 12.1061 34.2746 12.1061Z" fill="white"/>
</g>
<defs>
<clipPath id="clip0_22_4543">
<rect width="40.0935" height="31.3717" fill="white" transform="scale(1.02005)"/>
</clipPath>
</defs>
</svg>
