<svg width="33" height="39" viewBox="0 0 33 39" fill="none" xmlns="http://www.w3.org/2000/svg">
<path d="M29.6949 25.8736L30.0224 30.4287C30.0542 30.8514 30.0121 31.2752 29.8988 31.6728C29.7854 32.0704 29.6033 32.4332 29.3641 32.7378C29.1249 33.0423 28.8338 33.2821 28.5096 33.4416C28.1854 33.6011 27.8352 33.6769 27.4814 33.6641C23.5499 33.437 19.6937 32.1098 16.2227 29.7894C12.9968 27.6785 10.1802 24.7548 7.97307 21.2262C5.5491 17.4191 3.89359 13.0051 3.14067 8.34175C3.07885 7.92415 3.09002 7.49798 3.17348 7.09036C3.25693 6.68275 3.41084 6.30262 3.62539 5.97419C3.83995 5.64575 4.11046 5.37621 4.4197 5.18272C4.72894 4.98922 5.07013 4.87602 5.42156 4.85031L9.21885 4.57684C9.83261 4.52535 10.4469 4.7434 10.9472 5.19035C11.4475 5.6373 11.7997 6.28265 11.9382 7.00612C12.2032 8.45231 12.6034 9.86221 13.131 11.2089C13.3403 11.7401 13.4197 12.3281 13.3595 12.9032C13.2994 13.4783 13.1023 14.0164 12.7917 14.4537L11.3228 16.4978C13.398 20.1693 16.2481 23.1278 19.5724 25.0611L21.0413 23.017C21.3561 22.584 21.7704 22.2713 22.235 22.1161C22.6997 21.9609 23.1952 21.9697 23.6629 22.1414C24.8483 22.5727 26.0671 22.8433 27.2962 22.9481C27.9185 23.0078 28.5068 23.3389 28.949 23.8783C29.3913 24.4177 29.6568 25.1278 29.6949 25.8736Z" fill="#2AE01A"/>
</svg>
