<svg width="23" height="16" viewBox="0 0 23 16" fill="none" xmlns="http://www.w3.org/2000/svg">
<path opacity="0.21" d="M11.4986 0C6.27196 0 1.80841 3.24912 0 7.83549C1.80841 12.4219 6.27196 15.671 11.4986 15.671C16.7252 15.671 21.1888 12.4219 22.9972 7.83549C21.1888 3.24912 16.7252 0 11.4986 0ZM11.4986 13.0591C8.61349 13.0591 6.27196 10.7189 6.27196 7.83549C6.27196 4.95203 8.61349 2.61183 11.4986 2.61183C14.3837 2.61183 16.7252 4.95203 16.7252 7.83549C16.7252 10.7189 14.3837 13.0591 11.4986 13.0591ZM11.4986 4.70129C9.76334 4.70129 8.36261 6.10123 8.36261 7.83549C8.36261 9.56974 9.76334 10.9697 11.4986 10.9697C13.2338 10.9697 14.6346 9.56974 14.6346 7.83549C14.6346 6.10123 13.2338 4.70129 11.4986 4.70129Z" fill="#252525"/>
</svg>
