<svg width="22" height="32" viewBox="0 0 22 32" fill="none" xmlns="http://www.w3.org/2000/svg">
<path d="M21.4554 30.5532C20.8373 29.4756 19.8965 28.7244 18.8282 28.4554C16.3762 27.5534 15.6493 28.8225 12.6981 28.4554C11.2356 28.2771 9.97458 27.6478 7.44371 26.3577C5.37699 25.3089 4.97415 24.8579 4.81652 24.26C4.35238 22.5714 5.95497 20.8093 6.56798 20.1276C8.59092 17.8935 10.1322 18.5647 11.8224 17.0334C13.8716 15.1769 13.7227 12.2611 14.4496 8.77892C15.1375 5.59945 16.3461 2.61538 18.005 0C12.1114 2.37042 7.88158 8.63207 7.88158 16.0055V16.1209C7.0092 14.9281 5.93092 13.9764 4.7213 13.3317C3.51168 12.687 2.19958 12.3647 0.875731 12.387C0.577983 12.387 0.288991 12.387 0 12.4394V32.0006H21.8057C21.7587 31.4977 21.6402 31.0082 21.4554 30.5532Z" fill="#3BB243"/>
</svg>
