<svg width="45" height="36" viewBox="0 0 45 36" fill="none" xmlns="http://www.w3.org/2000/svg">
<path d="M3.84746 33.5202C4.01796 32.8022 4.12135 32.0506 4.37078 31.3724C5.37178 28.6465 6.95491 26.3803 8.60704 24.1795C11.4461 20.3978 14.6217 17.0408 17.9974 13.9401C18.0925 13.8639 18.1908 13.7934 18.2919 13.7288C18.6932 14.3262 19.0754 14.9126 19.4734 15.4835C19.9366 16.148 20.2438 16.186 20.716 15.554C22.4002 13.3072 24.4278 11.4526 26.6929 10.0869C27.2577 9.74207 27.7517 9.34129 27.9507 8.51921C28.094 7.92635 28.5612 7.80246 29.0247 8.1207C29.4654 8.42355 29.8879 8.76467 30.309 9.10507C30.9018 9.58421 30.9081 9.7891 30.3399 10.3111C28.4725 12.0265 26.6028 13.7382 24.7308 15.4463C19.7696 19.9709 14.8238 24.5195 9.83321 28.9998C8.16676 30.4963 6.38651 31.8174 4.65491 33.2123C4.46064 33.3689 4.24296 33.4856 4.03702 33.6207L3.84746 33.5202Z" fill="#FFC42E"/>
<path d="M23.3892 20.7217L23.147 20.7202C23.1538 19.5242 23.144 18.3276 23.1457 17.1316L21.0773 18.703C20.9781 21.5922 20.8805 24.4813 20.7845 27.3703C20.7693 27.8199 20.7655 28.2702 20.767 28.7204C20.7694 29.5004 21.2626 29.927 22.2077 29.9057C23.1138 29.8853 23.4832 29.4076 23.4728 28.7053C23.4432 26.681 23.407 24.6568 23.3802 22.6325C23.3719 21.9952 23.3855 21.3585 23.3892 20.7217Z" fill="#FFC42E"/>
<path d="M20.2283 11.0107C21.2279 11.567 21.307 12.4189 21.2737 13.3166C21.264 13.5823 21.2554 13.8479 21.2456 14.1136L23.244 13.1077C23.2466 13.059 23.2481 13.0102 23.251 12.9615C23.3303 12.2034 23.7402 11.4945 24.4061 10.964C27.4288 8.73187 28.052 4.15454 25.5591 1.51224C23.6296 -0.532905 20.6845 -0.50075 18.8886 1.58905C16.5795 4.27668 17.0166 9.22294 20.2283 11.0107ZM24.8151 3.17725C26.0069 4.7813 25.9874 6.9136 24.7865 8.18963L24.8151 3.17725Z" fill="#FFC42E"/>
<path d="M31.9347 2.80686L31.8975 9.22784L31.3815 9.22591C31.2935 7.16245 31.2055 5.09904 31.1173 3.03568L30.7869 3.02751L30.7508 9.25314L30.1708 9.25328L30.2073 2.94721L29.6601 2.94106L29.6238 9.2121L29.1089 9.21797L29.145 2.99724L28.6033 2.98435L28.5671 9.23852L27.9231 9.24592L27.9605 2.79655L27.3927 2.77024C27.3415 3.26256 27.2654 3.754 27.244 4.2475C27.1602 6.15879 27.0645 8.07045 27.0394 9.98267C27.0318 10.547 27.0519 11.2392 27.379 11.6599C29.7529 14.7133 29.2782 18.1469 28.9611 21.5263C28.6662 24.6693 28.1278 27.7916 27.7502 30.9286C27.5703 32.4186 28.3528 33.3398 29.6868 33.3844C31.0683 33.431 31.9492 32.4644 31.7824 30.9433C31.4379 27.8021 30.9043 24.6739 30.6958 21.5266C30.543 19.221 30.7382 16.891 30.8824 14.5774C30.9455 13.9526 31.2039 13.3585 31.6261 12.8679C32.6591 11.6705 32.7995 10.3414 32.7452 8.88487C32.6698 6.86364 32.7468 4.83755 32.7586 2.81337L31.9347 2.80686ZM29.2035 23.6424L29.3708 23.6058L29.319 32.5512C28.3752 32.2652 28.0913 31.7909 28.2028 31.0125C28.5543 28.5581 28.8723 26.0995 29.2035 23.6424Z" fill="#FFC42E"/>
<path d="M21.1165 31.773C16.24 31.7291 11.3633 31.7021 6.48643 31.6918C6.0458 31.9534 5.60527 32.2151 5.1684 32.4807C5.01037 32.5769 4.83273 32.649 4.66409 32.7324L4.50729 32.6733C4.6046 32.3531 4.67244 32.0223 4.77984 31.7058C4.28173 31.7364 3.77821 31.8107 3.61825 31.9614C2.35225 33.1495 1.26015 34.3957 -8.6858e-05 35.7373C13.6675 35.8189 26.9782 35.9014 40.2891 35.9634C40.6973 35.9659 41.2998 35.8164 41.483 35.6342C42.6709 34.4531 43.7675 33.2433 45 31.9292L30.9782 31.8455C30.9238 32.7445 30.2673 33.2944 29.3029 33.2636C28.3726 33.2339 27.78 32.7033 27.7462 31.8262L21.117 31.7867L21.1165 31.773Z" fill="#FFC42E"/>
</svg>
