<svg width="31" height="32" viewBox="0 0 31 32" fill="none" xmlns="http://www.w3.org/2000/svg">
<path d="M25.8288 10.6048L18.079 3.63202C17.3686 2.97987 16.4489 2.61932 15.4958 2.61932C14.5427 2.61932 13.623 2.97987 12.9125 3.63202L5.16275 10.6048C4.75249 10.9814 4.4251 11.4434 4.20239 11.96C3.97968 12.4765 3.86675 13.0359 3.87112 13.6008V25.1868C3.87112 26.2415 4.27937 27.2531 5.00605 27.9989C5.73273 28.7447 6.71833 29.1637 7.74601 29.1637H23.2456C24.2732 29.1637 25.2588 28.7447 25.9855 27.9989C26.7122 27.2531 27.1205 26.2415 27.1205 25.1868V13.5875C27.123 13.0249 27.0092 12.4681 26.7865 11.9539C26.5639 11.4398 26.2374 10.9799 25.8288 10.6048ZM18.079 26.5124H12.9125V19.8843C12.9125 19.5327 13.0486 19.1955 13.2908 18.9469C13.5331 18.6983 13.8616 18.5586 14.2042 18.5586H16.7874C17.13 18.5586 17.4585 18.6983 17.7007 18.9469C17.943 19.1955 18.079 19.5327 18.079 19.8843V26.5124ZM24.5372 25.1868C24.5372 25.5384 24.4011 25.8756 24.1589 26.1242C23.9167 26.3728 23.5881 26.5124 23.2456 26.5124H20.6623V19.8843C20.6623 18.8295 20.2541 17.818 19.5274 17.0722C18.8007 16.3264 17.8151 15.9074 16.7874 15.9074H14.2042C13.1765 15.9074 12.1909 16.3264 11.4642 17.0722C10.7375 17.818 10.3293 18.8295 10.3293 19.8843V26.5124H7.74601C7.40345 26.5124 7.07492 26.3728 6.83269 26.1242C6.59046 25.8756 6.45438 25.5384 6.45438 25.1868V13.5875C6.45461 13.3993 6.4939 13.2133 6.56962 13.0419C6.64534 12.8704 6.75576 12.7175 6.89354 12.5933L14.6433 5.63372C14.879 5.4212 15.182 5.30399 15.4958 5.30399C15.8095 5.30399 16.1126 5.4212 16.3483 5.63372L24.098 12.5933C24.2358 12.7175 24.3462 12.8704 24.422 13.0419C24.4977 13.2133 24.537 13.3993 24.5372 13.5875V25.1868Z" fill="white"/>
</svg>
