<svg width="59" height="34" viewBox="0 0 59 34" fill="none" xmlns="http://www.w3.org/2000/svg">
<path d="M59.0001 32.1708C58.9992 32.7002 58.9668 33.2289 58.9033 33.7528H0V13.7665C0.290598 13.7665 0.581195 13.7138 0.880599 13.7138C2.21577 13.6936 3.53843 14.024 4.75552 14.6818C5.97262 15.3396 7.05461 16.3088 7.92539 17.5212V17.4052C7.92539 7.79696 14.8293 0.00283237 23.3359 0.00283237C26.6131 -0.0661387 29.8224 1.12613 32.4918 3.40433C35.1611 5.68253 37.1497 8.92645 38.1651 12.6591H38.306C41.4674 12.6591 44.0299 17.1415 44.0299 22.6786C44.0299 22.9528 44.0299 23.227 44.0299 23.5012C45.6588 21.9389 47.6846 21.0905 49.7714 21.0966C52.2207 21.1021 54.568 22.2714 56.2982 24.3476C58.0284 26.4238 59.0001 29.2374 59.0001 32.1708Z" fill="#89C93C"/>
</svg>
