<svg width="24" height="26" viewBox="0 0 24 26" fill="none" xmlns="http://www.w3.org/2000/svg">
<path opacity="0.4" d="M10.0833 17H3.50777C2.67555 17 2 17.7071 2 18.5781C2 19.4479 2.67555 20.1562 3.50777 20.1562H10.0833C10.9155 20.1562 11.5911 19.4479 11.5911 18.5781C11.5911 17.7071 10.9155 17 10.0833 17Z" fill="#898A8D"/>
<path opacity="0.4" d="M21.9962 6.79371C21.9962 5.92385 21.3206 5.2168 20.4895 5.2168H13.914C13.0818 5.2168 12.4062 5.92385 12.4062 6.79371C12.4062 7.66474 13.0818 8.37179 13.914 8.37179H20.4895C21.3206 8.37179 21.9962 7.66474 21.9962 6.79371Z" fill="#898A8D"/>
<path d="M8.87774 6.79454C8.87774 8.78314 7.33886 10.3949 5.43887 10.3949C3.53999 10.3949 2 8.78314 2 6.79454C2 4.80712 3.53999 3.19531 5.43887 3.19531C7.33886 3.19531 8.87774 4.80712 8.87774 6.79454Z" fill="#898A8D"/>
<path d="M22.0027 18.5359C22.0027 20.5234 20.4639 22.1352 18.5639 22.1352C16.665 22.1352 15.125 20.5234 15.125 18.5359C15.125 16.5474 16.665 14.9355 18.5639 14.9355C20.4639 14.9355 22.0027 16.5474 22.0027 18.5359Z" fill="#898A8D"/>
</svg>
