<svg width="318" height="309" viewBox="0 0 318 309" fill="none" xmlns="http://www.w3.org/2000/svg">
<path d="M2.38657 204.363C-4.23104 123.161 66.041 43.124 148.436 36.7897C230.83 30.4553 295.064 59.229 301.682 140.431C308.299 221.634 262.138 257.845 179.743 264.179C97.3486 270.513 9.00418 285.565 2.38657 204.363Z" fill="#FFEDED"/>
<path d="M209.786 72.3768C209.214 65.3607 215.286 58.4453 222.405 57.898C229.524 57.3507 235.074 59.8368 235.646 66.8529C236.218 73.8691 232.23 76.9978 225.11 77.5451C217.991 78.0924 210.358 79.393 209.786 72.3768Z" fill="#F89945"/>
<path d="M8.35394 47.7064C-2.03159 38.987 -2.84257 21.2754 6.52344 10.7518C15.8895 0.228157 27.1655 -4.02983 37.5511 4.68957C47.9366 13.409 46.54 23.1281 37.174 33.6517C27.808 44.1753 18.7395 56.4258 8.35394 47.7064Z" fill="#FFEDED"/>
<path d="M312.014 253.211C321.721 262.639 318.066 283.412 304.548 296.542C291.029 309.672 273.085 311.596 267.226 306.155C261.368 300.713 261.647 285.18 275.165 272.051C288.684 258.921 302.307 243.783 312.014 253.211Z" fill="#FFEDED"/>
<path d="M49.2994 205.835C44.0601 210.45 34.9644 210.048 30.311 205.064C25.6576 200.08 24.3456 194.456 29.5848 189.842C34.8241 185.227 39.6748 186.335 44.3283 191.319C48.9817 196.303 54.5386 201.221 49.2994 205.835Z" fill="#FBD246"/>
<path d="M166.525 178.249C166.525 178.249 163.249 188.311 164.649 191.4C166.049 194.489 203.569 218.952 232.76 222.535C233.191 222.585 233.627 222.546 234.042 222.42C234.457 222.295 234.84 222.086 235.168 221.808C237.576 219.762 243.302 214.628 244.1 211.319C245.122 207.119 222.82 212.239 166.525 178.249Z" fill="#F89945"/>
<path d="M174.593 190.561C177.402 193.55 181.418 192.062 183.861 194.861C186.304 197.659 186.768 198.464 190.11 197.877C190.727 197.768 191.275 198.369 191.668 198.696C194.8 201.235 196.541 202.655 201.399 203.092C202.419 203.078 203.413 203.411 204.207 204.033C206.645 205.746 209.637 206.546 212.632 206.286C212.844 206.276 213.056 206.314 213.25 206.395C215.343 207.364 215.539 208.961 217.463 210.326C220.426 212.387 223.164 214.271 226.576 211.937C227.127 211.653 227.763 211.566 228.373 211.691C231.912 212.292 231.42 216.086 236.04 214.421C238.427 213.589 239.157 215.636 240.421 216.592C242.047 215.058 243.304 213.193 244.1 211.132C245.125 206.955 222.757 212.046 166.295 178.249C165.438 180.931 164.772 183.667 164.301 186.439C166.042 190.015 172.178 188.022 174.593 190.561Z" fill="#D77124"/>
<path opacity="0.55" d="M211.482 212.562C208.72 208.789 205.118 203.347 204.805 198.452C192 193.13 179.601 186.948 167.702 179.952C167.702 179.952 165.096 188.156 166.449 190.768C167.531 192.846 190.652 207.435 213.432 214.887C212.706 214.135 212.08 213.369 211.482 212.562Z" fill="#CD4200"/>
<path d="M208.719 174.935C208.719 174.935 175.25 164.031 172.143 166.757C169.036 169.483 166.734 176.475 168.33 179.433C169.926 182.39 202.11 196.906 207.208 199.632C226.753 210.1 242.273 208.656 243.149 208.915C244.024 209.174 252.441 202.958 249.744 195.421C247.23 188.347 214.424 177.92 208.719 174.935Z" fill="#BE5B2A"/>
<path d="M210.2 193.411C207.441 189.751 205.252 185.72 203.703 181.446C202.937 178.556 202.405 175.612 202.11 172.642C195.063 170.503 184.042 167.3 177.404 166.319C174.035 172.765 173.753 179.157 177.855 185.398C188.115 191.013 203.365 198.276 207.071 199.38C208.72 199.871 212.498 200.866 216.937 202.106C214.481 199.366 212.23 196.46 210.2 193.411Z" fill="#AE4D25"/>
<path d="M195.409 176.746C200.653 178.954 204.631 182.443 209.284 185.577C213.172 188.026 216.861 190.759 220.319 193.754C223.032 196.276 227.572 204.126 231.565 201.618C234.559 199.71 238.171 199.874 241.545 199.424C244.415 198.993 247.34 199.048 250.19 199.587C250.39 198.17 250.24 196.727 249.755 195.376C247.253 188.344 214.611 177.918 208.918 174.934C208.918 174.934 175.602 164.031 172.51 166.757C171.689 167.518 170.993 168.396 170.443 169.36C179.243 170.341 187.2 173.23 195.409 176.746Z" fill="#953E25"/>
<path d="M166.951 178.253C169.447 178.216 171.941 178.41 174.399 178.833C177.003 179.453 182.716 184.604 189.8 186.465C196.885 188.325 194.631 192.02 202.933 193.948C211.236 195.876 211.964 199.638 214.792 199.962C217.621 200.285 224.509 204.074 225.881 205.166C227.253 206.259 238.048 204.964 240.736 206.933C243.425 208.901 247.527 207.688 247.625 209.171C247.723 210.654 247.625 213.998 243.089 213C238.552 212.003 235.892 212.582 234.436 210.964C232.98 209.346 220.323 210.25 219.805 208.079C219.287 205.908 214.89 204.169 210.9 202.996C206.91 201.823 206.042 200.002 201.099 198.951C196.157 197.899 190.654 193.206 188.246 193.274C185.838 193.341 179.286 191.359 178.362 189.35C177.437 187.341 172.579 184.159 170.871 184.267C169.163 184.375 166.713 179.264 166.951 178.253Z" fill="#7BB027"/>
<path d="M172.086 177.111C172.086 177.001 172.086 176.878 172.24 177.029C172.698 176.924 173.171 176.887 173.64 176.919V176.796C174.215 176.892 174.859 176.796 175.406 176.796C175.4 176.765 175.4 176.732 175.406 176.701C176.57 177.129 177.758 177.494 178.964 177.794C180.043 178.355 181.149 179.872 179.72 180.665C179.062 181.021 178.319 180.774 178.039 181.649C177.98 181.986 177.995 182.331 178.085 182.661C178.174 182.992 178.335 183.299 178.558 183.563C179.9 184.594 181.424 185.377 183.054 185.873C184.301 186.297 186.851 187.241 187.677 185.696C188.014 185.299 187.425 184.684 187.565 184.165C187.672 183.879 187.861 183.628 188.109 183.444C188.358 183.26 188.655 183.149 188.966 183.126C189.657 183.395 190.383 183.57 191.124 183.645C191.983 184.067 192.884 184.401 193.813 184.643C194.577 185.018 195.316 185.438 196.027 185.901C196.391 186.352 196.741 186.912 197.133 187.268C197.526 187.623 197.638 188.867 196.965 189.414C196.559 189.742 195.957 189.523 195.564 189.605C195.078 189.748 194.608 189.94 194.164 190.18C194.104 190.412 194.096 190.654 194.14 190.89C194.183 191.125 194.277 191.349 194.416 191.547C194.542 191.67 194.626 191.683 194.724 191.916C196.559 192.531 198.044 194.021 199.935 194.445C200.039 194.55 200.167 194.628 200.308 194.674C200.45 194.719 200.601 194.729 200.748 194.705C201.154 194.954 201.599 195.139 202.065 195.251V195.115C202.109 195.178 202.172 195.226 202.247 195.251C202.26 195.229 202.267 195.203 202.267 195.176C202.267 195.15 202.26 195.124 202.247 195.101C203.648 195.101 201.812 193.269 201.644 192.818C201.042 191.26 203.045 191.451 204.068 191.67C206.645 192.34 210.19 193.761 211.633 196.167C211.513 196.628 211.217 197.027 210.805 197.281C210.393 197.535 209.897 197.626 209.419 197.534C209.125 197.671 208.509 197.78 208.13 197.972C208.13 197.972 207.99 198.273 207.934 198.355C208.063 198.564 208.218 198.757 208.397 198.929C208.719 199.517 209.797 199.763 210.232 199.968C210.313 200.023 210.403 200.065 210.498 200.091C210.728 200.248 210.978 200.376 211.24 200.473V200.337C211.605 200.514 212.361 200.61 212.641 200.091C213.762 199.489 212.837 197.124 214.925 197.958C216.116 198.423 217.432 199.722 218.707 198.983C219.632 199.12 220.332 199.079 221.005 199.735C221.425 201.731 219.716 201.813 218.203 202.469L218.049 202.551C218.049 202.715 217.923 202.879 217.867 203.043C217.811 203.208 217.937 203.221 217.951 203.317C217.965 203.282 217.965 203.243 217.951 203.208C218.105 203.782 219.352 204.711 219.828 204.575C220.935 205.819 223.134 204.178 224.283 203.604C225.038 203.161 225.848 202.812 226.692 202.565C227.631 202.36 228.177 202.852 228.962 202.811C229.909 203.46 230.616 204.39 230.979 205.463C231.245 206.352 230.979 207.787 232.184 208.033C235.252 210.138 238.936 205.299 242.088 205.203C242.294 205.181 242.503 205.198 242.702 205.255C242.902 205.311 243.088 205.406 243.249 205.533C243.411 205.66 243.545 205.817 243.644 205.995C243.743 206.173 243.804 206.369 243.825 206.57C243.937 207.35 243.349 208.019 243.447 208.771C243.478 208.955 243.548 209.131 243.652 209.288C243.755 209.444 243.891 209.579 244.049 209.682C244.208 209.786 244.387 209.857 244.575 209.891C244.763 209.924 244.956 209.92 245.142 209.879C246.025 209.701 246.305 208.812 247.019 208.443C247.426 208.213 247.899 208.118 248.366 208.173C248.833 208.228 249.27 208.429 249.609 208.747C249.949 209.065 250.174 209.481 250.25 209.934C250.326 210.388 250.249 210.853 250.031 211.259C249.477 212.001 248.769 212.621 247.953 213.078C247.137 213.535 246.232 213.819 245.296 213.911C244.321 214.588 243.143 214.93 241.948 214.882C241.634 214.83 241.338 214.707 241.081 214.524C240.824 214.341 240.614 214.103 240.467 213.827C240.321 213.552 240.242 213.247 240.236 212.937C240.23 212.626 240.298 212.319 240.435 212.039C240.799 211.013 241.766 209.619 240.883 208.73C240.663 208.578 240.413 208.469 240.149 208.41C239.886 208.352 239.612 208.344 239.346 208.389C239.079 208.433 238.824 208.529 238.595 208.669C238.366 208.81 238.168 208.993 238.011 209.209C237.341 209.876 236.762 210.625 236.288 211.437C235.76 212.122 235.116 212.714 234.383 213.187C234.173 213.187 234.159 213.187 234.075 213.283C231.595 213.283 230.054 210.863 230.363 208.389C229.97 207.391 229.466 205.231 227.995 207.022C227.569 207.654 227.243 208.345 227.028 209.072C226.629 209.676 226.273 210.306 225.964 210.959C225.32 211.396 224.566 211.653 223.783 211.702C223 211.75 222.218 211.587 221.523 211.232C219.744 210.45 218.2 209.236 217.04 207.705C216.059 206.543 215.205 205.655 216.298 204.274C216.606 203.864 217.418 203.18 217.404 202.579C217.376 202.235 217.216 201.915 216.956 201.682C216.697 201.449 216.356 201.32 216.003 201.321C214.308 200.514 213.692 202.688 212.809 203.686C212.21 204.275 211.435 204.665 210.595 204.8C209.755 204.935 208.892 204.808 208.13 204.438C206.94 204.014 203.311 202.428 204.166 200.802C204.53 200.077 205.665 200.036 206.113 199.434C206.316 199.04 206.379 198.592 206.293 198.159C206.206 197.726 205.976 197.334 205.637 197.042C205.189 196.536 203.157 195.347 203.157 196.673C202.975 197.015 203.157 197.603 203.059 198.04C202.886 198.487 202.741 198.943 202.625 199.407C202.023 199.653 201.672 200.364 201.224 200.692C200.659 201.112 199.984 201.368 199.277 201.43C199.119 201.411 198.959 201.411 198.8 201.43C196.76 200.608 194.943 199.335 193.491 197.712C192.977 197.161 192.574 196.521 192.3 195.826C192.118 194.937 192.875 194.308 192.847 193.433C192.847 191.943 190.171 189.92 189.625 192.066C189.358 193.16 189.961 193.925 189.401 195.033C189.036 195.73 188.616 196.4 187.719 196.4V196.482C183.405 195.894 187.818 191.246 185.324 189.523C184.525 188.977 182.424 188.32 181.514 188.84C180.113 189.633 181.836 191.273 180.113 191.957L179.776 191.847C177.941 191.478 175.574 189.66 175.882 187.541C176.008 186.721 176.975 186.174 176.989 185.395C176.828 184.648 176.376 183.991 175.728 183.563C175.534 183.323 175.275 183.141 174.98 183.037C174.686 182.934 174.367 182.912 174.061 182.975C173.122 183.126 173.108 183.645 173.15 184.479C173.262 186.461 173.038 187.473 171.147 188.485C170.346 188.385 169.574 188.128 168.878 187.729C168.182 187.329 167.576 186.796 167.098 186.161C166.454 185.067 167.098 183.208 167.098 182.059C166.944 181.185 165.039 180.501 164.297 180.337C161.173 178.519 162.489 173.406 166.272 175.224C167.584 176.106 168.648 177.295 169.368 178.683C170.068 179.64 171.819 181.417 172.926 179.804C173.809 178.546 172.057 178.013 172.142 176.865C172.226 176.878 171.889 177.138 172.086 177.111Z" fill="#9FCC29"/>
<path d="M185.713 161.528C185.713 161.528 173.422 160.031 167.81 163.496L168.175 165.694C168.175 165.694 187.93 169.253 200.628 177.126C213.327 185 226.474 194.949 229.995 198.697C229.995 198.697 244.812 191.956 257.174 198.171L258.17 196.136C255.99 192.906 253.042 190.221 249.569 188.303C244.195 185.498 205.048 174.228 185.713 161.528Z" fill="#FFCF08"/>
<path d="M235.608 194.886C232.802 195.339 230.501 195.832 230.501 195.832C217.873 185.799 208.528 178.014 198.355 173.327C188.593 168.776 178.35 165.283 167.81 162.91L168.175 165.144C168.175 165.144 187.93 168.762 200.628 176.767C213.327 184.771 226.474 194.886 229.995 198.697C229.995 198.697 244.812 191.844 257.174 198.162L258.17 196.092C247.745 191.734 239.298 194.27 235.608 194.886Z" fill="#EFA708"/>
<path d="M252.797 183.34C253.183 183.776 253.467 184.286 253.628 184.837C253.789 185.387 253.825 185.964 253.732 186.528C253.222 188.075 251.324 190.815 250.275 191.019C248.008 191.439 207.255 177.941 178.462 161.173C178.462 161.173 177.711 160.237 179.879 154.39C179.879 154.39 187.191 161.526 219.47 174.739C245.075 185.145 252.797 183.34 252.797 183.34Z" fill="#E72124"/>
<g style="mix-blend-mode:multiply" opacity="0.55">
<path d="M215.494 176.882C222.074 179.558 228.793 181.904 235.624 183.909C241.646 185.876 246.854 187.409 252.876 186.5C252.943 185.952 252.895 185.396 252.733 184.867C252.572 184.337 252.3 183.845 251.935 183.42C251.935 183.42 244.285 185.17 218.961 174.738C186.984 161.579 179.74 154.39 179.74 154.39C179.135 155.927 178.665 157.51 178.336 159.124C189.3 167.304 203.085 171.387 215.494 176.882Z" fill="#C42124"/>
</g>
<path d="M229.491 143.763C222.669 140.756 215.476 138.614 208.089 137.393C203.126 136.433 198.038 136.243 193.015 136.831C188.469 137.442 184.238 139.427 180.922 142.503C179.497 144.058 178.468 145.915 177.919 147.926C177.369 149.936 177.314 152.044 177.757 154.079C179.17 161.217 241.768 187.041 253.352 184.945C253.352 184.945 258.254 182.78 259.003 176.012C259.356 172.464 257.59 168.203 255.81 165.19C252.859 160.473 249.071 156.298 244.622 152.86C240.006 149.204 234.92 146.147 229.491 143.763Z" fill="#F89945"/>
<path d="M242.367 174.961C232.37 173.608 224.157 168.859 215.08 164.962C205.748 160.903 195.779 157.575 187.438 151.784C183.742 149.2 181.236 146.669 180.669 143.314C179.334 144.842 178.379 146.638 177.873 148.569C177.368 150.5 177.327 152.515 177.752 154.463C179.168 161.512 241.914 187.016 253.526 184.946C255.08 184.097 256.394 182.899 257.356 181.457C258.318 180.014 258.899 178.37 259.048 176.666C253.554 177.247 248.315 175.813 242.367 174.961Z" fill="#E8761F"/>
<g style="mix-blend-mode:screen" opacity="0.32">
<path d="M229.921 147.309C228.183 145.687 222.824 142.457 220.823 145.285C219.1 147.725 223.832 150.642 225.438 151.505C227.263 152.502 230.403 153.499 231.542 151.654C232.404 150.24 231.367 148.633 229.921 147.309Z" fill="#FDE5C1"/>
</g>
<g style="mix-blend-mode:screen" opacity="0.32">
<path d="M241.652 159.705C237.414 157.236 232.348 155.242 227.849 156.462C224.149 157.439 225.958 160.206 227.987 162.024C231.145 164.912 234.863 167.145 238.919 168.59C241.597 169.471 246.441 171.086 247.559 167.504C247.67 166.957 247.67 166.394 247.559 165.847C247.448 165.3 247.227 164.78 246.911 164.317C245.455 162.48 243.673 160.918 241.652 159.705Z" fill="#FDE5C1"/>
</g>
<path d="M209.919 145.391C209.919 146.11 208.982 146.722 207.771 146.722C206.561 146.722 205.559 146.216 205.533 145.497C205.507 144.778 206.483 144.166 207.693 144.166C208.904 144.166 209.906 144.685 209.919 145.391Z" fill="#FBD198"/>
<path d="M223.081 162.438C223.081 163.153 221.941 163.762 220.488 163.762C219.036 163.762 217.833 163.246 217.818 162.531C217.802 161.815 218.958 161.206 220.41 161.206C221.863 161.206 223.05 161.696 223.081 162.438Z" fill="#FBD198"/>
<path d="M237.99 167.544C237.99 168.263 237.053 168.875 235.83 168.875C234.606 168.875 233.63 168.356 233.604 167.65C233.578 166.945 234.554 166.319 235.765 166.319C236.975 166.319 237.977 166.838 237.99 167.544Z" fill="#FBD198"/>
<path d="M197.642 144.539C197.642 145.258 196.705 145.87 195.494 145.87C194.284 145.87 193.282 145.351 193.256 144.645C193.23 143.94 194.206 143.314 195.416 143.314C196.626 143.314 197.629 143.78 197.642 144.539Z" fill="#FBD198"/>
<path d="M254.661 169.248C254.661 169.967 253.537 170.579 252.069 170.579C250.601 170.579 249.429 170.06 249.398 169.354C249.367 168.648 250.538 168.023 251.991 168.023C253.443 168.023 254.583 168.555 254.661 169.248Z" fill="#FBD198"/>
<path d="M228.889 161.01C228.336 161.514 227.232 161.01 226.451 159.988C225.67 158.966 225.468 157.648 226.033 157.144C226.599 156.641 227.69 157.144 228.485 158.166C229.279 159.188 229.454 160.521 228.889 161.01Z" fill="#FBD198"/>
<path d="M244.112 162.976C243.905 163.636 242.522 163.935 241.139 163.661C239.755 163.387 238.69 162.652 238.897 161.992C239.103 161.332 240.487 161.034 241.87 161.308C243.253 161.581 244.303 162.329 244.112 162.976Z" fill="#FBD198"/>
<path d="M205.231 155.085C204.662 155.487 203.564 155.085 202.764 154.27C201.964 153.455 201.787 152.393 202.357 151.991C202.926 151.59 204.025 151.991 204.811 152.818C205.597 153.644 205.747 154.684 205.231 155.085Z" fill="#FBD198"/>
<path d="M216.643 155.959C216.109 156.371 215.014 155.812 214.207 154.708C213.401 153.604 213.184 152.382 213.718 151.97C214.251 151.557 215.346 152.117 216.153 153.221C216.96 154.325 217.176 155.547 216.643 155.959Z" fill="#FBD198"/>
<path d="M192.215 149.877C191.751 150.368 190.483 150.122 189.354 149.318C188.225 148.514 187.699 147.464 188.148 146.974C188.596 146.483 189.88 146.728 191.008 147.532C192.137 148.337 192.663 149.386 192.215 149.877Z" fill="#FBD198"/>
<path d="M237.649 155.104C237.071 155.465 235.974 155.104 235.195 154.189C234.415 153.273 234.256 152.334 234.834 151.972C235.411 151.611 236.508 151.972 237.288 152.888C238.067 153.803 238.226 154.743 237.649 155.104Z" fill="#FBD198"/>
<path d="M250.811 163.59C250.233 164.042 249.136 163.59 248.356 162.446C247.577 161.301 247.404 160.127 247.981 159.675C248.559 159.224 249.67 159.675 250.435 160.82C251.2 161.964 251.388 163.138 250.811 163.59Z" fill="#FBD198"/>
<path d="M216.588 144.845C216.01 145.295 214.913 144.845 214.133 143.704C213.354 142.564 213.195 141.379 213.772 140.929C214.35 140.479 215.447 140.929 216.227 142.069C217.006 143.209 217.165 144.394 216.588 144.845Z" fill="#FBD198"/>
<g style="mix-blend-mode:multiply" opacity="0.35">
<path d="M258.977 174.92C248.334 175.162 236.361 171.595 227.018 168.325C220.261 165.969 212.883 163.412 207.399 158.809C201.914 154.206 199.441 148.177 203.483 141.932C204.538 140.354 205.998 139.057 207.724 138.164C202.88 137.276 197.92 137.113 193.023 137.679C188.475 138.279 184.242 140.229 180.924 143.251C179.498 144.778 178.469 146.603 177.919 148.578C177.369 150.554 177.314 152.624 177.758 154.624C179.171 161.636 241.803 187.006 253.394 184.946C253.394 184.946 258.299 182.82 259.048 176.171C259.053 175.753 259.029 175.335 258.977 174.92Z" fill="#D48745"/>
</g>
<g style="mix-blend-mode:multiply" opacity="0.32">
<path d="M218.207 166.571L214.843 165.059C205.763 161.064 196.098 157.595 187.888 152.046C184.225 149.576 181.73 147.19 181.032 144.166C179.825 145.488 178.985 147.087 178.591 148.813C178.197 150.54 178.262 152.335 178.779 154.03C179.763 157.623 199.591 167.335 218.691 174.84C218.143 172.118 217.98 169.336 218.207 166.571Z" fill="#BA773D"/>
</g>
<path d="M154.653 214.591C154.653 214.591 122.335 188.574 105.216 195.681C88.0966 202.787 81.5427 205.663 77.7148 214.413C75.3701 219.753 73.9011 237.691 72.6581 243.51C71.4152 249.33 67.0082 262.064 85.7378 259.791C104.467 257.518 135.98 214.796 154.653 214.591Z" fill="#F89945"/>
<g style="mix-blend-mode:multiply" opacity="0.35">
<path d="M120.772 195.303H119.925H119.812C119.699 195.598 119.487 195.846 119.209 196.007C118.932 196.167 118.607 196.23 118.288 196.185C112.881 195.647 109.254 196.861 104.073 198.639C101.561 199.494 97.4249 201.838 94.6583 201.19C94.5522 201.148 94.4524 201.093 94.3619 201.025C93.7408 201.19 93.1197 201.342 92.5269 201.548C87.9394 203.051 86.8807 205.216 84.8198 209.366C83.4083 212.234 80.4158 219.017 76.8729 220.893C77.0827 222.864 77.3936 224.825 77.8045 226.766C78.3069 229.17 78.4023 231.639 78.0868 234.073C77.6351 236.707 76.4353 239.285 73.4146 239.189C73.2875 240.044 73.1746 240.816 73.0617 241.519C74.2267 243.512 74.9617 245.718 75.2214 247.999C75.3343 250.467 74.5438 252.921 74.7979 255.155C76.52 256.189 76.9576 257.733 77.3951 259.581C80.1543 260.146 82.9963 260.212 85.7797 259.774C104.469 257.471 135.988 214.467 154.649 214.274C154.649 214.233 136.92 199.839 120.772 195.303Z" fill="#E09945"/>
</g>
<path d="M88.5284 211.371C88.2169 211.961 88.0335 212.609 87.9903 213.273C87.9471 213.938 88.045 214.603 88.2775 215.228C88.5101 215.852 88.8723 216.422 89.3407 216.899C89.8091 217.377 90.3733 217.752 90.9971 218C92.1792 218.345 93.4281 218.402 94.6373 218.166C100.328 217.379 105.418 214.423 110.523 211.827C115.628 209.231 121.192 206.883 126.897 207.435C128.459 207.587 129.993 207.96 131.569 207.988C133.147 208.114 134.711 207.618 135.921 206.607C137.097 205.191 137.76 203.426 137.803 201.594C138.068 199.674 138.236 197.45 136.883 196.069C136.046 195.227 134.805 194.882 133.94 194.067C133.065 192.983 132.364 191.772 131.862 190.476C131.071 189.136 129.877 188.074 128.447 187.438C127.017 186.801 125.422 186.623 123.884 186.927C123.243 187.065 122.49 187.521 122.629 188.156C122.769 188.791 123.647 188.847 124.289 188.722C124.93 188.598 125.683 188.446 126.116 188.971C126.548 189.496 126.116 190.352 125.432 190.518C124.786 190.672 124.108 190.639 123.48 190.421C119.683 189.549 115.742 189.483 111.918 190.228C111.262 190.312 110.636 190.548 110.091 190.918C109.824 191.113 109.626 191.386 109.523 191.698C109.421 192.01 109.419 192.345 109.519 192.658C109.993 193.749 111.918 193.777 112.099 194.951C112.12 195.244 112.046 195.535 111.888 195.784C111.73 196.032 111.496 196.224 111.22 196.332C110.667 196.53 110.077 196.606 109.491 196.553L104.303 196.456C103.438 195.812 102.436 195.373 101.374 195.172C100.84 195.085 100.293 195.173 99.8148 195.422C99.3365 195.671 98.9534 196.068 98.7238 196.553C98.3193 197.713 99.1282 199.204 98.3193 200.13C97.9389 200.442 97.4604 200.613 96.9664 200.613C96.4724 200.613 95.9939 200.442 95.6136 200.13C94.8569 199.498 94.0552 198.921 93.2147 198.403C92.4743 198.12 91.6594 198.092 90.9008 198.322C90.1421 198.553 89.4835 199.029 89.0305 199.674C88.6038 200.326 88.3596 201.079 88.3229 201.856C88.2861 202.632 88.4581 203.404 88.8213 204.093C89.4489 205.364 90.6484 206.482 90.5787 207.891C90.5089 209.3 89.2537 210.156 88.5284 211.371Z" fill="#9FCC29"/>
<path d="M132.291 193.907C131.497 192.864 131.037 191.616 130.326 190.518C130.01 189.944 129.552 189.456 128.994 189.102C128.437 188.747 127.797 188.536 127.135 188.488C127.353 188.636 127.537 188.828 127.675 189.051C127.813 189.275 127.901 189.524 127.934 189.783C127.967 190.042 127.944 190.305 127.866 190.555C127.788 190.804 127.658 191.035 127.483 191.232C127.367 191.36 127.236 191.475 127.093 191.575C127.437 192.003 127.74 192.463 127.999 192.946C128.556 194.099 129.044 195.278 129.504 196.458C130.187 198.214 131.162 200.217 130.354 202.069C129.546 203.92 127.037 203.248 127.079 201.753C127.029 201.675 126.987 201.592 126.954 201.506C126.444 199.254 125.584 197.093 124.404 195.1C123.54 193.728 122.397 192.672 121.463 191.424C119.351 190.853 117.146 190.69 114.97 190.944C114.426 190.944 113.757 191.204 113.576 191.739C113.395 192.274 113.98 192.741 114.51 192.933C115.065 193.034 115.592 193.249 116.057 193.564C116.205 193.754 116.311 193.974 116.367 194.207C116.423 194.441 116.428 194.684 116.382 194.92C116.336 195.156 116.24 195.379 116.1 195.576C115.959 195.772 115.779 195.937 115.569 196.06C114.691 196.525 113.681 196.689 112.698 196.527C112.091 196.479 111.48 196.479 110.873 196.527C110.68 196.572 110.485 196.604 110.288 196.623C110.106 196.659 109.928 196.714 109.758 196.787C108.927 197.267 108.199 197.901 107.612 198.653C107.314 199.027 106.933 199.33 106.498 199.539C106.064 199.749 105.587 199.858 105.104 199.86C103.71 199.682 102.512 197.898 101.16 198.488C99.8085 199.078 100.324 201.52 99.1118 202.604C98.7335 202.855 98.2908 202.996 97.8348 203.01C97.3788 203.025 96.9278 202.912 96.5338 202.686C95.7116 202.316 95.0009 201.712 94.1509 201.314C93.7431 201.11 93.2816 201.033 92.8283 201.095C92.375 201.156 91.9515 201.352 91.6148 201.657C91.3379 202.113 91.2132 202.642 91.2582 203.171C91.3032 203.701 91.5156 204.202 91.8656 204.606C92.5904 205.412 93.0729 206.4 93.2591 207.46C93.2591 209.531 90.4721 210.56 89.8311 212.535C89.6479 213.358 89.717 214.215 90.0296 214.999C90.3422 215.783 90.8842 216.458 91.5869 216.939C92.3542 217.531 93.2159 217.995 94.137 218.31L94.6804 218.242C100.366 217.46 105.452 214.524 110.552 211.945C115.653 209.366 121.213 207.034 126.912 207.583C128.473 207.734 130.006 208.104 131.58 208.132C133.157 208.257 134.719 207.764 135.928 206.76C137.103 205.354 137.766 203.601 137.809 201.781C137.974 200.802 138.021 199.807 137.948 198.818C136.374 196.911 133.796 195.854 132.291 193.907Z" fill="#73A624"/>
<path d="M82.7131 221.654C82.7131 221.654 84.818 210.621 85.0706 208.936C85.0706 208.936 92.213 213.518 99.3134 212.477L106.4 220.035C106.4 220.035 91.4693 226.42 82.7131 221.654Z" fill="#FFCF08"/>
<g style="mix-blend-mode:multiply" opacity="0.35">
<path d="M98.948 213.197L98.2336 213.278C97.6361 214.757 96.6576 216.074 95.3859 217.111C94.1142 218.147 92.5889 218.871 90.9467 219.217C89.7471 219.391 88.5198 219.262 87.3902 218.845C86.2606 218.427 85.2691 217.734 84.5171 216.838C84.0313 219.445 83.5884 221.783 83.5884 221.783C91.6897 226.204 105.52 220.278 105.52 220.278L98.948 213.197Z" fill="#E6B970"/>
</g>
<path d="M85.9257 209.79C85.6737 211.633 83.5884 223.051 83.5884 223.051C84.2182 223.409 84.1622 223.175 84.848 223.423C84.6241 219.887 87.1993 212.142 87.1993 212.142C95.8625 214.453 100.453 214.522 99.1655 213.022C94.561 212.938 90.0353 211.833 85.9257 209.79Z" fill="#EFA708"/>
<path d="M91.5052 223.142C91.5189 223.235 91.5189 223.329 91.5052 223.422C96.6435 223.121 101.687 221.946 106.403 219.952L103.338 218.31C99.9551 219.137 91.0633 220.699 91.5052 223.142Z" fill="#EFA708"/>
<path d="M99.3628 231.116C99.4304 229.208 99.2809 227.299 98.9172 225.423C98.7918 224.583 98.6525 223.729 98.5272 222.875C98.4018 222.021 97.7612 221.696 97.037 221.75C96.3207 221.894 95.6138 222.08 94.9201 222.306C93.3602 222.631 91.8422 221.75 90.4077 221.072C87.8032 219.839 84.9476 219.191 82.0514 219.175C80.7337 219.095 79.4199 219.382 78.2632 220.001C77.6925 220.328 77.2441 220.824 76.9836 221.417C76.723 222.009 76.6639 222.667 76.8148 223.295C77.4555 225.274 80.4637 225.708 81.2158 227.659C81.3411 227.985 81.355 228.432 81.0347 228.608C80.7144 228.784 80.3105 228.513 80.018 228.269C78.7394 227.126 77.139 226.38 75.4221 226.128C74.5556 226.013 73.6736 226.084 72.8386 226.337C72.0035 226.59 71.2357 227.018 70.5894 227.592C69.9544 228.183 69.5088 228.94 69.3061 229.772C69.1035 230.604 69.1525 231.476 69.4474 232.281C69.7812 233.068 70.3917 233.715 71.1697 234.104C71.9478 234.494 72.8428 234.602 73.6951 234.409C74.5865 234.165 75.5892 233.555 76.3413 234.084C76.4816 234.226 76.5884 234.397 76.6541 234.583C76.7198 234.77 76.7428 234.968 76.7216 235.164C76.7004 235.36 76.6354 235.55 76.5312 235.719C76.4271 235.888 76.2862 236.033 76.1184 236.144C75.7584 236.352 75.3547 236.478 74.9376 236.513C74.5205 236.549 74.1005 236.492 73.7091 236.347C72.9072 236.071 72.0825 235.863 71.244 235.724C70.401 235.673 69.5626 235.877 68.8441 236.309C68.1257 236.741 67.5628 237.38 67.2329 238.136C66.9332 238.902 66.8462 239.732 66.9806 240.541C67.1151 241.35 67.4664 242.11 67.9989 242.745C68.5497 243.366 69.2317 243.865 69.9984 244.206C70.7651 244.548 71.5985 244.724 72.4417 244.724C74.0805 244.584 75.6974 244.261 77.2605 243.761C81.5779 242.799 86.2295 243.585 90.4495 242.23C92.8726 241.402 95.0007 239.915 96.5807 237.945C98.1608 235.974 99.1264 233.604 99.3628 231.116Z" fill="#9FCC29"/>
<path d="M78.4273 234.479C78.8148 235.642 77.7631 236.861 76.6007 237.282C75.4011 237.509 74.1756 237.561 72.9614 237.436C72.3571 237.377 71.7481 237.475 71.1914 237.72C70.6347 237.965 70.1486 238.349 69.7787 238.837C69.4932 239.517 69.4777 240.283 69.7355 240.974C69.9932 241.666 70.5043 242.23 71.1625 242.55C72.5233 243.123 74.0438 243.173 75.4384 242.69C78.026 241.976 80.4061 240.532 83.0491 240.028C84.8204 239.678 86.647 239.776 88.4459 239.551C90.2685 239.456 91.9862 238.659 93.2476 237.324C94.0607 236.205 94.6055 234.909 94.8389 233.54C95.7085 229.848 96.3463 226.104 96.7485 222.331C94.4376 223.48 91.85 224.671 89.3592 223.984C88.3708 223.664 87.4372 223.192 86.5916 222.583C85.7356 221.97 84.8055 221.471 83.8241 221.098C83.3285 220.918 82.8022 220.841 82.2766 220.872C81.751 220.903 81.2372 221.042 80.7659 221.28C80.3018 221.537 79.9364 221.945 79.7282 222.438C79.52 222.931 79.481 223.48 79.6174 223.998C79.8234 224.425 80.1221 224.799 80.4911 225.093C80.8602 225.387 81.29 225.592 81.7484 225.694C82.6644 225.874 83.5628 226.137 84.4329 226.478C84.8565 226.668 85.2145 226.981 85.461 227.378C85.7076 227.775 85.8314 228.237 85.8167 228.706C85.7317 229.079 85.5515 229.423 85.2941 229.703C85.0367 229.984 84.7111 230.191 84.3499 230.304C83.1424 230.654 81.8488 230.534 80.7244 229.967C79.5759 229.491 78.5104 228.804 77.348 228.37C76.7763 228.117 76.1591 227.986 75.5352 227.986C74.9113 227.986 74.2941 228.117 73.7225 228.37C73.1819 228.663 72.7737 229.155 72.583 229.745C72.3922 230.335 72.4336 230.977 72.6985 231.537C73.0797 231.956 73.5444 232.289 74.062 232.514C74.5795 232.739 75.1383 232.85 75.7013 232.84C76.8498 233.008 78.0814 233.386 78.4273 234.479Z" fill="#73A624"/>
<path d="M83.5884 241.525C83.5859 241.886 83.6883 242.241 83.8847 242.553C84.0811 242.865 84.3644 243.122 84.705 243.297C85.3858 243.656 86.155 243.845 86.9381 243.848C89.1399 243.977 91.3398 243.57 93.3184 242.666C95.7622 241.572 97.6869 239.685 98.7272 237.363C99.2337 236.208 99.4498 234.961 99.3594 233.716C99.269 232.472 98.8743 231.263 98.2052 230.181C97.5088 229.111 96.5132 228.236 95.3237 227.648C94.1342 227.059 92.795 226.779 91.4478 226.838C90.4618 226.918 89.3162 227.388 89.2437 228.301C89.1712 229.214 90.2588 229.832 90.6938 230.677C90.8335 230.979 90.8843 231.309 90.841 231.635C90.7977 231.96 90.6618 232.269 90.4473 232.53C90.2243 232.786 89.9332 232.984 89.6027 233.104C89.2722 233.224 88.9136 233.262 88.5622 233.215C87.3731 233.054 86.3871 231.872 85.2125 232.127C84.7599 232.248 84.367 232.511 84.1021 232.871C83.8372 233.232 83.7171 233.667 83.7624 234.101C83.8891 234.948 84.1685 235.769 84.589 236.531C85.0127 237.297 85.1308 238.176 84.9225 239.015C84.676 239.914 83.7189 240.585 83.5884 241.525Z" fill="#9FCC29"/>
<path d="M97.3355 230.108C96.6059 229.959 95.9179 229.662 95.3181 229.236C94.7176 228.806 93.9951 228.561 93.2465 228.534C92.8781 228.533 92.5233 228.667 92.2541 228.909C91.985 229.15 91.8218 229.481 91.7977 229.834C91.7977 230.368 92.3257 230.771 92.5965 231.239C92.7827 231.562 92.8803 231.924 92.8803 232.293C92.8803 232.662 92.7827 233.024 92.5965 233.347C92.3981 233.662 92.1208 233.925 91.7898 234.111C91.4587 234.298 91.0844 234.401 90.701 234.413C90.1517 234.364 89.6081 234.268 89.0762 234.127C88.7786 234.023 88.4541 234.015 88.1508 234.102C87.8475 234.189 87.5813 234.367 87.3916 234.611C87.2019 234.854 87.0987 235.15 87.0973 235.454C87.0959 235.758 87.1963 236.054 87.3837 236.3C87.9264 237.455 88.8893 238.38 90.0917 238.901C91.2849 239.447 92.6056 239.684 93.9235 239.591C95.5291 239.568 97.0853 239.053 98.3646 238.121C98.9981 237.619 99.4989 236.98 99.8261 236.257C100.153 235.533 100.297 234.745 100.247 233.958C100.175 233.174 99.8533 232.431 99.3248 231.83C98.7963 231.229 98.0873 230.8 97.2949 230.602L97.3355 230.108Z" fill="#73A624"/>
<path d="M124.941 202.172L127.085 206.38L145.875 205.496L145.468 202.045C145.468 202.045 139.681 194.036 133.39 193.629C127.099 193.222 124.17 197.01 124.941 202.172Z" fill="#D12424"/>
<path d="M124.943 202.12H145.875C145.875 202.12 139.974 194.04 133.559 193.63C127.143 193.22 124.157 196.913 124.943 202.12Z" fill="#EA3333"/>
<path d="M129.906 199.815C130.565 200.081 132.768 201.757 133.026 201.798C132.446 200.827 131.8 199.894 131.094 199.005C131.094 199.005 132.425 197.609 136.317 199.131C136.317 199.131 135.601 200.625 136.717 201.435C137.833 202.245 137.805 199.69 137.733 199.327C137.662 198.964 140.38 199.941 141.811 202.008H145.875C145.875 202.008 139.965 194.034 133.541 193.629C127.116 193.224 124.126 196.981 124.956 202.12H129.076C129.162 201.156 129.448 199.62 129.906 199.815Z" fill="#C91D1D"/>
<path d="M132.253 196.743C134.387 196.602 136.521 197.015 138.438 197.94C140.356 198.865 141.988 200.268 143.17 202.008H145.875C145.875 202.008 139.965 194.034 133.541 193.629C127.116 193.224 124.126 196.981 124.956 202.12H126.916C126.687 197.707 129.377 196.869 132.253 196.743Z" fill="#FF3333"/>
<path d="M130.964 201.011C130.964 201.228 130.841 201.33 130.608 201.228C130.481 201.178 130.368 201.101 130.278 201.004C130.187 200.906 130.122 200.791 130.087 200.667C130.087 200.45 130.224 200.361 130.457 200.45C130.582 200.501 130.693 200.578 130.781 200.675C130.869 200.773 130.932 200.888 130.964 201.011Z" fill="#FF7E70"/>
<path d="M133.598 200.144C133.598 200.363 133.48 200.473 133.245 200.385C133.111 200.335 132.995 200.259 132.903 200.164C132.812 200.068 132.75 199.956 132.721 199.836C132.721 199.616 132.839 199.506 133.074 199.594C133.206 199.646 133.322 199.722 133.413 199.817C133.504 199.913 133.567 200.024 133.598 200.144Z" fill="#FF7E70"/>
<path d="M135.349 200.986C135.349 201.203 135.237 201.322 134.99 201.243C134.859 201.186 134.745 201.107 134.655 201.011C134.566 200.916 134.503 200.806 134.471 200.689C134.471 200.471 134.583 200.362 134.83 200.441C134.96 200.496 135.075 200.574 135.164 200.668C135.254 200.762 135.317 200.87 135.349 200.986Z" fill="#FF7E70"/>
<path d="M139.741 201.004C139.741 201.211 139.622 201.327 139.384 201.237C139.256 201.182 139.143 201.105 139.053 201.009C138.963 200.913 138.899 200.801 138.863 200.681C138.863 200.461 138.982 200.358 139.235 200.448C139.363 200.501 139.475 200.579 139.562 200.675C139.65 200.771 139.711 200.884 139.741 201.004Z" fill="#FF7E70"/>
<path d="M95.3161 202.279L92.3645 204.997L107.33 228.533L110.697 228.003C111.91 225.655 112.542 223.06 112.542 220.427C112.542 217.795 111.91 215.2 110.697 212.851C106.485 204.929 100.222 201.287 95.3161 202.279Z" fill="#D12424"/>
<path d="M94.9982 202.277L110.665 227.681C111.9 225.36 112.544 222.794 112.544 220.192C112.544 217.589 111.9 215.024 110.665 212.702C106.374 204.897 99.9946 201.296 94.9982 202.277Z" fill="#EA3333"/>
<path d="M101.199 208.323C101.397 209.129 101.199 211.856 101.341 212.098C101.482 212.339 102.909 209.76 102.909 209.76C102.909 209.76 105.479 211.372 106.652 216.088C106.652 216.088 104.505 215.228 104.448 216.585C104.392 217.941 107.16 217.928 107.499 217.807C107.838 217.686 108.813 221.031 107.612 222.764L110.663 227.681C111.9 225.36 112.544 222.794 112.544 220.192C112.544 217.589 111.9 215.024 110.663 212.702C106.426 204.897 99.9986 201.296 94.9982 202.277L98.0776 207.234C99.1652 207.422 101.058 207.758 101.199 208.323Z" fill="#C91D1D"/>
<path d="M106.2 211.103C108.827 215.134 111.031 219.983 108.644 224.417L110.663 227.681C111.9 225.36 112.544 222.794 112.544 220.192C112.544 217.589 111.9 215.024 110.663 212.702C106.426 204.897 99.9986 201.296 94.9982 202.277L96.4107 204.642C101.002 204.359 103.926 207.611 106.2 211.103Z" fill="#FF3333"/>
<path d="M100.825 209.788C100.601 209.788 100.363 209.542 100.294 209.07C100.245 208.886 100.246 208.683 100.295 208.5C100.344 208.318 100.439 208.169 100.559 208.084C100.783 208.084 101.021 208.33 101.105 208.803C101.149 208.989 101.145 209.192 101.093 209.374C101.041 209.556 100.946 209.703 100.825 209.788Z" fill="#FF7E70"/>
<path d="M103.45 212.344C103.323 212.352 103.196 212.321 103.097 212.256C102.998 212.191 102.934 212.097 102.919 211.996C102.876 211.899 102.883 211.793 102.937 211.701C102.991 211.609 103.089 211.537 103.209 211.502C103.438 211.454 103.668 211.609 103.74 211.841C103.783 211.938 103.777 212.046 103.723 212.14C103.669 212.234 103.571 212.307 103.45 212.344Z" fill="#FF7E70"/>
<path d="M104.332 214.895C104.211 214.921 104.088 214.866 103.991 214.741C103.893 214.617 103.828 214.433 103.809 214.23C103.781 214.133 103.767 214.026 103.767 213.919C103.766 213.811 103.78 213.705 103.808 213.607C103.835 213.51 103.875 213.424 103.925 213.357C103.975 213.289 104.033 213.241 104.095 213.216C104.157 213.191 104.222 213.19 104.285 213.213C104.347 213.236 104.406 213.283 104.456 213.349C104.507 213.415 104.548 213.499 104.576 213.596C104.605 213.692 104.62 213.798 104.621 213.906C104.659 214.101 104.65 214.314 104.596 214.499C104.542 214.683 104.447 214.825 104.332 214.895Z" fill="#FF7E70"/>
<path d="M106.968 220.014C106.742 220.014 106.503 219.903 106.433 219.671C106.386 219.574 106.39 219.466 106.442 219.371C106.495 219.276 106.592 219.201 106.714 219.162C106.843 219.158 106.97 219.192 107.069 219.258C107.167 219.323 107.232 219.415 107.249 219.516C107.292 219.611 107.286 219.716 107.234 219.809C107.181 219.901 107.086 219.974 106.968 220.014Z" fill="#FF7E70"/>
<path d="M94.5686 201.439L91.4893 204.156L107.103 227.681L110.616 227.152C111.883 224.803 112.544 222.206 112.544 219.572C112.544 216.939 111.883 214.342 110.616 211.993C106.221 204.047 99.7009 200.407 94.5686 201.439Z" fill="#D12424"/>
<path d="M94.9982 201.443L110.662 227.681C111.899 225.283 112.544 222.632 112.544 219.943C112.544 217.254 111.899 214.603 110.662 212.204C106.372 204.105 100.008 200.389 94.9982 201.443Z" fill="#EA3333"/>
<path d="M101.207 207.674C101.405 208.507 101.207 211.323 101.362 211.573C101.518 211.823 102.915 209.159 102.915 209.159C102.915 209.159 105.497 210.824 106.654 215.694C106.654 215.694 104.509 214.806 104.453 216.207C104.396 217.608 107.162 217.595 107.501 217.484C107.84 217.373 108.813 220.8 107.628 222.589L110.662 227.681C111.899 225.282 112.544 222.63 112.544 219.939C112.544 217.249 111.899 214.597 110.662 212.197C106.428 204.136 100.008 200.418 94.9982 201.431L98.0886 206.592C99.1893 206.745 101.08 207.091 101.207 207.674Z" fill="#C91D1D"/>
<path d="M106.203 210.546C108.841 214.709 111.029 219.731 108.644 224.296L110.662 227.681C111.899 225.282 112.544 222.63 112.544 219.939C112.544 217.249 111.899 214.597 110.662 212.197C106.428 204.136 100.008 200.418 94.9982 201.431L96.4093 203.886C101.01 203.581 103.931 207.022 106.203 210.546Z" fill="#FF3333"/>
<path d="M99.9628 208.936C99.7353 208.936 99.4793 208.812 99.4082 208.584C99.3371 208.357 99.4082 208.119 99.6784 208.088C99.9486 208.057 100.148 208.202 100.233 208.44C100.318 208.678 100.19 208.895 99.9628 208.936Z" fill="#FF7E70"/>
<path d="M103.153 212.343C102.898 212.36 102.644 212.298 102.443 212.171C102.243 212.044 102.11 211.861 102.074 211.658C101.986 211.461 101.999 211.244 102.109 211.054C102.219 210.864 102.417 210.716 102.663 210.641C102.914 210.645 103.157 210.716 103.353 210.842C103.549 210.969 103.685 211.144 103.742 211.339C103.798 211.535 103.771 211.74 103.664 211.922C103.558 212.104 103.378 212.252 103.153 212.343Z" fill="#FF7E70"/>
<path d="M103.455 214.045C103.395 214.052 103.334 214.05 103.275 214.037C103.216 214.024 103.16 214.002 103.112 213.971C103.063 213.94 103.023 213.901 102.992 213.857C102.961 213.812 102.942 213.763 102.934 213.713C102.906 213.664 102.891 213.611 102.891 213.557C102.891 213.504 102.905 213.45 102.932 213.402C102.96 213.353 103 213.311 103.049 213.277C103.099 213.243 103.157 213.219 103.219 213.207C103.281 213.194 103.345 213.194 103.408 213.205C103.47 213.217 103.529 213.24 103.579 213.273C103.629 213.306 103.67 213.348 103.698 213.396C103.727 213.444 103.742 213.497 103.743 213.551C103.763 213.599 103.771 213.65 103.768 213.702C103.764 213.753 103.748 213.803 103.722 213.849C103.695 213.895 103.658 213.936 103.612 213.969C103.566 214.003 103.513 214.029 103.455 214.045Z" fill="#FF7E70"/>
<path d="M106.966 219.162C106.74 219.162 106.499 219.05 106.428 218.814C106.386 218.717 106.391 218.611 106.444 218.518C106.497 218.424 106.592 218.35 106.711 218.31C106.938 218.31 107.178 218.422 107.249 218.657C107.292 218.754 107.286 218.86 107.234 218.954C107.181 219.048 107.085 219.122 106.966 219.162Z" fill="#FF7E70"/>
<path d="M123.216 203.133C123.792 202.829 124.278 202.382 124.626 201.836C124.787 201.418 124.852 200.969 124.815 200.523C124.779 200.077 124.642 199.645 124.415 199.257C123.949 198.257 123.277 197.364 122.441 196.636C121.801 196.033 121.014 195.606 120.156 195.396C119.729 195.288 119.284 195.274 118.85 195.353C118.417 195.433 118.006 195.604 117.646 195.856C117.294 196.118 117.03 196.479 116.889 196.892C116.748 197.305 116.737 197.75 116.857 198.17C116.333 197.387 115.614 196.752 114.769 196.324C113.925 195.897 112.982 195.692 112.034 195.73C110.871 195.788 109.775 196.288 108.974 197.124C108.58 197.533 108.295 198.033 108.144 198.578C107.994 199.123 107.984 199.697 108.114 200.247C108.274 200.787 108.595 201.266 109.036 201.622C109.476 201.977 110.015 202.193 110.582 202.241C109.878 201.986 109.113 201.946 108.385 202.124C107.658 202.302 107.001 202.69 106.498 203.24C105.995 203.789 105.67 204.475 105.563 205.208C105.457 205.942 105.574 206.69 105.9 207.357C106.236 207.973 106.711 208.505 107.288 208.911C107.865 209.317 108.529 209.587 109.228 209.699C110.663 209.92 112.132 209.726 113.458 209.142C114.736 208.561 115.954 207.861 117.096 207.05L123.216 203.133Z" fill="#FFCF08"/>
<path d="M122.495 203.086C122.756 202.719 122.935 202.302 123.018 201.862C123.102 201.423 123.088 200.971 122.98 200.537C122.871 200.103 122.669 199.696 122.387 199.344C122.105 198.993 121.749 198.704 121.344 198.497C120.939 198.29 120.494 198.17 120.038 198.145C119.582 198.119 119.125 198.189 118.699 198.35C118.272 198.511 117.886 198.759 117.565 199.077C117.244 199.395 116.997 199.777 116.838 200.196C116.41 199.414 115.752 198.775 114.948 198.364C114.144 197.953 113.233 197.787 112.332 197.89C111.944 197.913 111.569 198.03 111.239 198.232C110.91 198.433 110.637 198.712 110.446 199.043C110.308 199.444 110.298 199.877 110.417 200.284C110.536 200.691 110.778 201.053 111.112 201.322C111.792 201.848 112.575 202.232 113.413 202.448C111.861 202.355 110.331 202.839 109.129 203.805C108.832 204.005 108.589 204.273 108.42 204.584C108.251 204.896 108.161 205.243 108.158 205.596C108.211 205.881 108.337 206.149 108.523 206.374C108.71 206.599 108.952 206.775 109.226 206.885C109.777 207.101 110.366 207.211 110.959 207.21C113.158 207.304 115.36 207.104 117.504 206.613C118.71 206.365 119.861 205.906 120.901 205.257C121.941 204.598 122.673 203.564 122.939 202.38L122.495 203.086Z" fill="#EFA708"/>
<path d="M148.122 204.577C148.544 205.138 149.134 205.551 149.805 205.758C150.474 205.953 151.122 206.214 151.739 206.536C152.05 206.693 152.317 206.923 152.518 207.207C152.719 207.49 152.848 207.818 152.894 208.162C152.891 208.493 152.818 208.819 152.682 209.121C152.545 209.422 152.347 209.692 152.101 209.913C151.287 210.707 150.249 211.232 149.127 211.418C148.005 211.604 146.853 211.443 145.826 210.956C145.087 210.538 144.4 210.034 143.78 209.455L141.985 207.843L139.94 205.841C138.529 204.068 136.627 202.749 134.471 202.047C134.725 201.446 135.117 200.913 135.615 200.491C136.113 200.068 136.703 199.768 137.338 199.615C138.61 199.316 139.934 199.316 141.206 199.615C141.538 199.735 141.892 199.78 142.244 199.747C142.595 199.713 142.935 199.602 143.238 199.421C143.669 199.018 143.697 198.337 144.017 197.836C144.22 197.53 144.509 197.291 144.849 197.15C145.189 197.009 145.562 196.972 145.923 197.044C146.282 197.126 146.619 197.283 146.912 197.506C147.205 197.729 147.447 198.013 147.621 198.337C147.954 198.993 148.094 199.73 148.024 200.463C148.024 201.172 147.802 201.853 147.732 202.575C147.628 203.267 147.765 203.974 148.122 204.577Z" fill="#9FCC29"/>
<path d="M135.354 204.021C138.338 203.703 141.153 202.499 143.423 200.568C143.791 200.189 144.228 199.882 144.711 199.663C144.949 199.565 145.21 199.539 145.462 199.588C145.715 199.638 145.946 199.761 146.127 199.941C146.273 200.165 146.351 200.426 146.351 200.693C146.351 200.96 146.273 201.22 146.127 201.445C145.858 201.904 145.462 202.294 145.207 202.768C145.036 203.083 144.931 203.43 144.9 203.786C144.869 204.142 144.911 204.501 145.025 204.841C145.139 205.181 145.322 205.494 145.562 205.762C145.803 206.031 146.096 206.248 146.424 206.402C146.853 206.578 147.299 206.714 147.755 206.806C148.209 206.903 148.632 207.109 148.986 207.405C149.158 207.554 149.282 207.749 149.345 207.966C149.408 208.184 149.406 208.414 149.34 208.63C149.214 208.906 149.007 209.139 148.746 209.298C147.378 210.306 145.677 210.773 143.976 210.608C142.276 210.443 140.7 209.658 139.559 208.407C138.865 207.641 138.355 206.736 137.733 205.915C137.167 205.049 136.333 204.385 135.354 204.021Z" fill="#73A624"/>
<path d="M76.6254 258.313C79.6476 259.453 83.0167 259.506 86.0784 258.461C87.5951 257.935 88.9793 257.123 90.1448 256.076C91.3103 255.03 92.2323 253.771 92.8533 252.379C93.5562 250.528 93.9706 248.593 94.0837 246.633L94.9958 237.422C92.6789 237.806 90.2923 237.562 88.1195 236.72C86.853 236.011 85.4439 235.552 83.9793 235.371C83.2495 235.296 82.512 235.422 81.8583 235.734C81.2047 236.046 80.6636 236.529 80.3024 237.125C79.926 237.894 79.9839 238.811 79.593 239.566C78.9903 240.529 78.009 241.235 76.857 241.535C75.716 241.824 74.6313 242.279 73.6433 242.884C73.1562 243.199 72.7989 243.659 72.6304 244.189C72.462 244.718 72.4925 245.286 72.7168 245.797C73.1801 246.593 74.2803 246.957 74.6422 247.793C74.7555 248.172 74.7658 248.572 74.6723 248.955C74.5788 249.339 74.3844 249.695 74.1065 249.991C73.5406 250.581 73.0274 251.212 72.5721 251.88C72.2506 252.532 72.1266 253.253 72.2133 253.967C72.3001 254.68 72.5943 255.357 73.0643 255.926C73.983 257.021 75.2185 257.85 76.6254 258.313Z" fill="#B55728"/>
<g style="mix-blend-mode:multiply" opacity="0.32">
<path d="M90.0271 240.425C87.374 242.267 87.0947 244.355 86.1172 247.057C85.7306 247.88 85.1299 248.589 84.3752 249.113C83.6205 249.638 82.7382 249.959 81.8164 250.046C80.8496 250.194 79.8599 250.088 78.9492 249.738C78.0386 249.387 77.24 248.806 76.6358 248.054C75.0021 245.966 74.7088 243.523 72.5863 244.082C72.4963 244.328 72.4598 244.59 72.479 244.851C72.4983 245.112 72.5729 245.366 72.6981 245.597C73.1449 246.402 74.2061 246.771 74.5552 247.617C74.6645 248.001 74.6745 248.405 74.5843 248.793C74.4942 249.181 74.3066 249.542 74.0386 249.842C73.4927 250.438 72.9976 251.077 72.5584 251.752C72.2483 252.412 72.1287 253.142 72.2124 253.864C72.296 254.586 72.5799 255.271 73.0332 255.847C73.9287 256.979 75.1415 257.832 76.5241 258.303C79.4393 259.457 82.6892 259.51 85.6425 258.453C87.1055 257.92 88.4407 257.099 89.5649 256.04C90.6892 254.981 91.5785 253.707 92.1775 252.298C92.8716 250.405 93.2808 248.424 93.3924 246.416C93.6297 243.864 93.8811 241.312 94.1185 238.759C92.6665 239.079 91.2822 239.643 90.0271 240.425Z" fill="#B55728"/>
</g>
<path d="M88.4038 239.693C87.918 239.31 87.3369 239.025 86.7032 238.857C86.0668 238.694 85.3815 238.736 84.7795 238.975C84.4738 239.096 84.2076 239.279 84.0037 239.506C83.7998 239.734 83.6642 240 83.6086 240.281C83.5594 240.565 83.6005 240.856 83.7279 241.123C83.8552 241.389 84.0642 241.623 84.3334 241.799C84.6072 241.967 84.9218 242.081 85.2545 242.134C85.5872 242.187 85.9296 242.177 86.2571 242.105C86.9112 241.945 87.5124 241.659 88.0135 241.269C88.5153 240.905 89.0032 240.363 88.8081 239.834C88.6129 239.304 88.8778 239.587 88.4038 239.693Z" fill="#8D3800"/>
<path d="M85.5173 245.279C85.1625 244.963 84.7234 244.772 84.2611 244.732C83.7987 244.692 83.3361 244.805 82.9374 245.056C82.5475 245.321 82.2387 245.7 82.0486 246.146C81.8585 246.593 81.7951 247.088 81.8661 247.572C81.9507 248.068 82.163 248.529 82.4797 248.906C82.7965 249.282 83.2054 249.559 83.6616 249.706C84.1028 249.85 84.5708 249.875 85.0237 249.781C85.4766 249.686 85.9002 249.475 86.2566 249.165C86.5017 248.958 86.7033 248.7 86.8487 248.406C86.9942 248.113 87.0803 247.791 87.1015 247.461C87.0881 247.116 87.0075 246.779 86.8647 246.469C86.7219 246.159 86.52 245.884 86.2717 245.661C85.7889 245.135 86.0605 245.74 85.5173 245.279Z" fill="#8D3800"/>
<path d="M80.0261 251.087C79.4204 250.889 78.7905 250.76 78.1504 250.701C77.5031 250.642 76.8545 250.8 76.3261 251.145C76.0681 251.323 75.8758 251.569 75.7748 251.848C75.6738 252.128 75.6689 252.43 75.7608 252.712C75.9781 253.167 76.3847 253.524 76.8914 253.706C77.5822 254.046 78.3769 254.169 79.1525 254.057C79.537 253.996 79.8977 253.845 80.1993 253.62C80.501 253.395 80.7335 253.102 80.8741 252.771C80.9981 252.433 80.986 252.067 80.84 251.737C80.6941 251.407 80.4237 251.135 80.0775 250.97C79.7692 250.865 80.3345 251.087 80.0261 251.087Z" fill="#8D3800"/>
<g style="mix-blend-mode:multiply" opacity="0.55">
<path d="M154.511 214.317H154.44L154.298 214.195L154.142 214.087C154.101 214.044 154.053 214.007 154 213.979L153.447 213.546L153.319 213.451L152.879 213.126L152.751 213.031C152.028 212.49 151.077 211.8 149.914 211.015C150.249 210.898 150.571 210.753 150.879 210.582C149.967 210.424 149.099 210.088 148.329 209.594C147.56 209.1 146.907 208.459 146.41 207.713C144.537 205.358 142.821 201.771 139.132 201.744C137.525 201.789 135.949 201.312 134.664 200.391C131.458 197.874 127.287 198.631 123.073 199.795C120.666 200.465 118.569 201.897 117.129 203.855C116.179 205.209 114.944 206.346 114.079 207.415C112.547 209.31 110.674 211.719 107.936 211.922C106.035 212.07 103.851 211.299 103.68 209.215C103.666 209.089 103.666 208.962 103.68 208.836C100.843 212.057 98.3461 215.684 96.3317 218.093C96.2158 218.23 96.0927 218.361 95.9628 218.485C95.9628 218.648 95.9628 218.824 95.9628 219C96.1515 220.624 95.8936 222.266 95.2145 223.766C94.5354 225.266 93.4585 226.571 92.0899 227.553C92.9411 230.449 93.4376 233.792 90.955 235.254C90.3609 235.596 89.7075 235.834 89.0256 235.958C89.0965 239.72 89.9052 241.967 87.9616 246.121C85.6918 250.912 87.5502 253.294 82.8686 256.759C81.4822 257.738 79.9527 258.518 78.3289 259.073H78.6411H78.868C79.4355 259.141 80.0171 259.182 80.6555 259.209C81.2939 259.209 81.9607 259.209 82.67 259.209H83.1524C83.8759 259.209 84.571 259.1 85.4364 259.006C104.219 256.745 135.898 214.534 154.652 214.344L154.511 214.317Z" fill="#BD9749"/>
</g>
<path d="M93.4343 233.316C94.846 223.915 99.6147 215.297 106.905 208.97C110.566 205.868 114.902 203.612 119.587 202.37C124.273 201.128 129.187 200.932 133.961 201.798C141.142 203.296 147.404 207.39 153.468 211.416C157.709 214.273 158.797 215.771 163.108 218.629C163.858 219.123 168.593 219.879 168.678 220.744C168.833 222.118 166.473 224.152 165.059 224.55C149.338 228.918 134.308 235.362 120.391 243.702C113.592 247.824 107.061 252.303 99.8236 255.614C92.5862 258.925 84.4441 260.959 76.5706 259.667C78.5672 259.971 80.6109 259.759 82.4966 259.052C84.3823 258.346 86.0435 257.17 87.3136 255.642C89.9428 252.688 92.7982 237.176 93.4343 233.316Z" fill="#FAD15F"/>
<path d="M143.035 208.988C134.873 204.936 124.05 201.316 115.268 206.111C108.668 209.718 104.417 215.067 100.646 221.267C96.8739 227.467 96.8035 235.22 94.7347 242.149C93.4681 246.404 92.2014 252.766 88.7253 256.048C87.2744 257.45 85.5209 258.529 83.5884 259.209C89.323 258.808 94.9234 257.35 100.083 254.914C107.288 251.658 113.79 247.201 120.56 243.203C134.43 234.999 149.408 228.664 165.075 224.373C166.482 223.982 168.832 222.023 168.677 220.632C168.684 220.605 168.684 220.577 168.677 220.551C159.29 220.294 151.212 213.054 143.035 208.988Z" fill="#F9C22D"/>
<path d="M143.035 208.988C134.873 204.936 124.05 201.316 115.268 206.111C108.668 209.718 104.417 215.067 100.646 221.267C96.8739 227.467 96.8035 235.22 94.7347 242.149C93.4681 246.404 92.2014 252.766 88.7253 256.048C87.2744 257.45 85.5209 258.529 83.5884 259.209C89.323 258.808 94.9234 257.35 100.083 254.914C107.288 251.658 113.79 247.201 120.56 243.203C134.43 234.999 149.408 228.664 165.075 224.373C166.482 223.982 168.832 222.023 168.677 220.632C168.684 220.605 168.684 220.577 168.677 220.551C159.29 220.294 151.212 213.054 143.035 208.988Z" fill="#F9C22D"/>
<g style="mix-blend-mode:multiply" opacity="0.55">
<path d="M154.379 216.609C148.137 216.51 142.094 218.693 137.49 222.709C131.861 227.199 126.541 231.851 119.195 233.432C110.173 235.363 103.714 230.041 99.7167 223.312C96.8176 229.21 96.6065 236.033 94.7347 242.279C93.4681 246.502 92.2014 252.815 88.7253 256.073C87.2744 257.464 85.5209 258.534 83.5884 259.209C89.323 258.812 94.9234 257.364 100.083 254.947C107.288 251.716 113.79 247.293 120.56 243.325C134.43 235.184 149.408 228.896 165.075 224.639C166.482 224.25 168.832 222.306 168.677 220.926C168.684 220.899 168.684 220.872 168.677 220.845C163.581 220.784 158.613 219.312 154.379 216.609Z" fill="#F2CC49"/>
</g>
<g style="mix-blend-mode:multiply" opacity="0.55">
<path d="M132.858 231.09C123.528 233.232 117.801 237.005 110.957 243.431C107.549 246.596 103.973 249.996 100.258 253.244L100.816 253.009C107.884 249.678 114.351 245.118 121.07 240.972C128.993 236.182 137.288 232.023 145.876 228.534C141.295 229.086 136.727 230.192 132.858 231.09Z" fill="#D68902"/>
</g>
<path d="M128.092 207.568C127.033 207.199 125.86 207.132 124.752 207.377C123.644 207.623 122.66 208.168 121.949 208.929C121.641 209.237 121.433 209.607 121.345 210.003C121.295 210.199 121.3 210.402 121.362 210.596C121.423 210.789 121.539 210.967 121.699 211.115C122.03 211.329 122.427 211.458 122.842 211.486C123.257 211.515 123.673 211.442 124.041 211.277C125.233 210.893 126.295 210.267 127.135 209.454C127.589 209.076 127.862 208.569 127.901 208.03C127.886 207.493 128.726 207.468 128.092 207.568Z" fill="#E9A000"/>
<path d="M117.495 216.105C116.89 215.776 116.194 215.673 115.523 215.814C114.853 215.956 114.252 216.333 113.822 216.881C113.597 217.126 113.457 217.442 113.425 217.778C113.393 218.114 113.47 218.451 113.645 218.737C113.878 218.935 114.155 219.069 114.451 219.128C114.748 219.186 115.054 219.167 115.341 219.071C115.989 218.988 116.607 218.743 117.141 218.356C117.406 218.156 117.606 217.877 117.714 217.556C117.822 217.236 117.833 216.889 117.746 216.562C117.525 215.938 117.967 215.634 117.495 216.105Z" fill="#E9A000"/>
<path d="M132.581 220.599C131.8 219.842 130.784 219.353 129.687 219.207C128.591 219.062 127.476 219.267 126.512 219.793C125.549 220.318 124.791 221.134 124.354 222.116C123.918 223.097 123.827 224.19 124.096 225.226C124.157 225.535 124.288 225.827 124.478 226.083C124.669 226.338 124.915 226.55 125.199 226.704C125.524 226.808 125.868 226.848 126.21 226.823C126.551 226.797 126.885 226.707 127.19 226.556C128.875 225.886 130.352 224.806 131.478 223.422C131.937 222.905 133.117 221.101 132.581 220.599Z" fill="#E9A000"/>
<path d="M145.427 210.923C144.661 211.301 143.895 212.137 144.186 212.99C144.477 213.843 145.443 214.106 146.27 214.04C146.762 214.028 147.245 213.894 147.68 213.646C147.9 213.528 148.091 213.354 148.235 213.14C148.379 212.925 148.472 212.677 148.508 212.416C148.522 212.052 148.423 211.693 148.226 211.396C148.029 211.099 147.745 210.881 147.42 210.776C146.762 210.555 146.051 210.608 145.427 210.923Z" fill="#E9A000"/>
<path d="M154.872 218.912C154.261 218.668 153.616 218.482 152.949 218.359C152.272 218.241 151.564 218.338 150.979 218.629C150.692 218.776 150.473 218.992 150.358 219.246C150.242 219.499 150.235 219.775 150.338 220.032C150.465 220.259 150.666 220.455 150.922 220.6C151.178 220.745 151.478 220.834 151.792 220.857C152.419 220.89 153.049 220.835 153.652 220.697C154.099 220.641 154.529 220.52 154.919 220.34C155.11 220.244 155.267 220.111 155.374 219.954C155.481 219.796 155.534 219.62 155.529 219.441C155.485 219.277 155.389 219.124 155.25 218.997C155.11 218.87 154.932 218.773 154.731 218.715C154.34 218.58 155.247 219.06 154.872 218.912Z" fill="#E9A000"/>
<path d="M143.822 224.861C142.85 224.425 141.774 224.227 140.697 224.284C140.158 224.322 139.64 224.491 139.192 224.773C138.745 225.056 138.385 225.442 138.148 225.895C137.936 226.355 137.925 226.874 138.115 227.342C138.306 227.81 138.684 228.191 139.17 228.405C139.776 228.578 140.423 228.578 141.028 228.405C141.796 228.261 142.52 227.958 143.145 227.519C143.453 227.294 143.689 226.995 143.828 226.654C143.968 226.314 144.005 225.945 143.937 225.586C143.736 224.848 144.528 224.539 143.822 224.861Z" fill="#E9A000"/>
<path d="M120.39 231.216C119.556 231.392 118.795 231.778 118.197 232.331C118.057 232.473 117.95 232.639 117.883 232.819C117.816 232.999 117.79 233.189 117.807 233.379C117.824 233.568 117.884 233.753 117.982 233.921C118.081 234.089 118.216 234.237 118.38 234.357C118.662 234.475 118.976 234.521 119.286 234.49C119.596 234.459 119.89 234.351 120.137 234.179C120.67 233.897 121.066 233.445 121.247 232.913C121.331 232.644 121.333 232.359 121.251 232.089C121.169 231.819 121.008 231.575 120.784 231.381C120.32 231.014 120.966 231.039 120.39 231.216Z" fill="#E9A000"/>
<path d="M104.531 237.121C103.663 237.323 102.88 237.762 102.282 238.38C101.684 238.999 101.298 239.769 101.174 240.593C101.084 241.142 101.178 241.705 101.445 242.203C101.586 242.449 101.797 242.655 102.054 242.799C102.312 242.943 102.606 243.019 102.907 243.02C103.76 243.02 104.355 242.253 104.802 241.574C105.249 240.894 105.574 240.316 105.939 239.725C106.163 239.443 106.312 239.116 106.373 238.77C106.434 238.425 106.406 238.071 106.291 237.737C106.123 237.498 105.884 237.308 105.604 237.19C105.323 237.072 105.012 237.031 104.707 237.07C104.152 237.121 105.127 236.982 104.531 237.121Z" fill="#E9A000"/>
<g style="mix-blend-mode:screen" opacity="0.32">
<path d="M141.114 209.849C139.327 207.672 136.764 206.218 133.926 205.771C131.114 205.346 128.242 205.48 125.486 206.165C118.894 207.669 112.888 210.972 108.184 215.68C106.687 216.927 105.737 218.676 105.525 220.574C105.61 221.661 106.027 222.7 106.723 223.559C107.419 224.418 108.363 225.058 109.435 225.399C111.591 226.038 113.877 226.15 116.089 225.725C121.399 224.899 126.591 223.481 131.563 221.498C133.646 220.82 135.631 219.888 137.471 218.725C139.251 217.525 140.572 215.791 141.226 213.791C141.542 212.792 141.579 211.729 141.332 210.712C141.084 209.695 140.563 208.759 139.82 208L141.114 209.849Z" fill="#FAD15F"/>
</g>
<path d="M50.2578 93.0673L60.6234 110.934L104.649 92.0935L76.9225 80.2592C76.9225 80.2592 57.0549 88.4959 50.2578 93.0673Z" fill="#EFEFEC"/>
<path d="M115.174 73.6929L102.016 93.0411L166.058 88.4998L156.507 70.0354L115.174 73.6929Z" fill="#EFEFEC"/>
<path d="M133.764 104.867L166.058 88.7814L101.441 91.64L60.7845 110.935L133.764 104.867Z" fill="#E2B58B"/>
<path d="M66.9192 48.4249L102.795 98.1532L106.397 95.9242L73.1159 43.6209C73.1159 43.6209 66.9475 43.9393 66.9192 48.4249Z" fill="#716361"/>
<path d="M80.0795 49.4958L112.224 100.709L116.048 98.7935L86.7499 45.3254C86.7499 45.3254 80.482 45.1624 80.0795 49.4958Z" fill="#716361"/>
<path d="M84.6611 170.005L130.939 170.58L153.27 156.4L166.058 88.7814L101.441 91.6803L60.7845 111.248L84.6611 170.005Z" fill="#EFEFEC"/>
<g style="mix-blend-mode:multiply">
<path d="M134.01 90.4851L101.665 91.9165L60.7845 111.425L84.7925 170.007L131.325 170.579L145.004 161.963L134.01 90.4851Z" fill="#EAE6DC"/>
</g>
<path d="M130.962 170.58L153.275 156.4L166.054 88.7814L133.953 96.0287L130.962 170.58Z" fill="#EFEFEC"/>
<path d="M114.105 143.314C110.209 144.547 106.15 145.261 102.046 145.436C98.2337 145.842 94.3789 145.713 90.6062 145.055L91.2249 155.243L116.047 154.195L114.22 143.668L114.105 143.314ZM98.1752 152.999L93.5129 153.216L93.1388 148.211C93.1388 147.313 97.614 147.014 97.7004 147.925L98.1752 152.999ZM105.197 152.686L100.305 152.903L99.7149 147.803C99.6142 146.878 104.377 146.565 104.492 147.503L105.197 152.686ZM112.579 152.359L107.428 152.59L106.723 147.395C106.593 146.456 111.572 146.13 111.73 147.082L112.579 152.359Z" fill="#716361"/>
<path d="M95.8734 148.441L96.2002 152.685L97.628 152.609L97.3134 148.797C97.2892 148.504 96.5632 148.377 95.8734 148.441Z" fill="#716361"/>
<path d="M95.1838 148.45H94.8838H94.6266H94.4266H94.3551H94.2123H94.1265C94.1113 148.491 94.1113 148.535 94.1265 148.575L94.1408 152.685L95.8697 152.61L95.5696 148.425L95.1838 148.45Z" fill="#716361"/>
<path d="M102.016 147.592L102.626 152.685L104.648 152.596L104.07 148.115C104.006 147.652 102.995 147.518 102.016 147.592Z" fill="#716361"/>
<path d="M102.116 147.603H101.844H101.608H101.423H101.299H101.225L101.151 147.678C101.137 147.727 101.137 147.779 101.151 147.828L101.522 152.326L102.895 152.685L102.45 147.573L102.116 147.603Z" fill="#716361"/>
<path d="M109.034 147.588L109.746 151.833L111.666 151.76L110.997 148.002C110.997 147.649 109.95 147.527 109.034 147.588Z" fill="#716361"/>
<path d="M108.686 147.598H108.301H107.979H107.738H107.658H107.481H107.385H107.288C107.271 147.637 107.271 147.68 107.288 147.72L107.931 151.393L109.907 151.833L109.12 147.573L108.686 147.598Z" fill="#716361"/>
<path d="M85.1207 142.722C87.714 143.916 90.4928 144.629 93.3284 144.828H93.3986C96.2041 145.081 99.0257 145.081 101.831 144.828C104.775 144.6 107.694 144.117 110.559 143.385C113.831 142.63 116.953 141.309 119.793 139.477C121.1 138.539 120.158 138.034 119.329 138.251C114.41 139.693 112.302 139.938 109.491 139.693L93.6657 141.135C90.9421 141.89 88.0862 141.994 85.3174 141.438C84.5726 141.482 83.9542 142.102 85.1207 142.722Z" fill="#716361"/>
<path d="M93.2398 134.961L93.6464 140.757L109.908 139.152L109.037 133.088C106.436 133.982 103.741 134.56 101.008 134.812C98.4315 135.152 95.8266 135.202 93.2398 134.961ZM102.155 135.748C102.155 135.154 105.146 134.797 105.218 135.407L105.712 138.75L102.605 139.062L102.155 135.748ZM96.6519 136.373C96.6519 135.778 99.5558 135.436 99.5558 136.046L99.9043 139.33L97.0004 139.627L96.6519 136.373Z" fill="#716361"/>
<path d="M89.3271 133.613C91.1964 134.327 93.1726 134.714 95.171 134.759C97.0929 134.843 99.0184 134.771 100.929 134.542C102.924 134.31 104.897 133.917 106.83 133.366C109.008 132.794 111.082 131.878 112.976 130.653C113.854 130.015 113.25 129.695 112.689 129.884C103.318 132.96 100.382 129.681 100.382 129.681C100.382 129.681 98.3089 133.584 89.4134 132.902C88.924 132.815 88.4922 133.236 89.3271 133.613Z" fill="#716361"/>
<path d="M98.5071 136.517L98.6703 139.054L99.3844 138.959L99.2211 136.721C99.2211 136.517 98.8539 136.463 98.5071 136.517Z" fill="#716361"/>
<path d="M103.767 135.665L103.975 138.2L104.644 138.093L104.454 135.865C104.436 135.652 104.065 135.611 103.767 135.665Z" fill="#716361"/>
<path d="M103.255 136.046H103.134H103.031H102.947H102.891L103.069 138.2L103.769 138.109L103.554 135.644H103.423L103.255 136.046Z" fill="#716361"/>
<g style="mix-blend-mode:multiply" opacity="0.55">
<g style="mix-blend-mode:multiply" opacity="0.55">
<path d="M75.8802 136.727L123.139 134.296C123.139 134.296 132.993 108.194 134.077 105.012C135.837 100.054 135.076 96.8169 137.624 92.1868L84.5942 99.8218L60.972 111.158L61.2958 111.978C65.0827 115.461 75.8802 136.727 75.8802 136.727Z" fill="#D6C2A6"/>
</g>
</g>
<path d="M143.956 95.5971C144.577 92.4404 141.961 89.557 141.596 86.3456C141.467 85.0853 141.686 83.8133 142.229 82.6719C142.772 81.5304 143.618 80.5644 144.671 79.8819C145.115 79.5728 145.631 79.3889 146.168 79.3489C146.435 79.3346 146.701 79.3929 146.938 79.5179C147.175 79.6428 147.375 79.8299 147.517 80.0595C147.989 80.9341 147.22 81.959 146.519 82.656C146.799 82.7614 147.097 82.8064 147.395 82.7881C147.693 82.7698 147.985 82.6885 148.25 82.5496C148.515 82.4106 148.749 82.217 148.936 81.9812C149.123 81.7454 149.26 81.4725 149.337 81.1801C149.455 80.5769 149.377 79.9512 149.114 79.3968C148.852 78.8424 148.419 78.3893 147.881 78.1054C147.335 77.841 146.739 77.7038 146.134 77.7038C145.53 77.7038 144.933 77.841 144.388 78.1054C143.284 78.6242 142.325 79.4131 141.596 80.4012C140.623 81.5396 139.883 82.863 139.42 84.2942C138.957 85.7254 138.78 87.2358 138.899 88.7371C139.051 90.2371 139.602 91.6673 140.492 92.8754C141.383 94.0834 142.58 95.0241 143.956 95.5971Z" fill="#FBDF6A"/>
<path d="M91.3048 105.821C91.794 102.378 91.2792 98.8731 89.8158 95.6836C89.0575 94.0963 87.8748 92.7216 86.3833 91.6938C84.8919 90.666 83.1428 90.0203 81.3071 89.82C80.5989 89.72 79.8754 89.79 79.2036 90.0235C78.5318 90.2569 77.9335 90.6464 77.464 91.1556C77.0885 91.7582 76.9591 92.4691 77.1 93.1551C77.241 93.8411 77.6427 94.4551 78.2298 94.8822C78.8391 95.2827 79.5643 95.4975 80.3073 95.4975C81.0504 95.4975 81.7755 95.2827 82.3849 94.8822C82.9785 94.4623 83.4534 93.9113 83.7674 93.2777C84.0815 92.6441 84.2252 91.9474 84.1859 91.2491C84.0786 89.8446 83.4156 88.529 82.3281 87.5626C81.8974 87.1212 81.3699 86.7731 80.7823 86.5425C80.1946 86.3119 79.5608 86.2042 78.9247 86.227C78.2923 86.2733 77.701 86.5397 77.2658 86.9743C76.8306 87.4089 76.5828 87.9805 76.5706 88.5778C77.2551 88.1209 78.0769 87.8824 78.9157 87.8972C79.7545 87.912 80.5662 88.1794 81.232 88.6602C81.8978 89.1409 82.3827 89.8098 82.6156 90.5689C82.8486 91.328 82.8174 92.1375 82.5267 92.8787C82.2996 93.5035 81.8348 94.0269 81.222 94.3479C80.9107 94.4957 80.5599 94.553 80.214 94.5126C79.868 94.4722 79.5427 94.3358 79.2792 94.1209C78.9942 93.8218 78.8365 93.4341 78.8365 93.0323C78.8365 92.6304 78.9942 92.2427 79.2792 91.9437C79.5782 91.6547 79.9478 91.4391 80.3557 91.3157C80.7636 91.1923 81.1973 91.1649 81.6191 91.2358C82.4607 91.3837 83.253 91.7179 83.9306 92.2108C85.9446 93.5986 87.4736 95.5204 88.3224 97.7306C89.1711 99.9409 89.301 102.339 88.6955 104.619L91.3048 105.821Z" fill="#FBDF6A"/>
<g style="mix-blend-mode:multiply">
<path d="M129.21 141.526C127.802 142.396 126.309 143.198 124.915 143.864C116.255 147.941 106.948 147.451 98.161 143.864C89.4486 140.259 82.0463 134.232 76.8983 126.55C74.2959 122.438 72.1799 118.058 70.5899 113.49L65.1686 116.072L86.0371 167.007L127.915 167.17C128.422 163.759 129.21 141.526 129.21 141.526Z" fill="#F1EAE2"/>
</g>
<path d="M162.804 91.2645C161.443 89.5616 159.903 87.9937 158.206 86.5849C156.499 85.1609 154.356 84.2856 152.086 84.0856C150.292 84.0487 148.539 84.5996 147.127 85.6444C145.715 86.6893 144.732 88.1634 144.344 89.8154C144.089 87.7652 143.008 85.8855 141.326 84.5642C139.643 83.2357 137.785 82.1185 135.798 81.2406C133.904 80.9914 131.976 81.108 130.131 81.5834C128.286 82.0588 126.563 82.883 125.066 84.0058C123.675 84.9327 122.676 86.2936 122.246 87.8479C122.055 89.7324 122.395 91.6311 123.233 93.3517C124.227 96.3765 125.65 99.2608 127.464 101.926C128.314 103.078 129.34 104.103 130.51 104.971L148.25 102.538C153.087 99.7196 157.868 96.7816 162.536 93.7239C162.948 93.5146 163.265 93.169 163.424 92.7534C163.438 92.478 163.39 92.203 163.283 91.9464C163.176 91.6898 163.013 91.4574 162.804 91.2645Z" fill="#FBDF6A"/>
<path d="M160.263 92.1421L157.026 89.712C155.703 88.59 154.181 87.7313 152.539 87.1819C151.733 86.9092 150.864 86.8859 150.044 87.1152C149.224 87.3445 148.491 87.8158 147.94 88.4684C147.473 89.2998 147.115 90.1887 146.875 91.1129C146.792 91.6608 146.533 92.1663 146.138 92.5517C145.742 92.937 145.232 93.1809 144.685 93.2458C144.138 93.3108 143.586 93.1932 143.112 92.9111C142.638 92.6291 142.269 92.1982 142.062 91.6847C141.352 90.6698 140.969 89.4547 140.302 88.3969C139.566 87.2933 138.59 86.3725 137.449 85.7039C136.308 85.0353 135.031 84.6364 133.714 84.5374C131.148 84.3978 128.607 85.1165 126.488 86.5815C124.416 88.0127 122.581 89.7638 121.051 91.7704C120.54 92.3994 120.1 93.4429 120.795 93.9718C121.491 94.5007 122.13 93.9718 122.641 93.5715C124.203 92.2993 125.636 90.8699 127.283 89.6977C128.927 88.4436 130.903 87.7075 132.962 87.5821C134.014 87.5342 135.062 87.7478 136.013 88.204C136.963 88.6602 137.788 89.345 138.414 90.198C139.067 91.1844 139.365 92.3565 140.004 93.3285C140.739 94.4265 141.867 95.1967 143.152 95.479C144.437 95.7612 145.781 95.5337 146.903 94.8438C147.829 94.047 148.65 93.1342 149.345 92.1278C149.691 91.6343 150.137 91.22 150.653 90.9121C151.17 90.6042 151.745 90.4096 152.341 90.341C153.025 90.4267 153.684 90.6553 154.276 91.0122C154.867 91.3691 155.378 91.8465 155.776 92.4137C156.556 93.5599 157.561 94.5329 158.729 95.2726C159.294 95.5817 159.955 95.6585 160.575 95.487C160.882 95.3924 161.152 95.2039 161.348 94.9478C161.544 94.6917 161.656 94.3806 161.668 94.0576C161.654 93.1999 160.93 92.6281 160.263 92.1421Z" fill="#E5B348"/>
<path d="M108.158 85.5438C108.158 85.5438 114.045 76.3662 122.618 79.0459C131.19 81.7256 130.967 90.1535 130.967 90.1535C130.967 90.1535 126.361 102.427 118.067 102.413C109.773 102.4 109.508 88.6956 108.158 85.5438Z" fill="#BE7139"/>
<g style="mix-blend-mode:multiply" opacity="0.55">
<path d="M127.851 82.1612C127.491 83.6493 126.702 84.9965 125.582 86.0323C123.342 88.052 120.015 89.8333 117.079 87.9959C114.574 86.397 113.544 83.4796 111.081 81.9648C109.977 82.9706 108.996 84.1053 108.158 85.3451C109.55 88.5289 109.55 102.414 118.053 102.414C126.556 102.414 130.968 90.0016 130.968 90.0016C130.804 87.1157 129.709 84.3627 127.851 82.1612Z" fill="#C47F4C"/>
</g>
<path d="M113.732 107.969L135.398 105.117L139.734 104.217C138.261 103.983 136.807 103.645 135.384 103.206C132.195 101.545 130.936 98.4997 132.348 95.5787C133.286 93.6268 136.614 88.8231 132.922 87.2727C132.315 87.0453 131.667 86.9463 131.02 86.982C129.6 87.0145 128.207 87.3758 126.954 88.0369C125.701 88.698 124.621 89.6405 123.802 90.7889C122.236 93.0177 121.229 95.6895 118.431 96.7277C113.186 98.735 114.795 91.8133 113.536 89.0446C112.953 87.9426 112.114 86.9935 111.088 86.276C109.536 84.9932 107.666 84.1447 105.672 83.8185C103.677 83.4923 101.631 83.7003 99.7446 84.4209C97.5075 85.4748 95.6908 87.2388 94.5833 89.4323C93.5266 91.4918 92.746 93.6791 92.2615 95.9387C91.8838 97.586 91.3383 99.8287 89.5899 100.576C87.8416 101.324 85.7155 98.9842 84.4847 97.8075C82.1348 95.6895 77.8548 95.0388 74.9595 95.3157C69.6304 95.8971 65.5042 101.31 67.3785 106.39C68.6434 109.33 70.8968 111.746 73.7566 113.229L73.8405 113.146C74.2182 113.312 73.9804 113.354 74.344 113.284C75.8127 114.517 78.1625 114.392 80.0228 114.267C83.9811 114.018 87.7436 113.686 91.716 113.326C98.192 112.745 104.57 111.679 110.948 111.166L114.431 110.917L113.732 107.969Z" fill="#FBDF6A"/>
<path d="M118.51 102.576C120.138 101.867 124.003 96.0906 125.843 98.2435C127.259 99.9819 126.183 103.673 126.636 105.652L126.721 105.919L130.968 105.331C129.704 104.54 128.796 103.335 128.42 101.948C128.102 100.73 128.141 99.4546 128.533 98.2569C128.77 97.713 128.882 97.1281 128.862 96.5405C128.843 95.9528 128.692 95.3757 128.42 94.8469C127.811 94.4993 126.763 94.1248 126.211 94.6196C126.141 94.6196 125.093 95.3818 124.017 95.9568C123.134 96.4878 122.297 97.0824 121.511 97.7353C119.763 99.1292 117.651 100.053 115.395 100.41C112.846 100.691 112.011 99.2063 111.501 97.2138C111.077 95.6092 110.992 93.055 109.647 91.7044C109.233 91.3015 108.735 90.985 108.184 90.7754C107.633 90.5658 107.041 90.4677 106.447 90.4876C104.055 90.462 101.726 91.2126 99.8497 92.6138C97.5966 94.2481 95.8627 96.4363 94.8379 98.9389C94.314 100.276 93.8893 101.613 93.323 102.951C92.2329 105.451 90.1942 106.655 87.3626 104.689C85.3239 103.258 83.9931 101.466 81.5721 100.45C78.5848 99.1796 75.7108 98.8987 73.0775 100.33C67.6976 103.205 71.421 109.062 76.3621 111.215C77.1974 111.576 77.254 112.298 77.9336 111.215C78.6132 110.131 75.6683 108.701 75.102 107.952C72.6103 104.997 76.7019 102.763 79.7033 103.258C82.7047 103.753 84.5311 106.521 87.49 107.31C88.7426 107.588 90.0517 107.538 91.2765 107.166C92.5012 106.793 93.5955 106.113 94.4415 105.197C96.5793 103.004 98.0092 100.089 99.7648 97.6284C100.897 96.0504 103.743 93.6167 106.136 95.4086C108.231 96.933 108.33 100.142 110.256 101.948C112.606 104.114 115.975 103.699 118.51 102.576Z" fill="#E5B348"/>
<path d="M101.16 109.57C101.16 109.57 100.154 94.3877 112.779 96.6868C125.015 98.8907 125.705 107.162 125.705 107.162C125.705 107.162 105.598 113.692 101.16 109.57Z" fill="#BE7139"/>
<path d="M157.284 95.9314C157.284 95.9314 147.422 86.0311 138.588 95.2963C133.417 100.723 138.362 106.674 138.362 106.674L157.284 95.9314Z" fill="#BE7139"/>
<g style="mix-blend-mode:multiply" opacity="0.55">
<path d="M162.814 91.4071L161.996 90.4185C159.599 88.8258 157.553 87.0408 154.182 88.4276C151.629 90.4048 149.951 94.0022 147.13 95.6911C144.309 97.38 140.289 96.7896 137.425 98.0391C136.541 99.2141 135.464 100.239 134.238 101.074C133.634 101.955 132.843 102.7 131.919 103.259C130.994 103.818 129.957 104.178 128.878 104.314C127.562 104.544 126.211 104.485 124.922 104.14C123.634 103.796 122.44 103.175 121.43 102.323C121.317 102.323 116.874 101.115 116.776 101.115C110.273 101.691 114.42 105.495 101.711 104.685C100.193 105.639 98.4397 106.18 96.6337 106.25C93.319 107.884 88.7772 108.076 84.9124 108.474C82.4158 108.722 78.0574 109.49 75.321 108.227C74.4181 107.82 73.4206 107.653 72.4297 107.742C71.4388 107.831 70.4898 108.174 69.679 108.735L68.6775 109.436C69.9766 110.96 71.543 112.247 73.304 113.239L73.3886 113.157C73.7694 113.321 73.5297 113.363 73.8964 113.294C75.3774 114.516 77.7471 114.392 79.623 114.269C83.6147 114.022 87.409 113.692 91.4148 113.335C97.9454 112.758 104.377 111.701 110.809 111.193L114.321 110.946L114.223 110.534C117.944 109.759 121.618 108.778 125.225 107.596C125.186 107.223 125.11 106.855 124.999 106.497L135.422 105.124L136.833 104.836C137.126 105.511 137.49 106.156 137.919 106.758L143.251 103.765L148.244 103.051C152.193 100.675 156.086 98.1901 159.937 95.6499C160.114 95.6392 160.29 95.6069 160.459 95.5538C160.68 95.4826 160.882 95.3661 161.052 95.2121C161.223 95.0581 161.357 94.8703 161.446 94.6613L162.532 93.9473C162.945 93.7311 163.262 93.3742 163.421 92.945C163.437 92.6615 163.391 92.3781 163.286 92.1131C163.182 91.8481 163.021 91.6075 162.814 91.4071Z" fill="#C47F4C"/>
</g>
<path d="M60.7845 110.462L76.6532 130.532L119.865 127.088L134.476 104.97L60.7845 110.462Z" fill="#EFEFEC"/>
<g style="mix-blend-mode:multiply">
<path d="M87.5429 110.083L63.4103 111.919L78.0154 129.68L115.17 126.661C105.856 121.33 96.7139 115.686 87.5429 110.083Z" fill="#F2EBE5"/>
</g>
<g style="mix-blend-mode:multiply">
<path d="M145.726 142.103L147.811 105.822L144.382 106.317L143.808 142.419L131.074 167.597L130.962 170.579L132.446 169.631L144.704 149.305L152.652 156.671L153.198 156.327L153.772 153.263L145.726 142.103Z" fill="#EBE5DF"/>
</g>
<g style="mix-blend-mode:multiply" opacity="0.55">
<path d="M161.151 115.202L166.053 88.7814L134.471 105.046C134.471 105.046 142.161 123.6 145.745 127.976C148.766 126.381 161.151 115.202 161.151 115.202Z" fill="#DBC9B0"/>
</g>
<path d="M147.076 121.16L170.44 105.087L166.835 88.7814L134.471 105.128L147.076 121.16Z" fill="#EFEFEC"/>
<g style="mix-blend-mode:multiply">
<path d="M137.105 106.62L147.041 118.604L168.687 104.407L168.048 101.563C158.34 102.88 146.785 105.29 137.105 106.62Z" fill="#F2EBE5"/>
</g>
<ellipse cx="87.542" cy="181.231" rx="3.07049" ry="2.98223" fill="#73A624"/>
<path d="M153.668 185.975C152.756 187.531 150.146 187.069 148.724 186.239C147.302 185.409 145.393 183.433 147.015 180.811C148.637 178.189 151.422 179.895 152.844 180.726C154.267 181.556 154.579 184.418 153.668 185.975Z" fill="#73A624"/>
<path d="M180.765 120.936C182.35 122.284 180.613 125.615 178.929 127.368C177.245 129.121 173.886 131.381 171.256 128.998C168.625 126.614 172.026 123.191 173.71 121.438C175.394 119.684 179.181 119.588 180.765 120.936Z" fill="#BE7139"/>
<path d="M216.168 262.577C212.39 265.905 206.977 266.845 204.86 264.577C202.743 262.31 202.722 259.244 206.5 255.916C210.279 252.588 213.043 252.6 215.16 254.868C217.278 257.136 219.947 259.249 216.168 262.577Z" fill="#FF3333"/>
</svg>
