<svg width="136" height="83" viewBox="0 0 136 83" fill="none" xmlns="http://www.w3.org/2000/svg">
<path d="M91.9901 31.8196L4.94659 21.979L126.7 76.7593L91.9901 31.8196Z" fill="#FFFCF0" stroke="#A07D36" stroke-width="0.818581" stroke-linecap="round" stroke-linejoin="round"/>
<path d="M126.681 76.7642L4.9331 21.9794L2.4063 27.8026L124.154 82.5875L126.681 76.7642Z" fill="#A07D34" stroke="#A07D36" stroke-width="0.818581" stroke-linecap="round" stroke-linejoin="round"/>
<path d="M10.364 18.7147C5.46221 16.5903 -1.0973 20.4865 0.157056 21.1394C1.41141 21.7923 5.94502 22.3893 7.81854 24.5826C9.69206 26.7759 20.32 38.9967 22.6083 36.4744C24.8967 33.9521 35.0375 38.0163 35.0375 38.0163C35.0375 38.0163 33.1411 43.3743 37.232 44.0113C41.3228 44.6482 44.3446 43.214 46.416 43.5544C48.4875 43.8948 51.6564 52.5888 55.8289 51.2588C60.0014 49.9288 73.3261 50.5962 74.9128 55.6171C76.4996 60.638 78.1305 60.4476 80.2349 59.3128C82.3393 58.1781 85.5785 67.1222 87.0611 67.4588C88.5438 67.7954 93.5524 64.7217 93.5524 64.7217C93.5524 64.7217 90.08 70.7617 95.7649 72.6483C101.45 74.5349 105.22 73.3502 106.354 71.9135C107.488 70.4768 114.33 82.3501 117.996 80.362C121.662 78.374 127.654 82.7628 127.901 78.6445C128.147 74.5262 127.652 73.8857 122.606 71.1072C117.561 68.3288 10.364 18.7147 10.364 18.7147Z" fill="#648E21"/>
<path d="M123.973 65.4027L13.1995 15.5561C11.4885 14.7862 9.5681 15.3913 8.91014 16.9076L8.17516 18.6015C7.5172 20.1178 8.37084 21.9712 10.0818 22.7411L120.855 72.5877C122.566 73.3576 124.487 72.7526 125.145 71.2362L125.88 69.5424C126.538 68.0261 125.684 66.1727 123.973 65.4027Z" fill="#E1B186"/>
<path d="M125.779 64.413L12.695 13.5265C11.6221 13.0437 10.418 13.4231 10.0054 14.3739L9.13835 16.3722C8.7258 17.3229 9.26107 18.485 10.3339 18.9678L123.418 69.8543C124.491 70.3371 125.695 69.9577 126.108 69.0069L126.975 67.0086C127.387 66.0579 126.852 64.8957 125.779 64.413Z" fill="#FFCF23"/>
<path d="M19.9105 8.75925C19.9105 8.75925 10.5998 5.72158 9.6342 8.83522C8.66863 11.9489 18.0199 23.9909 30.3497 29.0276C42.6795 34.0642 56.0107 31.3335 57.5383 28.0261C59.0659 24.7188 19.9105 8.75925 19.9105 8.75925Z" fill="#E25123"/>
<path d="M55.2132 22.0566C55.2132 22.0566 45.9025 19.019 44.9317 22.1282C43.9609 25.2375 53.3469 37.2532 65.6443 42.2943C77.9416 47.3353 91.3105 44.6046 92.8371 41.2884C94.3637 37.9723 55.2132 22.0566 55.2132 22.0566Z" fill="#E25123"/>
<path d="M90.855 41.0705C90.855 41.0705 81.5443 38.0329 80.5735 41.1421C79.6028 44.2514 88.9686 56.2978 101.294 61.3388C113.62 66.3799 126.955 63.6448 128.482 60.3286C130.009 57.0125 90.855 41.0705 90.855 41.0705Z" fill="#E25123"/>
<path d="M16.4681 4.48052C11.5715 2.36046 5.00157 6.24792 6.25593 6.90083C7.51028 7.55374 12.0491 8.15513 13.9226 10.3484C15.7961 12.5417 26.424 24.7625 28.7124 22.2402C31.0008 19.718 41.1458 23.7777 41.1458 23.7777C41.1458 23.7777 39.2493 29.1357 43.3402 29.7727C47.4311 30.4096 50.4477 28.971 52.5243 29.3158C54.6009 29.6606 57.7647 38.3502 61.9372 37.0202C66.1096 35.6903 79.4343 36.3576 81.0211 41.3785C82.6079 46.3994 84.2335 46.2046 86.3642 45.0523C88.4949 43.8999 91.7079 52.8617 93.1853 53.1939C94.6627 53.5261 99.6817 50.4611 99.6817 50.4611C99.6817 50.4611 96.2093 56.5012 101.91 58.4009C107.61 60.3007 111.364 59.1028 112.498 57.6661C113.632 56.2294 120.47 68.0983 124.141 66.1146C127.812 64.131 133.804 68.5198 134.051 64.4015C134.297 60.2831 133.802 59.6427 128.756 56.8642C123.711 54.0857 16.4681 4.48052 16.4681 4.48052Z" fill="#648E21"/>
<path d="M100.845 10.25L13.8011 0.409439L135.554 55.1897L100.845 10.25Z" fill="#FFF8DA" stroke="#A07D36" stroke-width="0.818581" stroke-linecap="round" stroke-linejoin="round"/>
<path d="M135.543 55.1986L13.7954 0.413706L11.2686 6.23696L133.016 61.0218L135.543 55.1986Z" fill="#A07D34" stroke="#A07D36" stroke-width="0.818581" stroke-linecap="round" stroke-linejoin="round"/>
</svg>
