<svg width="23" height="16" viewBox="0 0 23 16" fill="none" xmlns="http://www.w3.org/2000/svg">
<path opacity="0.21" d="M11.5 0C6.27273 0 1.80864 3.24952 0 7.83645C1.80864 12.4234 6.27273 15.6729 11.5 15.6729C16.7273 15.6729 21.1914 12.4234 23 7.83645C21.1914 3.24952 16.7273 0 11.5 0ZM11.5 13.0608C8.61454 13.0608 6.27273 10.7203 6.27273 7.83645C6.27273 4.95264 8.61454 2.61215 11.5 2.61215C14.3855 2.61215 16.7273 4.95264 16.7273 7.83645C16.7273 10.7203 14.3855 13.0608 11.5 13.0608ZM11.5 4.70187C9.76454 4.70187 8.36363 6.10198 8.36363 7.83645C8.36363 9.57092 9.76454 10.971 11.5 10.971C13.2355 10.971 14.6364 9.57092 14.6364 7.83645C14.6364 6.10198 13.2355 4.70187 11.5 4.70187Z" fill="#252525"/>
</svg>
