<svg width="26" height="26" viewBox="0 0 26 26" fill="none" xmlns="http://www.w3.org/2000/svg">
<path d="M17.2754 13.9225C18.5165 12.9203 19.4224 11.546 19.8671 9.99081C20.3117 8.43558 20.273 6.77678 19.7564 5.24518C19.2397 3.71358 18.2707 2.38535 16.9843 1.44527C15.6978 0.505183 14.1579 0 12.5786 0C10.9994 0 9.45945 0.505183 8.173 1.44527C6.88655 2.38535 5.91758 3.71358 5.4009 5.24518C4.88422 6.77678 4.84552 8.43558 5.29019 9.99081C5.73486 11.546 6.64078 12.9203 7.88192 13.9225C5.7552 14.797 3.89957 16.2474 2.51284 18.1191C1.12611 19.9908 0.260275 22.2137 0.00763608 24.5507C-0.0106513 24.7213 0.00398572 24.894 0.050711 25.0588C0.0974362 25.2236 0.175335 25.3774 0.279959 25.5113C0.491257 25.7818 0.798588 25.955 1.13434 25.9929C1.4701 26.0308 1.80677 25.9303 2.0703 25.7134C2.33383 25.4966 2.50263 25.1812 2.53956 24.8366C2.81755 22.2967 3.99755 19.951 5.85412 18.2476C7.7107 16.5442 10.1137 15.6025 12.604 15.6025C15.0942 15.6025 17.4972 16.5442 19.3538 18.2476C21.2104 19.951 22.3904 22.2967 22.6683 24.8366C22.7028 25.1558 22.8512 25.4507 23.085 25.6642C23.3188 25.8778 23.6213 25.9949 23.9343 25.9929H24.0736C24.4054 25.9537 24.7087 25.7815 24.9174 25.5138C25.1261 25.2461 25.2232 24.9046 25.1876 24.5637C24.9338 22.2201 24.0633 19.9915 22.6694 18.1169C21.2756 16.2423 19.4109 14.7924 17.2754 13.9225ZM12.5786 13C11.5771 13 10.5981 12.6952 9.76531 12.1242C8.93257 11.5531 8.28352 10.7414 7.90025 9.79174C7.51698 8.84209 7.4167 7.79711 7.61209 6.78896C7.80748 5.78081 8.28976 4.85477 8.99795 4.12793C9.70615 3.4011 10.6084 2.90612 11.5907 2.70558C12.573 2.50505 13.5912 2.60797 14.5165 3.00133C15.4418 3.39469 16.2326 4.06082 16.7891 4.91549C17.3455 5.77016 17.6425 6.77498 17.6425 7.80288C17.6425 9.18125 17.109 10.5032 16.1593 11.4778C15.2097 12.4525 13.9217 13 12.5786 13Z" fill="white"/>
</svg>
