<svg width="20" height="17" viewBox="0 0 20 17" fill="none" xmlns="http://www.w3.org/2000/svg">
<path d="M8.2834 1.70117C4.77325 1.70117 1.91406 4.24494 1.91406 7.36784C1.91406 10.4907 4.77325 13.0345 8.2834 13.0345C9.80981 13.0345 11.2116 12.5523 12.3103 11.7518L16.1132 15.1352C16.1719 15.1895 16.2422 15.233 16.32 15.2629C16.3978 15.2928 16.4815 15.3086 16.5662 15.3094C16.651 15.3101 16.735 15.2958 16.8135 15.2673C16.8919 15.2388 16.9632 15.1967 17.0231 15.1434C17.083 15.0901 17.1304 15.0267 17.1624 14.9569C17.1945 14.8871 17.2105 14.8123 17.2097 14.7369C17.2088 14.6615 17.191 14.587 17.1574 14.5178C17.1238 14.4486 17.075 14.3861 17.0139 14.3339L13.2109 10.9505C14.1107 9.97302 14.6527 8.72586 14.6527 7.36784C14.6527 4.24494 11.7935 1.70117 8.2834 1.70117ZM8.2834 2.83451C11.1051 2.83451 13.3789 4.85744 13.3789 7.36784C13.3789 9.87824 11.1051 11.9012 8.2834 11.9012C5.4617 11.9012 3.18793 9.87824 3.18793 7.36784C3.18793 4.85744 5.4617 2.83451 8.2834 2.83451Z" fill="#8E8F92"/>
</svg>
