<svg width="49" height="41" viewBox="0 0 49 41" fill="none" xmlns="http://www.w3.org/2000/svg">
<path d="M11.0737 36.1492C11.6302 36.5791 12.2243 36.9349 12.8454 37.2102C13.987 37.7287 15.2475 37.7287 16.389 37.2102C17.4521 36.5842 17.3369 35.7566 18.1608 35.0882C19.72 33.8149 21.5715 35.6717 24.362 36.1492C28.2777 36.807 28.7384 33.8468 33.221 34.0271C36.1533 34.1438 36.1267 35.4171 40.3081 36.1492C43.6391 36.7327 46.8637 37.2951 48.2811 35.0882C48.8758 33.9193 49.1126 32.5392 48.951 31.1842C48.7894 29.8292 48.2394 28.5836 47.3953 27.661C46.0664 26.4832 45.0033 27.7352 42.9658 26.5999C42.1122 26.0393 41.3596 25.282 40.7514 24.3715C40.1432 23.461 39.6915 22.4153 39.4222 21.2948C39.031 19.5575 39.031 17.727 39.4222 15.9897C40.1664 11.7456 38.7578 5.93115 36.3836 1.43239C34.3569 0.482426 32.1993 -0.00343962 30.0229 1.83285e-05C20.6679 1.83285e-05 13.0846 8.68982 13.0846 19.4062C13.0865 20.3975 13.1516 21.3871 13.2795 22.3665C12.2765 22.0065 11.2349 21.8242 10.1878 21.8253C7.54502 21.757 4.9877 22.9478 3.0775 25.1362C1.16729 27.3245 0.0604214 30.3315 0 33.4966C0.00240409 36.23 0.833499 38.8693 2.33876 40.9238H5.88233C8.7349 36.7009 10.2586 35.7884 11.0737 36.1492Z" fill="#89C93C"/>
</svg>
