<svg width="45" height="35" viewBox="0 0 45 35" fill="none" xmlns="http://www.w3.org/2000/svg">
<path d="M3.79641 32.6214C3.96481 31.9226 4.06691 31.1911 4.31326 30.5311C5.30187 27.8781 6.86542 25.6726 8.4971 23.5308C11.301 19.8503 14.4373 16.5832 17.7713 13.5655C17.8652 13.4914 17.9623 13.4227 18.0622 13.3599C18.4585 13.9413 18.8359 14.512 19.229 15.0676C19.6865 15.7142 19.9898 15.7512 20.4563 15.1361C22.1196 12.9496 24.1221 11.1445 26.3592 9.81545C26.917 9.47986 27.4048 9.0898 27.6014 8.28974C27.743 7.71275 28.2044 7.59218 28.6622 7.90189C29.0974 8.19664 29.5147 8.52863 29.9306 8.85992C30.516 9.32622 30.5222 9.52563 29.9611 10.0336C28.1167 11.7031 26.2702 13.369 24.4214 15.0314C19.5216 19.4348 14.637 23.8616 9.7081 28.222C8.06227 29.6785 6.30405 30.9641 4.59387 32.3217C4.40201 32.4741 4.18702 32.5877 3.98363 32.7191L3.79641 32.6214Z" fill="#F10027"/>
<path d="M23.0997 20.1671L22.8606 20.1657C22.8674 19.0017 22.8578 17.8371 22.8596 16.6731L20.8175 18.2027C20.7193 21.0145 20.6227 23.8264 20.5277 26.6381C20.5126 27.0757 20.5089 27.5139 20.5103 27.952C20.5126 28.7112 20.9994 29.1263 21.9325 29.1055C22.8271 29.0856 23.1917 28.6206 23.1815 27.9371C23.1525 25.967 23.1169 23.9969 23.0907 22.0268C23.0825 21.4065 23.096 20.7869 23.0997 20.1671Z" fill="#F10027"/>
<path d="M19.9743 10.7163C20.9613 11.2577 21.0394 12.0868 21.0065 12.9606C20.9968 13.2191 20.9883 13.4777 20.9787 13.7362L22.9522 12.757C22.9547 12.7096 22.9562 12.6621 22.9591 12.6148C23.0374 11.8769 23.4423 11.1869 24.0999 10.6706C27.085 8.49776 27.7008 4.04266 25.2393 1.47116C23.3341 -0.519186 20.4257 -0.487637 18.6521 1.54649C16.3716 4.16252 16.8029 8.9766 19.9743 10.7163ZM24.5045 3.09175C25.6812 4.65285 25.6617 6.72819 24.4758 7.97023L24.5045 3.09175Z" fill="#F10027"/>
<path d="M31.538 2.7305L31.5013 8.97957L30.9918 8.9777C30.9048 6.96948 30.8179 4.96132 30.7308 2.9532L30.4045 2.94524L30.3689 9.00419L29.796 9.00434L29.8321 2.8671L29.2916 2.86111L29.2558 8.96426L28.7473 8.96997L28.7829 2.91579L28.2479 2.90324L28.2121 8.98997L27.5761 8.99717L27.613 2.72047L27.0522 2.69487C27.0017 3.174 26.9265 3.65228 26.9054 4.13257C26.8226 5.9927 26.7281 7.85317 26.7034 9.7142C26.6958 10.2635 26.7157 10.9371 27.0387 11.3465C29.3833 14.3181 28.9144 17.6599 28.6013 20.9488C28.31 24.0076 27.7783 27.0463 27.4054 30.0993C27.2277 31.5495 28.0005 32.446 29.318 32.4894C30.6824 32.5347 31.5524 31.594 31.3876 30.1136C31.0474 27.0566 30.5204 24.0121 30.3145 20.9491C30.1636 18.7052 30.3564 16.4376 30.4988 14.1859C30.5611 13.5778 30.8164 12.9997 31.2333 12.5221C32.2535 11.3569 32.3922 10.0634 32.3385 8.64579C32.2641 6.67867 32.3402 4.70682 32.3518 2.73684L31.538 2.7305ZM28.8407 23.0082L29.0059 22.9726L28.9547 31.6785C28.0226 31.4001 27.7422 30.9385 27.8523 30.181C28.1995 27.7923 28.5136 25.3995 28.8407 23.0082Z" fill="#F10027"/>
<path d="M20.8542 30.9217C16.038 30.8789 11.2217 30.8526 6.40509 30.8426C5.9699 31.0972 5.53483 31.3519 5.10337 31.6104C4.94729 31.704 4.77185 31.7742 4.60529 31.8554L4.45044 31.7978C4.54654 31.4862 4.61355 31.1643 4.71961 30.8562C4.22767 30.8861 3.73037 30.9583 3.57239 31.105C2.32205 32.2613 1.24346 33.4741 -0.00117442 34.7798C13.4973 34.8592 26.6433 34.9395 39.7895 34.9999C40.1927 35.0023 40.7877 34.8568 40.9687 34.6794C42.1418 33.53 43.2248 32.3526 44.4421 31.0736L30.5938 30.9922C30.5401 31.8671 29.8917 32.4023 28.9392 32.3723C28.0205 32.3434 27.4352 31.827 27.4018 30.9734L20.8547 30.9349L20.8542 30.9217Z" fill="#F10027"/>
</svg>
