<svg width="32" height="32" viewBox="0 0 32 32" fill="none" xmlns="http://www.w3.org/2000/svg">
<path d="M27.9974 21.3327H9.33073C8.97711 21.3327 8.63797 21.1922 8.38792 20.9422C8.13787 20.6921 7.9974 20.353 7.9974 19.9993C7.9974 19.6457 8.13787 19.3066 8.38792 19.0565C8.63797 18.8065 8.97711 18.666 9.33073 18.666H23.2507C24.1423 18.6661 25.0083 18.3683 25.7112 17.8199C26.4142 17.2716 26.9138 16.5041 27.1307 15.6393L29.3307 6.98602C29.3807 6.78923 29.385 6.58363 29.3434 6.38491C29.3018 6.18619 29.2154 5.99959 29.0907 5.83935C28.9611 5.67499 28.7945 5.54348 28.6046 5.45546C28.4146 5.36743 28.2066 5.32537 27.9974 5.33268H9.01073C8.73565 4.55462 8.22664 3.88068 7.55348 3.40327C6.88033 2.92585 6.07599 2.66833 5.25073 2.66602H3.9974C3.64377 2.66602 3.30464 2.80649 3.05459 3.05654C2.80454 3.30659 2.66406 3.64573 2.66406 3.99935C2.66406 4.35297 2.80454 4.69211 3.05459 4.94216C3.30464 5.19221 3.64377 5.33268 3.9974 5.33268H5.25073C5.55531 5.32381 5.85374 5.41953 6.09634 5.6039C6.33893 5.78827 6.51106 6.05018 6.58406 6.34602L6.66406 6.98602L8.97073 15.9993C7.90986 16.0471 6.91141 16.5143 6.19502 17.2982C5.47863 18.0821 5.10299 19.1185 5.15073 20.1793C5.19847 21.2402 5.66568 22.2387 6.44958 22.9551C7.23348 23.6714 8.26986 24.0471 9.33073 23.9993H9.57073C9.35144 24.6035 9.28098 25.2516 9.3653 25.8888C9.44963 26.526 9.68626 27.1335 10.0552 27.6598C10.4241 28.1862 10.9143 28.6159 11.4845 28.9125C12.0547 29.2092 12.688 29.364 13.3307 29.364C13.9735 29.364 14.6067 29.2092 15.1769 28.9125C15.7471 28.6159 16.2374 28.1862 16.6063 27.6598C16.9752 27.1335 17.2118 26.526 17.2962 25.8888C17.3805 25.2516 17.31 24.6035 17.0907 23.9993H20.2374C20.0181 24.6035 19.9476 25.2516 20.032 25.8888C20.1163 26.526 20.3529 27.1335 20.7218 27.6598C21.0907 28.1862 21.581 28.6159 22.1512 28.9125C22.7214 29.2092 23.3547 29.364 23.9974 29.364C24.6401 29.364 25.2734 29.2092 25.8436 28.9125C26.4138 28.6159 26.9041 28.1862 27.273 27.6598C27.6419 27.1335 27.8785 26.526 27.9628 25.8888C28.0471 25.2516 27.9767 24.6035 27.7574 23.9993H27.9974C28.351 23.9993 28.6902 23.8589 28.9402 23.6088C29.1903 23.3588 29.3307 23.0196 29.3307 22.666C29.3307 22.3124 29.1903 21.9733 28.9402 21.7232C28.6902 21.4732 28.351 21.3327 27.9974 21.3327ZM26.2907 7.99935L24.5441 14.986C24.4711 15.2819 24.2989 15.5438 24.0563 15.7281C23.8137 15.9125 23.5153 16.0082 23.2107 15.9993H11.7041L9.70406 7.99935H26.2907ZM13.3307 26.666C13.067 26.666 12.8092 26.5878 12.59 26.4413C12.3707 26.2948 12.1998 26.0866 12.0989 25.8429C11.998 25.5993 11.9716 25.3312 12.023 25.0726C12.0745 24.8139 12.2015 24.5763 12.3879 24.3899C12.5744 24.2034 12.812 24.0764 13.0706 24.025C13.3293 23.9735 13.5973 23.9999 13.841 24.1008C14.0846 24.2018 14.2928 24.3727 14.4394 24.5919C14.5859 24.8112 14.6641 25.069 14.6641 25.3327C14.6641 25.6863 14.5236 26.0254 14.2735 26.2755C14.0235 26.5255 13.6844 26.666 13.3307 26.666ZM23.9974 26.666C23.7337 26.666 23.4759 26.5878 23.2566 26.4413C23.0374 26.2948 22.8665 26.0866 22.7656 25.8429C22.6646 25.5993 22.6382 25.3312 22.6897 25.0726C22.7411 24.8139 22.8681 24.5763 23.0546 24.3899C23.2411 24.2034 23.4786 24.0764 23.7373 24.025C23.9959 23.9735 24.264 23.9999 24.5076 24.1008C24.7513 24.2018 24.9595 24.3727 25.106 24.5919C25.2525 24.8112 25.3307 25.069 25.3307 25.3327C25.3307 25.6863 25.1903 26.0254 24.9402 26.2755C24.6902 26.5255 24.351 26.666 23.9974 26.666Z" fill="#F10027"/>
</svg>
