<svg width="172" height="128" viewBox="0 0 172 128" fill="none" xmlns="http://www.w3.org/2000/svg">
<path d="M171.985 21.5291V127.606H0V21.9997C2.80643 21.1421 5.33905 19.3114 7.28036 16.7371C9.22168 14.1628 10.4853 10.9593 10.9128 7.5284V0H11.0787C11.0787 0.637823 11.0787 1.24428 11.0787 1.86119V4.5484C11.1051 5.07771 11.1051 5.60843 11.0787 6.13774C11.5584 10.639 13.3909 14.7769 16.2333 17.7772C19.0758 20.7774 22.7336 22.4347 26.5224 22.4388C28.5673 22.4388 30.5922 21.9563 32.4813 21.0187C34.3704 20.0811 36.0868 18.7069 37.5323 16.9746C38.9779 15.2424 40.1243 13.1859 40.906 10.9228C41.6878 8.65968 42.0896 6.23426 42.0884 3.78511V5.43718C42.1111 9.86471 43.5751 14.107 46.1689 17.2618C48.7628 20.4165 52.2819 22.235 55.9778 22.3303C59.6737 22.4257 63.2549 20.7904 65.9598 17.7723C68.6646 14.7542 70.2798 10.5914 70.4616 6.1691L70.5664 3.40869C70.5664 3.68055 70.5664 3.94196 70.5664 4.21381C70.5583 9.05294 72.1556 13.6977 75.0068 17.1263C77.858 20.555 81.7297 22.4866 85.7701 22.4963C89.8104 22.506 93.6886 20.593 96.5513 17.1781C99.414 13.7632 101.027 9.12612 101.035 4.287C101.035 9.10116 102.632 13.7182 105.474 17.1223C108.316 20.5264 112.171 22.4388 116.191 22.4388C120.21 22.4388 124.065 20.5264 126.907 17.1223C129.749 13.7182 131.346 9.10116 131.346 4.287V3.78511C131.346 8.73238 132.987 13.477 135.908 16.9753C138.829 20.4735 142.79 22.4388 146.921 22.4388C151.052 22.4388 155.013 20.4735 157.934 16.9753C160.855 13.477 162.496 8.73238 162.496 3.78511V5.43718C162.496 8.97426 163.409 12.4247 165.111 15.3152C166.814 18.2056 169.221 20.3945 172.003 21.5814L171.985 21.5291Z" fill="#FFD76F"/>
</svg>
