<svg width="180" height="180" viewBox="0 0 180 180" fill="none" xmlns="http://www.w3.org/2000/svg">
<g clip-path="url(#clip0_22_1706)">
<path d="M109.948 128.54L115.086 62.9531L93.2592 113.039C93.7502 112.971 94.2503 113.036 94.7082 113.226C95.166 113.415 95.565 113.724 95.8643 114.119C96.1635 114.514 96.3521 114.981 96.4108 115.474C96.4694 115.966 96.396 116.465 96.198 116.919C96 117.373 95.6846 117.767 95.2842 118.059C94.8838 118.351 94.4129 118.531 93.9198 118.581C93.4267 118.631 92.9292 118.548 92.4785 118.342C92.0278 118.136 91.6401 117.813 91.3553 117.408L83.9658 134.365L84.6849 134.362C98.5938 134.543 109.901 131.945 109.948 128.54ZM99.1046 109.512C98.745 109.586 98.3716 109.551 98.0315 109.413C97.6914 109.275 97.3999 109.039 97.1939 108.735C96.9879 108.431 96.8766 108.073 96.8741 107.706C96.8716 107.339 96.9781 106.979 97.18 106.673C97.3819 106.366 97.6702 106.126 98.0085 105.983C98.3467 105.841 98.7196 105.801 99.0801 105.87C99.4407 105.94 99.7726 106.114 100.034 106.372C100.295 106.63 100.474 106.959 100.548 107.319C100.599 107.558 100.602 107.804 100.557 108.045C100.512 108.285 100.42 108.513 100.285 108.717C100.151 108.921 99.9774 109.097 99.7747 109.233C99.572 109.369 99.3443 109.464 99.1046 109.512ZM95.3988 127.621C95.077 128.114 94.6164 128.5 94.075 128.731C93.5336 128.962 92.936 129.027 92.3576 128.918C91.7792 128.81 91.2461 128.532 90.8256 128.12C90.4052 127.708 90.1164 127.181 89.9957 126.605C89.875 126.029 89.9278 125.43 90.1475 124.884C90.3672 124.338 90.744 123.869 91.23 123.537C91.7161 123.205 92.2896 123.025 92.8781 123.019C93.4666 123.013 94.0436 123.182 94.5362 123.504C95.1863 123.942 95.6382 124.618 95.7939 125.386C95.9497 126.154 95.797 126.952 95.3687 127.608L95.3988 127.621ZM103.583 114.673C103.042 114.787 102.478 114.739 101.965 114.533C101.451 114.327 101.01 113.973 100.697 113.516C100.384 113.06 100.214 112.52 100.208 111.967C100.202 111.413 100.36 110.87 100.663 110.407C100.965 109.943 101.398 109.58 101.908 109.363C102.417 109.145 102.979 109.084 103.523 109.187C104.067 109.289 104.568 109.551 104.964 109.938C105.359 110.326 105.63 110.822 105.744 111.364C105.817 111.723 105.819 112.094 105.749 112.455C105.679 112.815 105.538 113.158 105.335 113.464C105.131 113.77 104.869 114.032 104.564 114.237C104.259 114.441 103.916 114.583 103.556 114.654L103.583 114.673ZM103.902 124.735C103.771 124.939 103.6 125.115 103.401 125.253C103.201 125.391 102.976 125.489 102.739 125.539C102.502 125.59 102.257 125.593 102.018 125.548C101.78 125.503 101.552 125.412 101.349 125.279C101.147 125.146 100.972 124.974 100.836 124.773C100.7 124.572 100.605 124.346 100.557 124.109C100.508 123.871 100.507 123.626 100.554 123.388C100.601 123.15 100.695 122.923 100.83 122.722C101.099 122.319 101.516 122.039 101.991 121.943C102.465 121.847 102.958 121.942 103.363 122.207C103.768 122.472 104.052 122.887 104.152 123.36C104.253 123.834 104.163 124.328 103.902 124.735ZM106.736 119.45C106.328 119.536 105.904 119.498 105.518 119.342C105.131 119.186 104.8 118.92 104.565 118.575C104.33 118.231 104.203 117.825 104.199 117.408C104.195 116.992 104.315 116.583 104.543 116.235C104.771 115.886 105.098 115.613 105.481 115.45C105.865 115.287 106.288 115.241 106.697 115.319C107.107 115.396 107.484 115.594 107.781 115.886C108.078 116.178 108.283 116.551 108.368 116.959C108.473 117.507 108.358 118.074 108.047 118.537C107.737 119 107.255 119.322 106.708 119.431L106.736 119.45Z" fill="#DDAD77"/>
<path d="M94.249 118.525C93.7137 118.635 93.1578 118.586 92.6499 118.384C92.1421 118.182 91.7046 117.835 91.3915 117.387L84.002 134.344C70.4801 134.067 59.6355 131.172 59.68 127.824L53.6372 49.2212L53.3273 45.1871L89.8885 45.718L92.6558 45.7607L94.3611 45.7858L98.2166 45.836L116.419 46.0997L116.087 50.1558L115.094 62.949L93.2668 113.035C93.9797 112.947 94.699 113.137 95.2758 113.565C95.8526 113.993 96.2427 114.626 96.3653 115.334C96.4878 116.042 96.3335 116.769 95.9342 117.367C95.5349 117.964 94.9213 118.384 94.2204 118.541L94.249 118.525Z" fill="#F2C58B"/>
<path d="M96.9346 108.078C96.8604 107.72 96.894 107.347 97.0311 107.008C97.1683 106.669 97.4029 106.379 97.7052 106.173C98.0076 105.967 98.3642 105.856 98.7299 105.853C99.0956 105.849 99.454 105.955 99.7599 106.155C100.066 106.356 100.305 106.642 100.448 106.979C100.591 107.316 100.631 107.687 100.563 108.046C100.495 108.406 100.322 108.737 100.066 108.998C99.8097 109.259 99.482 109.438 99.124 109.513C98.6435 109.611 98.1434 109.516 97.7332 109.247C97.323 108.978 97.0359 108.558 96.9346 108.078Z" fill="#F2C58B"/>
<path d="M95.4117 127.621C95.0907 128.112 94.6313 128.497 94.0914 128.728C93.5515 128.958 92.9554 129.023 92.3785 128.915C91.8015 128.807 91.2697 128.53 90.8501 128.119C90.4305 127.709 90.142 127.183 90.0211 126.609C89.9002 126.034 89.9523 125.437 90.1708 124.892C90.3893 124.347 90.7645 123.88 91.2488 123.548C91.7331 123.216 92.3048 123.036 92.8918 123.029C93.4788 123.022 94.0546 123.189 94.5465 123.51C94.8734 123.723 95.1551 123.998 95.3756 124.32C95.596 124.642 95.7509 125.004 95.8312 125.386C95.9116 125.768 95.9159 126.162 95.8439 126.545C95.7719 126.929 95.6251 127.294 95.4117 127.621Z" fill="#F2C58B"/>
<path d="M103.603 114.675C103.062 114.79 102.498 114.741 101.984 114.535C101.471 114.329 101.029 113.975 100.717 113.519C100.404 113.062 100.234 112.522 100.228 111.969C100.222 111.415 100.38 110.872 100.682 110.409C100.985 109.945 101.418 109.582 101.928 109.365C102.437 109.148 102.999 109.086 103.543 109.189C104.087 109.291 104.588 109.553 104.984 109.94C105.379 110.328 105.65 110.824 105.764 111.366C105.84 111.725 105.844 112.096 105.776 112.457C105.709 112.817 105.571 113.161 105.37 113.469C105.169 113.776 104.91 114.041 104.607 114.248C104.304 114.455 103.963 114.6 103.603 114.675Z" fill="#F2C58B"/>
<path d="M103.952 124.744C103.686 125.153 103.268 125.439 102.791 125.539C102.313 125.639 101.816 125.546 101.407 125.279C100.999 125.013 100.713 124.595 100.612 124.117C100.512 123.64 100.605 123.142 100.872 122.734C101.139 122.326 101.557 122.04 102.034 121.939C102.27 121.89 102.514 121.887 102.751 121.932C102.989 121.976 103.215 122.067 103.417 122.199C103.62 122.331 103.794 122.501 103.93 122.701C104.067 122.9 104.162 123.124 104.212 123.361C104.262 123.597 104.264 123.841 104.22 124.078C104.175 124.316 104.084 124.542 103.952 124.744Z" fill="#F2C58B"/>
<path d="M106.755 119.444C106.347 119.529 105.923 119.491 105.536 119.336C105.15 119.18 104.818 118.913 104.584 118.569C104.349 118.224 104.221 117.818 104.218 117.402C104.214 116.985 104.333 116.577 104.562 116.228C104.79 115.879 105.116 115.606 105.5 115.443C105.883 115.28 106.306 115.235 106.716 115.312C107.125 115.39 107.502 115.587 107.8 115.879C108.097 116.171 108.301 116.544 108.386 116.952C108.498 117.499 108.389 118.068 108.084 118.534C107.778 119.001 107.3 119.328 106.755 119.444Z" fill="#F2C58B"/>
<path d="M84.8935 55.7106C103.088 55.9764 117.9 51.8365 117.979 46.4639C118.057 41.0913 103.372 36.5204 85.1777 36.2547C66.9836 35.9889 52.1708 40.1288 52.0923 45.5014C52.0138 50.874 66.6994 55.4448 84.8935 55.7106Z" fill="#42331D"/>
<path d="M66.0448 118.863C67.5479 119.518 69.2974 118.831 69.9524 117.328C70.6074 115.825 69.9199 114.075 68.4168 113.42C66.9138 112.765 65.1643 113.453 64.5093 114.956C63.8543 116.459 64.5418 118.208 66.0448 118.863Z" fill="#42331D"/>
<path d="M75.3964 126.049C76.8995 126.704 78.6489 126.017 79.3039 124.513C79.959 123.01 79.2715 121.261 77.7684 120.606C76.2654 119.951 74.5159 120.638 73.8609 122.141C73.2059 123.645 73.8933 125.394 75.3964 126.049Z" fill="#42331D"/>
<path d="M78.998 115.432C80.501 116.087 82.2505 115.399 82.9055 113.896C83.5605 112.393 82.873 110.644 81.37 109.989C79.8669 109.334 78.1174 110.021 77.4624 111.524C76.8074 113.027 77.4949 114.777 78.998 115.432Z" fill="#42331D"/>
<path d="M71.1615 109.304C72.0913 109.709 73.1736 109.284 73.5788 108.354C73.984 107.424 73.5587 106.342 72.6289 105.937C71.699 105.532 70.6168 105.957 70.2116 106.887C69.8064 107.817 70.2316 108.899 71.1615 109.304Z" fill="#42331D"/>
<path d="M95.4117 127.621C95.0907 128.112 94.6313 128.497 94.0914 128.728C93.5515 128.958 92.9554 129.023 92.3785 128.915C91.8015 128.807 91.2697 128.53 90.8501 128.119C90.4305 127.709 90.142 127.183 90.0211 126.609C89.9002 126.034 89.9523 125.437 90.1708 124.892C90.3893 124.347 90.7645 123.88 91.2488 123.548C91.7331 123.216 92.3048 123.036 92.8918 123.029C93.4788 123.022 94.0546 123.189 94.5465 123.51C94.8734 123.723 95.1551 123.998 95.3756 124.32C95.596 124.642 95.7509 125.004 95.8312 125.386C95.9116 125.768 95.9159 126.162 95.8439 126.545C95.7719 126.929 95.6251 127.294 95.4117 127.621Z" fill="#42331D"/>
<path d="M103.952 124.744C103.686 125.153 103.268 125.439 102.791 125.539C102.313 125.639 101.816 125.546 101.407 125.279C100.999 125.013 100.713 124.595 100.612 124.117C100.512 123.64 100.605 123.142 100.872 122.734C101.139 122.326 101.557 122.04 102.034 121.939C102.27 121.89 102.514 121.887 102.751 121.932C102.989 121.976 103.215 122.067 103.417 122.199C103.62 122.331 103.794 122.501 103.93 122.701C104.067 122.9 104.162 123.124 104.212 123.361C104.262 123.597 104.264 123.841 104.22 124.078C104.175 124.316 104.084 124.542 103.952 124.744Z" fill="#42331D"/>
<path d="M67.1069 127.972C68.0367 128.377 69.119 127.952 69.5242 127.022C69.9294 126.092 69.5041 125.01 68.5743 124.605C67.6444 124.2 66.5621 124.625 66.1569 125.555C65.7517 126.485 66.177 127.567 67.1069 127.972Z" fill="#42331D"/>
<path d="M74.4272 118.202C75.357 118.608 76.4392 118.182 76.8444 117.253C77.2496 116.323 76.8244 115.24 75.8946 114.835C74.9647 114.43 73.8825 114.855 73.4773 115.785C73.072 116.715 73.4974 117.797 74.4272 118.202Z" fill="#42331D"/>
<path d="M94.2543 118.526C93.719 118.636 93.1631 118.587 92.6552 118.385C92.1474 118.183 91.7099 117.836 91.3969 117.388C91.1758 117.081 91.0226 116.73 90.9476 116.359C90.8716 116 90.8673 115.63 90.9348 115.269C91.0024 114.908 91.1404 114.564 91.3411 114.256C91.5417 113.949 91.801 113.684 92.1042 113.477C92.4074 113.27 92.7485 113.125 93.1078 113.05C93.1686 113.032 93.2313 113.02 93.2947 113.017C94.0076 112.929 94.7269 113.119 95.3037 113.547C95.8805 113.975 96.2706 114.608 96.3932 115.316C96.5158 116.023 96.3614 116.751 95.9621 117.348C95.5628 117.945 94.9492 118.366 94.2483 118.523L94.2543 118.526Z" fill="#42331D"/>
<path d="M84.7558 122.201C86.2588 122.856 88.0083 122.169 88.6633 120.666C89.3183 119.163 88.6308 117.413 87.1278 116.758C85.6247 116.103 83.8753 116.791 83.2202 118.294C82.5652 119.797 83.2527 121.546 84.7558 122.201Z" fill="#42331D"/>
<path d="M82.8252 131.182C83.955 131.674 85.27 131.158 85.7624 130.028C86.2547 128.898 85.738 127.583 84.6082 127.091C83.4784 126.598 82.1634 127.115 81.671 128.245C81.1787 129.375 81.6954 130.69 82.8252 131.182Z" fill="#42331D"/>
<path d="M88.3495 111.582C89.8526 112.237 91.6021 111.55 92.2571 110.047C92.9121 108.544 92.2246 106.794 90.7215 106.139C89.2185 105.484 87.469 106.172 86.814 107.675C86.159 109.178 86.8465 110.927 88.3495 111.582Z" fill="#42331D"/>
<path d="M80.4715 107.395C81.088 107.664 81.8056 107.382 82.0743 106.765C82.343 106.149 82.061 105.431 81.4445 105.162C80.8279 104.894 80.1103 105.176 79.8416 105.792C79.5729 106.409 79.8549 107.126 80.4715 107.395Z" fill="#42331D"/>
<path d="M99.1053 109.506C98.7459 109.582 98.3722 109.548 98.0317 109.411C97.6911 109.274 97.399 109.039 97.1921 108.735C96.9852 108.432 96.873 108.074 96.8696 107.707C96.8662 107.339 96.9717 106.98 97.1729 106.672C97.3741 106.365 97.6618 106.125 97.9997 105.981C98.3377 105.837 98.7107 105.797 99.0714 105.866C99.4322 105.934 99.7646 106.108 100.027 106.365C100.288 106.622 100.468 106.952 100.543 107.311C100.594 107.55 100.596 107.796 100.551 108.036C100.506 108.275 100.415 108.504 100.281 108.708C100.147 108.912 99.9746 109.088 99.7729 109.225C99.5711 109.362 99.3442 109.457 99.1053 109.506Z" fill="#42331D"/>
<path d="M89.7161 103.006C90.7126 103.44 91.8724 102.985 92.3067 101.988C92.7409 100.992 92.2851 99.8319 91.2887 99.3976C90.2922 98.9634 89.1323 99.4192 88.6981 100.416C88.2638 101.412 88.7196 102.572 89.7161 103.006Z" fill="#42331D"/>
<path d="M103.603 114.675C103.062 114.79 102.498 114.741 101.984 114.535C101.471 114.329 101.029 113.975 100.717 113.519C100.404 113.062 100.234 112.522 100.228 111.969C100.222 111.415 100.38 110.872 100.682 110.409C100.985 109.945 101.418 109.582 101.928 109.365C102.437 109.148 102.999 109.086 103.543 109.189C104.087 109.291 104.588 109.553 104.984 109.94C105.379 110.328 105.65 110.824 105.764 111.366C105.84 111.725 105.844 112.096 105.776 112.457C105.709 112.817 105.571 113.161 105.37 113.469C105.169 113.776 104.91 114.041 104.607 114.248C104.304 114.455 103.963 114.6 103.603 114.675Z" fill="#42331D"/>
<path d="M106.755 119.444C106.347 119.529 105.923 119.491 105.536 119.336C105.15 119.18 104.818 118.913 104.584 118.569C104.349 118.224 104.221 117.818 104.218 117.402C104.214 116.985 104.333 116.577 104.562 116.228C104.79 115.879 105.116 115.606 105.5 115.443C105.883 115.28 106.306 115.235 106.716 115.312C107.125 115.39 107.502 115.587 107.8 115.879C108.097 116.171 108.301 116.544 108.386 116.952C108.498 117.499 108.389 118.068 108.084 118.534C107.778 119.001 107.3 119.328 106.755 119.444Z" fill="#42331D"/>
<path d="M99.5979 19.6318L91.2891 19.1953L89.8426 46.7316L98.1515 47.1681L99.5979 19.6318Z" fill="#BE9BC8"/>
<path d="M95.3803 20.611C97.6747 20.7315 99.5629 20.2936 99.5976 19.6328C99.6323 18.9721 97.8004 18.3387 95.506 18.2182C93.2115 18.0977 91.3234 18.5356 91.2887 19.1964C91.254 19.8571 93.0858 20.4905 95.3803 20.611Z" fill="#A580B2"/>
<path d="M93.935 48.1481C96.2295 48.2686 98.1176 47.8307 98.1523 47.1699C98.187 46.5092 96.3552 45.8759 94.0607 45.7553C91.7663 45.6348 89.8781 46.0727 89.8434 46.7335C89.8087 47.3942 91.6406 48.0276 93.935 48.1481Z" fill="#BE9BC8"/>
<path d="M91.3679 117.378L93.2718 113.009C93.7646 112.939 94.2671 113.002 94.7274 113.192C95.1877 113.381 95.5891 113.69 95.8904 114.086C96.1916 114.482 96.3818 114.951 96.4412 115.445C96.5005 115.939 96.427 116.44 96.2282 116.897C96.0294 117.353 95.7124 117.748 95.3101 118.041C94.9077 118.334 94.4345 118.514 93.9392 118.563C93.4439 118.612 92.9446 118.528 92.4926 118.32C92.0406 118.112 91.6523 117.786 91.3679 117.378Z" fill="#42331D"/>
<path d="M96.9346 108.078C96.8604 107.72 96.894 107.347 97.0311 107.008C97.1683 106.669 97.4029 106.379 97.7052 106.173C98.0076 105.967 98.3642 105.856 98.7299 105.853C99.0956 105.849 99.454 105.955 99.7599 106.155C100.066 106.356 100.305 106.642 100.448 106.979C100.591 107.316 100.631 107.687 100.563 108.046C100.495 108.406 100.322 108.737 100.066 108.998C99.8097 109.259 99.482 109.438 99.124 109.513C98.6435 109.611 98.1434 109.516 97.7332 109.247C97.323 108.978 97.0359 108.558 96.9346 108.078Z" fill="#42331D"/>
<path d="M94.5514 123.509C95.043 123.831 95.4282 124.291 95.6581 124.832C95.888 125.372 95.9524 125.969 95.843 126.546C95.7337 127.123 95.4556 127.655 95.0439 128.074C94.6322 128.493 94.1054 128.781 93.5302 128.9C92.9551 129.02 92.3574 128.966 91.8128 128.746C91.2682 128.525 90.8012 128.148 90.471 127.662C90.1407 127.177 89.962 126.604 89.9575 126.016C89.953 125.429 90.1229 124.853 90.4457 124.362C90.8776 123.706 91.5525 123.247 92.3222 123.087C93.0918 122.927 93.8935 123.079 94.5514 123.509Z" fill="#42331D"/>
<path d="M105.772 111.368C105.884 111.908 105.834 112.469 105.628 112.981C105.422 113.493 105.069 113.932 104.613 114.243C104.158 114.554 103.62 114.724 103.068 114.729C102.517 114.735 101.976 114.577 101.514 114.276C101.052 113.974 100.69 113.542 100.473 113.035C100.256 112.528 100.195 111.967 100.296 111.425C100.397 110.883 100.657 110.383 101.043 109.988C101.428 109.593 101.922 109.322 102.462 109.208C103.187 109.058 103.942 109.201 104.562 109.606C105.182 110.011 105.617 110.644 105.772 111.368Z" fill="#42331D"/>
<path d="M103.385 122.191C103.588 122.322 103.763 122.491 103.9 122.69C104.036 122.889 104.132 123.112 104.182 123.348C104.232 123.584 104.235 123.828 104.191 124.065C104.146 124.302 104.055 124.528 103.923 124.73C103.657 125.138 103.239 125.424 102.761 125.525C102.284 125.625 101.786 125.532 101.378 125.265C100.969 124.998 100.684 124.581 100.583 124.103C100.483 123.626 100.576 123.128 100.843 122.72C100.974 122.517 101.145 122.343 101.344 122.207C101.543 122.071 101.768 121.975 102.004 121.926C102.24 121.877 102.484 121.875 102.721 121.92C102.958 121.966 103.184 122.058 103.385 122.191Z" fill="#42331D"/>
<path d="M104.253 117.809C104.169 117.401 104.207 116.978 104.363 116.592C104.52 116.206 104.787 115.875 105.131 115.641C105.475 115.406 105.881 115.279 106.297 115.276C106.713 115.272 107.121 115.391 107.469 115.619C107.818 115.847 108.091 116.173 108.254 116.556C108.417 116.939 108.463 117.362 108.386 117.771C108.309 118.18 108.113 118.557 107.822 118.855C107.531 119.152 107.158 119.357 106.751 119.443C106.48 119.5 106.2 119.503 105.927 119.452C105.655 119.401 105.395 119.296 105.163 119.145C104.931 118.993 104.731 118.797 104.575 118.567C104.419 118.338 104.31 118.08 104.253 117.809Z" fill="#42331D"/>
<path d="M184.172 125.315C180.604 128.345 175.492 129.201 173.493 127.136C171.494 125.072 171.473 122.28 175.042 119.25C178.61 116.22 181.221 116.232 183.22 118.296C185.22 120.361 187.741 122.285 184.172 125.315Z" fill="#FF3333"/>
<path d="M24.4027 158.489C18.7209 163.314 8.85703 162.894 3.81056 157.683C-1.23591 152.472 -2.65872 146.592 3.02303 141.767C8.70478 136.942 13.9652 138.101 19.0117 143.312C24.0582 148.523 30.0844 153.664 24.4027 158.489Z" fill="#FBD246"/>
</g>
<defs>
<clipPath id="clip0_22_1706">
<rect width="180" height="180" fill="white"/>
</clipPath>
</defs>
</svg>
