<svg width="67" height="41" viewBox="0 0 67 41" fill="none" xmlns="http://www.w3.org/2000/svg">
<path d="M67 19.6073V40.7245H2.32737C0.82944 38.68 0.00239238 36.0535 0 33.3335C0.0601271 30.1838 1.16161 27.1915 3.06251 25.0138C4.96341 22.8361 7.50828 21.6511 10.1382 21.719C11.1802 21.7179 12.2167 21.8993 13.2149 22.2575C13.0876 21.2829 13.0228 20.2981 13.0209 19.3117C13.0209 8.6475 20.5672 0 29.8767 0C39.1862 0 46.7237 8.6475 46.7237 19.3117C46.7253 19.9713 46.6959 20.6305 46.6355 21.2861C47.6041 20.4884 48.7086 19.9585 49.8692 19.7345C51.0297 19.5106 52.2173 19.5983 53.3461 19.9914C54.4748 20.3844 55.5166 21.073 56.396 22.0072C57.2754 22.9414 57.9705 24.0981 58.431 25.3934C59.2251 23.6415 60.3995 22.1791 61.8302 21.1606C63.261 20.1422 64.8948 19.6055 66.5592 19.6073H67Z" fill="#3BB243"/>
</svg>
