<svg width="328" height="296" viewBox="0 0 328 296" fill="none" xmlns="http://www.w3.org/2000/svg">
<path d="M6.93751 199.612C11.1363 212.63 17.1421 224.92 24.759 236.082C33.188 248.13 43.4847 258.592 55.2157 267.03C91.2068 293.685 133.411 295.363 148.535 295.767C169.002 296.326 213.947 297.546 256.543 267.03C260.755 264.012 325.819 216.077 327.847 134.396C328.308 115.804 329.448 69.6661 301.628 45.9737C275.966 24.125 252.967 44.6346 195.726 19.447C174.597 10.1553 167.818 3.00083 148.535 0.661861C120.071 -2.80532 97.1938 8.2016 85.6202 13.9252C76.9879 18.1812 24.0455 45.561 5.87587 110.08C3.51766 118.509 -6.66358 157.401 6.93751 199.612Z" fill="#FFEDED"/>
</svg>
