<svg width="16" height="19" viewBox="0 0 16 19" fill="none" xmlns="http://www.w3.org/2000/svg">
<path d="M14.516 13.3947V15.7696C14.5167 15.9901 14.4791 16.2083 14.4055 16.4103C14.3319 16.6123 14.2239 16.7937 14.0885 16.9427C13.9531 17.0918 13.7933 17.2053 13.6193 17.2759C13.4452 17.3465 13.2608 17.3728 13.0778 17.3529C11.0478 17.0882 9.09778 16.2558 7.38451 14.9225C5.79055 13.7071 4.43914 12.0854 3.42626 10.1726C2.31134 8.10739 1.6175 5.75602 1.40096 3.30904C1.38447 3.09012 1.40616 2.86948 1.46462 2.66117C1.52309 2.45286 1.61706 2.26144 1.74056 2.0991C1.86405 1.93676 2.01436 1.80705 2.18192 1.71824C2.34947 1.62942 2.53061 1.58345 2.71378 1.58324H4.6929C5.01307 1.57946 5.32345 1.71551 5.5662 1.96603C5.80895 2.21655 5.96751 2.56445 6.01232 2.94488C6.09586 3.70492 6.25077 4.45117 6.47412 5.16942C6.56288 5.45277 6.58209 5.76071 6.52947 6.05676C6.47686 6.35281 6.35462 6.62456 6.17725 6.8398L5.33942 7.84519C6.27855 9.82712 7.64606 11.4681 9.29767 12.5951L10.1355 11.5897C10.3149 11.3769 10.5413 11.2302 10.788 11.167C11.0347 11.1039 11.2914 11.1269 11.5275 11.2335C12.126 11.5015 12.7479 11.6874 13.3813 11.7876C13.7017 11.8419 13.9944 12.0356 14.2036 12.3319C14.4128 12.6282 14.524 13.0064 14.516 13.3947Z" fill="white"/>
</svg>
