<svg width="318" height="309" viewBox="0 0 318 309" fill="none" xmlns="http://www.w3.org/2000/svg">
<path d="M2.38731 204.364C-4.23032 123.161 66.0419 43.1243 148.437 36.79C230.832 30.4556 295.066 59.2294 301.683 140.432C308.301 221.635 262.139 257.846 179.745 264.18C97.3497 270.515 9.00494 285.567 2.38731 204.364Z" fill="#FFEDED"/>
<path d="M209.79 72.3762C209.219 65.36 215.29 58.4445 222.41 57.8972C229.529 57.3499 235.079 59.8361 235.651 66.8522C236.222 73.8684 232.234 76.9972 225.115 77.5445C217.996 78.0918 210.362 79.3923 209.79 72.3762Z" fill="#F89945"/>
<path d="M8.35519 47.7057C-2.03038 38.9863 -2.84136 21.2747 6.52469 10.751C15.8907 0.227364 27.1669 -4.03064 37.5524 4.68879C47.938 13.4082 46.5414 23.1274 37.1753 33.651C27.8093 44.1747 18.7408 56.4252 8.35519 47.7057Z" fill="#FFEDED"/>
<path d="M312.017 253.211C321.724 262.639 318.069 283.412 304.551 296.542C291.032 309.672 273.088 311.597 267.229 306.155C261.371 300.714 261.65 285.181 275.168 272.051C288.687 258.921 302.31 243.783 312.017 253.211Z" fill="#FFEDED"/>
<path d="M49.2996 205.836C44.0604 210.45 34.9647 210.049 30.3112 205.065C25.6578 200.081 24.3458 194.457 29.585 189.842C34.8243 185.227 39.6751 186.335 44.3285 191.319C48.982 196.303 54.5389 201.221 49.2996 205.836Z" fill="#FBD246"/>
<path d="M166.529 178.248C166.529 178.248 163.253 188.31 164.653 191.399C166.053 194.488 203.573 218.952 232.764 222.535C233.195 222.584 233.631 222.545 234.046 222.42C234.461 222.294 234.844 222.086 235.172 221.807C237.58 219.761 243.306 214.627 244.104 211.319C245.126 207.118 222.824 212.238 166.529 178.248Z" fill="#F89945"/>
<path d="M174.597 190.56C177.405 193.549 181.421 192.062 183.865 194.86C186.308 197.658 186.771 198.464 190.113 197.877C190.731 197.767 191.279 198.368 191.672 198.696C194.803 201.234 196.544 202.654 201.403 203.091C202.423 203.077 203.417 203.41 204.211 204.033C206.649 205.746 209.641 206.545 212.636 206.285C212.848 206.276 213.059 206.313 213.254 206.394C215.346 207.363 215.543 208.96 217.467 210.325C220.429 212.387 223.168 214.27 226.58 211.936C227.131 211.653 227.767 211.566 228.377 211.69C231.916 212.291 231.424 216.086 236.044 214.42C238.431 213.588 239.161 215.635 240.425 216.591C242.051 215.057 243.308 213.193 244.104 211.131C245.129 206.954 222.76 212.045 166.298 178.248C165.442 180.93 164.776 183.667 164.305 186.438C166.046 190.014 172.182 188.021 174.597 190.56Z" fill="#D77124"/>
<path opacity="0.55" d="M211.482 212.562C208.72 208.788 205.118 203.347 204.805 198.452C192 193.13 179.601 186.948 167.701 179.952C167.701 179.952 165.096 188.156 166.448 190.767C167.531 192.846 190.652 207.435 213.432 214.887C212.706 214.135 212.08 213.369 211.482 212.562Z" fill="#CD4200"/>
<path d="M208.723 174.934C208.723 174.934 175.254 164.03 172.147 166.756C169.04 169.482 166.738 176.475 168.334 179.432C169.93 182.39 202.114 196.906 207.212 199.632C226.757 210.1 242.277 208.655 243.153 208.914C244.028 209.173 252.445 202.958 249.748 195.421C247.234 188.346 214.428 177.919 208.723 174.934Z" fill="#BE5B2A"/>
<path d="M210.205 193.411C207.446 189.751 205.257 185.72 203.707 181.446C202.942 178.555 202.409 175.612 202.115 172.642C195.068 170.503 184.046 167.3 177.408 166.319C174.039 172.765 173.758 179.156 177.859 185.398C188.119 191.013 203.369 198.276 207.076 199.38C208.725 199.871 212.502 200.866 216.942 202.106C214.485 199.366 212.234 196.46 210.205 193.411Z" fill="#AE4D25"/>
<path d="M195.411 176.746C200.655 178.954 204.633 182.443 209.286 185.577C213.174 188.025 216.863 190.759 220.321 193.754C223.034 196.275 227.575 204.125 231.567 201.618C234.561 199.71 238.174 199.873 241.548 199.424C244.417 198.993 247.343 199.048 250.193 199.587C250.392 198.17 250.243 196.727 249.757 195.376C247.255 188.344 214.614 177.918 208.92 174.933C208.92 174.933 175.605 164.031 172.512 166.756C171.691 167.518 170.995 168.395 170.445 169.359C179.245 170.34 187.202 173.23 195.411 176.746Z" fill="#953E25"/>
<path d="M166.952 178.252C169.449 178.215 171.943 178.409 174.401 178.832C177.005 179.452 182.718 184.603 189.802 186.464C196.887 188.325 194.633 192.019 202.935 193.947C211.238 195.875 211.966 199.637 214.794 199.961C217.623 200.285 224.511 204.074 225.883 205.166C227.255 206.258 238.05 204.963 240.738 206.932C243.427 208.901 247.529 207.687 247.627 209.17C247.725 210.654 247.627 213.998 243.091 213C238.554 212.002 235.894 212.582 234.438 210.964C232.982 209.346 220.325 210.249 219.807 208.078C219.289 205.907 214.892 204.168 210.902 202.995C206.912 201.822 206.044 200.001 201.101 198.95C196.159 197.898 190.656 193.206 188.248 193.273C185.84 193.341 179.287 191.358 178.363 189.349C177.439 187.34 172.581 184.158 170.873 184.266C169.165 184.374 166.714 179.264 166.952 178.252Z" fill="#7BB027"/>
<path d="M172.085 177.111C172.085 177.002 172.085 176.879 172.239 177.029C172.698 176.924 173.17 176.887 173.64 176.92V176.797C174.214 176.892 174.859 176.797 175.405 176.797C175.399 176.765 175.399 176.732 175.405 176.701C176.57 177.129 177.758 177.494 178.964 177.794C180.042 178.355 181.149 179.872 179.72 180.665C179.062 181.021 178.319 180.775 178.039 181.649C177.979 181.986 177.995 182.331 178.084 182.662C178.174 182.992 178.335 183.299 178.557 183.563C179.899 184.595 181.423 185.378 183.054 185.874C184.301 186.297 186.851 187.241 187.677 185.696C188.013 185.299 187.425 184.684 187.565 184.165C187.672 183.879 187.86 183.629 188.109 183.444C188.357 183.26 188.655 183.15 188.966 183.126C189.657 183.395 190.383 183.57 191.123 183.645C191.982 184.067 192.884 184.402 193.813 184.643C194.577 185.018 195.316 185.438 196.026 185.901C196.391 186.352 196.741 186.913 197.133 187.268C197.525 187.623 197.637 188.867 196.965 189.414C196.559 189.742 195.956 189.524 195.564 189.606C195.078 189.748 194.608 189.94 194.163 190.18C194.104 190.412 194.096 190.654 194.139 190.89C194.183 191.125 194.277 191.349 194.415 191.547C194.541 191.67 194.626 191.684 194.724 191.916C196.559 192.531 198.044 194.021 199.935 194.445C200.038 194.55 200.166 194.628 200.308 194.674C200.45 194.719 200.601 194.73 200.747 194.705C201.154 194.954 201.598 195.139 202.064 195.252V195.115C202.108 195.178 202.172 195.226 202.246 195.252C202.26 195.229 202.267 195.203 202.267 195.176C202.267 195.15 202.26 195.124 202.246 195.101C203.647 195.101 201.812 193.269 201.644 192.818C201.042 191.26 203.045 191.451 204.068 191.67C206.645 192.34 210.189 193.761 211.632 196.167C211.513 196.628 211.216 197.027 210.805 197.281C210.393 197.535 209.897 197.626 209.419 197.535C209.125 197.671 208.508 197.781 208.13 197.972C208.13 197.972 207.99 198.273 207.934 198.355C208.063 198.564 208.218 198.757 208.396 198.929C208.719 199.517 209.797 199.763 210.232 199.968C210.312 200.023 210.402 200.065 210.498 200.091C210.728 200.248 210.977 200.376 211.24 200.474V200.337C211.604 200.515 212.361 200.61 212.641 200.091C213.762 199.489 212.837 197.124 214.925 197.958C216.115 198.423 217.432 199.722 218.707 198.984C219.632 199.12 220.332 199.079 221.004 199.735C221.425 201.731 219.716 201.813 218.203 202.47L218.049 202.552C218.049 202.716 217.922 202.88 217.866 203.044C217.81 203.208 217.936 203.221 217.95 203.317C217.965 203.282 217.965 203.243 217.95 203.208C218.105 203.782 219.351 204.711 219.828 204.575C220.934 205.819 223.134 204.178 224.283 203.604C225.038 203.161 225.847 202.812 226.692 202.565C227.631 202.36 228.177 202.852 228.962 202.811C229.909 203.46 230.616 204.391 230.979 205.463C231.245 206.352 230.979 207.787 232.184 208.033C235.252 210.139 238.936 205.299 242.088 205.204C242.294 205.181 242.503 205.198 242.702 205.255C242.902 205.311 243.087 205.406 243.249 205.533C243.411 205.66 243.545 205.818 243.644 205.996C243.742 206.174 243.804 206.369 243.825 206.571C243.937 207.35 243.349 208.02 243.447 208.772C243.478 208.955 243.548 209.131 243.652 209.288C243.755 209.444 243.89 209.579 244.049 209.682C244.208 209.786 244.387 209.857 244.575 209.891C244.763 209.925 244.956 209.921 245.142 209.879C246.024 209.701 246.305 208.813 247.019 208.443C247.426 208.213 247.899 208.119 248.366 208.173C248.833 208.228 249.27 208.43 249.609 208.747C249.949 209.065 250.174 209.482 250.25 209.935C250.326 210.388 250.249 210.853 250.031 211.26C249.477 212.001 248.769 212.621 247.953 213.078C247.137 213.535 246.232 213.819 245.296 213.912C244.321 214.589 243.143 214.93 241.948 214.882C241.634 214.83 241.337 214.707 241.081 214.524C240.824 214.341 240.614 214.103 240.467 213.827C240.321 213.552 240.241 213.247 240.236 212.937C240.23 212.626 240.298 212.319 240.435 212.039C240.799 211.014 241.766 209.619 240.883 208.731C240.662 208.578 240.413 208.469 240.149 208.411C239.885 208.352 239.612 208.345 239.346 208.389C239.079 208.434 238.824 208.529 238.595 208.669C238.366 208.81 238.168 208.994 238.011 209.209C237.341 209.876 236.761 210.625 236.288 211.437C235.76 212.122 235.116 212.714 234.383 213.187C234.173 213.187 234.159 213.187 234.075 213.283C231.595 213.283 230.054 210.863 230.362 208.389C229.97 207.391 229.466 205.231 227.995 207.022C227.569 207.654 227.243 208.345 227.028 209.072C226.628 209.676 226.273 210.306 225.964 210.959C225.32 211.397 224.565 211.654 223.782 211.702C222.999 211.75 222.218 211.588 221.523 211.232C219.744 210.451 218.2 209.236 217.04 207.705C216.059 206.543 215.205 205.655 216.297 204.274C216.606 203.864 217.418 203.18 217.404 202.579C217.376 202.236 217.216 201.915 216.956 201.682C216.696 201.449 216.356 201.32 216.003 201.321C214.308 200.515 213.692 202.688 212.809 203.686C212.209 204.276 211.434 204.666 210.594 204.801C209.754 204.936 208.892 204.809 208.13 204.438C206.939 204.014 203.311 202.429 204.166 200.802C204.53 200.077 205.665 200.036 206.113 199.435C206.315 199.041 206.379 198.592 206.292 198.159C206.206 197.727 205.976 197.334 205.637 197.042C205.188 196.537 203.157 195.347 203.157 196.673C202.975 197.015 203.157 197.603 203.059 198.04C202.885 198.487 202.74 198.943 202.625 199.407C202.022 199.653 201.672 200.364 201.224 200.692C200.659 201.113 199.984 201.368 199.277 201.431C199.118 201.411 198.958 201.411 198.8 201.431C196.76 200.608 194.942 199.335 193.491 197.712C192.977 197.161 192.573 196.521 192.3 195.826C192.118 194.937 192.874 194.308 192.846 193.433C192.846 191.943 190.171 189.92 189.624 192.066C189.358 193.16 189.961 193.926 189.4 195.033C189.036 195.73 188.616 196.4 187.719 196.4V196.482C183.404 195.894 187.817 191.246 185.324 189.524C184.525 188.977 182.424 188.321 181.513 188.84C180.112 189.633 181.835 191.273 180.112 191.957L179.776 191.848C177.941 191.479 175.573 189.66 175.882 187.541C176.008 186.721 176.974 186.174 176.988 185.395C176.828 184.648 176.376 183.991 175.727 183.563C175.533 183.324 175.274 183.141 174.98 183.038C174.685 182.934 174.367 182.912 174.06 182.976C173.122 183.126 173.108 183.645 173.15 184.479C173.262 186.461 173.038 187.473 171.147 188.485C170.345 188.385 169.573 188.128 168.877 187.729C168.181 187.329 167.576 186.796 167.098 186.161C166.454 185.067 167.098 183.208 167.098 182.06C166.944 181.185 165.039 180.501 164.296 180.337C161.172 178.519 162.489 173.406 166.271 175.224C167.584 176.106 168.648 177.296 169.367 178.683C170.068 179.64 171.819 181.417 172.926 179.804C173.808 178.546 172.057 178.013 172.141 176.865C172.225 176.879 171.889 177.138 172.085 177.111Z" fill="#9FCC29"/>
<path d="M185.717 161.528C185.717 161.528 173.426 160.031 167.814 163.496L168.178 165.694C168.178 165.694 187.934 169.253 200.632 177.126C213.331 185 226.478 194.949 230 198.697C230 198.697 244.816 191.956 257.178 198.172L258.174 196.136C255.994 192.906 253.046 190.221 249.573 188.303C244.199 185.499 205.052 174.228 185.717 161.528Z" fill="#FFCF08"/>
<path d="M235.612 194.887C232.806 195.339 230.505 195.833 230.505 195.833C217.877 185.8 208.532 178.015 198.359 173.327C188.597 168.776 178.354 165.283 167.814 162.91L168.178 165.145C168.178 165.145 187.934 168.763 200.632 176.767C213.331 184.772 226.478 194.887 230 198.697C230 198.697 244.816 191.844 257.178 198.163L258.174 196.093C247.749 191.735 239.302 194.27 235.612 194.887Z" fill="#EFA708"/>
<path d="M252.802 183.341C253.188 183.776 253.471 184.287 253.633 184.837C253.794 185.387 253.83 185.964 253.737 186.529C253.227 188.075 251.328 190.816 250.28 191.019C248.013 191.44 207.26 177.941 178.467 161.173C178.467 161.173 177.716 160.237 179.884 154.39C179.884 154.39 187.195 161.526 219.474 174.739C245.079 185.145 252.802 183.341 252.802 183.341Z" fill="#E72124"/>
<g style="mix-blend-mode:multiply" opacity="0.55">
<path d="M215.499 176.882C222.079 179.558 228.798 181.904 235.628 183.909C241.651 185.876 246.859 187.409 252.881 186.5C252.948 185.952 252.9 185.396 252.738 184.867C252.576 184.337 252.305 183.845 251.94 183.421C251.94 183.421 244.29 185.171 218.966 174.738C186.988 161.58 179.745 154.39 179.745 154.39C179.139 155.927 178.67 157.511 178.341 159.124C189.304 167.304 203.089 171.388 215.499 176.882Z" fill="#C42124"/>
</g>
<path d="M229.494 143.762C222.672 140.755 215.478 138.613 208.091 137.392C203.129 136.432 198.041 136.242 193.017 136.83C188.472 137.441 184.24 139.426 180.925 142.502C179.5 144.057 178.471 145.914 177.921 147.925C177.372 149.935 177.316 152.043 177.76 154.078C179.173 161.216 241.771 187.04 253.355 184.944C253.355 184.944 258.257 182.779 259.006 176.011C259.359 172.463 257.593 168.203 255.813 165.189C252.862 160.472 249.074 156.297 244.624 152.859C240.009 149.203 234.923 146.146 229.494 143.762Z" fill="#F89945"/>
<path d="M242.37 174.96C232.373 173.607 224.159 168.858 215.082 164.961C205.75 160.902 195.781 157.574 187.441 151.783C183.745 149.199 181.238 146.668 180.672 143.313C179.337 144.841 178.381 146.637 177.876 148.568C177.371 150.499 177.329 152.514 177.755 154.462C179.171 161.511 241.917 187.015 253.529 184.945C255.083 184.096 256.397 182.898 257.359 181.456C258.321 180.013 258.902 178.369 259.051 176.665C253.557 177.247 248.317 175.812 242.37 174.96Z" fill="#E8761F"/>
<g style="mix-blend-mode:screen" opacity="0.32">
<path d="M229.921 147.308C228.183 145.686 222.824 142.456 220.823 145.284C219.1 147.725 223.831 150.641 225.438 151.505C227.263 152.502 230.403 153.499 231.542 151.653C232.404 150.24 231.367 148.632 229.921 147.308Z" fill="#FDE5C1"/>
</g>
<g style="mix-blend-mode:screen" opacity="0.32">
<path d="M241.656 159.705C237.418 157.236 232.352 155.242 227.853 156.463C224.153 157.44 225.962 160.207 227.991 162.025C231.149 164.913 234.867 167.145 238.923 168.59C241.601 169.472 246.445 171.086 247.563 167.505C247.674 166.958 247.674 166.395 247.563 165.848C247.452 165.3 247.231 164.78 246.915 164.317C245.459 162.481 243.677 160.919 241.656 159.705Z" fill="#FDE5C1"/>
</g>
<path d="M209.923 145.39C209.923 146.109 208.986 146.721 207.776 146.721C206.566 146.721 205.563 146.215 205.537 145.496C205.511 144.777 206.487 144.165 207.698 144.165C208.908 144.165 209.91 144.684 209.923 145.39Z" fill="#FBD198"/>
<path d="M223.083 162.438C223.083 163.153 221.942 163.763 220.49 163.763C219.037 163.763 217.835 163.246 217.819 162.531C217.803 161.816 218.959 161.206 220.412 161.206C221.864 161.206 223.051 161.696 223.083 162.438Z" fill="#FBD198"/>
<path d="M237.996 167.544C237.996 168.263 237.059 168.875 235.836 168.875C234.613 168.875 233.637 168.356 233.611 167.65C233.585 166.944 234.561 166.319 235.771 166.319C236.981 166.319 237.983 166.838 237.996 167.544Z" fill="#FBD198"/>
<path d="M197.641 144.538C197.641 145.257 196.704 145.869 195.494 145.869C194.284 145.869 193.282 145.35 193.255 144.644C193.229 143.939 194.206 143.313 195.416 143.313C196.626 143.313 197.628 143.779 197.641 144.538Z" fill="#FBD198"/>
<path d="M254.665 169.248C254.665 169.967 253.54 170.579 252.072 170.579C250.604 170.579 249.433 170.06 249.402 169.354C249.37 168.649 250.542 168.023 251.994 168.023C253.447 168.023 254.587 168.555 254.665 169.248Z" fill="#FBD198"/>
<path d="M228.893 161.009C228.34 161.513 227.236 161.009 226.455 159.987C225.674 158.965 225.472 157.647 226.037 157.143C226.603 156.64 227.694 157.143 228.489 158.165C229.283 159.187 229.458 160.52 228.893 161.009Z" fill="#FBD198"/>
<path d="M244.115 162.976C243.908 163.636 242.525 163.935 241.142 163.661C239.758 163.387 238.693 162.653 238.899 161.993C239.106 161.333 240.49 161.034 241.873 161.308C243.256 161.582 244.306 162.329 244.115 162.976Z" fill="#FBD198"/>
<path d="M205.236 155.085C204.666 155.486 203.568 155.085 202.768 154.27C201.968 153.455 201.792 152.392 202.361 151.991C202.931 151.589 204.029 151.991 204.815 152.817C205.602 153.644 205.751 154.683 205.236 155.085Z" fill="#FBD198"/>
<path d="M216.65 155.958C216.116 156.371 215.021 155.811 214.214 154.707C213.408 153.603 213.191 152.381 213.725 151.969C214.258 151.557 215.353 152.116 216.16 153.22C216.966 154.324 217.183 155.546 216.65 155.958Z" fill="#FBD198"/>
<path d="M192.218 149.877C191.754 150.368 190.486 150.122 189.357 149.318C188.228 148.514 187.702 147.464 188.151 146.974C188.599 146.483 189.883 146.728 191.012 147.532C192.141 148.337 192.666 149.386 192.218 149.877Z" fill="#FBD198"/>
<path d="M237.65 155.104C237.072 155.465 235.975 155.104 235.195 154.188C234.416 153.273 234.257 152.333 234.834 151.972C235.412 151.61 236.509 151.972 237.289 152.887C238.068 153.803 238.227 154.742 237.65 155.104Z" fill="#FBD198"/>
<path d="M250.818 163.59C250.241 164.041 249.143 163.59 248.364 162.445C247.584 161.301 247.411 160.127 247.989 159.675C248.566 159.223 249.678 159.675 250.443 160.819C251.208 161.964 251.396 163.138 250.818 163.59Z" fill="#FBD198"/>
<path d="M216.595 144.845C216.017 145.295 214.92 144.845 214.14 143.705C213.361 142.564 213.202 141.379 213.779 140.929C214.357 140.479 215.454 140.929 216.234 142.069C217.013 143.209 217.172 144.395 216.595 144.845Z" fill="#FBD198"/>
<g style="mix-blend-mode:multiply" opacity="0.35">
<path d="M258.98 174.919C248.336 175.161 236.364 171.595 227.021 168.324C220.264 165.969 212.886 163.412 207.401 158.809C201.917 154.206 199.443 148.176 203.486 141.931C204.541 140.353 206 139.056 207.726 138.163C202.882 137.276 197.923 137.112 193.026 137.678C188.478 138.278 184.244 140.228 180.926 143.25C179.501 144.778 178.471 146.602 177.922 148.578C177.372 150.553 177.316 152.624 177.76 154.623C179.174 161.635 241.806 187.005 253.397 184.946C253.397 184.946 258.301 182.819 259.051 176.171C259.056 175.752 259.032 175.334 258.98 174.919Z" fill="#D48745"/>
</g>
<g style="mix-blend-mode:multiply" opacity="0.32">
<path d="M218.211 166.571L214.847 165.059C205.767 161.063 196.103 157.595 187.893 152.045C184.229 149.576 181.735 147.189 181.036 144.165C179.83 145.487 178.989 147.087 178.595 148.813C178.201 150.539 178.266 152.334 178.784 154.029C179.768 157.622 199.595 167.334 218.696 174.839C218.148 172.118 217.985 169.336 218.211 166.571Z" fill="#BA773D"/>
</g>
<path d="M154.654 214.591C154.654 214.591 122.337 188.575 105.217 195.681C88.0978 202.788 81.5438 205.664 77.716 214.413C75.3712 219.754 73.9022 237.692 72.6592 243.511C71.4163 249.331 67.0093 262.065 85.7389 259.792C104.469 257.519 135.981 214.797 154.654 214.591Z" fill="#F89945"/>
<g style="mix-blend-mode:multiply" opacity="0.35">
<path d="M120.777 195.304H119.93H119.817C119.705 195.599 119.492 195.847 119.214 196.008C118.937 196.168 118.612 196.231 118.293 196.186C112.887 195.648 109.259 196.862 104.079 198.64C101.566 199.495 97.4302 201.839 94.6635 201.191C94.5574 201.149 94.4576 201.094 94.3671 201.026C93.746 201.191 93.1249 201.343 92.5321 201.549C87.9445 203.052 86.8859 205.217 84.825 209.367C83.4135 212.235 80.421 219.018 76.878 220.894C77.0878 222.865 77.3987 224.826 77.8096 226.767C78.312 229.172 78.4074 231.64 78.0919 234.075C77.6402 236.708 76.4404 239.286 73.4197 239.19C73.2927 240.045 73.1798 240.817 73.0668 241.52C74.2318 243.513 74.9668 245.719 75.2265 248C75.3394 250.468 74.549 252.922 74.803 255.156C76.5251 256.19 76.9627 257.734 77.4003 259.582C80.1594 260.147 83.0015 260.213 85.7849 259.775C104.474 257.472 135.994 214.469 154.654 214.276C154.654 214.234 136.925 199.84 120.777 195.304Z" fill="#E09945"/>
</g>
<path d="M88.5287 211.372C88.2172 211.962 88.0338 212.61 87.9906 213.274C87.9474 213.938 88.0453 214.604 88.2778 215.229C88.5104 215.853 88.8726 216.422 89.341 216.9C89.8094 217.377 90.3737 217.752 90.9974 218.001C92.1795 218.346 93.4284 218.403 94.6376 218.166C100.328 217.379 105.419 214.424 110.523 211.827C115.628 209.231 121.193 206.883 126.897 207.436C128.459 207.588 129.994 207.961 131.57 207.988C133.147 208.115 134.711 207.618 135.921 206.607C137.098 205.192 137.761 203.427 137.804 201.594C138.069 199.674 138.236 197.451 136.883 196.07C136.047 195.228 134.805 194.882 133.941 194.067C133.066 192.983 132.365 191.772 131.862 190.477C131.071 189.137 129.877 188.074 128.447 187.438C127.017 186.802 125.422 186.623 123.885 186.928C123.243 187.066 122.49 187.521 122.629 188.157C122.769 188.792 123.648 188.847 124.289 188.723C124.931 188.599 125.684 188.447 126.116 188.971C126.549 189.496 126.116 190.352 125.433 190.518C124.786 190.673 124.108 190.639 123.48 190.422C119.683 189.55 115.743 189.484 111.918 190.228C111.263 190.312 110.636 190.549 110.091 190.919C109.824 191.114 109.626 191.386 109.524 191.698C109.421 192.01 109.419 192.346 109.519 192.659C109.993 193.75 111.918 193.777 112.099 194.951C112.12 195.244 112.046 195.536 111.888 195.784C111.73 196.032 111.496 196.224 111.221 196.332C110.668 196.531 110.077 196.606 109.491 196.553L104.303 196.457C103.438 195.813 102.437 195.373 101.374 195.172C100.841 195.085 100.293 195.173 99.8151 195.423C99.3368 195.672 98.9538 196.069 98.7241 196.553C98.3196 197.713 99.1286 199.205 98.3196 200.13C97.9393 200.442 97.4608 200.613 96.9668 200.613C96.4727 200.613 95.9942 200.442 95.6139 200.13C94.8572 199.498 94.0555 198.921 93.215 198.404C92.4746 198.121 91.6598 198.093 90.9011 198.323C90.1424 198.553 89.4838 199.029 89.0308 199.674C88.6041 200.327 88.3599 201.08 88.3232 201.856C88.2864 202.633 88.4584 203.405 88.8216 204.094C89.4493 205.364 90.6487 206.483 90.579 207.892C90.5092 209.3 89.254 210.156 88.5287 211.372Z" fill="#9FCC29"/>
<path d="M132.295 193.906C131.501 192.863 131.041 191.615 130.331 190.517C130.014 189.943 129.556 189.455 128.999 189.101C128.441 188.746 127.802 188.535 127.139 188.487C127.358 188.635 127.542 188.827 127.68 189.05C127.817 189.274 127.905 189.523 127.938 189.782C127.971 190.041 127.948 190.304 127.87 190.554C127.793 190.803 127.662 191.034 127.488 191.231C127.371 191.359 127.24 191.474 127.098 191.574C127.442 192.003 127.745 192.462 128.003 192.945C128.561 194.098 129.049 195.277 129.508 196.457C130.191 198.213 131.167 200.216 130.358 202.068C129.55 203.92 127.042 203.247 127.084 201.752C127.034 201.674 126.992 201.591 126.958 201.505C126.448 199.253 125.588 197.093 124.408 195.099C123.544 193.727 122.402 192.671 121.468 191.423C119.355 190.852 117.15 190.689 114.974 190.943C114.431 190.943 113.762 191.203 113.581 191.738C113.4 192.273 113.985 192.74 114.514 192.932C115.069 193.033 115.596 193.248 116.061 193.563C116.21 193.753 116.315 193.973 116.371 194.206C116.427 194.44 116.433 194.683 116.387 194.919C116.341 195.155 116.244 195.378 116.104 195.575C115.964 195.771 115.783 195.936 115.573 196.059C114.696 196.524 113.686 196.688 112.703 196.526C112.095 196.478 111.485 196.478 110.877 196.526C110.685 196.571 110.489 196.603 110.292 196.622C110.11 196.658 109.932 196.713 109.762 196.786C108.932 197.266 108.203 197.9 107.616 198.652C107.318 199.026 106.937 199.329 106.503 199.539C106.069 199.748 105.592 199.857 105.108 199.859C103.715 199.681 102.516 197.897 101.165 198.487C99.8129 199.077 100.328 201.519 99.1161 202.603C98.7378 202.854 98.2952 202.995 97.8392 203.009C97.3832 203.024 96.9322 202.911 96.5382 202.685C95.716 202.315 95.0053 201.711 94.1553 201.313C93.7474 201.109 93.2859 201.032 92.8326 201.094C92.3793 201.155 91.9559 201.351 91.6191 201.656C91.3423 202.112 91.2175 202.641 91.2625 203.171C91.3075 203.7 91.52 204.201 91.8699 204.605C92.5947 205.411 93.0773 206.399 93.2634 207.459C93.2634 209.53 90.4764 210.559 89.8354 212.534C89.6523 213.357 89.7214 214.215 90.0339 214.999C90.3465 215.782 90.8885 216.457 91.5912 216.938C92.3585 217.53 93.2202 217.994 94.1413 218.31L94.6848 218.241C100.37 217.459 105.457 214.523 110.557 211.944C115.657 209.366 121.217 207.034 126.916 207.582C128.477 207.733 130.01 208.103 131.585 208.131C133.161 208.256 134.724 207.763 135.932 206.759C137.108 205.353 137.77 203.6 137.814 201.78C137.979 200.801 138.025 199.806 137.953 198.817C136.378 196.91 133.8 195.854 132.295 193.906Z" fill="#73A624"/>
<path d="M82.7169 221.655C82.7169 221.655 84.8218 210.622 85.0744 208.937C85.0744 208.937 92.2169 213.518 99.3173 212.478L106.404 220.036C106.404 220.036 91.4732 226.421 82.7169 221.655Z" fill="#FFCF08"/>
<g style="mix-blend-mode:multiply" opacity="0.35">
<path d="M98.9539 213.197L98.2395 213.278C97.642 214.757 96.6636 216.074 95.3919 217.111C94.1201 218.147 92.5948 218.871 90.9526 219.217C89.753 219.391 88.5257 219.263 87.3961 218.845C86.2665 218.427 85.2751 217.735 84.523 216.839C84.0372 219.445 83.5943 221.783 83.5943 221.783C91.6956 226.204 105.526 220.279 105.526 220.279L98.9539 213.197Z" fill="#E6B970"/>
</g>
<path d="M85.9316 209.789C85.6796 211.632 83.5943 223.051 83.5943 223.051C84.2241 223.408 84.1681 223.174 84.8539 223.422C84.63 219.886 87.2052 212.141 87.2052 212.141C95.8685 214.452 100.459 214.521 99.1715 213.022C94.5669 212.937 90.0412 211.832 85.9316 209.789Z" fill="#EFA708"/>
<path d="M91.5057 223.142C91.5195 223.235 91.5195 223.329 91.5057 223.422C96.644 223.12 101.687 221.945 106.404 219.951L103.338 218.31C99.9557 219.137 91.0639 220.699 91.5057 223.142Z" fill="#EFA708"/>
<path d="M99.3695 231.116C99.4371 229.208 99.2876 227.299 98.9238 225.423C98.7985 224.583 98.6592 223.729 98.5339 222.875C98.4085 222.021 97.7679 221.696 97.0437 221.75C96.3274 221.894 95.6205 222.08 94.9267 222.306C93.3669 222.631 91.8488 221.75 90.4143 221.072C87.8098 219.839 84.9543 219.191 82.058 219.175C80.7403 219.095 79.4265 219.382 78.2698 220.001C77.6991 220.328 77.2508 220.824 76.9902 221.417C76.7296 222.009 76.6705 222.667 76.8214 223.295C77.4621 225.274 80.4703 225.708 81.2224 227.659C81.3478 227.985 81.3617 228.432 81.0414 228.608C80.721 228.784 80.3171 228.513 80.0247 228.269C78.746 227.126 77.1456 226.38 75.4287 226.128C74.5622 226.013 73.6802 226.084 72.8452 226.337C72.0101 226.59 71.2423 227.018 70.596 227.592C69.961 228.183 69.5154 228.94 69.3127 229.772C69.1101 230.604 69.1591 231.476 69.4539 232.281C69.7878 233.068 70.3983 233.715 71.1763 234.104C71.9544 234.494 72.8494 234.602 73.7017 234.409C74.5931 234.165 75.5958 233.555 76.3479 234.084C76.4883 234.226 76.595 234.397 76.6607 234.583C76.7264 234.77 76.7494 234.968 76.7282 235.164C76.707 235.361 76.642 235.55 76.5378 235.719C76.4337 235.888 76.2928 236.033 76.1251 236.144C75.765 236.352 75.3614 236.478 74.9442 236.513C74.5271 236.549 74.1071 236.492 73.7157 236.347C72.9138 236.071 72.0891 235.863 71.2506 235.724C70.4076 235.673 69.5691 235.877 68.8507 236.309C68.1323 236.741 67.5694 237.38 67.2395 238.136C66.9398 238.902 66.8527 239.732 66.9872 240.541C67.1217 241.35 67.4729 242.11 68.0055 242.745C68.5563 243.366 69.2383 243.865 70.005 244.206C70.7717 244.548 71.6051 244.724 72.4483 244.724C74.0871 244.584 75.704 244.261 77.2671 243.761C81.5845 242.799 86.2362 243.585 90.4561 242.23C92.8793 241.402 95.0073 239.915 96.5874 237.945C98.1675 235.974 99.1331 233.604 99.3695 231.116Z" fill="#9FCC29"/>
<path d="M78.4322 234.48C78.8197 235.643 77.768 236.862 76.6056 237.282C75.406 237.509 74.1805 237.561 72.9663 237.436C72.362 237.378 71.753 237.476 71.1963 237.721C70.6396 237.966 70.1535 238.35 69.7836 238.837C69.4981 239.518 69.4826 240.283 69.7404 240.975C69.9981 241.666 70.5092 242.231 71.1674 242.551C72.5282 243.123 74.0487 243.173 75.4433 242.691C78.0309 241.976 80.411 240.533 83.0541 240.028C84.8253 239.678 86.6519 239.776 88.4508 239.552C90.2734 239.457 91.9912 238.66 93.2525 237.324C94.0657 236.205 94.6105 234.91 94.8439 233.541C95.7135 229.849 96.3513 226.105 96.7535 222.331C94.4426 223.48 91.8549 224.671 89.3641 223.985C88.3758 223.665 87.4422 223.192 86.5965 222.583C85.7405 221.97 84.8104 221.471 83.829 221.098C83.3335 220.918 82.8071 220.841 82.2815 220.873C81.7559 220.904 81.2421 221.042 80.7708 221.28C80.3067 221.538 79.9413 221.946 79.7331 222.439C79.5249 222.931 79.4859 223.481 79.6223 223.999C79.8283 224.425 80.127 224.8 80.4961 225.093C80.8651 225.387 81.2949 225.592 81.7533 225.694C82.6693 225.875 83.5677 226.137 84.4378 226.479C84.8614 226.668 85.2194 226.982 85.466 227.379C85.7125 227.775 85.8363 228.238 85.8216 228.707C85.7367 229.08 85.5565 229.423 85.299 229.704C85.0416 229.984 84.716 230.191 84.3548 230.304C83.1473 230.655 81.8538 230.535 80.7293 229.968C79.5808 229.491 78.5153 228.805 77.3529 228.37C76.7812 228.117 76.164 227.987 75.5401 227.987C74.9162 227.987 74.299 228.117 73.7274 228.37C73.1868 228.663 72.7786 229.156 72.5878 229.746C72.3971 230.336 72.4385 230.977 72.7034 231.537C73.0846 231.957 73.5493 232.29 74.0669 232.514C74.5844 232.739 75.1432 232.85 75.7062 232.84C76.8547 233.008 78.0863 233.387 78.4322 234.48Z" fill="#73A624"/>
<path d="M83.5943 241.525C83.5918 241.886 83.6942 242.241 83.8906 242.553C84.087 242.865 84.3703 243.122 84.7109 243.298C85.3918 243.656 86.1609 243.845 86.944 243.848C89.1458 243.978 91.3457 243.57 93.3244 242.667C95.7682 241.572 97.6929 239.685 98.7331 237.363C99.2396 236.208 99.4558 234.961 99.3654 233.716C99.2749 232.472 98.8802 231.263 98.2111 230.181C97.5147 229.111 96.5191 228.236 95.3296 227.648C94.1401 227.059 92.8009 226.779 91.4538 226.838C90.4677 226.918 89.3221 227.388 89.2496 228.301C89.1771 229.214 90.2647 229.832 90.6997 230.678C90.8394 230.979 90.8902 231.309 90.8469 231.635C90.8036 231.96 90.6677 232.269 90.4532 232.53C90.2302 232.786 89.9392 232.984 89.6086 233.104C89.2781 233.224 88.9195 233.262 88.5681 233.215C87.379 233.054 86.393 231.872 85.2184 232.127C84.7658 232.248 84.3729 232.511 84.108 232.872C83.8431 233.232 83.723 233.667 83.7683 234.101C83.895 234.948 84.1744 235.77 84.5949 236.531C85.0186 237.297 85.1367 238.176 84.9284 239.015C84.6819 239.914 83.7248 240.586 83.5943 241.525Z" fill="#9FCC29"/>
<path d="M97.3416 230.108C96.612 229.96 95.924 229.663 95.3241 229.237C94.7237 228.806 94.0012 228.561 93.2525 228.534C92.8842 228.534 92.5293 228.668 92.2602 228.909C91.9911 229.151 91.8279 229.482 91.8038 229.835C91.8038 230.368 92.3318 230.772 92.6026 231.24C92.7887 231.562 92.8864 231.925 92.8864 232.294C92.8864 232.662 92.7887 233.025 92.6026 233.347C92.4042 233.663 92.1269 233.926 91.7958 234.112C91.4648 234.298 91.0905 234.402 90.707 234.414C90.1578 234.364 89.6141 234.268 89.0822 234.128C88.7846 234.024 88.4602 234.015 88.1568 234.102C87.8535 234.189 87.5873 234.368 87.3976 234.611C87.2079 234.855 87.1048 235.15 87.1033 235.454C87.1019 235.759 87.2023 236.055 87.3897 236.3C87.9325 237.455 88.8954 238.38 90.0977 238.902C91.291 239.447 92.6116 239.685 93.9295 239.591C95.5352 239.569 97.0913 239.054 98.3706 238.121C99.0042 237.62 99.505 236.981 99.8321 236.257C100.159 235.534 100.303 234.746 100.253 233.959C100.181 233.175 99.8593 232.432 99.3309 231.831C98.8024 231.23 98.0933 230.801 97.301 230.603L97.3416 230.108Z" fill="#73A624"/>
<path d="M124.947 202.172L127.091 206.381L145.882 205.497L145.475 202.046C145.475 202.046 139.688 194.036 133.397 193.629C127.105 193.223 124.177 197.01 124.947 202.172Z" fill="#D12424"/>
<path d="M124.95 202.12H145.882C145.882 202.12 139.981 194.041 133.565 193.631C127.15 193.22 124.164 196.913 124.95 202.12Z" fill="#EA3333"/>
<path d="M129.913 199.816C130.571 200.081 132.775 201.757 133.032 201.799C132.452 200.827 131.807 199.894 131.101 199.006C131.101 199.006 132.431 197.609 136.323 199.132C136.323 199.132 135.608 200.626 136.724 201.436C137.84 202.246 137.812 199.69 137.74 199.327C137.668 198.964 140.387 199.942 141.818 202.008H145.882C145.882 202.008 139.972 194.034 133.548 193.629C127.123 193.224 124.133 196.981 124.962 202.12H129.083C129.169 201.157 129.455 199.62 129.913 199.816Z" fill="#C91D1D"/>
<path d="M132.26 196.744C134.394 196.603 136.528 197.016 138.445 197.941C140.363 198.865 141.995 200.269 143.177 202.008H145.882C145.882 202.008 139.972 194.034 133.548 193.629C127.123 193.224 124.133 196.981 124.962 202.12H126.923C126.694 197.707 129.384 196.869 132.26 196.744Z" fill="#FF3333"/>
<path d="M130.968 201.012C130.968 201.228 130.844 201.33 130.611 201.228C130.484 201.178 130.371 201.101 130.281 201.004C130.191 200.907 130.125 200.792 130.09 200.667C130.09 200.45 130.227 200.361 130.461 200.45C130.586 200.501 130.696 200.579 130.784 200.676C130.872 200.773 130.935 200.888 130.968 201.012Z" fill="#FF7E70"/>
<path d="M133.6 200.144C133.6 200.364 133.482 200.474 133.246 200.386C133.113 200.336 132.996 200.26 132.905 200.164C132.814 200.069 132.751 199.956 132.722 199.836C132.722 199.616 132.84 199.506 133.076 199.594C133.208 199.646 133.324 199.722 133.414 199.818C133.505 199.913 133.569 200.025 133.6 200.144Z" fill="#FF7E70"/>
<path d="M135.354 200.986C135.354 201.204 135.243 201.323 134.996 201.244C134.865 201.186 134.75 201.107 134.661 201.012C134.571 200.916 134.508 200.806 134.477 200.689C134.477 200.472 134.588 200.363 134.835 200.442C134.966 200.497 135.08 200.574 135.17 200.668C135.259 200.762 135.322 200.871 135.354 200.986Z" fill="#FF7E70"/>
<path d="M139.741 201.004C139.741 201.211 139.622 201.328 139.384 201.237C139.256 201.183 139.143 201.105 139.053 201.009C138.963 200.913 138.898 200.801 138.863 200.681C138.863 200.462 138.982 200.358 139.235 200.449C139.363 200.502 139.475 200.579 139.562 200.675C139.65 200.772 139.711 200.884 139.741 201.004Z" fill="#FF7E70"/>
<path d="M95.3186 202.28L92.3671 204.998L107.333 228.534L110.7 228.004C111.913 225.656 112.545 223.061 112.545 220.428C112.545 217.796 111.913 215.201 110.7 212.852C106.487 204.93 100.224 201.288 95.3186 202.28Z" fill="#D12424"/>
<path d="M94.999 202.278L110.666 227.682C111.901 225.361 112.545 222.795 112.545 220.193C112.545 217.59 111.901 215.025 110.666 212.703C106.375 204.898 99.9955 201.297 94.999 202.278Z" fill="#EA3333"/>
<path d="M101.2 208.324C101.398 209.13 101.2 211.857 101.341 212.099C101.483 212.34 102.909 209.761 102.909 209.761C102.909 209.761 105.48 211.373 106.653 216.088C106.653 216.088 104.506 215.229 104.449 216.586C104.393 217.942 107.161 217.929 107.5 217.808C107.839 217.687 108.814 221.032 107.613 222.765L110.664 227.682C111.901 225.361 112.545 222.795 112.545 220.193C112.545 217.59 111.901 215.025 110.664 212.703C106.427 204.898 99.9995 201.297 94.999 202.278L98.0784 207.235C99.1661 207.423 101.059 207.759 101.2 208.324Z" fill="#C91D1D"/>
<path d="M106.201 211.104C108.828 215.135 111.032 219.984 108.644 224.418L110.664 227.682C111.901 225.361 112.545 222.795 112.545 220.193C112.545 217.59 111.901 215.025 110.664 212.703C106.427 204.898 99.9995 201.297 94.999 202.278L96.4116 204.643C101.002 204.36 103.926 207.612 106.201 211.104Z" fill="#FF3333"/>
<path d="M100.83 209.789C100.606 209.789 100.369 209.542 100.299 209.07C100.25 208.887 100.251 208.684 100.3 208.501C100.349 208.318 100.444 208.17 100.564 208.085C100.788 208.085 101.026 208.331 101.11 208.803C101.154 208.989 101.15 209.193 101.098 209.375C101.046 209.556 100.951 209.704 100.83 209.789Z" fill="#FF7E70"/>
<path d="M103.454 212.344C103.326 212.352 103.2 212.32 103.101 212.255C103.001 212.19 102.938 212.097 102.922 211.995C102.88 211.899 102.886 211.793 102.94 211.701C102.995 211.608 103.092 211.537 103.212 211.502C103.442 211.453 103.671 211.608 103.743 211.84C103.787 211.938 103.78 212.045 103.726 212.139C103.672 212.233 103.574 212.307 103.454 212.344Z" fill="#FF7E70"/>
<path d="M104.338 214.895C104.216 214.921 104.094 214.866 103.996 214.741C103.898 214.617 103.833 214.434 103.814 214.23C103.787 214.133 103.772 214.027 103.772 213.919C103.772 213.811 103.786 213.705 103.813 213.608C103.841 213.51 103.881 213.425 103.93 213.357C103.98 213.289 104.038 213.241 104.1 213.216C104.163 213.192 104.227 213.191 104.29 213.214C104.352 213.237 104.411 213.283 104.462 213.349C104.512 213.415 104.553 213.5 104.581 213.596C104.61 213.692 104.625 213.798 104.626 213.906C104.664 214.102 104.655 214.314 104.601 214.499C104.547 214.684 104.453 214.826 104.338 214.895Z" fill="#FF7E70"/>
<path d="M106.971 220.014C106.746 220.014 106.507 219.903 106.436 219.671C106.39 219.574 106.393 219.466 106.446 219.371C106.498 219.276 106.596 219.201 106.718 219.162C106.847 219.158 106.973 219.192 107.072 219.258C107.171 219.323 107.235 219.415 107.253 219.516C107.295 219.611 107.29 219.716 107.237 219.809C107.185 219.901 107.09 219.974 106.971 220.014Z" fill="#FF7E70"/>
<path d="M94.5692 201.44L91.4898 204.156L107.103 227.682L110.617 227.152C111.884 224.803 112.545 222.207 112.545 219.573C112.545 216.939 111.884 214.343 110.617 211.994C106.222 204.048 99.7015 200.407 94.5692 201.44Z" fill="#D12424"/>
<path d="M94.999 201.443L110.663 227.682C111.9 225.284 112.545 222.633 112.545 219.944C112.545 217.255 111.9 214.604 110.663 212.205C106.373 204.106 100.009 200.389 94.999 201.443Z" fill="#EA3333"/>
<path d="M101.208 207.675C101.406 208.507 101.208 211.324 101.363 211.574C101.518 211.823 102.916 209.159 102.916 209.159C102.916 209.159 105.498 210.824 106.655 215.694C106.655 215.694 104.51 214.806 104.454 216.208C104.397 217.609 107.163 217.595 107.502 217.484C107.84 217.373 108.814 220.8 107.629 222.59L110.663 227.682C111.9 225.283 112.545 222.63 112.545 219.94C112.545 217.25 111.9 214.598 110.663 212.198C106.429 204.137 100.009 200.418 94.999 201.431L98.0894 206.593C99.1901 206.745 101.081 207.092 101.208 207.675Z" fill="#C91D1D"/>
<path d="M106.203 210.547C108.842 214.709 111.03 219.732 108.645 224.297L110.663 227.682C111.9 225.283 112.545 222.63 112.545 219.94C112.545 217.25 111.9 214.598 110.663 212.198C106.429 204.137 100.009 200.418 94.999 201.431L96.4101 203.887C101.01 203.582 103.932 207.023 106.203 210.547Z" fill="#FF3333"/>
<path d="M99.9659 208.937C99.7383 208.937 99.4823 208.813 99.4112 208.585C99.3401 208.358 99.4112 208.12 99.6814 208.089C99.9516 208.058 100.151 208.203 100.236 208.44C100.321 208.678 100.193 208.895 99.9659 208.937Z" fill="#FF7E70"/>
<path d="M103.155 212.342C102.899 212.359 102.645 212.298 102.444 212.171C102.244 212.043 102.112 211.86 102.075 211.658C101.987 211.461 102 211.244 102.11 211.054C102.22 210.864 102.419 210.716 102.664 210.641C102.916 210.645 103.159 210.715 103.354 210.842C103.55 210.968 103.687 211.143 103.743 211.339C103.799 211.534 103.772 211.739 103.666 211.921C103.559 212.103 103.379 212.251 103.155 212.342Z" fill="#FF7E70"/>
<path d="M103.459 214.045C103.399 214.052 103.337 214.05 103.278 214.037C103.219 214.025 103.164 214.002 103.115 213.971C103.067 213.94 103.026 213.901 102.995 213.857C102.965 213.813 102.945 213.764 102.937 213.713C102.909 213.664 102.895 213.611 102.895 213.557C102.894 213.504 102.908 213.451 102.936 213.402C102.963 213.353 103.003 213.311 103.053 213.277C103.102 213.243 103.16 213.219 103.222 213.207C103.284 213.194 103.349 213.194 103.411 213.205C103.473 213.217 103.532 213.24 103.582 213.273C103.632 213.306 103.673 213.348 103.702 213.396C103.73 213.444 103.745 213.497 103.746 213.551C103.766 213.599 103.775 213.651 103.771 213.702C103.767 213.753 103.752 213.803 103.725 213.849C103.698 213.895 103.661 213.936 103.615 213.969C103.569 214.003 103.516 214.029 103.459 214.045Z" fill="#FF7E70"/>
<path d="M106.97 219.162C106.743 219.162 106.503 219.049 106.432 218.814C106.389 218.717 106.395 218.611 106.448 218.517C106.5 218.424 106.596 218.349 106.715 218.31C106.941 218.31 107.182 218.422 107.253 218.657C107.295 218.754 107.29 218.86 107.237 218.954C107.185 219.047 107.089 219.122 106.97 219.162Z" fill="#FF7E70"/>
<path d="M123.218 203.134C123.794 202.83 124.279 202.383 124.628 201.837C124.789 201.419 124.853 200.97 124.817 200.524C124.78 200.078 124.643 199.646 124.416 199.258C123.951 198.258 123.278 197.365 122.442 196.637C121.803 196.034 121.016 195.607 120.158 195.397C119.731 195.289 119.285 195.275 118.852 195.354C118.418 195.434 118.008 195.605 117.648 195.857C117.296 196.119 117.032 196.48 116.891 196.893C116.75 197.306 116.738 197.751 116.858 198.171C116.335 197.388 115.616 196.753 114.771 196.325C113.926 195.898 112.984 195.693 112.036 195.731C110.872 195.789 109.776 196.289 108.976 197.125C108.581 197.534 108.296 198.034 108.146 198.579C107.996 199.124 107.985 199.698 108.116 200.248C108.276 200.788 108.597 201.267 109.037 201.623C109.478 201.978 110.017 202.194 110.583 202.242C109.879 201.987 109.114 201.947 108.387 202.125C107.659 202.303 107.002 202.691 106.499 203.241C105.996 203.79 105.671 204.476 105.565 205.209C105.458 205.943 105.575 206.691 105.902 207.358C106.238 207.974 106.713 208.506 107.29 208.912C107.867 209.318 108.53 209.588 109.23 209.7C110.665 209.921 112.133 209.727 113.46 209.143C114.737 208.562 115.955 207.862 117.098 207.051L123.218 203.134Z" fill="#FFCF08"/>
<path d="M122.495 203.086C122.756 202.719 122.934 202.302 123.018 201.862C123.101 201.423 123.088 200.971 122.979 200.537C122.87 200.102 122.668 199.696 122.386 199.344C122.104 198.992 121.749 198.703 121.344 198.497C120.939 198.29 120.494 198.17 120.037 198.144C119.581 198.119 119.125 198.189 118.699 198.35C118.272 198.511 117.886 198.758 117.565 199.077C117.244 199.395 116.996 199.776 116.838 200.196C116.41 199.413 115.751 198.775 114.948 198.364C114.144 197.952 113.233 197.787 112.332 197.889C111.944 197.913 111.569 198.03 111.239 198.232C110.91 198.433 110.637 198.712 110.446 199.043C110.308 199.444 110.298 199.876 110.416 200.284C110.535 200.691 110.778 201.053 111.112 201.322C111.792 201.848 112.575 202.231 113.413 202.448C111.861 202.355 110.331 202.839 109.129 203.805C108.832 204.005 108.589 204.272 108.42 204.584C108.251 204.896 108.161 205.243 108.158 205.596C108.211 205.881 108.336 206.149 108.523 206.374C108.71 206.599 108.951 206.775 109.226 206.884C109.777 207.1 110.365 207.211 110.959 207.21C113.158 207.304 115.36 207.103 117.504 206.613C118.71 206.365 119.861 205.905 120.901 205.256C121.941 204.598 122.673 203.564 122.939 202.38L122.495 203.086Z" fill="#EFA708"/>
<path d="M148.127 204.576C148.55 205.137 149.139 205.55 149.811 205.757C150.479 205.953 151.127 206.213 151.745 206.536C152.055 206.693 152.322 206.923 152.523 207.206C152.725 207.489 152.854 207.817 152.9 208.162C152.896 208.493 152.824 208.819 152.687 209.12C152.551 209.422 152.353 209.692 152.107 209.913C151.293 210.706 150.255 211.231 149.133 211.418C148.011 211.604 146.859 211.443 145.831 210.955C145.092 210.537 144.406 210.033 143.786 209.454L141.991 207.842L139.945 205.841C138.534 204.068 136.633 202.749 134.477 202.047C134.731 201.446 135.122 200.913 135.62 200.49C136.118 200.068 136.708 199.768 137.343 199.615C138.615 199.316 139.939 199.316 141.211 199.615C141.543 199.735 141.898 199.78 142.249 199.746C142.601 199.712 142.94 199.601 143.243 199.42C143.674 199.017 143.702 198.336 144.022 197.836C144.225 197.53 144.515 197.291 144.855 197.15C145.194 197.009 145.568 196.972 145.929 197.044C146.288 197.125 146.625 197.283 146.918 197.506C147.211 197.729 147.452 198.012 147.626 198.336C147.96 198.992 148.1 199.73 148.03 200.463C148.03 201.171 147.807 201.852 147.737 202.575C147.633 203.267 147.771 203.974 148.127 204.576Z" fill="#9FCC29"/>
<path d="M135.354 204.021C138.338 203.703 141.153 202.499 143.423 200.568C143.791 200.189 144.228 199.882 144.711 199.663C144.948 199.565 145.21 199.539 145.462 199.589C145.715 199.638 145.946 199.761 146.127 199.941C146.273 200.166 146.351 200.427 146.351 200.693C146.351 200.96 146.273 201.221 146.127 201.445C145.858 201.905 145.461 202.294 145.207 202.768C145.035 203.083 144.931 203.43 144.9 203.786C144.869 204.143 144.911 204.501 145.025 204.841C145.139 205.181 145.321 205.494 145.562 205.763C145.802 206.031 146.096 206.249 146.424 206.402C146.853 206.579 147.299 206.714 147.755 206.806C148.209 206.903 148.632 207.109 148.986 207.405C149.158 207.555 149.282 207.75 149.345 207.967C149.408 208.184 149.406 208.414 149.34 208.63C149.214 208.906 149.007 209.139 148.745 209.299C147.378 210.306 145.676 210.773 143.976 210.608C142.276 210.443 140.7 209.658 139.558 208.407C138.865 207.642 138.355 206.736 137.732 205.915C137.166 205.049 136.333 204.385 135.354 204.021Z" fill="#73A624"/>
<path d="M76.6285 258.314C79.6507 259.454 83.0198 259.507 86.0815 258.462C87.5982 257.935 88.9824 257.124 90.1479 256.077C91.3135 255.031 92.2354 253.772 92.8564 252.379C93.5593 250.529 93.9737 248.594 94.0869 246.634L94.9989 237.422C92.682 237.807 90.2954 237.563 88.1227 236.721C86.8561 236.012 85.447 235.553 83.9824 235.372C83.2526 235.297 82.5151 235.423 81.8614 235.734C81.2078 236.046 80.6667 236.53 80.3055 237.125C79.9291 237.894 79.987 238.811 79.5961 239.567C78.9934 240.529 78.0121 241.235 76.8601 241.536C75.7191 241.824 74.6344 242.28 73.6464 242.884C73.1592 243.199 72.8019 243.66 72.6335 244.189C72.465 244.719 72.4955 245.286 72.7199 245.798C73.1831 246.593 74.2833 246.958 74.6452 247.794C74.7585 248.173 74.7689 248.572 74.6754 248.956C74.5819 249.34 74.3875 249.696 74.1096 249.992C73.5437 250.581 73.0304 251.213 72.5751 251.88C72.2537 252.532 72.1296 253.254 72.2164 253.967C72.3031 254.68 72.5974 255.358 73.0673 255.926C73.986 257.022 75.2216 257.85 76.6285 258.314Z" fill="#B55728"/>
<g style="mix-blend-mode:multiply" opacity="0.32">
<path d="M90.0302 240.424C87.3771 242.267 87.0978 244.355 86.1203 247.057C85.7337 247.88 85.133 248.588 84.3783 249.113C83.6236 249.637 82.7413 249.959 81.8195 250.046C80.8527 250.194 79.8629 250.088 78.9523 249.737C78.0416 249.387 77.2431 248.806 76.6389 248.053C75.0051 245.965 74.7119 243.522 72.5894 244.082C72.4994 244.328 72.4629 244.59 72.4821 244.851C72.5013 245.112 72.5759 245.366 72.7011 245.597C73.148 246.402 74.2092 246.77 74.5583 247.617C74.6676 248 74.6776 248.404 74.5874 248.793C74.4972 249.181 74.3097 249.541 74.0416 249.841C73.4957 250.438 73.0007 251.077 72.5615 251.752C72.2514 252.412 72.1317 253.142 72.2154 253.864C72.2991 254.585 72.5829 255.271 73.0362 255.846C73.9317 256.979 75.1446 257.832 76.5272 258.303C79.4424 259.457 82.6923 259.51 85.6456 258.453C87.1086 257.92 88.4438 257.099 89.568 256.04C90.6923 254.981 91.5816 253.707 92.1806 252.298C92.8748 250.405 93.284 248.424 93.3955 246.416C93.6329 243.863 93.8842 241.311 94.1216 238.759C92.6696 239.079 91.2853 239.642 90.0302 240.424Z" fill="#B55728"/>
</g>
<path d="M88.4097 239.692C87.9239 239.31 87.3428 239.025 86.7091 238.857C86.0727 238.694 85.3874 238.736 84.7854 238.974C84.4797 239.096 84.2135 239.278 84.0096 239.506C83.8057 239.733 83.6701 239.999 83.6145 240.281C83.5653 240.565 83.6064 240.856 83.7338 241.122C83.8612 241.389 84.0701 241.622 84.3393 241.799C84.6132 241.967 84.9278 242.081 85.2604 242.134C85.5931 242.187 85.9355 242.177 86.263 242.104C86.9171 241.944 87.5183 241.658 88.0194 241.269C88.5213 240.904 89.0092 240.363 88.814 239.833C88.6188 239.304 88.8837 239.586 88.4097 239.692Z" fill="#8D3800"/>
<path d="M85.5191 245.278C85.1643 244.963 84.7252 244.772 84.2628 244.732C83.8005 244.692 83.3378 244.805 82.9391 245.055C82.5492 245.32 82.2405 245.699 82.0504 246.146C81.8603 246.592 81.7969 247.088 81.8679 247.572C81.9524 248.067 82.1647 248.529 82.4815 248.905C82.7982 249.282 83.2071 249.559 83.6633 249.706C84.1046 249.849 84.5726 249.875 85.0255 249.78C85.4784 249.686 85.902 249.474 86.2584 249.164C86.5034 248.958 86.7051 248.699 86.8505 248.406C86.996 248.113 87.082 247.79 87.1033 247.46C87.0899 247.116 87.0092 246.778 86.8664 246.469C86.7236 246.159 86.5218 245.884 86.2735 245.66C85.7907 245.135 86.0623 245.74 85.5191 245.278Z" fill="#8D3800"/>
<path d="M80.0295 251.086C79.4237 250.889 78.7939 250.759 78.1537 250.7C77.5065 250.641 76.8578 250.799 76.3294 251.145C76.0714 251.323 75.8791 251.568 75.7781 251.848C75.6772 252.128 75.6723 252.429 75.7641 252.711C75.9814 253.166 76.388 253.523 76.8947 253.705C77.5855 254.045 78.3802 254.168 79.1558 254.056C79.5403 253.995 79.901 253.845 80.2027 253.619C80.5044 253.394 80.7368 253.101 80.8774 252.77C81.0014 252.433 80.9893 252.066 80.8434 251.736C80.6974 251.406 80.4271 251.134 80.0808 250.969C79.7725 250.864 80.3378 251.086 80.0295 251.086Z" fill="#8D3800"/>
<g style="mix-blend-mode:multiply" opacity="0.55">
<path d="M154.513 214.317H154.442L154.3 214.195L154.144 214.087C154.103 214.044 154.055 214.007 154.002 213.979L153.449 213.546L153.321 213.451L152.881 213.126L152.753 213.031C152.03 212.49 151.079 211.8 149.916 211.015C150.25 210.898 150.573 210.753 150.881 210.582C149.969 210.424 149.1 210.088 148.331 209.594C147.562 209.1 146.909 208.459 146.412 207.713C144.539 205.358 142.823 201.771 139.134 201.744C137.527 201.789 135.951 201.312 134.665 200.391C131.459 197.873 127.288 198.631 123.075 199.795C120.668 200.465 118.571 201.897 117.131 203.855C116.18 205.209 114.946 206.346 114.081 207.415C112.549 209.31 110.676 211.719 107.938 211.922C106.037 212.07 103.852 211.299 103.682 209.215C103.668 209.089 103.668 208.962 103.682 208.836C100.845 212.057 98.3478 215.684 96.3333 218.093C96.2175 218.23 96.0944 218.361 95.9645 218.486C95.9645 218.648 95.9645 218.824 95.9645 219C96.1532 220.624 95.8953 222.266 95.2162 223.766C94.5371 225.266 93.4602 226.571 92.0915 227.553C92.9427 230.449 93.4393 233.792 90.9566 235.254C90.3625 235.596 89.7091 235.835 89.0272 235.958C89.0982 239.72 89.9068 241.967 87.9633 246.122C85.6934 250.913 87.5518 253.295 82.8703 256.759C81.4838 257.738 79.9543 258.518 78.3306 259.073H78.6427H78.8697C79.4371 259.141 80.0188 259.182 80.6572 259.209C81.2956 259.209 81.9623 259.209 82.6717 259.209H83.154C83.8775 259.209 84.5727 259.101 85.438 259.006C104.221 256.746 135.9 214.534 154.654 214.344L154.513 214.317Z" fill="#BD9749"/>
</g>
<path d="M93.4398 233.317C94.8515 223.916 99.6202 215.298 106.911 208.971C110.572 205.869 114.907 203.612 119.593 202.37C124.278 201.128 129.192 200.933 133.967 201.799C141.147 203.297 147.41 207.391 153.474 211.416C157.714 214.274 158.803 215.772 163.114 218.629C163.863 219.124 168.599 219.88 168.684 220.745C168.839 222.119 166.478 224.153 165.065 224.551C149.344 228.918 134.314 235.363 120.396 243.703C113.597 247.825 107.066 252.304 99.8291 255.615C92.5916 258.926 84.4495 260.96 76.576 259.668C78.5726 259.972 80.6164 259.76 82.502 259.053C84.3877 258.347 86.049 257.17 87.319 255.643C89.9483 252.689 92.8037 237.177 93.4398 233.317Z" fill="#FAD15F"/>
<path d="M143.041 208.988C134.879 204.936 124.056 201.316 115.274 206.111C108.674 209.717 104.423 215.066 100.652 221.266C96.8798 227.466 96.8095 235.219 94.7406 242.149C93.474 246.404 92.2074 252.766 88.7312 256.048C87.2803 257.45 85.5268 258.528 83.5943 259.209C89.329 258.808 94.9293 257.35 100.089 254.913C107.294 251.658 113.796 247.201 120.566 243.202C134.436 234.999 149.414 228.663 165.081 224.373C166.488 223.981 168.838 222.023 168.684 220.631C168.69 220.605 168.69 220.577 168.684 220.55C159.297 220.294 151.218 213.054 143.041 208.988Z" fill="#F9C22D"/>
<path d="M143.041 208.988C134.879 204.936 124.056 201.316 115.274 206.111C108.674 209.717 104.423 215.066 100.652 221.266C96.8798 227.466 96.8095 235.219 94.7406 242.149C93.474 246.404 92.2074 252.766 88.7312 256.048C87.2803 257.45 85.5268 258.528 83.5943 259.209C89.329 258.808 94.9293 257.35 100.089 254.913C107.294 251.658 113.796 247.201 120.566 243.202C134.436 234.999 149.414 228.663 165.081 224.373C166.488 223.981 168.838 222.023 168.684 220.631C168.69 220.605 168.69 220.577 168.684 220.55C159.297 220.294 151.218 213.054 143.041 208.988Z" fill="#F9C22D"/>
<g style="mix-blend-mode:multiply" opacity="0.55">
<path d="M154.385 216.609C148.144 216.51 142.1 218.692 137.496 222.708C131.867 227.198 126.547 231.85 119.201 233.432C110.179 235.362 103.72 230.04 99.7227 223.311C96.8235 229.209 96.6124 236.032 94.7406 242.279C93.474 246.501 92.2074 252.815 88.7312 256.072C87.2803 257.463 85.5268 258.534 83.5943 259.209C89.329 258.811 94.9293 257.364 100.089 254.946C107.294 251.716 113.796 247.292 120.566 243.324C134.436 235.183 149.414 228.896 165.081 224.638C166.488 224.249 168.838 222.306 168.684 220.925C168.69 220.898 168.69 220.871 168.684 220.844C163.587 220.783 158.619 219.312 154.385 216.609Z" fill="#F2CC49"/>
</g>
<g style="mix-blend-mode:multiply" opacity="0.55">
<path d="M132.864 231.091C123.533 233.233 117.806 237.006 110.962 243.432C107.554 246.597 103.978 249.997 100.263 253.244L100.821 253.009C107.889 249.679 114.356 245.118 121.075 240.972C128.998 236.183 137.293 232.024 145.882 228.534C141.3 229.087 136.733 230.193 132.864 231.091Z" fill="#D68902"/>
</g>
<path d="M128.099 207.569C127.04 207.199 125.867 207.132 124.759 207.378C123.65 207.624 122.666 208.168 121.956 208.93C121.648 209.237 121.44 209.608 121.352 210.004C121.301 210.2 121.307 210.403 121.368 210.596C121.43 210.79 121.545 210.968 121.705 211.115C122.037 211.329 122.433 211.458 122.848 211.487C123.264 211.516 123.68 211.443 124.048 211.278C125.239 210.893 126.302 210.267 127.141 209.454C127.595 209.076 127.868 208.569 127.907 208.031C127.893 207.494 128.733 207.469 128.099 207.569Z" fill="#E9A000"/>
<path d="M117.499 216.106C116.894 215.777 116.198 215.674 115.528 215.815C114.857 215.957 114.256 216.334 113.826 216.882C113.601 217.127 113.461 217.443 113.429 217.779C113.397 218.115 113.474 218.452 113.649 218.738C113.882 218.936 114.159 219.07 114.455 219.129C114.752 219.187 115.058 219.168 115.345 219.072C115.993 218.989 116.611 218.744 117.145 218.357C117.41 218.157 117.611 217.878 117.719 217.557C117.827 217.237 117.837 216.89 117.75 216.563C117.529 215.939 117.971 215.635 117.499 216.106Z" fill="#E9A000"/>
<path d="M132.585 220.599C131.805 219.842 130.788 219.353 129.692 219.207C128.596 219.062 127.481 219.267 126.517 219.793C125.554 220.318 124.796 221.134 124.359 222.116C123.923 223.097 123.832 224.19 124.101 225.226C124.162 225.535 124.292 225.827 124.483 226.083C124.673 226.338 124.919 226.55 125.204 226.704C125.529 226.808 125.873 226.848 126.214 226.823C126.556 226.797 126.889 226.707 127.194 226.556C128.88 225.886 130.357 224.806 131.483 223.422C131.942 222.905 133.121 221.101 132.585 220.599Z" fill="#E9A000"/>
<path d="M145.432 210.923C144.665 211.3 143.899 212.137 144.19 212.99C144.481 213.843 145.447 214.105 146.274 214.04C146.767 214.028 147.249 213.893 147.684 213.646C147.905 213.527 148.095 213.353 148.239 213.139C148.383 212.925 148.477 212.677 148.512 212.416C148.526 212.052 148.427 211.693 148.23 211.396C148.033 211.099 147.75 210.88 147.424 210.775C146.766 210.555 146.055 210.607 145.432 210.923Z" fill="#E9A000"/>
<path d="M154.875 218.912C154.264 218.668 153.618 218.482 152.951 218.358C152.275 218.241 151.567 218.338 150.981 218.629C150.694 218.775 150.476 218.992 150.36 219.245C150.244 219.499 150.237 219.775 150.34 220.032C150.467 220.259 150.669 220.455 150.925 220.6C151.18 220.745 151.481 220.833 151.794 220.856C152.422 220.889 153.051 220.835 153.655 220.696C154.102 220.641 154.531 220.52 154.921 220.34C155.113 220.244 155.27 220.111 155.377 219.954C155.483 219.796 155.537 219.62 155.531 219.441C155.488 219.277 155.392 219.124 155.253 218.997C155.113 218.869 154.934 218.773 154.734 218.715C154.343 218.58 155.25 219.06 154.875 218.912Z" fill="#E9A000"/>
<path d="M143.828 224.861C142.856 224.425 141.78 224.226 140.703 224.284C140.164 224.322 139.645 224.49 139.198 224.773C138.751 225.055 138.391 225.442 138.154 225.894C137.942 226.355 137.93 226.873 138.121 227.342C138.312 227.81 138.69 228.191 139.176 228.404C139.781 228.578 140.429 228.578 141.034 228.404C141.802 228.26 142.526 227.957 143.151 227.518C143.458 227.293 143.694 226.994 143.834 226.654C143.973 226.314 144.011 225.944 143.943 225.586C143.742 224.847 144.534 224.539 143.828 224.861Z" fill="#E9A000"/>
<path d="M120.396 231.216C119.562 231.391 118.801 231.778 118.203 232.33C118.063 232.472 117.956 232.638 117.889 232.818C117.822 232.998 117.796 233.189 117.814 233.378C117.831 233.568 117.89 233.752 117.988 233.92C118.087 234.088 118.222 234.236 118.386 234.356C118.669 234.474 118.982 234.521 119.292 234.489C119.602 234.458 119.896 234.351 120.143 234.179C120.676 233.897 121.072 233.445 121.254 232.913C121.338 232.643 121.339 232.359 121.257 232.089C121.175 231.819 121.014 231.574 120.79 231.38C120.326 231.013 120.973 231.039 120.396 231.216Z" fill="#E9A000"/>
<path d="M104.531 237.12C103.663 237.322 102.879 237.761 102.281 238.379C101.683 238.998 101.297 239.768 101.173 240.592C101.083 241.142 101.178 241.704 101.444 242.202C101.586 242.448 101.796 242.654 102.054 242.798C102.311 242.942 102.606 243.018 102.906 243.019C103.759 243.019 104.355 242.252 104.801 241.573C105.248 240.894 105.573 240.315 105.939 239.724C106.162 239.442 106.311 239.115 106.372 238.769C106.433 238.424 106.405 238.07 106.291 237.736C106.122 237.497 105.883 237.308 105.603 237.19C105.322 237.071 105.012 237.03 104.707 237.07C104.152 237.12 105.126 236.982 104.531 237.12Z" fill="#E9A000"/>
<g style="mix-blend-mode:screen" opacity="0.32">
<path d="M141.116 209.849C139.328 207.672 136.765 206.218 133.927 205.771C131.116 205.346 128.244 205.48 125.487 206.165C118.895 207.669 112.889 210.972 108.185 215.68C106.689 216.927 105.739 218.676 105.526 220.574C105.612 221.662 106.029 222.7 106.725 223.559C107.421 224.418 108.365 225.058 109.437 225.399C111.593 226.038 113.879 226.15 116.091 225.725C121.4 224.899 126.593 223.481 131.564 221.498C133.647 220.82 135.632 219.888 137.472 218.725C139.253 217.525 140.573 215.791 141.228 213.791C141.544 212.792 141.58 211.729 141.333 210.712C141.086 209.695 140.564 208.759 139.821 208L141.116 209.849Z" fill="#FAD15F"/>
</g>
<path d="M50.2573 93.0678L60.623 110.934L104.649 92.094L76.9221 80.2598C76.9221 80.2598 57.0545 88.4964 50.2573 93.0678Z" fill="#EFEFEC"/>
<path d="M115.175 73.6925L102.017 93.0408L166.059 88.4994L156.509 70.0349L115.175 73.6925Z" fill="#EFEFEC"/>
<path d="M133.764 104.867L166.059 88.7805L101.441 91.639L60.7848 110.934L133.764 104.867Z" fill="#E2B58B"/>
<path d="M66.9257 48.4247L102.802 98.1532L106.404 95.9243L73.1225 43.6208C73.1225 43.6208 66.9541 43.9392 66.9257 48.4247Z" fill="#716361"/>
<path d="M80.085 49.4961L112.23 100.709L116.054 98.794L86.7555 45.3257C86.7555 45.3257 80.4875 45.1627 80.085 49.4961Z" fill="#716361"/>
<path d="M84.6615 170.005L130.939 170.579L153.27 156.399L166.059 88.7805L101.441 91.6794L60.7848 111.247L84.6615 170.005Z" fill="#EFEFEC"/>
<g style="mix-blend-mode:multiply">
<path d="M134.01 90.4846L101.665 91.9161L60.7848 111.425L84.793 170.006L131.326 170.579L145.004 161.963L134.01 90.4846Z" fill="#EAE6DC"/>
</g>
<path d="M130.968 170.579L153.281 156.399L166.059 88.7805L133.959 96.0278L130.968 170.579Z" fill="#EFEFEC"/>
<path d="M114.111 143.313C110.215 144.546 106.157 145.26 102.052 145.435C98.2401 145.841 94.3852 145.712 90.6125 145.054L91.2312 155.242L116.054 154.195L114.226 143.667L114.111 143.313ZM98.1815 152.998L93.5192 153.215L93.1451 148.21C93.1451 147.312 97.6203 147.013 97.7067 147.924L98.1815 152.998ZM105.204 152.685L100.311 152.902L99.7213 147.802C99.6205 146.877 104.384 146.564 104.499 147.502L105.204 152.685ZM112.586 152.358L107.434 152.589L106.729 147.393C106.6 146.455 111.579 146.129 111.737 147.081L112.586 152.358Z" fill="#716361"/>
<path d="M95.8762 148.441L96.2029 152.686L97.6308 152.609L97.3162 148.797C97.292 148.505 96.5659 148.378 95.8762 148.441Z" fill="#716361"/>
<path d="M95.1904 148.45H94.8903H94.6332H94.4331H94.3617H94.2188H94.1331C94.1178 148.491 94.1178 148.535 94.1331 148.576L94.1474 152.686L95.8762 152.61L95.5762 148.425L95.1904 148.45Z" fill="#716361"/>
<path d="M102.017 147.593L102.627 152.686L104.649 152.596L104.071 148.115C104.007 147.652 102.996 147.518 102.017 147.593Z" fill="#716361"/>
<path d="M102.115 147.603H101.843H101.608H101.422H101.298H101.224L101.15 147.678C101.137 147.727 101.137 147.779 101.15 147.828L101.521 152.326L102.895 152.686L102.449 147.573L102.115 147.603Z" fill="#716361"/>
<path d="M109.035 147.588L109.748 151.834L111.667 151.761L110.998 148.002C110.998 147.649 109.952 147.527 109.035 147.588Z" fill="#716361"/>
<path d="M108.692 147.598H108.306H107.985H107.744H107.663H107.487H107.39H107.294C107.277 147.637 107.277 147.68 107.294 147.72L107.936 151.393L109.913 151.834L109.125 147.573L108.692 147.598Z" fill="#716361"/>
<path d="M85.1207 142.721C87.7141 143.915 90.4929 144.628 93.3284 144.827H93.3987C96.2042 145.08 99.0258 145.08 101.831 144.827C104.775 144.599 107.694 144.117 110.559 143.385C113.831 142.63 116.954 141.308 119.793 139.476C121.1 138.539 120.158 138.034 119.329 138.25C114.41 139.692 112.302 139.938 109.491 139.692L93.6657 141.135C90.9421 141.889 88.0862 141.993 85.3175 141.438C84.5726 141.481 83.9542 142.101 85.1207 142.721Z" fill="#716361"/>
<path d="M93.2444 134.961L93.651 140.757L109.913 139.152L109.042 133.088C106.44 133.982 103.745 134.56 101.012 134.812C98.4361 135.152 95.8313 135.202 93.2444 134.961ZM102.159 135.748C102.159 135.154 105.15 134.797 105.223 135.406L105.717 138.75L102.61 139.062L102.159 135.748ZM96.6565 136.372C96.6565 135.778 99.5604 135.436 99.5604 136.045L99.9089 139.33L97.005 139.627L96.6565 136.372Z" fill="#716361"/>
<path d="M89.3293 133.612C91.1987 134.326 93.1749 134.713 95.1733 134.758C97.0952 134.842 99.0207 134.77 100.931 134.541C102.926 134.309 104.9 133.916 106.833 133.365C109.01 132.793 111.085 131.877 112.979 130.652C113.857 130.014 113.252 129.694 112.691 129.883C103.32 132.959 100.384 129.68 100.384 129.68C100.384 129.68 98.3112 133.583 89.4157 132.901C88.9263 132.814 88.4945 133.235 89.3293 133.612Z" fill="#716361"/>
<path d="M98.5081 136.516L98.6714 139.053L99.3854 138.958L99.2222 136.72C99.2222 136.516 98.855 136.462 98.5081 136.516Z" fill="#716361"/>
<path d="M103.772 135.666L103.98 138.2L104.649 138.094L104.459 135.866C104.441 135.652 104.07 135.612 103.772 135.666Z" fill="#716361"/>
<path d="M103.259 136.046H103.137H103.035H102.951H102.895L103.072 138.2L103.772 138.11L103.557 135.644H103.426L103.259 136.046Z" fill="#716361"/>
<g style="mix-blend-mode:multiply" opacity="0.55">
<g style="mix-blend-mode:multiply" opacity="0.55">
<path d="M75.8798 136.726L123.138 134.295C123.138 134.295 132.993 108.194 134.077 105.011C135.836 100.053 135.076 96.8161 137.624 92.1859L84.5939 99.821L60.9716 111.157L61.2954 111.977C65.0823 115.46 75.8798 136.726 75.8798 136.726Z" fill="#D6C2A6"/>
</g>
</g>
<path d="M143.956 95.597C144.577 92.4403 141.961 89.5569 141.596 86.3455C141.467 85.0852 141.686 83.8132 142.229 82.6717C142.772 81.5302 143.618 80.5643 144.671 79.8817C145.115 79.5727 145.631 79.3888 146.168 79.3488C146.435 79.3344 146.701 79.3928 146.938 79.5177C147.175 79.6427 147.375 79.8297 147.517 80.0594C147.989 80.934 147.22 81.9589 146.519 82.6558C146.799 82.7613 147.097 82.8063 147.395 82.7879C147.693 82.7696 147.985 82.6884 148.25 82.5494C148.515 82.4105 148.749 82.2169 148.936 81.9811C149.123 81.7452 149.26 81.4724 149.337 81.18C149.455 80.5768 149.377 79.951 149.115 79.3966C148.852 78.8422 148.419 78.3891 147.881 78.1052C147.335 77.8408 146.739 77.7036 146.134 77.7036C145.53 77.7036 144.933 77.8408 144.388 78.1052C143.284 78.624 142.325 79.413 141.596 80.401C140.623 81.5394 139.883 82.8629 139.42 84.2941C138.957 85.7253 138.78 87.2356 138.899 88.737C139.051 90.237 139.602 91.6672 140.492 92.8753C141.383 94.0833 142.58 95.024 143.956 95.597Z" fill="#FBDF6A"/>
<path d="M91.3103 105.822C91.7994 102.378 91.2847 98.8735 89.8212 95.6839C89.0629 94.0967 87.8802 92.7219 86.3888 91.6941C84.8973 90.6663 83.1482 90.0206 81.3125 89.8203C80.6043 89.7203 79.8808 89.7903 79.209 90.0238C78.5372 90.2572 77.9389 90.6467 77.4694 91.156C77.0939 91.7585 76.9644 92.4694 77.1054 93.1554C77.2464 93.8414 77.6481 94.4555 78.2352 94.8825C78.8445 95.283 79.5697 95.4978 80.3127 95.4978C81.0558 95.4978 81.7809 95.283 82.3903 94.8825C82.984 94.4626 83.4588 93.9116 83.7729 93.278C84.087 92.6444 84.2307 91.9477 84.1913 91.2495C84.084 89.8449 83.421 88.5293 82.3336 87.5629C81.9028 87.1215 81.3753 86.7734 80.7877 86.5428C80.2 86.3122 79.5662 86.2045 78.9301 86.2272C78.2977 86.2736 77.7064 86.54 77.2712 86.9746C76.836 87.4092 76.5882 87.9808 76.576 88.5781C77.2605 88.1212 78.0823 87.8827 78.9211 87.8975C79.7599 87.9123 80.5716 88.1797 81.2374 88.6605C81.9032 89.1412 82.3881 89.8102 82.6211 90.5693C82.854 91.3284 82.8229 92.1378 82.5321 92.879C82.305 93.5038 81.8402 94.0272 81.2274 94.3483C80.9162 94.496 80.5653 94.5534 80.2194 94.5129C79.8734 94.4725 79.5481 94.3361 79.2846 94.1212C78.9996 93.8221 78.8419 93.4345 78.8419 93.0326C78.8419 92.6307 78.9996 92.2431 79.2846 91.944C79.5836 91.655 79.9532 91.4394 80.3611 91.316C80.769 91.1926 81.2028 91.1652 81.6245 91.2361C82.4662 91.384 83.2584 91.7182 83.936 92.2112C85.95 93.5989 87.479 95.5207 88.3278 97.731C89.1765 99.9412 89.3064 102.34 88.7009 104.62L91.3103 105.822Z" fill="#FBDF6A"/>
<g style="mix-blend-mode:multiply">
<path d="M129.213 141.527C127.805 142.396 126.312 143.198 124.918 143.864C116.258 147.941 106.95 147.452 98.1637 143.864C89.4512 140.26 82.0489 134.232 76.9009 126.55C74.2985 122.439 72.1825 118.058 70.5925 113.49L65.1712 116.073L86.0397 167.008L127.917 167.171C128.424 163.76 129.213 141.527 129.213 141.527Z" fill="#F1EAE2"/>
</g>
<path d="M162.804 91.2633C161.444 89.5605 159.904 87.9925 158.207 86.5837C156.5 85.1597 154.357 84.2845 152.087 84.0844C150.292 84.0475 148.54 84.5984 147.128 85.6433C145.716 86.6881 144.733 88.1622 144.345 89.8143C144.09 87.764 143.009 85.8843 141.327 84.563C139.644 83.2345 137.786 82.1174 135.799 81.2394C133.905 80.9902 131.976 81.1068 130.131 81.5822C128.287 82.0576 126.563 82.8818 125.067 84.0047C123.676 84.9315 122.676 86.2924 122.247 87.8467C122.055 89.7313 122.396 91.63 123.234 93.3505C124.228 96.3754 125.651 99.2597 127.464 101.925C128.315 103.076 129.341 104.102 130.511 104.97L148.251 102.537C153.088 99.7185 157.869 96.7805 162.537 93.7228C162.949 93.5134 163.266 93.1679 163.425 92.7523C163.439 92.4769 163.391 92.2018 163.284 91.9452C163.177 91.6886 163.013 91.4562 162.804 91.2633Z" fill="#FBDF6A"/>
<path d="M160.267 92.1419L157.03 89.7118C155.708 88.5898 154.185 87.7312 152.544 87.1817C151.738 86.909 150.868 86.8858 150.048 87.1151C149.229 87.3444 148.496 87.8157 147.944 88.4682C147.477 89.2996 147.119 90.1885 146.88 91.1127C146.797 91.6607 146.538 92.1661 146.142 92.5515C145.747 92.9368 145.236 93.1807 144.69 93.2456C144.143 93.3106 143.59 93.193 143.116 92.911C142.643 92.6289 142.274 92.198 142.067 91.6845C141.357 90.6696 140.974 89.4545 140.306 88.3967C139.57 87.2931 138.595 86.3723 137.454 85.7037C136.313 85.0351 135.036 84.6362 133.719 84.5372C131.152 84.3976 128.612 85.1163 126.493 86.5813C124.421 88.0125 122.586 89.7637 121.055 91.7703C120.544 92.3992 120.104 93.4427 120.8 93.9716C121.496 94.5005 122.134 93.9716 122.646 93.5714C124.207 92.2992 125.641 90.8697 127.288 89.6975C128.932 88.4435 130.908 87.7074 132.967 87.5819C134.019 87.534 135.066 87.7476 136.017 88.2038C136.968 88.66 137.793 89.3449 138.418 90.1979C139.071 91.1842 139.369 92.3563 140.008 93.3284C140.744 94.4264 141.871 95.1966 143.156 95.4788C144.442 95.761 145.785 95.5335 146.908 94.8436C147.834 94.0468 148.654 93.1341 149.35 92.1276C149.696 91.6341 150.142 91.2199 150.658 90.9119C151.174 90.604 151.749 90.4094 152.345 90.3408C153.03 90.4265 153.689 90.6551 154.28 91.012C154.872 91.369 155.383 91.8463 155.781 92.4135C156.561 93.5597 157.566 94.5327 158.734 95.2724C159.298 95.5815 159.96 95.6584 160.58 95.4869C160.887 95.3922 161.157 95.2038 161.353 94.9476C161.548 94.6915 161.66 94.3804 161.673 94.0574C161.659 93.1997 160.934 92.6279 160.267 92.1419Z" fill="#E5B348"/>
<path d="M108.158 85.5439C108.158 85.5439 114.045 76.3663 122.617 79.046C131.19 81.7257 130.967 90.1536 130.967 90.1536C130.967 90.1536 126.361 102.427 118.067 102.414C109.773 102.4 109.508 88.6957 108.158 85.5439Z" fill="#BE7139"/>
<g style="mix-blend-mode:multiply" opacity="0.55">
<path d="M127.85 82.1603C127.491 83.6484 126.701 84.9956 125.582 86.0314C123.341 88.0511 120.015 89.8324 117.079 87.995C114.574 86.3961 113.544 83.4787 111.081 81.9639C109.977 82.9696 108.996 84.1044 108.158 85.3441C109.55 88.528 109.55 102.414 118.053 102.414C126.556 102.414 130.968 90.0007 130.968 90.0007C130.804 87.1148 129.709 84.3617 127.85 82.1603Z" fill="#C47F4C"/>
</g>
<path d="M113.738 107.968L135.404 105.116L139.74 104.217C138.268 103.983 136.814 103.645 135.39 103.206C132.201 101.545 130.943 98.4993 132.355 95.5783C133.292 93.6264 136.621 88.8227 132.929 87.2722C132.322 87.0449 131.674 86.9459 131.026 86.9815C129.607 87.0141 128.214 87.3754 126.961 88.0365C125.707 88.6976 124.628 89.6401 123.809 90.7885C122.243 93.0173 121.235 95.6891 118.438 96.7273C113.193 98.7346 114.801 91.8129 113.543 89.0442C112.96 87.9421 112.121 86.9931 111.095 86.2755C109.543 84.9927 107.673 84.1442 105.678 83.818C103.684 83.4919 101.637 83.6999 99.7512 84.4205C97.5142 85.4744 95.6975 87.2384 94.59 89.4318C93.5332 91.4914 92.7527 93.6787 92.2681 95.9383C91.8905 97.5856 91.345 99.8283 89.5966 100.576C87.8482 101.323 85.7222 98.9838 84.4913 97.8071C82.1415 95.6891 77.8614 95.0384 74.9661 95.3153C69.637 95.8967 65.5108 101.31 67.3851 106.39C68.65 109.33 70.9034 111.746 73.7632 113.229L73.8471 113.146C74.2248 113.312 73.987 113.353 74.3506 113.284C75.8193 114.516 78.1691 114.392 80.0294 114.267C83.9878 114.018 87.7503 113.686 91.7226 113.326C98.1987 112.744 104.577 111.678 110.955 111.166L114.438 110.917L113.738 107.968Z" fill="#FBDF6A"/>
<path d="M118.509 102.576C120.137 101.867 124.002 96.0901 125.842 98.243C127.258 99.9814 126.182 103.672 126.635 105.651L126.72 105.919L130.968 105.33C129.704 104.54 128.795 103.334 128.419 101.947C128.101 100.73 128.14 99.4541 128.532 98.2564C128.769 97.7126 128.881 97.1277 128.862 96.54C128.842 95.9523 128.691 95.3752 128.419 94.8465C127.81 94.4988 126.763 94.1244 126.211 94.6191C126.14 94.6191 125.092 95.3814 124.016 95.9564C123.134 96.4874 122.296 97.082 121.51 97.7349C119.763 99.1287 117.65 100.053 115.394 100.409C112.846 100.69 112.01 99.2059 111.501 97.2134C111.076 95.6087 110.991 93.0546 109.646 91.704C109.232 91.301 108.734 90.9845 108.183 90.7749C107.632 90.5653 107.04 90.4673 106.446 90.4871C104.054 90.4616 101.725 91.2121 99.8488 92.6133C97.5957 94.2476 95.8618 96.4358 94.837 98.9384C94.3131 100.276 93.8884 101.613 93.3221 102.95C92.232 105.451 90.1932 106.654 87.3617 104.689C85.323 103.258 83.9921 101.466 81.5712 100.449C78.5839 99.1791 75.7099 98.8983 73.0765 100.329C67.6966 103.204 71.4201 109.061 76.3611 111.214C77.1964 111.575 77.2531 112.297 77.9326 111.214C78.6122 110.131 75.6674 108.7 75.1011 107.951C72.6093 104.996 76.7009 102.763 79.7023 103.258C82.7038 103.752 84.5301 106.521 87.4891 107.309C88.7417 107.587 90.0508 107.537 91.2755 107.165C92.5003 106.793 93.5946 106.112 94.4406 105.197C96.5784 103.004 98.0083 100.088 99.7639 97.6279C100.896 96.05 103.742 93.6162 106.135 95.4081C108.23 96.9326 108.329 100.142 110.255 101.947C112.605 104.114 115.975 103.699 118.509 102.576Z" fill="#E5B348"/>
<path d="M101.159 109.57C101.159 109.57 100.154 94.387 112.778 96.6861C125.015 98.8901 125.704 107.162 125.704 107.162C125.704 107.162 105.597 113.692 101.159 109.57Z" fill="#BE7139"/>
<path d="M157.286 95.9312C157.286 95.9312 147.424 86.0309 138.589 95.2961C133.419 100.723 138.364 106.674 138.364 106.674L157.286 95.9312Z" fill="#BE7139"/>
<g style="mix-blend-mode:multiply" opacity="0.55">
<path d="M162.818 91.406L161.999 90.4174C159.602 88.8246 157.556 87.0396 154.185 88.4264C151.632 90.4036 149.954 94.0011 147.133 95.69C144.312 97.3789 140.292 96.7884 137.428 98.0379C136.544 99.2129 135.467 100.238 134.241 101.072C133.637 101.954 132.846 102.699 131.922 103.258C130.997 103.817 129.96 104.177 128.881 104.313C127.565 104.543 126.214 104.483 124.925 104.139C123.637 103.794 122.443 103.174 121.433 102.322C121.32 102.322 116.877 101.114 116.779 101.114C110.276 101.69 114.423 105.494 101.714 104.684C100.196 105.638 98.4426 106.179 96.6366 106.249C93.3219 107.883 88.7801 108.075 84.9153 108.473C82.4187 108.72 78.0602 109.489 75.3238 108.226C74.4209 107.819 73.4234 107.651 72.4325 107.741C71.4417 107.83 70.4927 108.173 69.6818 108.734L68.6803 109.434C69.9794 110.958 71.5458 112.246 73.3068 113.238L73.3914 113.155C73.7723 113.32 73.5325 113.361 73.8992 113.293C75.3802 114.515 77.7499 114.391 79.6259 114.268C83.6176 114.021 87.4119 113.691 91.4177 113.334C97.9484 112.757 104.38 111.7 110.812 111.192L114.324 110.945L114.226 110.533C117.947 109.758 121.621 108.777 125.228 107.595C125.189 107.222 125.113 106.854 125.002 106.496L135.426 105.123L136.836 104.835C137.129 105.51 137.493 106.154 137.922 106.757L143.254 103.764L148.247 103.05C152.196 100.674 156.089 98.189 159.94 95.6488C160.118 95.6381 160.293 95.6058 160.462 95.5527C160.683 95.4815 160.885 95.3649 161.055 95.2109C161.226 95.0569 161.36 94.8691 161.449 94.6602L162.535 93.9462C162.948 93.7299 163.265 93.373 163.424 92.9438C163.44 92.6604 163.394 92.3769 163.289 92.1119C163.185 91.8469 163.024 91.6064 162.818 91.406Z" fill="#C47F4C"/>
</g>
<path d="M60.7848 110.462L76.6536 130.532L119.866 127.087L134.477 104.97L60.7848 110.462Z" fill="#EFEFEC"/>
<g style="mix-blend-mode:multiply">
<path d="M87.5494 110.082L63.4167 111.918L78.0219 129.68L115.177 126.661C105.863 121.329 96.7204 115.685 87.5494 110.082Z" fill="#F2EBE5"/>
</g>
<g style="mix-blend-mode:multiply">
<path d="M145.731 142.103L147.816 105.822L144.388 106.317L143.814 142.42L131.08 167.597L130.968 170.579L132.451 169.631L144.709 149.305L152.658 156.671L153.203 156.328L153.777 153.263L145.731 142.103Z" fill="#EBE5DF"/>
</g>
<g style="mix-blend-mode:multiply" opacity="0.55">
<path d="M161.157 115.201L166.059 88.7805L134.477 105.045C134.477 105.045 142.166 123.599 145.75 127.976C148.771 126.381 161.157 115.201 161.157 115.201Z" fill="#DBC9B0"/>
</g>
<path d="M147.081 121.159L170.445 105.086L166.84 88.7805L134.477 105.127L147.081 121.159Z" fill="#EFEFEC"/>
<g style="mix-blend-mode:multiply">
<path d="M137.109 106.619L147.045 118.603L168.691 104.406L168.052 101.561C158.343 102.878 146.789 105.288 137.109 106.619Z" fill="#F2EBE5"/>
</g>
<ellipse cx="87.542" cy="181.23" rx="3.0705" ry="2.98224" fill="#73A624"/>
<path d="M153.67 185.974C152.759 187.53 150.149 187.068 148.727 186.238C147.304 185.408 145.396 183.432 147.018 180.81C148.64 178.188 151.425 179.895 152.847 180.725C154.269 181.555 154.582 184.417 153.67 185.974Z" fill="#73A624"/>
<path d="M180.771 120.936C182.356 122.284 180.619 125.615 178.935 127.369C177.251 129.122 173.892 131.382 171.262 128.998C168.631 126.615 172.032 123.191 173.715 121.438C175.399 119.685 179.187 119.588 180.771 120.936Z" fill="#BE7139"/>
<path d="M216.168 262.576C212.389 265.904 206.977 266.844 204.86 264.576C202.743 262.309 202.721 259.243 206.5 255.915C210.278 252.587 213.043 252.6 215.16 254.867C217.277 257.135 219.947 259.248 216.168 262.576Z" fill="#FF3333"/>
</svg>
