<svg width="67" height="41" viewBox="0 0 67 41" fill="none" xmlns="http://www.w3.org/2000/svg">
<path d="M67.0025 19.6081V40.7261H2.32745C0.829471 38.6815 0.00239247 36.0549 0 33.3348C0.0601294 30.1849 1.16165 27.1925 3.06262 25.0147C4.9636 22.8369 7.50856 21.6519 10.1385 21.7199C11.1806 21.7187 12.2172 21.9001 13.2154 22.2583C13.0881 21.2837 13.0232 20.2989 13.0214 19.3124C13.0214 8.64783 20.568 0 29.8778 0C39.1876 0 46.7254 8.64783 46.7254 19.3124C46.7271 19.9721 46.6976 20.6313 46.6373 21.2869C47.6059 20.4892 48.7105 19.9592 49.871 19.7353C51.0316 19.5114 52.2193 19.5991 53.3481 19.9921C54.4769 20.3852 55.5187 21.0738 56.3981 22.008C57.2776 22.9423 57.9727 24.099 58.4332 25.3944C59.2273 23.6424 60.4018 22.1799 61.8326 21.1614C63.2634 20.1429 64.8973 19.6062 66.5617 19.6081H67.0025Z" fill="#3BB243"/>
</svg>
