<svg width="23" height="23" viewBox="0 0 23 23" fill="none" xmlns="http://www.w3.org/2000/svg">
<path d="M17.25 7.66602C17.25 6.14102 16.6442 4.67849 15.5659 3.60015C14.4875 2.52182 13.025 1.91602 11.5 1.91602C9.97501 1.91602 8.51247 2.52182 7.43414 3.60015C6.3558 4.67849 5.75 6.14102 5.75 7.66602C5.75 14.3743 2.875 16.291 2.875 16.291H20.125C20.125 16.291 17.25 14.3743 17.25 7.66602Z" stroke="white" stroke-width="1.53333" stroke-linecap="round" stroke-linejoin="round"/>
<path d="M13.1596 20.125C12.9911 20.4154 12.7493 20.6565 12.4583 20.8241C12.1673 20.9917 11.8374 21.0799 11.5017 21.0799C11.1659 21.0799 10.836 20.9917 10.545 20.8241C10.2541 20.6565 10.0122 20.4154 9.84375 20.125" stroke="white" stroke-width="1.53333" stroke-linecap="round" stroke-linejoin="round"/>
</svg>
