<svg width="381" height="324" viewBox="0 0 381 324" fill="none" xmlns="http://www.w3.org/2000/svg">
<path d="M181.467 290.993C220.409 290.993 251.978 286.482 251.978 280.916C251.978 275.351 220.409 270.839 181.467 270.839C142.525 270.839 110.956 275.351 110.956 280.916C110.956 286.482 142.525 290.993 181.467 290.993Z" fill="#F10027"/>
<path opacity="0.5" d="M181.467 290.993C220.409 290.993 251.978 286.482 251.978 280.916C251.978 275.351 220.409 270.839 181.467 270.839C142.525 270.839 110.956 275.351 110.956 280.916C110.956 286.482 142.525 290.993 181.467 290.993Z" fill="white"/>
<path d="M336.407 314.675C358.282 314.675 376.015 310.163 376.015 304.598C376.015 299.033 358.282 294.521 336.407 294.521C314.532 294.521 296.799 299.033 296.799 304.598C296.799 310.163 314.532 314.675 336.407 314.675Z" fill="#F10027"/>
<path opacity="0.5" d="M336.407 314.675C358.282 314.675 376.015 310.163 376.015 304.598C376.015 299.033 358.282 294.521 336.407 294.521C314.532 294.521 296.799 299.033 296.799 304.598C296.799 310.163 314.532 314.675 336.407 314.675Z" fill="white"/>
<path d="M0.191763 72.6111C-0.00662299 71.8938 -0.0517095 71.1428 0.0594338 70.4069C0.170577 69.671 0.435459 68.9668 0.836836 68.3401C1.23821 67.7134 1.76709 67.1782 2.38902 66.7695C3.01095 66.3607 3.712 66.0876 4.44652 65.9677C8.88788 65.3613 14.3463 71.3235 16.0724 74.9344C16.2217 75.2424 17.9945 80.3928 17.9386 80.3928C17.8826 80.3928 10.0635 80.5701 6.85381 79.1705C4.08262 77.9669 0.966202 75.6809 0.191763 72.6111ZM114.277 58.9231C113.624 62.0209 110.545 64.3909 107.83 65.6598C105.114 66.9288 98.7135 67.1527 97.1367 67.1807C96.2876 68.1977 95.3825 69.2801 94.4121 70.5117C92.714 72.6858 90.8292 75.177 88.9537 77.9762C88.4499 78.732 87.946 79.5531 87.4328 80.3462C88.5712 79.1892 90.148 77.6217 90.316 77.4817C93.4417 74.9904 100.953 72.014 104.685 74.4866C105.295 74.9146 105.807 75.4663 106.189 76.1056C106.571 76.7449 106.814 77.4576 106.902 78.1971C106.99 78.9366 106.921 79.6864 106.7 80.3975C106.479 81.1086 106.11 81.7651 105.618 82.3243C103.612 84.7689 99.7679 85.45 96.7821 85.3287C93.7963 85.2074 87.8247 82.3709 86.5184 81.7364C85.4174 83.5093 84.3351 85.3567 83.3087 87.3348C81.4246 90.9213 79.8634 94.6683 78.6434 98.5315L78.8674 98.6435C79.8004 97.4492 81.7598 94.9766 81.9464 94.79C84.7456 91.9908 91.9208 88.1839 95.9423 90.2366C96.5947 90.5956 97.1641 91.0881 97.6134 91.6819C98.0627 92.2757 98.3818 92.9576 98.5499 93.6829C98.7181 94.4083 98.7315 95.161 98.5892 95.8919C98.447 96.6229 98.1524 97.3156 97.7245 97.925C95.9983 100.575 92.2568 101.657 89.3269 101.881C85.8933 102.124 78.7834 99.4366 78.5221 99.334C77.4033 103.22 76.5399 107.175 75.9376 111.174C75.471 114.123 75.1258 117.137 74.8085 120.169C75.4244 119.311 78.0183 116.064 78.2329 115.849C81.032 113.05 88.2073 109.243 92.2288 111.296C92.8811 111.655 93.4505 112.147 93.8998 112.741C94.3491 113.335 94.6682 114.017 94.8364 114.742C95.0045 115.468 95.0179 116.22 94.8757 116.951C94.7334 117.682 94.4388 118.375 94.0109 118.984C92.2848 121.634 88.5432 122.716 85.6134 122.94C82.2544 123.174 75.4337 120.636 74.8645 120.421C74.7246 121.793 74.5659 123.164 74.4353 124.545C73.9968 129.043 73.5769 133.559 73.0264 138C72.8398 139.539 72.5879 141.051 72.3546 142.563C73.2877 141.303 75.1538 139.054 75.3031 138.877C78.1022 136.078 85.2775 132.271 89.299 134.324C89.9513 134.683 90.5207 135.175 90.97 135.769C91.4193 136.363 91.7384 137.045 91.9065 137.77C92.0747 138.495 92.0881 139.248 91.9459 139.979C91.8036 140.71 91.509 141.403 91.0811 142.012C89.3549 144.662 85.6134 145.744 82.6369 145.959C79.6605 146.174 73.8568 144.158 72.2426 143.57C71.8227 146.09 71.3096 148.572 70.7777 151.035C70.5071 152.08 70.3019 153.153 69.9846 154.142C69.6674 155.131 69.3875 156.129 69.0516 157.109C68.3704 159.106 67.7546 160.972 67.0735 162.819C66.7376 163.752 66.4017 164.629 66.0564 165.535C66.8495 164.116 68.1372 161.886 68.2865 161.7C70.6564 158.481 77.1412 153.657 81.3493 155.084C82.0481 155.34 82.6853 155.74 83.2192 156.259C83.7532 156.777 84.172 157.402 84.4484 158.093C84.7248 158.784 84.8525 159.525 84.8234 160.269C84.7942 161.012 84.6087 161.742 84.2791 162.409C82.9728 165.292 79.4365 166.934 76.5254 167.597C73.3156 168.324 66.4203 166.925 65.5712 166.748C64.7315 168.959 63.9011 171.105 63.08 173.102C60.4954 179.409 58.1068 184.578 56.3806 188.161C56.2873 188.366 56.194 188.544 56.1007 188.74H68.669L64.3303 273.34C64.1788 276.464 62.8266 279.409 60.556 281.559C58.2854 283.71 55.2719 284.9 52.1445 284.882C49.0456 284.875 46.067 283.682 43.8201 281.547C41.5732 279.413 40.2283 276.5 40.0614 273.406L35.732 188.777H49.2147C49.1494 188.189 49.0841 187.573 49.0001 186.911C48.5522 183.001 47.8245 177.412 46.6488 170.76C46.3222 168.838 45.9303 166.813 45.5198 164.732C44.6427 164.844 37.6821 165.721 34.5377 164.732C31.6732 163.855 28.2769 161.933 27.1945 158.984C26.9145 158.295 26.7829 157.554 26.8084 156.81C26.8339 156.065 27.0159 155.335 27.3425 154.666C27.6691 153.997 28.133 153.404 28.7039 152.927C29.2748 152.449 29.94 152.097 30.6562 151.893C34.9949 150.783 41.1064 156.073 43.2338 159.47C43.3644 159.684 44.6894 162.427 45.3332 163.846C45.0813 162.586 44.8293 161.336 44.5401 160.029C44.1389 158.163 43.607 156.176 43.1965 154.263C42.9166 153.283 42.646 152.285 42.3661 151.287C42.0861 150.288 41.7316 149.327 41.433 148.329C40.9385 146.883 40.3506 145.408 39.7721 143.944C37.906 144.466 32.3077 145.903 29.4525 145.492C26.5974 145.082 22.8465 143.692 21.3256 140.92C20.945 140.28 20.7033 139.567 20.6164 138.827C20.5294 138.088 20.5991 137.338 20.8209 136.627C21.0426 135.916 21.4115 135.259 21.9036 134.7C22.3956 134.141 22.9998 133.692 23.6769 133.381C27.801 131.636 34.631 135.938 37.2529 138.98C37.3369 139.073 37.8221 139.773 38.3912 140.603C37.7847 139.185 37.1782 137.804 36.5251 136.358C34.659 132.346 32.5969 128.315 30.5629 124.228C30.143 123.388 29.7324 122.539 29.3126 121.69C27.717 122.138 21.6988 123.752 18.7037 123.314C15.7085 122.875 12.0976 121.513 10.5767 118.742C10.1948 118.102 9.95202 117.39 9.86437 116.65C9.77672 115.911 9.84613 115.161 10.0681 114.451C10.29 113.74 10.6595 113.084 11.1523 112.526C11.6451 111.968 12.2502 111.52 12.928 111.212C17.0428 109.458 23.8822 113.768 26.504 116.81C26.5974 116.922 27.1758 117.743 27.8197 118.676C26.7466 116.456 25.7016 114.235 24.7312 112.005C23.0557 108.174 21.6343 104.238 20.4765 100.22C19.9166 100.388 12.9 102.422 9.56902 101.937C6.61122 101.508 2.96295 100.136 1.44206 97.3652C1.06563 96.7292 0.826621 96.0214 0.740442 95.2874C0.654264 94.5534 0.72283 93.8095 0.941716 93.1036C1.1606 92.3977 1.52496 91.7455 2.01129 91.189C2.49763 90.6326 3.09516 90.1842 3.76538 89.8727C7.88951 88.1186 14.7195 92.4293 17.3414 95.4711C17.528 95.6857 19.5994 98.7181 20.3085 99.8191C20.3046 99.7726 20.3046 99.7257 20.3085 99.6792C19.269 95.7049 18.5883 91.6454 18.2745 87.5494C17.9692 83.894 17.882 80.2237 18.0132 76.558C18.0878 73.1616 18.3678 70.0266 18.6477 67.3114C18.8063 65.8185 18.9743 64.4655 19.1515 63.2059L19.0769 63.2525C19.0022 63.2525 17.5 58.0741 17.444 57.7288C16.7816 53.782 17.8359 45.767 21.8108 43.7329C22.4805 43.408 23.2114 43.2281 23.9555 43.205C24.6996 43.1818 25.4402 43.316 26.1289 43.5987C26.8175 43.8814 27.4388 44.3062 27.9521 44.8455C28.4653 45.3847 28.8589 46.0262 29.1073 46.7281C30.2736 49.6672 29.0046 53.3528 27.4464 55.9094C25.8882 58.4659 20.6724 62.1795 19.3755 63.0659C19.2169 64.3815 19.0676 65.7905 18.9369 67.358C18.7223 70.1012 18.5077 73.1989 18.4984 76.586C18.4984 77.519 18.4984 78.4521 18.545 79.3851C18.853 77.7989 19.3008 75.6529 19.3661 75.4103C20.5978 71.6034 25.2164 64.9787 29.7044 64.9787C30.4483 65.0019 31.1789 65.1812 31.8489 65.505C32.519 65.8287 33.1135 66.2898 33.5938 66.8581C34.0742 67.4265 34.4297 68.0895 34.6373 68.8041C34.8449 69.5187 34.9 70.269 34.7989 71.0063C34.4724 74.1507 31.6452 76.8379 29.0886 78.3868C26.532 79.9356 19.982 80.8594 18.573 81.0273C18.629 83.1174 18.7503 85.2541 18.9929 87.4841C19.3995 91.5312 20.1645 95.5341 21.2789 99.4459H21.5308C21.6335 97.9437 21.9227 94.7806 21.9694 94.5287C22.7811 90.6098 26.6347 83.5186 31.104 83.0334C31.8461 82.9743 32.5922 83.0718 33.2941 83.3198C33.9959 83.5677 34.6378 83.9605 35.1781 84.4726C35.7183 84.9847 36.1448 85.6046 36.4299 86.2922C36.715 86.9798 36.8524 87.7197 36.833 88.4638C36.833 91.6269 34.3324 94.6033 31.9624 96.4228C29.1913 98.4475 21.7828 100.136 21.4935 100.192C22.7041 104.05 24.1659 107.825 25.8696 111.492C27.0919 114.207 28.4915 116.931 29.8911 119.619C29.8911 118.555 30.3016 114.422 30.3669 114.123C31.1787 110.204 35.0322 103.113 39.4922 102.628C40.2338 102.567 40.9797 102.663 41.6816 102.91C42.3835 103.157 43.0255 103.549 43.5659 104.06C44.1063 104.572 44.533 105.191 44.8182 105.878C45.1034 106.565 45.2407 107.305 45.2212 108.049C45.2212 111.212 42.73 114.188 40.36 116.008C37.6914 118.06 30.6002 119.74 30.003 119.843C30.6468 121.065 31.272 122.297 31.9251 123.519C34.0432 127.512 36.1799 131.506 38.1673 135.518C38.8578 136.908 39.4922 138.317 40.1267 139.698C40.2387 138.112 40.5093 135.238 40.5559 134.986C41.3677 131.077 45.2212 123.976 49.6812 123.491C50.4233 123.432 51.1694 123.529 51.8713 123.777C52.5732 124.025 53.215 124.418 53.7553 124.93C54.2955 125.442 54.722 126.062 55.0071 126.75C55.2923 127.437 55.4296 128.177 55.4102 128.921C55.4102 132.084 52.919 135.061 50.549 136.88C48.179 138.7 42.2354 140.221 40.5559 140.613C41.601 142.936 42.5807 145.278 43.4391 147.61C43.7843 148.628 44.2042 149.645 44.4841 150.643L45.4172 153.601C45.9583 155.644 46.4715 157.538 46.9194 159.46C47.162 160.393 47.3579 161.326 47.5725 162.259C47.4512 160.645 47.3019 158.07 47.3113 157.837C47.5165 153.843 50.2597 146.239 54.5891 145.091C55.3168 144.91 56.0746 144.885 56.8124 145.019C57.5503 145.153 58.2512 145.442 58.8688 145.867C59.4865 146.293 60.0066 146.844 60.3948 147.486C60.783 148.127 61.0304 148.844 61.1206 149.589C61.1829 149.974 61.2079 150.365 61.1952 150.755C62.9657 153.803 63.9291 157.252 63.9944 160.776C63.9944 161.028 63.5745 164.051 63.3319 165.581C63.8171 164.396 64.265 163.211 64.7688 161.97C65.4686 160.179 66.1591 158.238 66.8309 156.372C67.1388 155.439 67.456 154.412 67.7639 153.423C68.0719 152.434 68.3145 151.436 68.5944 150.438C68.9863 148.954 69.3128 147.405 69.6394 145.856C67.7733 145.259 62.3335 143.384 60.1782 141.462C58.0228 139.539 55.6622 136.311 55.9141 133.157C55.951 132.414 56.1437 131.687 56.4798 131.023C56.8159 130.359 57.2878 129.773 57.865 129.303C58.4422 128.833 59.1117 128.49 59.83 128.296C60.5484 128.101 61.2996 128.06 62.035 128.175C66.439 128.987 69.7607 136.348 70.2832 140.305C70.2832 140.426 70.2832 141.238 70.2832 142.292C70.5631 140.771 70.843 139.26 71.067 137.711C71.7108 133.325 72.224 128.828 72.7651 124.34C72.8678 123.407 72.9984 122.474 73.1104 121.541C71.5428 121.037 65.6459 119.059 63.3692 117.043C61.0926 115.028 58.8532 111.893 59.1145 108.749C59.1488 108.005 59.3395 107.277 59.674 106.612C60.0085 105.947 60.4794 105.359 61.056 104.888C61.6326 104.417 62.3019 104.073 63.0204 103.878C63.7389 103.683 64.4904 103.642 65.226 103.757C69.6394 104.568 72.9611 111.94 73.4743 115.886C73.4743 116.026 73.4743 117.043 73.5303 118.182C73.8568 115.737 74.2207 113.311 74.6406 110.913C75.3551 106.809 76.3401 102.757 77.5891 98.7835C77.0386 98.6062 70.0593 96.4321 67.5493 94.1928C65.3193 92.1961 63.0333 89.0423 63.2853 85.8886C63.3221 85.1453 63.5149 84.418 63.851 83.754C64.1871 83.09 64.659 82.5041 65.2362 82.0343C65.8133 81.5645 66.4828 81.2212 67.2012 81.0269C67.9196 80.8325 68.6708 80.7913 69.4061 80.906C73.8102 81.7178 77.1319 89.0796 77.6544 93.0358C77.6544 93.3157 77.7477 96.9826 77.7197 98.2983V98.1583C79.0489 94.2871 80.7162 90.5405 82.7022 86.9616C84.4693 83.7403 86.4227 80.6248 88.5525 77.631C90.4933 74.8318 92.4434 72.4059 94.1509 70.2692C95.0839 69.1122 96.017 68.0765 96.8381 67.1154H96.7354C96.6608 67.1154 98.2937 61.9183 98.4336 61.601C100.057 57.9528 105.348 51.8412 109.808 52.3264C110.557 52.4187 111.277 52.6702 111.921 53.064C112.565 53.4579 113.117 53.9849 113.54 54.6097C113.964 55.2346 114.249 55.9428 114.376 56.6867C114.503 57.4307 114.469 58.1932 114.277 58.9231ZM62.8934 166.43C62.1376 166.057 56.2593 163.146 53.964 160.664C51.9838 161.759 49.9398 162.734 47.8431 163.584C48.3656 165.889 48.8508 168.147 49.2614 170.265C50.5956 176.955 51.4447 182.572 51.9859 186.519C52.1072 187.359 52.2005 188.115 52.2938 188.796H52.5924L53.5255 186.883C55.3076 183.375 57.7802 178.317 60.4767 172.122C61.2978 170.302 62.1003 168.39 62.8934 166.43ZM86.3691 80.8967C86.4438 80.9434 87.7967 75.6716 87.8527 75.2983C88.4032 71.3328 87.1343 63.3552 83.1034 61.4051C82.4195 61.1015 81.679 60.9461 80.9307 60.9493C80.1824 60.9525 79.4433 61.114 78.7619 61.4234C78.0806 61.7328 77.4725 62.183 76.9776 62.7443C76.4828 63.3056 76.1124 63.9654 75.8909 64.6801C74.8085 67.6472 76.1801 71.2955 77.757 73.8054C79.7071 76.7073 86.3691 80.8967 86.3691 80.8967Z" fill="#F10027"/>
<path opacity="0.3" d="M0.191763 72.6111C-0.00662299 71.8938 -0.0517095 71.1428 0.0594338 70.4069C0.170577 69.671 0.435459 68.9668 0.836836 68.3401C1.23821 67.7134 1.76709 67.1782 2.38902 66.7695C3.01095 66.3607 3.712 66.0876 4.44652 65.9677C8.88788 65.3613 14.3463 71.3235 16.0724 74.9344C16.2217 75.2424 17.9945 80.3928 17.9386 80.3928C17.8826 80.3928 10.0635 80.5701 6.85381 79.1705C4.08262 77.9669 0.966202 75.6809 0.191763 72.6111ZM114.277 58.9231C113.624 62.0209 110.545 64.3909 107.83 65.6598C105.114 66.9288 98.7135 67.1527 97.1367 67.1807C96.2876 68.1977 95.3825 69.2801 94.4121 70.5117C92.714 72.6858 90.8292 75.177 88.9537 77.9762C88.4499 78.732 87.946 79.5531 87.4328 80.3462C88.5712 79.1892 90.148 77.6217 90.316 77.4817C93.4417 74.9904 100.953 72.014 104.685 74.4866C105.295 74.9146 105.807 75.4663 106.189 76.1056C106.571 76.7449 106.814 77.4576 106.902 78.1971C106.99 78.9366 106.921 79.6864 106.7 80.3975C106.479 81.1086 106.11 81.7651 105.618 82.3243C103.612 84.7689 99.7679 85.45 96.7821 85.3287C93.7963 85.2074 87.8247 82.3709 86.5184 81.7364C85.4174 83.5093 84.3351 85.3567 83.3087 87.3348C81.4246 90.9213 79.8634 94.6683 78.6434 98.5315L78.8674 98.6435C79.8004 97.4492 81.7598 94.9766 81.9464 94.79C84.7456 91.9908 91.9208 88.1839 95.9423 90.2366C96.5947 90.5956 97.1641 91.0881 97.6134 91.6819C98.0627 92.2757 98.3818 92.9576 98.5499 93.6829C98.7181 94.4083 98.7315 95.161 98.5892 95.8919C98.447 96.6229 98.1524 97.3156 97.7245 97.925C95.9983 100.575 92.2568 101.657 89.3269 101.881C85.8933 102.124 78.7834 99.4366 78.5221 99.334C77.4033 103.22 76.5399 107.175 75.9376 111.174C75.471 114.123 75.1258 117.137 74.8085 120.169C75.4244 119.311 78.0183 116.064 78.2329 115.849C81.032 113.05 88.2073 109.243 92.2288 111.296C92.8811 111.655 93.4505 112.147 93.8998 112.741C94.3491 113.335 94.6682 114.017 94.8364 114.742C95.0045 115.468 95.0179 116.22 94.8757 116.951C94.7334 117.682 94.4388 118.375 94.0109 118.984C92.2848 121.634 88.5432 122.716 85.6134 122.94C82.2544 123.174 75.4337 120.636 74.8645 120.421C74.7246 121.793 74.5659 123.164 74.4353 124.545C73.9968 129.043 73.5769 133.559 73.0264 138C72.8398 139.539 72.5879 141.051 72.3546 142.563C73.2877 141.303 75.1538 139.054 75.3031 138.877C78.1022 136.078 85.2775 132.271 89.299 134.324C89.9513 134.683 90.5207 135.175 90.97 135.769C91.4193 136.363 91.7384 137.045 91.9065 137.77C92.0747 138.495 92.0881 139.248 91.9459 139.979C91.8036 140.71 91.509 141.403 91.0811 142.012C89.3549 144.662 85.6134 145.744 82.6369 145.959C79.6605 146.174 73.8568 144.158 72.2426 143.57C71.8227 146.09 71.3096 148.572 70.7777 151.035C70.5071 152.08 70.3019 153.153 69.9846 154.142C69.6674 155.131 69.3875 156.129 69.0516 157.109C68.3704 159.106 67.7546 160.972 67.0735 162.819C66.7376 163.752 66.4017 164.629 66.0564 165.535C66.8495 164.116 68.1372 161.886 68.2865 161.7C70.6564 158.481 77.1412 153.657 81.3493 155.084C82.0481 155.34 82.6853 155.74 83.2192 156.259C83.7532 156.777 84.172 157.402 84.4484 158.093C84.7248 158.784 84.8525 159.525 84.8234 160.269C84.7942 161.012 84.6087 161.742 84.2791 162.409C82.9728 165.292 79.4365 166.934 76.5254 167.597C73.3156 168.324 66.4203 166.925 65.5712 166.748C64.7315 168.959 63.9011 171.105 63.08 173.102C60.4954 179.409 58.1068 184.578 56.3806 188.161C56.2873 188.366 56.194 188.544 56.1007 188.74H68.669L64.3303 273.34C64.1788 276.464 62.8266 279.409 60.556 281.559C58.2854 283.71 55.2719 284.9 52.1445 284.882C49.0456 284.875 46.067 283.682 43.8201 281.547C41.5732 279.413 40.2283 276.5 40.0614 273.406L35.732 188.777H49.2147C49.1494 188.189 49.0841 187.573 49.0001 186.911C48.5522 183.001 47.8245 177.412 46.6488 170.76C46.3222 168.838 45.9303 166.813 45.5198 164.732C44.6427 164.844 37.6821 165.721 34.5377 164.732C31.6732 163.855 28.2769 161.933 27.1945 158.984C26.9145 158.295 26.7829 157.554 26.8084 156.81C26.8339 156.065 27.0159 155.335 27.3425 154.666C27.6691 153.997 28.133 153.404 28.7039 152.927C29.2748 152.449 29.94 152.097 30.6562 151.893C34.9949 150.783 41.1064 156.073 43.2338 159.47C43.3644 159.684 44.6894 162.427 45.3332 163.846C45.0813 162.586 44.8293 161.336 44.5401 160.029C44.1389 158.163 43.607 156.176 43.1965 154.263C42.9166 153.283 42.646 152.285 42.3661 151.287C42.0861 150.288 41.7316 149.327 41.433 148.329C40.9385 146.883 40.3506 145.408 39.7721 143.944C37.906 144.466 32.3077 145.903 29.4525 145.492C26.5974 145.082 22.8465 143.692 21.3256 140.92C20.945 140.28 20.7033 139.567 20.6164 138.827C20.5294 138.088 20.5991 137.338 20.8209 136.627C21.0426 135.916 21.4115 135.259 21.9036 134.7C22.3956 134.141 22.9998 133.692 23.6769 133.381C27.801 131.636 34.631 135.938 37.2529 138.98C37.3369 139.073 37.8221 139.773 38.3912 140.603C37.7847 139.185 37.1782 137.804 36.5251 136.358C34.659 132.346 32.5969 128.315 30.5629 124.228C30.143 123.388 29.7324 122.539 29.3126 121.69C27.717 122.138 21.6988 123.752 18.7037 123.314C15.7085 122.875 12.0976 121.513 10.5767 118.742C10.1948 118.102 9.95202 117.39 9.86437 116.65C9.77672 115.911 9.84613 115.161 10.0681 114.451C10.29 113.74 10.6595 113.084 11.1523 112.526C11.6451 111.968 12.2502 111.52 12.928 111.212C17.0428 109.458 23.8822 113.768 26.504 116.81C26.5974 116.922 27.1758 117.743 27.8197 118.676C26.7466 116.456 25.7016 114.235 24.7312 112.005C23.0557 108.174 21.6343 104.238 20.4765 100.22C19.9166 100.388 12.9 102.422 9.56902 101.937C6.61122 101.508 2.96295 100.136 1.44206 97.3652C1.06563 96.7292 0.826621 96.0214 0.740442 95.2874C0.654264 94.5534 0.72283 93.8095 0.941716 93.1036C1.1606 92.3977 1.52496 91.7455 2.01129 91.189C2.49763 90.6326 3.09516 90.1842 3.76538 89.8727C7.88951 88.1186 14.7195 92.4293 17.3414 95.4711C17.528 95.6857 19.5994 98.7181 20.3085 99.8191C20.3046 99.7726 20.3046 99.7257 20.3085 99.6792C19.269 95.7049 18.5883 91.6454 18.2745 87.5494C17.9692 83.894 17.882 80.2237 18.0132 76.558C18.0878 73.1616 18.3678 70.0266 18.6477 67.3114C18.8063 65.8185 18.9743 64.4655 19.1515 63.2059L19.0769 63.2525C19.0022 63.2525 17.5 58.0741 17.444 57.7288C16.7816 53.782 17.8359 45.767 21.8108 43.7329C22.4805 43.408 23.2114 43.2281 23.9555 43.205C24.6996 43.1818 25.4402 43.316 26.1289 43.5987C26.8175 43.8814 27.4388 44.3062 27.9521 44.8455C28.4653 45.3847 28.8589 46.0262 29.1073 46.7281C30.2736 49.6672 29.0046 53.3528 27.4464 55.9094C25.8882 58.4659 20.6724 62.1795 19.3755 63.0659C19.2169 64.3815 19.0676 65.7905 18.9369 67.358C18.7223 70.1012 18.5077 73.1989 18.4984 76.586C18.4984 77.519 18.4984 78.4521 18.545 79.3851C18.853 77.7989 19.3008 75.6529 19.3661 75.4103C20.5978 71.6034 25.2164 64.9787 29.7044 64.9787C30.4483 65.0019 31.1789 65.1812 31.8489 65.505C32.519 65.8287 33.1135 66.2898 33.5938 66.8581C34.0742 67.4265 34.4297 68.0895 34.6373 68.8041C34.8449 69.5187 34.9 70.269 34.7989 71.0063C34.4724 74.1507 31.6452 76.8379 29.0886 78.3868C26.532 79.9356 19.982 80.8594 18.573 81.0273C18.629 83.1174 18.7503 85.2541 18.9929 87.4841C19.3995 91.5312 20.1645 95.5341 21.2789 99.4459H21.5308C21.6335 97.9437 21.9227 94.7806 21.9694 94.5287C22.7811 90.6098 26.6347 83.5186 31.104 83.0334C31.8461 82.9743 32.5922 83.0718 33.2941 83.3198C33.9959 83.5677 34.6378 83.9605 35.1781 84.4726C35.7183 84.9847 36.1448 85.6046 36.4299 86.2922C36.715 86.9798 36.8524 87.7197 36.833 88.4638C36.833 91.6269 34.3324 94.6033 31.9624 96.4228C29.1913 98.4475 21.7828 100.136 21.4935 100.192C22.7041 104.05 24.1659 107.825 25.8696 111.492C27.0919 114.207 28.4915 116.931 29.8911 119.619C29.8911 118.555 30.3016 114.422 30.3669 114.123C31.1787 110.204 35.0322 103.113 39.4922 102.628C40.2338 102.567 40.9797 102.663 41.6816 102.91C42.3835 103.157 43.0255 103.549 43.5659 104.06C44.1063 104.572 44.533 105.191 44.8182 105.878C45.1034 106.565 45.2407 107.305 45.2212 108.049C45.2212 111.212 42.73 114.188 40.36 116.008C37.6914 118.06 30.6002 119.74 30.003 119.843C30.6468 121.065 31.272 122.297 31.9251 123.519C34.0432 127.512 36.1799 131.506 38.1673 135.518C38.8578 136.908 39.4922 138.317 40.1267 139.698C40.2387 138.112 40.5093 135.238 40.5559 134.986C41.3677 131.077 45.2212 123.976 49.6812 123.491C50.4233 123.432 51.1694 123.529 51.8713 123.777C52.5732 124.025 53.215 124.418 53.7553 124.93C54.2955 125.442 54.722 126.062 55.0071 126.75C55.2923 127.437 55.4296 128.177 55.4102 128.921C55.4102 132.084 52.919 135.061 50.549 136.88C48.179 138.7 42.2354 140.221 40.5559 140.613C41.601 142.936 42.5807 145.278 43.4391 147.61C43.7843 148.628 44.2042 149.645 44.4841 150.643L45.4172 153.601C45.9583 155.644 46.4715 157.538 46.9194 159.46C47.162 160.393 47.3579 161.326 47.5725 162.259C47.4512 160.645 47.3019 158.07 47.3113 157.837C47.5165 153.843 50.2597 146.239 54.5891 145.091C55.3168 144.91 56.0746 144.885 56.8124 145.019C57.5503 145.153 58.2512 145.442 58.8688 145.867C59.4865 146.293 60.0066 146.844 60.3948 147.486C60.783 148.127 61.0304 148.844 61.1206 149.589C61.1829 149.974 61.2079 150.365 61.1952 150.755C62.9657 153.803 63.9291 157.252 63.9944 160.776C63.9944 161.028 63.5745 164.051 63.3319 165.581C63.8171 164.396 64.265 163.211 64.7688 161.97C65.4686 160.179 66.1591 158.238 66.8309 156.372C67.1388 155.439 67.456 154.412 67.7639 153.423C68.0719 152.434 68.3145 151.436 68.5944 150.438C68.9863 148.954 69.3128 147.405 69.6394 145.856C67.7733 145.259 62.3335 143.384 60.1782 141.462C58.0228 139.539 55.6622 136.311 55.9141 133.157C55.951 132.414 56.1437 131.687 56.4798 131.023C56.8159 130.359 57.2878 129.773 57.865 129.303C58.4422 128.833 59.1117 128.49 59.83 128.296C60.5484 128.101 61.2996 128.06 62.035 128.175C66.439 128.987 69.7607 136.348 70.2832 140.305C70.2832 140.426 70.2832 141.238 70.2832 142.292C70.5631 140.771 70.843 139.26 71.067 137.711C71.7108 133.325 72.224 128.828 72.7651 124.34C72.8678 123.407 72.9984 122.474 73.1104 121.541C71.5428 121.037 65.6459 119.059 63.3692 117.043C61.0926 115.028 58.8532 111.893 59.1145 108.749C59.1488 108.005 59.3395 107.277 59.674 106.612C60.0085 105.947 60.4794 105.359 61.056 104.888C61.6326 104.417 62.3019 104.073 63.0204 103.878C63.7389 103.683 64.4904 103.642 65.226 103.757C69.6394 104.568 72.9611 111.94 73.4743 115.886C73.4743 116.026 73.4743 117.043 73.5303 118.182C73.8568 115.737 74.2207 113.311 74.6406 110.913C75.3551 106.809 76.3401 102.757 77.5891 98.7835C77.0386 98.6062 70.0593 96.4321 67.5493 94.1928C65.3193 92.1961 63.0333 89.0423 63.2853 85.8886C63.3221 85.1453 63.5149 84.418 63.851 83.754C64.1871 83.09 64.659 82.5041 65.2362 82.0343C65.8133 81.5645 66.4828 81.2212 67.2012 81.0269C67.9196 80.8325 68.6708 80.7913 69.4061 80.906C73.8102 81.7178 77.1319 89.0796 77.6544 93.0358C77.6544 93.3157 77.7477 96.9826 77.7197 98.2983V98.1583C79.0489 94.2871 80.7162 90.5405 82.7022 86.9616C84.4693 83.7403 86.4227 80.6248 88.5525 77.631C90.4933 74.8318 92.4434 72.4059 94.1509 70.2692C95.0839 69.1122 96.017 68.0765 96.8381 67.1154H96.7354C96.6608 67.1154 98.2937 61.9183 98.4336 61.601C100.057 57.9528 105.348 51.8412 109.808 52.3264C110.557 52.4187 111.277 52.6702 111.921 53.064C112.565 53.4579 113.117 53.9849 113.54 54.6097C113.964 55.2346 114.249 55.9428 114.376 56.6867C114.503 57.4307 114.469 58.1932 114.277 58.9231ZM62.8934 166.43C62.1376 166.057 56.2593 163.146 53.964 160.664C51.9838 161.759 49.9398 162.734 47.8431 163.584C48.3656 165.889 48.8508 168.147 49.2614 170.265C50.5956 176.955 51.4447 182.572 51.9859 186.519C52.1072 187.359 52.2005 188.115 52.2938 188.796H52.5924L53.5255 186.883C55.3076 183.375 57.7802 178.317 60.4767 172.122C61.2978 170.302 62.1003 168.39 62.8934 166.43ZM86.3691 80.8967C86.4438 80.9434 87.7967 75.6716 87.8527 75.2983C88.4032 71.3328 87.1343 63.3552 83.1034 61.4051C82.4195 61.1015 81.679 60.9461 80.9307 60.9493C80.1824 60.9525 79.4433 61.114 78.7619 61.4234C78.0806 61.7328 77.4725 62.183 76.9776 62.7443C76.4828 63.3056 76.1124 63.9654 75.8909 64.6801C74.8085 67.6472 76.1801 71.2955 77.757 73.8054C79.7071 76.7073 86.3691 80.8967 86.3691 80.8967Z" fill="white"/>
<path d="M324.817 288.858C321.438 291.324 317.876 293.529 314.162 295.455C309.767 297.479 308.918 297.479 309.086 298.664C309.254 299.849 314.33 301.706 323.632 299.513C332.935 297.321 337.33 297.815 338.683 293.421C340.035 289.026 337.843 290.211 335.137 290.211C331.676 289.941 328.231 289.49 324.817 288.858Z" fill="#2E353A" stroke="#2E353A" stroke-width="0.466453" stroke-linecap="round" stroke-linejoin="round"/>
<path d="M338.18 294.585C334.215 295.63 327.067 297.385 321.096 298.318C317.175 299.028 313.145 298.849 309.302 297.795C309.198 297.909 309.124 298.047 309.086 298.197C309.049 298.347 309.049 298.504 309.087 298.654C309.255 299.839 314.331 301.695 323.634 299.503C332.013 297.534 336.398 297.73 338.18 294.585Z" fill="white" stroke="#2E353A" stroke-width="0.466453" stroke-linecap="round" stroke-linejoin="round"/>
<path d="M370.461 208.102C370.461 208.102 370.807 214.027 366.729 222.144C362.652 230.262 350.69 230.934 347.48 230.934C344.27 230.934 345.278 227.556 345.278 227.556L345.782 224.505L340.37 223.152C340.37 223.152 326.001 242.27 326.001 243.791C326.001 245.312 340.855 280.227 341.705 284.286C342.554 288.345 343.058 289.362 341.191 290.883C339.809 291.858 338.221 292.502 336.549 292.766C334.878 293.03 333.169 292.906 331.553 292.404C329.041 291.618 326.607 290.6 324.284 289.362C324.19 287.843 324.19 286.319 324.284 284.799C324.452 283.278 326.99 284.463 325.805 281.925C324.62 279.388 323.939 278.706 323.267 277.018C322.596 275.329 306.594 248.662 307.275 242.401C307.956 236.14 322.959 214.409 322.959 213.905C323.592 212.321 324.324 210.778 325.152 209.287C325.152 209.287 325.824 207.085 327.522 206.749C329.22 206.413 355.085 206.749 361.681 205.909C368.278 205.069 371.488 205.396 370.461 208.102Z" fill="#F10027" stroke="#2E353A" stroke-width="0.466453" stroke-linecap="round" stroke-linejoin="round"/>
<path d="M328.296 256.116L329.257 258.16" stroke="#2E353A" stroke-width="0.34984" stroke-linecap="round" stroke-linejoin="round"/>
<path d="M331.318 232.911L324.021 242.447C324.021 242.447 314.691 243.576 317.49 243.763C320.289 243.949 323.088 243.949 323.088 243.949C323.088 243.949 320.653 244.696 321.222 245.069C321.878 245.33 322.579 245.457 323.284 245.442L327.268 253.914" stroke="#2E353A" stroke-width="0.34984" stroke-linecap="round" stroke-linejoin="round"/>
<path d="M317.06 136.9C317.06 136.9 314.699 138.206 311.144 140.231C307.589 142.256 305.546 143.273 305.061 144.971C304.576 146.669 294.228 167.85 294.228 167.85C294.228 167.85 298.287 170.22 302.01 171.908C304.839 173.071 307.786 173.922 310.799 174.446L314.186 167.346C314.186 167.346 320.718 179.681 323.517 184.085C328.499 191.951 326.894 196.775 326.223 199.48C325.551 202.186 323.685 207.262 324.189 207.934C324.692 208.606 337.886 214.531 346.349 214.027C354.812 213.523 369.311 212.739 370.328 211.554C371.345 210.369 371.513 203.539 371.513 203.026C371.513 202.513 370.02 189.329 368.5 181.379C366.979 173.429 358.693 152.118 355.987 146.371C353.281 140.623 350.743 138.757 343.857 136.396C336.971 134.036 326.773 133.522 322.546 134.026C318.32 134.53 317.06 136.9 317.06 136.9Z" fill="#2E353A" stroke="#2E353A" stroke-width="0.466453" stroke-linecap="round" stroke-linejoin="round"/>
<path d="M345.525 159.583L356.004 162.951L347.214 163.884" stroke="white" stroke-width="0.34984" stroke-linecap="round" stroke-linejoin="round"/>
<path d="M328.319 186.333C328.319 186.333 338.415 194.563 350.769 194.563" stroke="white" stroke-width="0.34984" stroke-linecap="round" stroke-linejoin="round"/>
<path d="M331.695 193.817C331.695 193.817 340.093 197.745 348.714 196.439" stroke="white" stroke-width="0.34984" stroke-linecap="round" stroke-linejoin="round"/>
<path d="M309.99 156.97L314.189 167.346L305.316 154.535" stroke="white" stroke-width="0.34984" stroke-linecap="round" stroke-linejoin="round"/>
<path d="M316.341 138.083C316.113 139.99 316.057 141.914 316.173 143.831C316.341 147.386 317.526 149.924 316.509 152.462C315.492 155 316.686 156.194 317.694 155C318.702 153.806 320.4 149.243 320.745 148.403C321.09 147.563 328.21 146.033 329.199 146.033C330.188 146.033 333.426 151.109 334.946 151.781C336.467 152.453 336.131 151.109 335.114 148.403C334.097 145.697 332.922 136.273 330.552 133.344C328.182 130.414 318.749 131.151 316.341 138.083Z" fill="white" stroke="#2E353A" stroke-width="0.466453" stroke-linecap="round" stroke-linejoin="round"/>
<path d="M318.082 141.125C317.149 140.799 322.981 149.756 325.351 154.319C327.721 158.881 329.913 157.706 330.258 154.151C330.604 150.596 329.073 138.755 329.073 138.755C329.073 138.755 322.981 142.823 318.082 141.125Z" fill="white" stroke="#2E353A" stroke-width="0.466453" stroke-linecap="round" stroke-linejoin="round"/>
<path d="M330.187 149.898C328.006 150.834 325.59 151.081 323.264 150.607C324.057 151.969 324.794 153.266 325.345 154.339C327.715 158.902 329.907 157.726 330.253 154.171C330.325 152.747 330.304 151.319 330.187 149.898Z" fill="#F10027" stroke="#2E353A" stroke-width="0.466453" stroke-linecap="round" stroke-linejoin="round"/>
<path d="M335.157 212.896V233.806" stroke="#2E353A" stroke-width="1.86581" stroke-linecap="round" stroke-linejoin="round"/>
<path d="M353.083 217.61C352.987 217.619 352.89 217.619 352.794 217.61L321.34 213.878C320.717 213.779 320.156 213.442 319.775 212.939C319.394 212.436 319.222 211.805 319.296 211.178C319.369 210.552 319.682 209.978 320.169 209.576C320.657 209.175 321.28 208.978 321.909 209.026L353.363 212.758C353.997 212.809 354.586 213.106 355.004 213.586C355.421 214.066 355.635 214.69 355.598 215.325C355.562 215.961 355.278 216.556 354.808 216.985C354.338 217.414 353.719 217.641 353.083 217.619V217.61Z" fill="white" stroke="#2E353A" stroke-width="0.466453" stroke-linecap="round" stroke-linejoin="round"/>
<path d="M353.227 216.835C354.067 216.835 354.748 216.033 354.748 215.043C354.748 214.054 354.067 213.252 353.227 213.252C352.387 213.252 351.706 214.054 351.706 215.043C351.706 216.033 352.387 216.835 353.227 216.835Z" fill="white" stroke="#2E353A" stroke-width="0.34984" stroke-linecap="round" stroke-linejoin="round"/>
<path d="M324.662 305.047L343.52 314.331C343.628 314.379 343.746 314.404 343.865 314.404C343.984 314.404 344.101 314.379 344.21 314.331L355.528 310.141C355.69 310.081 355.83 309.975 355.93 309.835C356.031 309.696 356.088 309.53 356.094 309.357C356.1 309.185 356.055 309.015 355.964 308.869C355.873 308.723 355.741 308.607 355.584 308.536L337.912 300.353C337.731 300.269 337.527 300.25 337.333 300.297L324.849 303.423C324.675 303.464 324.517 303.557 324.398 303.691C324.279 303.824 324.204 303.991 324.184 304.169C324.163 304.347 324.198 304.527 324.284 304.684C324.37 304.841 324.502 304.968 324.662 305.047Z" fill="white" stroke="#2E353A" stroke-width="0.466453" stroke-linecap="round" stroke-linejoin="round"/>
<path d="M339.673 308.133H335.94C335.092 308.131 334.28 307.793 333.68 307.193C333.08 306.594 332.742 305.781 332.74 304.933L330.398 236.54C330.398 235.77 330.704 235.032 331.248 234.488C331.792 233.944 332.53 233.638 333.3 233.638H337.639C338.408 233.638 339.146 233.944 339.69 234.488C340.235 235.032 340.54 235.77 340.54 236.54L342.882 304.933C342.882 305.354 342.799 305.771 342.638 306.16C342.476 306.549 342.24 306.902 341.942 307.199C341.643 307.497 341.29 307.732 340.9 307.892C340.511 308.053 340.094 308.135 339.673 308.133Z" fill="white" stroke="#2E353A" stroke-width="0.466453" stroke-linecap="round" stroke-linejoin="round"/>
<path d="M348.83 305.765C345.993 308.43 342.999 310.922 339.864 313.229C336.131 315.767 335.805 315.431 336.654 317.12C337.503 318.809 340.032 319.826 347.142 318.305C354.251 316.784 356.612 315.599 360.503 313.397C364.394 311.195 365.569 311.195 364.562 309.842C363.554 308.49 348.83 305.765 348.83 305.765Z" fill="#2E353A" stroke="#2E353A" stroke-width="0.466453" stroke-linecap="round" stroke-linejoin="round"/>
<path d="M360.503 313.379C364.385 311.177 365.57 311.177 364.562 309.824C364.295 309.575 363.976 309.387 363.629 309.273C358.473 312.321 353.013 314.822 347.338 316.738C340.06 318.931 336.514 316.393 336.514 316.393L336.43 316.533C336.504 316.718 336.588 316.898 336.682 317.074C337.522 318.763 340.06 319.78 347.17 318.259C354.28 316.738 356.612 315.581 360.503 313.379Z" fill="white" stroke="#2E353A" stroke-width="0.466453" stroke-linecap="round" stroke-linejoin="round"/>
<path d="M375.571 170.554C374.362 167.906 373.29 165.196 372.362 162.437C369.525 163.79 360.857 171.049 360.857 171.049L368.471 181.359C368.471 181.359 361.202 191.847 357.815 197.772C355.326 201.814 352.247 205.462 348.68 208.595L340.367 208.493C340 208.726 339.691 209.039 339.463 209.409C339.235 209.779 339.094 210.197 339.051 210.629C339.051 211.936 337.577 216.536 338.23 217.357C338.883 218.178 342.83 218.336 342.83 218.336C342.83 218.336 349.231 218.999 350.379 217.357C350.379 217.357 348.41 215.22 348.569 214.24C348.727 213.261 350.705 212.598 350.705 212.598L352.851 212.439C352.851 212.439 353.588 212.953 354.204 209.64C355.865 208.539 361.902 204.49 365.093 201.299C368.825 197.567 379.807 185.231 380.647 182.861C381.487 180.492 377.773 175.462 375.571 170.554Z" fill="white" stroke="#2E353A" stroke-width="0.466453" stroke-linecap="round" stroke-linejoin="round"/>
<path d="M374.787 168.754C373.135 164.881 372.361 162.437 372.361 162.437C369.524 163.79 360.856 171.049 360.856 171.049L364.476 175.948C368.53 174.583 372.107 172.087 374.787 168.754Z" fill="#F10027" stroke="#2E353A" stroke-width="0.466453" stroke-linecap="round" stroke-linejoin="round"/>
<path d="M351.388 158.378L360.355 174.24L365.598 170.685C368.56 168.49 371.182 165.871 373.38 162.913C369.739 157.144 365.668 151.658 361.204 146.5C354.094 138.383 350.716 137.879 347.674 138.047" fill="#2E353A"/>
<path d="M351.388 158.378L360.355 174.24L365.598 170.685C368.56 168.49 371.182 165.871 373.38 162.913C369.739 157.144 365.668 151.658 361.204 146.5C354.094 138.383 350.716 137.879 347.674 138.047" stroke="#2E353A" stroke-width="0.466453" stroke-linecap="round" stroke-linejoin="round"/>
<path d="M329.533 213.439C329.533 212.776 326.734 205.89 326.734 205.89L318.337 201.272C314.875 194.311 309.556 183.17 308.642 181.211C307.96 179.852 307.392 178.438 306.944 176.984L308.372 173.943C306.204 173.462 304.086 172.781 302.045 171.908C300.468 171.199 298.845 170.369 297.492 169.641C296.746 172.496 295.467 177.414 295.952 179.858C296.438 182.303 307.476 196.28 312.99 203.343C312.99 203.343 315.295 213.112 316.284 214.587L317.273 216.061C317.273 216.061 318.906 217.871 319.727 217.703C320.432 217.481 321.097 217.147 321.696 216.714C322.279 216.905 322.897 216.962 323.506 216.882C324.306 216.537 325.029 216.036 325.633 215.408C325.633 215.408 326.454 216.341 328.432 215.902C330.41 215.464 329.533 214.092 329.533 213.439Z" fill="white" stroke="#2E353A" stroke-width="0.466453" stroke-linecap="round" stroke-linejoin="round"/>
<path d="M296.471 173.7C299.635 175.844 303.278 177.177 307.079 177.582C306.958 177.218 306.911 177.031 306.911 177.031L308.339 173.989C306.172 173.509 304.054 172.828 302.013 171.955C300.436 171.246 298.812 170.416 297.46 169.688C297.161 170.77 296.75 172.207 296.471 173.7Z" fill="#F10027" stroke="#2E353A" stroke-width="0.466453" stroke-linecap="round" stroke-linejoin="round"/>
<path d="M175.451 218.485V212.775" stroke="#2E353A" stroke-width="2.79872" stroke-linecap="round" stroke-linejoin="round"/>
<path d="M335.405 294.559L328.342 295.735C328.342 295.735 324.031 296.911 323.247 300.83C321.363 310.263 311.603 313.808 303.28 315.675C291.503 318.398 279.554 320.315 267.516 321.413C249.153 323.046 230.501 322.738 212.316 319.547C201.875 317.681 185.957 315.665 178.175 307.716C177.519 307.114 177.024 306.357 176.738 305.513C176.113 303.218 178.241 301.128 180.293 299.915C184.063 297.897 188.082 296.382 192.246 295.408C202.929 292.479 216.272 291.919 226.228 287.272C229.139 285.919 230.893 283.755 227.926 281.142C218.689 272.959 175.451 271.513 175.451 256.127V218.487" stroke="#2E353A" stroke-width="1.39936" stroke-linecap="round" stroke-linejoin="round"/>
<path d="M309.512 129.556C309.178 127.787 308.594 126.075 307.777 124.471C306.62 122.502 303.438 119.33 302.859 116.325C302.281 113.321 306.741 109.794 306.741 109.794C306.741 109.794 304.306 109.794 304.875 108.749C305.444 107.704 308.234 108.17 308.234 108.17C308.044 107.626 307.998 107.043 308.1 106.476C308.201 105.909 308.446 105.377 308.812 104.933C310.081 103.43 310.548 106.323 310.548 106.323C311.915 103.522 314.038 101.16 316.678 99.5022C320.839 97.0669 328.248 100.435 329.06 102.507C329.871 104.578 327.912 103.869 327.912 103.869C327.912 103.869 337.858 108.376 338.549 115.066C339.239 121.756 333.464 120.617 333.464 120.617C333.464 120.617 333.809 124.555 332.997 125.945C332.185 127.335 331.84 127.811 327.791 124.555C323.741 121.298 315.418 122.474 314.952 125.021C314.485 127.569 313.086 131.376 311.024 130.918C308.961 130.461 309.512 129.556 309.512 129.556Z" fill="#2E353A" stroke="#2E353A" stroke-width="0.466453" stroke-linecap="round" stroke-linejoin="round"/>
<path d="M315.235 114.319C315.235 114.319 311.232 110.867 315.599 110.149C319.966 109.43 321.589 117.231 326.133 118.863C328.94 119.81 332.006 119.616 334.671 118.322" stroke="white" stroke-width="0.233227" stroke-linecap="round" stroke-linejoin="round"/>
<path d="M314.553 113.712C314.553 113.712 309.972 110.727 310.364 108.73C310.756 106.733 318.145 104.139 322.13 106.537C326.114 108.935 326.319 113.918 331.302 115.112C336.284 116.306 335.491 113.516 334.894 112.714" stroke="white" stroke-width="0.233227" stroke-linecap="round" stroke-linejoin="round"/>
<path d="M305.778 117.109C304.975 116.111 304.779 112.323 307.97 111.725C311.162 111.128 313.755 114.525 313.755 114.525C313.149 114.917 309.566 115.915 308.969 118.91C308.372 121.905 311.357 121.896 309.967 124.508" stroke="white" stroke-width="0.233227" stroke-linecap="round" stroke-linejoin="round"/>
<path d="M310.091 129.632C310.091 129.632 309.923 129.417 309.671 129.156C309.055 128.521 307.32 128.064 306.788 129.333C306.041 131.134 308.075 134.549 309.587 134.997C310 135.135 310.442 135.169 310.871 135.095C311.301 135.022 311.706 134.844 312.05 134.577C312.05 134.577 316.212 142.974 321.446 144.943C326.681 146.912 329.265 140.716 330.917 136.546C332.568 132.375 331.962 130.863 331.962 130.863C331.962 130.863 334.761 131.526 335.629 128.232C336.496 124.938 335.106 123.679 334.21 123.828C333.367 124.064 332.56 124.416 331.812 124.873L330.469 121.281C330.469 121.281 327.922 122.783 323.583 121.131C319.244 119.48 317.145 115.449 316.118 115.748C315.092 116.046 315.185 118.733 315.185 118.733C315.185 118.733 313.245 117.688 312.498 118.584C311.752 119.48 313.692 120.534 312.797 123.828C311.901 127.122 310.837 128.129 310.837 128.129C310.837 128.129 311.584 129.622 310.987 129.622L310.091 129.632Z" fill="white" stroke="#2E353A" stroke-width="0.466453" stroke-linecap="round" stroke-linejoin="round"/>
<path d="M318.749 127.437C318.889 128.072 318.702 128.641 318.348 128.716C317.993 128.79 317.583 128.352 317.415 127.717C317.247 127.083 317.461 126.514 317.825 126.439C318.189 126.364 318.618 126.812 318.749 127.437Z" fill="#2E353A"/>
<path d="M325.927 126.618C325.927 127.262 325.666 127.803 325.293 127.812C324.92 127.822 324.612 127.308 324.593 126.665C324.575 126.021 324.845 125.489 325.218 125.48C325.592 125.47 325.899 125.974 325.927 126.618Z" fill="#2E353A"/>
<path d="M314.974 125.413C315.234 124.789 315.652 124.244 316.187 123.832C316.722 123.419 317.355 123.154 318.025 123.061" stroke="#2E353A" stroke-width="0.466453" stroke-linecap="round" stroke-linejoin="round"/>
<path d="M323.944 122.633C324.614 122.471 325.318 122.508 325.967 122.74C326.617 122.972 327.185 123.389 327.601 123.939" stroke="#2E353A" stroke-width="0.466453" stroke-linecap="round" stroke-linejoin="round"/>
<path d="M325.158 135.956C325.158 135.956 320.026 137.869 317.497 134.295" stroke="#2E353A" stroke-width="0.466453" stroke-linecap="round" stroke-linejoin="round"/>
<path d="M319.138 135.874C319.138 135.874 319.316 139.354 321.144 140.054C322.973 140.754 323.841 136.322 323.841 136.322C322.26 136.555 320.646 136.402 319.138 135.874Z" fill="#2E353A" stroke="#2E353A" stroke-width="0.466453" stroke-linecap="round" stroke-linejoin="round"/>
<path d="M319.56 137.992C319.663 138.43 319.858 138.841 320.133 139.196C320.409 139.552 320.757 139.845 321.156 140.054C322.089 140.418 322.807 139.363 323.255 138.281C322.077 137.83 320.794 137.729 319.56 137.992Z" fill="white" stroke="#2E353A" stroke-width="0.466453" stroke-linecap="round" stroke-linejoin="round"/>
<path d="M323.688 123.846C323.14 125.719 323.107 127.705 323.595 129.594C324.472 132.3 325.778 132.393 325.256 132.729C324.733 133.065 322.457 133.513 321.943 133.084" fill="white"/>
<path d="M323.688 123.846C323.14 125.719 323.107 127.705 323.595 129.594C324.472 132.3 325.778 132.393 325.256 132.729C324.733 133.065 322.457 133.513 321.943 133.084" stroke="#2E353A" stroke-width="0.466453" stroke-linecap="round" stroke-linejoin="round"/>
<path d="M344.942 220.968C344.942 220.968 335.323 243.958 335.005 249.034C334.688 254.11 349.188 297.479 349.524 299.345C349.86 301.211 347.163 300.866 347.163 302.722C347.198 304.009 347.483 305.277 348.003 306.455C348.171 306.959 361.532 311.017 363.734 311.185C365.936 311.353 366.944 310.849 366.944 309.319C366.944 307.789 365.936 303.058 365.936 302.555C365.936 302.051 368.642 298.822 367.625 294.269C366.608 289.716 357.147 260.875 355.962 257.824C354.777 254.773 353.424 251.572 353.424 251.572C353.944 250.811 354.291 249.944 354.441 249.034C354.544 248.248 354.544 247.451 354.441 246.664C354.441 246.664 369.099 223.179 369.118 215.873" fill="#F10027"/>
<path d="M344.942 220.968C344.942 220.968 335.323 243.958 335.005 249.034C334.688 254.11 349.188 297.479 349.524 299.345C349.86 301.211 347.163 300.866 347.163 302.722C347.198 304.009 347.483 305.277 348.003 306.455C348.171 306.959 361.532 311.017 363.734 311.185C365.936 311.353 366.944 310.849 366.944 309.319C366.944 307.789 365.936 303.058 365.936 302.555C365.936 302.051 368.642 298.822 367.625 294.269C366.608 289.716 357.147 260.875 355.962 257.824C354.777 254.773 353.424 251.572 353.424 251.572C353.944 250.811 354.291 249.944 354.441 249.034C354.544 248.248 354.544 247.451 354.441 246.664C354.441 246.664 369.099 223.179 369.118 215.873" stroke="#2E353A" stroke-width="0.466453" stroke-linecap="round" stroke-linejoin="round"/>
<path d="M355.207 269.589C359.032 281.588 363.548 295.873 363.865 298.001C364.425 301.733 363.306 302.498 363.679 304.364C364.052 306.23 364.799 308.852 364.799 308.852" stroke="#2E353A" stroke-width="0.34984" stroke-linecap="round" stroke-linejoin="round"/>
<path d="M363.665 218.635C360.754 225.736 355.398 238.836 354.334 241.533C352.832 245.265 350.21 248.269 350.78 248.643C351.349 249.016 352.832 249.016 351.713 250.322C350.593 251.628 349.846 252.011 349.846 252.571C349.846 252.767 351.563 258.123 353.784 265.093" stroke="#2E353A" stroke-width="0.34984" stroke-linecap="round" stroke-linejoin="round"/>
<path d="M365.54 214.018L364.607 216.36" stroke="#2E353A" stroke-width="0.34984" stroke-linecap="round" stroke-linejoin="round"/>
<path d="M340.4 217.862C340.4 217.862 340.941 211.862 341.491 211.134" stroke="#2E353A" stroke-width="0.34984" stroke-linecap="round" stroke-linejoin="round"/>
<path d="M344.761 211.171C344.761 211.171 342.354 218.888 342.829 218.393" stroke="#2E353A" stroke-width="0.34984" stroke-linecap="round" stroke-linejoin="round"/>
<path d="M346.584 211.675L345.493 217.498C345.493 217.498 345.306 218.048 346.948 218.225" stroke="#2E353A" stroke-width="0.34984" stroke-linecap="round" stroke-linejoin="round"/>
<path d="M325.595 215.408L324.569 214.223" stroke="#2E353A" stroke-width="0.34984" stroke-linecap="round" stroke-linejoin="round"/>
<path d="M321.662 216.713L320.748 216.041" stroke="#2E353A" stroke-width="0.34984" stroke-linecap="round" stroke-linejoin="round"/>
<path d="M319.694 217.703L318.388 215.678" stroke="#2E353A" stroke-width="0.34984" stroke-linecap="round" stroke-linejoin="round"/>
<path d="M263.153 194.067C269.004 187.725 274.133 180.753 278.445 173.278" stroke="#2E353A" stroke-width="0.466453" stroke-linecap="round" stroke-linejoin="round"/>
<path d="M187.578 230.952C214.471 228.772 239.749 217.233 259.013 198.341" stroke="#2E353A" stroke-width="0.466453" stroke-linecap="round" stroke-linejoin="round"/>
<path d="M160.925 230.083C164.667 230.645 168.435 231.019 172.215 231.202" stroke="#2E353A" stroke-width="0.466453" stroke-linecap="round" stroke-linejoin="round"/>
<path d="M125.63 216.768C128.025 218.012 130.454 219.172 132.917 220.248" stroke="#2E353A" stroke-width="0.466453" stroke-linecap="round" stroke-linejoin="round"/>
<path d="M63.9636 124.507C65.6093 142.65 71.5037 160.15 81.1697 175.592C90.8357 191.033 104.002 203.982 119.602 213.39" stroke="#2E353A" stroke-width="0.466453" stroke-linecap="round" stroke-linejoin="round"/>
<path d="M243.261 20.8261C226.787 9.43312 207.644 2.49978 187.696 0.701146C167.748 -1.09749 147.673 2.29988 129.427 10.5625" stroke="#2E353A" stroke-width="0.466453" stroke-linecap="round" stroke-linejoin="round"/>
<path d="M284.091 68.9259C282.94 66.3133 281.696 63.7567 280.358 61.2561" stroke="#2E353A" stroke-width="0.466453" stroke-linecap="round" stroke-linejoin="round"/>
<path d="M239.438 196.056C245.681 191.419 251.386 186.098 256.447 180.194" stroke="#2E353A" stroke-width="0.466453" stroke-linecap="round" stroke-linejoin="round"/>
<path d="M166.285 216.199C190.496 218.736 214.829 212.704 235.052 199.152" stroke="#2E353A" stroke-width="0.466453" stroke-linecap="round" stroke-linejoin="round"/>
<path d="M142.789 211.001C145.986 212.102 149.261 213.057 152.614 213.866" stroke="#2E353A" stroke-width="0.466453" stroke-linecap="round" stroke-linejoin="round"/>
<path d="M76.9501 142.301C77.653 144.633 78.4337 146.935 79.2921 149.205" stroke="#2E353A" stroke-width="0.466453" stroke-linecap="round" stroke-linejoin="round"/>
<path d="M97.6718 44.3588C86.9937 56.8521 79.4073 71.6841 75.5267 87.6541C71.646 103.624 71.5801 120.284 75.3343 136.284" stroke="#2E353A" stroke-width="0.466453" stroke-linecap="round" stroke-linejoin="round"/>
<path d="M221.062 17.5609C204.665 9.96254 186.578 6.74226 168.567 8.21396C150.555 9.68566 133.231 15.7991 118.285 25.9584" stroke="#2E353A" stroke-width="0.466453" stroke-linecap="round" stroke-linejoin="round"/>
<path d="M274.266 74.1235C265.701 52.3755 250.115 34.1129 229.983 22.2361" stroke="#2E353A" stroke-width="0.466453" stroke-linecap="round" stroke-linejoin="round"/>
<path d="M278.773 88.5659C278.195 86.056 277.514 83.5834 276.749 81.1481" stroke="#2E353A" stroke-width="0.466453" stroke-linecap="round" stroke-linejoin="round"/>
<path d="M274.482 113.394C274.482 112.163 275.583 110.912 275.537 109.662C275.49 108.412 274.296 107.264 274.212 106.051C274.128 104.838 275.145 103.494 274.995 102.319C274.846 101.143 273.577 100.023 273.4 98.8105C273.223 97.5975 274.128 96.1979 273.894 94.9943C273.661 93.7906 272.318 92.8109 272.028 91.6166C271.739 90.4223 272.551 88.9574 272.243 87.7724C271.935 86.5874 270.498 85.7197 270.134 84.544C269.77 83.3684 270.461 81.8475 270.059 80.6998C269.658 79.5522 268.193 78.7777 267.718 77.6394C267.242 76.501 267.839 74.9242 267.354 73.8045C266.868 72.6848 265.32 72.0317 264.788 70.9307C264.256 69.8297 264.704 68.2155 264.135 67.1331C263.565 66.0508 261.979 65.5283 261.335 64.4646C260.692 63.4009 261.055 61.768 260.402 60.7323C259.749 59.6966 258.126 59.2861 257.435 58.2784C256.745 57.2707 256.95 55.6098 256.222 54.6208C255.494 53.6318 253.852 53.3518 253.087 52.3908C252.322 51.4297 252.406 49.7689 251.604 48.8358C250.801 47.9028 249.14 47.7441 248.31 46.8484C247.479 45.9527 247.433 44.2825 246.565 43.4148C245.697 42.547 244.027 42.4817 243.131 41.6699C242.236 40.8582 242.068 39.1787 241.144 38.3762C240.22 37.5738 238.541 37.6578 237.589 36.8927C236.637 36.1276 236.339 34.4854 235.359 33.7576C234.379 33.0298 232.718 33.2351 231.701 32.5446C230.684 31.8541 230.283 30.2306 229.238 29.5775C228.193 28.9243 226.57 29.2602 225.506 28.6444C224.442 28.0286 223.92 26.4517 222.837 25.8452C221.755 25.2387 220.141 25.7239 219.04 25.1921C217.939 24.6603 217.295 23.1207 216.166 22.6262C215.037 22.1317 213.479 22.7102 212.331 22.2623C211.183 21.8144 210.465 20.3309 209.271 19.9203C208.076 19.5098 206.602 20.2096 205.426 19.8457C204.251 19.4818 203.383 18.0635 202.198 17.7463C201.013 17.429 199.558 18.2315 198.354 17.9516C197.15 17.6716 196.189 16.328 194.976 16.0854C193.763 15.8428 192.382 16.7666 191.16 16.58C189.938 16.3933 188.883 15.1244 187.661 14.9844C186.439 14.8445 185.114 15.8615 183.929 15.7682C182.744 15.6749 181.54 14.4899 180.309 14.4433C179.077 14.3966 177.845 15.5069 176.576 15.5069C175.307 15.5069 174.104 14.3966 172.844 14.4433C171.584 14.4899 170.446 15.6842 169.224 15.7682C168.001 15.8522 166.677 14.8351 165.492 14.9844C164.307 15.1337 163.196 16.4027 161.993 16.58C160.789 16.7572 159.38 15.8522 158.176 16.0854C156.973 16.3187 155.993 17.6623 154.799 17.9516C153.604 18.2408 152.139 17.429 150.954 17.7463C149.769 18.0635 148.892 19.4818 147.726 19.8457C146.56 20.2096 145.03 19.5191 143.873 19.9203C142.716 20.3215 142.006 21.7864 140.821 22.2623C139.636 22.7381 138.106 22.141 136.987 22.6262C135.867 23.1114 135.214 24.6603 134.113 25.1921C133.012 25.7239 131.398 25.2761 130.315 25.8452C129.233 26.4144 128.701 28.0006 127.647 28.6444C126.592 29.2882 124.941 28.9337 123.914 29.5775C122.888 30.2213 122.468 31.8448 121.46 32.5353C120.453 33.2257 118.792 33.0205 117.803 33.7483C116.814 34.476 116.534 36.1182 115.573 36.8927C114.612 37.6671 112.951 37.5645 112.018 38.3669C111.085 39.1693 110.926 40.8302 110.03 41.6606C109.135 42.491 107.465 42.5377 106.597 43.4054C105.729 44.2732 105.664 45.9433 104.852 46.8391C104.04 47.7348 102.389 47.8841 101.586 48.8172C100.784 49.7502 100.868 51.4111 100.103 52.3721C99.3376 53.3332 97.6954 53.6131 96.9676 54.6021C96.2398 55.5912 96.4451 57.2427 95.7546 58.2504C95.0642 59.2581 93.4407 59.6687 92.7875 60.7137C92.1344 61.7587 92.4703 63.3822 91.8545 64.4459C91.2386 65.5096 89.6524 66.0321 89.0553 67.1238C88.4581 68.2155 88.934 69.811 88.4021 70.912C87.8703 72.013 86.3308 72.6662 85.8362 73.7858C85.3417 74.9055 85.9202 76.473 85.4723 77.6207C85.0245 78.7684 83.5316 79.4868 83.1303 80.6812C82.7291 81.8755 83.4103 83.3497 83.0557 84.5254C82.7011 85.701 81.2642 86.5688 80.947 87.7537C80.6298 88.9387 81.4322 90.4036 81.1616 91.598C80.891 92.7923 79.5381 93.7626 79.2955 94.9756C79.0529 96.1886 79.9859 97.5789 79.7993 98.7918C79.6127 100.005 78.3438 101.069 78.2038 102.3C78.0638 103.532 79.0809 104.838 78.9876 106.032C78.8943 107.227 77.6999 108.412 77.6626 109.643C77.6253 110.875 78.717 112.116 78.717 113.376C78.717 114.635 77.616 115.848 77.6626 117.108C77.7093 118.367 78.9036 119.506 78.9876 120.728C79.0715 121.95 78.0545 123.275 78.2038 124.46C78.3531 125.645 79.6221 126.756 79.7993 127.959C79.9766 129.163 79.0715 130.581 79.2955 131.785C79.5194 132.988 80.8817 133.959 81.1616 135.153C81.4415 136.347 80.6298 137.822 80.947 138.997C81.2642 140.173 82.6918 141.059 83.0557 142.226C83.4196 143.392 82.7291 144.922 83.1303 146.079C83.5316 147.236 84.9965 147.992 85.4723 149.14C85.9482 150.287 85.351 151.846 85.8362 152.965C86.3214 154.085 87.8703 154.738 88.4021 155.839C88.934 156.94 88.4768 158.554 89.0553 159.637C89.6338 160.719 91.2106 161.251 91.8545 162.315C92.4983 163.378 92.1344 165.011 92.7875 166.047C93.4407 167.082 95.0642 167.493 95.7546 168.501C96.4451 169.508 96.2398 171.169 96.9676 172.158C97.6954 173.147 99.3376 173.427 100.103 174.388C100.868 175.349 100.784 177.02 101.586 177.943C102.389 178.867 104.05 179.035 104.88 179.94C105.71 180.845 105.757 182.506 106.625 183.374C107.493 184.241 109.163 184.307 110.058 185.109C110.954 185.912 111.122 187.61 112.046 188.403C112.97 189.196 114.64 189.121 115.601 189.886C116.562 190.652 116.851 192.294 117.831 193.022C118.811 193.749 120.471 193.544 121.488 194.235C122.505 194.925 122.907 196.548 123.952 197.202C124.997 197.855 126.62 197.519 127.684 198.135C128.748 198.751 129.27 200.337 130.352 200.934C131.435 201.531 133.04 201.055 134.15 201.587C135.26 202.119 135.895 203.658 137.024 204.153C138.153 204.647 139.711 204.069 140.859 204.517C142.006 204.965 142.725 206.458 143.919 206.859C145.114 207.26 146.588 206.579 147.763 206.933C148.939 207.288 149.807 208.725 150.992 209.042C152.177 209.359 153.632 208.557 154.836 208.828C156.04 209.098 157.001 210.451 158.214 210.694C159.427 210.936 160.808 210.003 162.03 210.19C163.252 210.376 164.307 211.645 165.529 211.785C166.751 211.925 168.076 210.908 169.261 211.002C170.446 211.095 171.65 212.289 172.881 212.336C174.113 212.383 175.345 211.272 176.614 211.272C177.883 211.272 179.096 212.373 180.346 212.336C181.596 212.299 182.744 211.095 183.957 211.002C185.17 210.908 186.513 211.935 187.689 211.785C188.865 211.636 189.984 210.367 191.197 210.19C192.41 210.013 193.81 210.918 195.014 210.694C196.217 210.47 197.197 209.107 198.391 208.828C199.586 208.548 201.05 209.359 202.235 209.042C203.42 208.725 204.297 207.297 205.464 206.933C206.63 206.57 208.16 207.26 209.317 206.859C210.474 206.458 211.23 204.993 212.368 204.517C213.507 204.041 215.084 204.647 216.203 204.153C217.323 203.658 217.976 202.119 219.077 201.587C220.178 201.055 221.792 201.512 222.875 200.934C223.957 200.355 224.489 198.779 225.543 198.135C226.598 197.491 228.24 197.855 229.275 197.202C230.311 196.548 230.722 194.925 231.729 194.235C232.737 193.544 234.398 193.749 235.387 193.022C236.376 192.294 236.656 190.652 237.617 189.886C238.578 189.121 240.239 189.205 241.172 188.403C242.105 187.6 242.264 185.94 243.159 185.109C244.055 184.279 245.725 184.232 246.593 183.364C247.461 182.497 247.526 180.836 248.338 179.931C249.15 179.026 250.829 178.867 251.632 177.943C252.434 177.02 252.35 175.349 253.115 174.388C253.88 173.427 255.522 173.147 256.25 172.158C256.978 171.169 256.773 169.518 257.463 168.501C258.154 167.484 259.777 167.082 260.43 166.047C261.083 165.011 260.748 163.369 261.363 162.315C261.979 161.26 263.556 160.728 264.163 159.646C264.769 158.564 264.284 156.959 264.816 155.848C265.348 154.738 266.887 154.104 267.382 152.975C267.876 151.846 267.298 150.287 267.746 149.14C268.193 147.992 269.677 147.274 270.087 146.089C270.498 144.904 269.798 143.411 270.162 142.235C270.526 141.059 271.954 140.201 272.271 139.007C272.588 137.812 271.786 136.366 272.056 135.162C272.327 133.959 273.68 132.998 273.922 131.794C274.165 130.591 273.241 129.191 273.428 127.969C273.614 126.746 274.883 125.692 275.023 124.47C275.163 123.247 274.146 121.922 274.24 120.737C274.333 119.552 275.518 118.349 275.565 117.117C275.611 115.885 274.482 114.626 274.482 113.394Z" fill="#F10027" stroke="#2E353A" stroke-width="0.932907" stroke-linecap="round" stroke-linejoin="round"/>
<path d="M147.305 20.2299L149.032 25.0631" stroke="#2E353A" stroke-width="0.932907" stroke-linecap="round" stroke-linejoin="round"/>
<path d="M140.734 22.8221L142.292 26.6197" stroke="#2E353A" stroke-width="0.932907" stroke-linecap="round" stroke-linejoin="round"/>
<path d="M260.962 64.6239C258.138 67.0447 254.927 68.972 251.463 70.3249" stroke="#2E353A" stroke-width="0.932907" stroke-linecap="round" stroke-linejoin="round"/>
<path d="M264.416 71.0156C263.13 71.8292 261.803 72.5767 260.441 73.2549" stroke="#2E353A" stroke-width="0.932907" stroke-linecap="round" stroke-linejoin="round"/>
<path d="M121.051 194.375C121.051 194.375 125.194 189.709 125.884 186.257" stroke="#2E353A" stroke-width="0.932907" stroke-linecap="round" stroke-linejoin="round"/>
<path d="M109.471 184.839C109.471 184.839 112.933 180.529 113.623 179.838" stroke="#2E353A" stroke-width="0.932907" stroke-linecap="round" stroke-linejoin="round"/>
<path d="M198.257 208.333L196.876 200.738" stroke="#2E353A" stroke-width="0.932907" stroke-linecap="round" stroke-linejoin="round"/>
<path d="M205.851 206.785L204.815 202.465" stroke="#2E353A" stroke-width="0.932907" stroke-linecap="round" stroke-linejoin="round"/>
<path d="M237.469 189.683L231.6 183.114" stroke="#2E353A" stroke-width="0.932907" stroke-linecap="round" stroke-linejoin="round"/>
<path d="M265.1 155.821L256.292 151.165" stroke="#2E353A" stroke-width="0.932907" stroke-linecap="round" stroke-linejoin="round"/>
<path d="M79.4115 113.507L86.8386 113.675" stroke="#2E353A" stroke-width="0.932907" stroke-linecap="round" stroke-linejoin="round"/>
<path d="M89.9523 113.853L93.5819 114.021" stroke="#2E353A" stroke-width="0.932907" stroke-linecap="round" stroke-linejoin="round"/>
<path d="M88.913 156.345C89.7808 155.999 95.4444 154.478 95.4444 154.478" stroke="#2E353A" stroke-width="0.932907" stroke-linecap="round" stroke-linejoin="round"/>
<path d="M198.319 18.1006C197.796 19.1457 196.751 25.1639 196.751 25.1639" stroke="#2E353A" stroke-width="0.932907" stroke-linecap="round" stroke-linejoin="round"/>
<path d="M205.106 20.4526L204.323 24.3808" stroke="#2E353A" stroke-width="0.932907" stroke-linecap="round" stroke-linejoin="round"/>
<path d="M232.034 33.2633L229.944 35.8758" stroke="#2E353A" stroke-width="0.932907" stroke-linecap="round" stroke-linejoin="round"/>
<path d="M95.5782 58.3631L100.803 61.2369" stroke="#2E353A" stroke-width="0.932907" stroke-linecap="round" stroke-linejoin="round"/>
<path d="M103.947 62.8052L108.127 65.1565" stroke="#2E353A" stroke-width="0.932907" stroke-linecap="round" stroke-linejoin="round"/>
<path d="M204.269 84.8719C204.269 84.8719 202.674 82.3993 194.612 77.3141C186.55 72.2289 165.687 67.3957 157.467 62.9543C149.247 58.373 140.084 49.7328 136.884 45.5807C133.683 41.4286 134.178 38.2935 131.603 38.0416C129.027 37.7897 126.452 38.9747 124.661 44.3678C122.869 49.7608 125.062 63.2715 126.527 67.4237C127.992 71.5758 132.293 74.207 135.027 75.308C137.761 76.409 143.872 79.3108 143.863 81.9141C143.854 84.5173 143.527 85.0305 142.398 85.2264C141.269 85.4224 116.45 89.0986 112.624 90.209C108.799 91.3193 107.147 98.2893 108.239 103.785C109.33 109.281 113.66 111.007 112.354 114.907C111.047 118.807 108.799 123.379 111.019 128.558C113.24 133.736 117.411 132.934 115.787 136.955C114.164 140.977 114.145 145.679 116.216 148.702C118.288 151.726 121.022 153.685 121.003 157.352C120.984 161.019 127.385 169.09 131.407 170.237C133.394 170.835 151.439 172.813 169.009 172.99C186.569 173.438 203.653 172.057 203.625 172.057C203.837 142.977 204.052 113.915 204.269 84.8719Z" fill="white" stroke="#2E353A" stroke-width="1.39936" stroke-linecap="round" stroke-linejoin="round"/>
<path d="M239.329 169.333C228.879 170.913 218.391 172.076 207.866 172.822C207.186 172.852 206.507 172.739 205.873 172.49C205.239 172.24 204.664 171.86 204.187 171.375C203.709 170.889 203.339 170.309 203.1 169.671C202.861 169.033 202.759 168.352 202.8 167.672C202.906 141.415 203.011 115.172 203.117 88.9402C203.091 88.2507 203.203 87.5629 203.448 86.9177C203.693 86.2725 204.065 85.683 204.542 85.1843C205.019 84.6856 205.591 84.2879 206.225 84.0146C206.858 83.7414 207.54 83.5983 208.23 83.5938C218.755 83.8924 229.243 84.3185 239.693 84.8721C241.055 84.9686 242.329 85.576 243.262 86.5726C244.195 87.5693 244.716 88.8815 244.722 90.2465C244.61 114.624 244.502 139.021 244.396 163.436C244.355 164.85 243.829 166.208 242.907 167.281C241.984 168.355 240.722 169.079 239.329 169.333Z" fill="#2E353A" stroke="#2E353A" stroke-width="1.39936" stroke-linecap="round" stroke-linejoin="round"/>
<path d="M215.965 163.426C215.99 162.914 215.908 162.402 215.723 161.923C215.539 161.445 215.255 161.01 214.892 160.648C214.529 160.286 214.094 160.003 213.615 159.82C213.136 159.636 212.624 159.555 212.111 159.582C211.032 159.698 210.035 160.213 209.315 161.026C208.595 161.839 208.205 162.891 208.22 163.977C208.189 164.492 208.268 165.007 208.45 165.49C208.632 165.973 208.915 166.411 209.279 166.777C209.643 167.143 210.08 167.427 210.562 167.612C211.043 167.797 211.559 167.877 212.074 167.849C213.152 167.716 214.143 167.193 214.86 166.377C215.578 165.562 215.971 164.512 215.965 163.426Z" fill="white" stroke="#2E353A" stroke-width="1.39936" stroke-linecap="round" stroke-linejoin="round"/>
<path d="M203.938 75.2611C214.286 75.2611 222.674 66.8727 222.674 56.5252C222.674 46.1777 214.286 37.7894 203.938 37.7894C193.591 37.7894 185.202 46.1777 185.202 56.5252C185.202 66.8727 193.591 75.2611 203.938 75.2611Z" fill="white"/>
<path d="M235.521 84.263C238.239 81.5448 238.239 77.1375 235.521 74.4192C232.802 71.7009 228.395 71.7009 225.677 74.4192C222.959 77.1375 222.959 81.5448 225.677 84.263C228.395 86.9813 232.802 86.9813 235.521 84.263Z" fill="white"/>
<path opacity="0.2" d="M169.602 208.046C170.778 208.13 171.898 209.287 173.092 209.333C174.286 209.38 175.481 208.307 176.666 208.307C177.851 208.307 179.064 209.37 180.249 209.333C181.433 209.296 182.562 208.13 183.738 208.046C184.914 207.962 186.201 208.979 187.377 208.801C188.553 208.624 189.598 207.439 190.764 207.262C191.93 207.084 193.293 207.962 194.496 207.747C195.7 207.532 196.605 206.217 197.753 205.955C198.9 205.694 200.328 206.469 201.485 206.161C202.642 205.853 203.472 204.481 204.601 204.127C205.73 203.772 207.205 204.444 208.334 204.052C209.463 203.66 210.2 202.186 211.291 201.794C212.383 201.402 213.913 201.915 215.024 201.439C216.134 200.964 216.731 199.48 217.823 198.958C218.914 198.435 220.445 198.883 221.49 198.332C222.535 197.782 223.048 196.242 224.074 195.655C225.101 195.067 226.687 195.375 227.685 194.721C228.684 194.068 229.085 192.519 230.065 191.857C231.044 191.194 232.64 191.39 233.592 190.681C234.543 189.972 234.823 188.386 235.747 187.649C236.671 186.912 238.285 186.996 239.181 186.221C240.076 185.447 240.235 183.842 241.103 183.04C241.97 182.237 243.585 182.19 244.424 181.351C245.264 180.511 245.301 178.906 246.104 178.038C246.906 177.171 248.52 177.012 249.295 176.107C250.069 175.202 249.985 173.606 250.722 172.673C251.46 171.74 253.046 171.47 253.755 170.518C254.464 169.566 254.259 167.971 254.931 166.991C255.602 166.011 257.161 165.619 257.786 164.612C258.411 163.604 258.103 162.027 258.719 161.001C259.335 159.974 260.846 159.47 261.397 158.425C261.947 157.38 261.518 155.822 262.031 154.758C262.544 153.695 264.037 153.07 264.513 151.959C264.989 150.849 264.429 149.365 264.868 148.227C265.306 147.089 266.734 146.361 267.126 145.269C267.518 144.178 266.846 142.685 267.2 141.537C267.555 140.389 268.926 139.568 269.234 138.421C269.542 137.273 268.759 135.864 269.029 134.688C269.3 133.513 270.597 132.598 270.821 131.432C271.045 130.266 270.158 128.922 270.335 127.7C270.513 126.477 271.744 125.488 271.875 124.313C272.006 123.137 271.026 121.859 271.119 120.665C271.212 119.47 272.36 118.369 272.397 117.175C272.435 115.981 271.371 114.786 271.371 113.601C271.371 112.416 272.444 111.203 272.397 110.018C272.351 108.833 271.203 107.704 271.119 106.529C271.035 105.353 272.006 104.065 271.875 102.89C271.744 101.714 270.503 100.669 270.335 99.5027C270.167 98.3364 271.035 96.9741 270.821 95.7705C270.606 94.5668 269.29 93.6618 269.029 92.5141C268.976 92.2596 268.96 91.9987 268.982 91.7397C203.295 147.723 121.559 143.403 84.3393 137.609C84.3231 137.85 84.3451 138.093 84.4046 138.327C84.7125 139.475 86.0841 140.315 86.4387 141.444C86.7933 142.573 86.1215 144.047 86.5133 145.176C86.9052 146.305 88.3795 147.042 88.7714 148.124C89.1632 149.207 88.6501 150.746 89.1259 151.857C89.6018 152.967 91.0853 153.574 91.6078 154.656C92.1304 155.738 91.6825 157.278 92.233 158.323C92.7835 159.368 94.3231 159.881 94.9109 160.907C95.4987 161.934 95.1908 163.511 95.8439 164.509C96.4971 165.507 98.046 165.909 98.7084 166.888C99.3709 167.868 99.175 169.464 99.8841 170.425C100.593 171.386 102.179 171.647 102.917 172.58C103.654 173.513 103.57 175.109 104.344 176.014C105.119 176.919 106.723 177.068 107.526 177.936C108.328 178.803 108.375 180.418 109.215 181.257C110.054 182.097 111.659 182.125 112.527 182.937C113.395 183.749 113.553 185.344 114.458 186.119C115.364 186.893 116.959 186.809 117.892 187.546C118.825 188.283 119.096 189.879 120.048 190.579C120.999 191.278 122.595 191.083 123.574 191.754C124.554 192.426 124.946 193.984 125.954 194.619C126.961 195.253 128.538 194.927 129.565 195.552C130.591 196.177 131.095 197.67 132.14 198.23C133.185 198.79 134.743 198.342 135.807 198.864C136.871 199.387 137.496 200.861 138.606 201.337C139.716 201.813 141.2 201.253 142.338 201.691C143.477 202.13 144.204 203.558 145.296 203.949C146.388 204.341 147.881 203.679 149.028 204.024C150.176 204.369 150.997 205.75 152.145 206.058C153.292 206.366 154.701 205.592 155.877 205.853C157.053 206.114 157.976 207.42 159.143 207.644C160.309 207.868 161.653 206.982 162.828 207.159C164.004 207.336 165.04 208.568 166.215 208.699C167.391 208.829 168.408 207.962 169.602 208.046Z" fill="black"/>
</svg>
