<svg width="48" height="48" viewBox="0 0 48 48" fill="none" xmlns="http://www.w3.org/2000/svg">
<path fill-rule="evenodd" clip-rule="evenodd" d="M40.32 24.3855C40.32 23.18 40.2118 22.0209 40.0109 20.9082H24V27.4841H33.1491C32.755 29.6091 31.5573 31.4096 29.7568 32.615V36.8805H35.2509C38.4655 33.921 40.32 29.5628 40.32 24.3855Z" fill="#4285F4"/>
<path fill-rule="evenodd" clip-rule="evenodd" d="M23.9965 41.0005C28.5865 41.0005 32.4347 39.4782 35.2475 36.8818L29.7534 32.6164C28.2311 33.6364 26.2838 34.2391 23.9965 34.2391C19.5688 34.2391 15.8211 31.2487 14.4842 27.2305H8.80469V31.635C11.602 37.1909 17.3511 41.0005 23.9965 41.0005Z" fill="#34A853"/>
<path fill-rule="evenodd" clip-rule="evenodd" d="M14.4877 27.2298C14.1477 26.2098 13.9546 25.1202 13.9546 23.9998C13.9546 22.8793 14.1477 21.7898 14.4877 20.7698V16.3652H8.80818C7.65682 18.6602 7 21.2566 7 23.9998C7 26.743 7.65682 29.3393 8.80818 31.6343L14.4877 27.2298Z" fill="#FBBC05"/>
<path fill-rule="evenodd" clip-rule="evenodd" d="M23.9965 13.7614C26.4924 13.7614 28.7334 14.6191 30.4952 16.3037L35.3711 11.4277C32.427 8.68455 28.5788 7 23.9965 7C17.3511 7 11.602 10.8096 8.80469 16.3655L14.4842 20.77C15.8211 16.7518 19.5688 13.7614 23.9965 13.7614Z" fill="#EA4335"/>
</svg>
