<svg width="76" height="35" viewBox="0 0 76 35" fill="none" xmlns="http://www.w3.org/2000/svg">
<path d="M0 32.4344C0.0904687 31.3229 0.389049 30.2501 0.873525 29.2958C1.52573 28.0144 2.42422 26.9383 3.4941 26.1572C4.83115 25.1463 6.31143 24.4371 7.86172 24.0647C9.87538 23.5343 11.9193 23.1846 13.9764 23.0185C17.7325 22.5163 19.6106 22.2652 20.0911 21.9723C21.9342 20.8528 22.2312 19.294 25.3322 12.5564C27.551 7.72287 28.6865 5.29565 29.6998 4.18666C33.3512 0.190126 38.1556 0.00180791 39.3086 0.00180791C40.6626 0.00180791 46.2269 -0.217897 49.7909 4.18666C51.7301 6.58249 51.0575 7.83795 54.1585 14.6488C56.1589 19.0324 57.1547 21.2295 58.5261 21.9723C61.9591 23.8346 64.7456 19.8799 69.0084 21.9723C70.3468 22.7078 71.5382 23.778 72.5025 25.1109C74.1532 27.1701 75.3535 29.6858 75.9966 32.4344C17.3307 35.4161 0.16597 34.5478 0 32.4344Z" fill="#FBB039"/>
</svg>
