<svg width="21" height="17" viewBox="0 0 21 17" fill="none" xmlns="http://www.w3.org/2000/svg">
<g clip-path="url(#clip0_22_3387)">
<path d="M20.5916 8.51739C20.5916 8.39865 20.5484 8.30149 20.4621 8.21513L13.1647 0.874665C13.0029 0.691153 12.8841 0.647975 12.7654 0.647975C12.5279 0.647975 12.3444 0.831486 12.3444 1.05818C12.3444 1.17692 12.3768 1.28487 12.4631 1.36043L16.7703 5.67835L19.3503 8.17195L16.9862 8.10718H0.955866C0.729175 8.10718 0.545663 8.27989 0.545663 8.51739C0.545663 8.75487 0.729175 8.92758 0.955866 8.92758H16.9862L19.3503 8.87361L16.7703 11.3564L12.4631 15.6744C12.3875 15.7499 12.3444 15.8687 12.3444 15.9874C12.3444 16.2033 12.5279 16.3868 12.7654 16.3868C12.8841 16.3868 12.9812 16.3437 13.0677 16.2572L20.4621 8.81964C20.5484 8.73328 20.5916 8.63613 20.5916 8.51739Z" fill="#F10027"/>
</g>
<defs>
<clipPath id="clip0_22_3387">
<rect width="20.4476" height="16.1429" fill="white" transform="scale(1.02713)"/>
</clipPath>
</defs>
</svg>
