<svg width="59" height="34" viewBox="0 0 59 34" fill="none" xmlns="http://www.w3.org/2000/svg">
<path d="M59 32.1707C58.9991 32.7001 58.9667 33.2288 58.9031 33.7527H0V13.7665C0.290597 13.7665 0.581194 13.7137 0.880597 13.7137C2.21577 13.6936 3.53842 14.024 4.75551 14.6818C5.97261 15.3396 7.05459 16.3088 7.92537 17.5212V17.4051C7.92537 7.79695 14.8293 0.00283236 23.3358 0.00283236C26.6131 -0.0661386 29.8223 1.12613 32.4917 3.40432C35.161 5.68252 37.1496 8.92643 38.1651 12.659H38.306C41.4673 12.659 44.0298 17.1414 44.0298 22.6785C44.0298 22.9528 44.0298 23.227 44.0298 23.5012C45.6587 21.9389 47.6845 21.0904 49.7713 21.0965C52.2205 21.1021 54.5679 22.2713 56.2981 24.3475C58.0283 26.4237 59 29.2373 59 32.1707Z" fill="#89C93C"/>
</svg>
