<svg width="20" height="20" viewBox="0 0 20 20" fill="none" xmlns="http://www.w3.org/2000/svg">
<path d="M2.07812 9.77802C2.07812 9.98143 2.16765 10.1686 2.33041 10.3233L7.73405 15.7268C7.90495 15.8815 8.07585 15.9466 8.26303 15.9466C8.66993 15.9466 8.97918 15.6537 8.97918 15.2468C8.97918 15.0596 8.90593 14.8643 8.77568 14.734L6.96094 12.8786L4.21029 10.3802L6.18783 10.5104H16.4743C16.8974 10.5104 17.1904 10.2012 17.1904 9.77802C17.1904 9.35485 16.8974 9.05368 16.4743 9.05368H6.18783L4.21842 9.17577L6.96094 6.67741L8.77568 4.83008C8.9141 4.69173 8.97918 4.50456 8.97918 4.30925C8.97918 3.91048 8.66993 3.60938 8.26303 3.60938C8.07585 3.60938 7.89682 3.68262 7.71777 3.85352L2.33041 9.23277C2.16765 9.39552 2.07812 9.58268 2.07812 9.77802Z" fill="black"/>
</svg>
