<svg width="120" height="68" viewBox="0 0 120 68" fill="none" xmlns="http://www.w3.org/2000/svg">
<path d="M13.1076 6.8259C7.23895 11.8641 -0.890608 10.5383 0.0793573 20.4264C1.04932 30.3145 29.6389 60.9557 60.4614 65.6799C90.1675 70.2436 111.214 70.1459 111.988 45.806C112.763 21.4661 75.0458 29.7911 63.6644 24.704C52.283 19.6169 31.8579 -9.2658 13.1076 6.8259Z" fill="#EDBC68"/>
<path d="M47.3284 42.8803C74.0115 52.1831 118.884 62.2 119.989 43.2616C120.765 29.8481 81.806 41.8266 53.6549 30.6175C25.5038 19.4084 18.0798 -4.8746 8.36293 0.865144C-1.35398 6.60488 20.3238 33.4666 47.3284 42.8803Z" fill="#BA4E27"/>
<path d="M16.5836 6C14.7503 9 12.0836 15.1 16.0836 15.5C21.0836 16 30.5835 7 30.0835 14.5C29.5835 22 30.0835 33.5 40.5835 30.5C51.0835 27.5 47.5835 30 54.0835 38.5C61.6279 48.3657 65.0835 40.5 70.5835 37.5C76.0835 34.5 82.5835 51.5 92.0835 48C99.6835 45.2 102.583 40.5 103.083 38.5" stroke="#E13C26" stroke-width="5" stroke-linecap="round" stroke-linejoin="round"/>
<path d="M17 12.254C17 12.254 24.3776 7.90436 23.6949 11.2897C23.0122 14.6751 19.8145 24.6924 24.6633 24.4704C29.512 24.2484 44.7619 15.9376 40.777 23.5755C36.7921 31.2134 39.516 39.6143 42.7416 36.6521C45.9671 33.69 51.1851 27.8696 51.7981 31.9002C52.4112 35.9307 51.408 43.4853 56.2637 42.1256C61.1194 40.7659 58.7856 35.9376 63.927 36.3746C69.0683 36.8117 67.0341 46.2671 70.5313 46.4683C74.0286 46.6695 75.4776 39.3784 80.9812 39.4964C86.4848 39.6143 86.025 48.5148 91.0758 48.9796C96.1266 49.4443 91.9466 41.8481 100 40.197" stroke="#F9D12E" stroke-width="4.03" stroke-miterlimit="10" stroke-linecap="round"/>
</svg>
