<svg width="22" height="32" viewBox="0 0 22 32" fill="none" xmlns="http://www.w3.org/2000/svg">
<path d="M21.455 30.5526C20.8369 29.475 19.8961 28.7238 18.8279 28.4549C16.3759 27.5529 15.649 28.822 12.6979 28.4549C11.2354 28.2766 9.9744 27.6473 7.44358 26.3573C5.37689 25.3084 4.97406 24.8574 4.81643 24.2596C4.3523 22.571 5.95486 20.8089 6.56786 20.1272C8.59077 17.8932 10.132 18.5644 11.8222 17.0331C13.8713 15.1767 13.7225 12.2609 14.4493 8.77876C15.1373 5.59935 16.3458 2.61533 18.0047 0C12.1111 2.37037 7.88144 8.63191 7.88144 16.0052V16.1206C7.00907 14.9278 5.93081 13.9762 4.72121 13.3315C3.51161 12.6868 2.19954 12.3645 0.875715 12.3868C0.577972 12.3868 0.288986 12.3868 0 12.4392V32H21.8053C21.7583 31.4971 21.6398 31.0076 21.455 30.5526Z" fill="#3BB243"/>
</svg>
