<svg width="49" height="41" viewBox="0 0 49 41" fill="none" xmlns="http://www.w3.org/2000/svg">
<path d="M11.0735 36.1488C11.6301 36.5787 12.2242 36.9345 12.8453 37.2098C13.9868 37.7283 15.2473 37.7283 16.3888 37.2098C17.4519 36.5838 17.3367 35.7562 18.1606 35.0878C19.7198 33.8146 21.5713 35.6714 24.3618 36.1488C28.2774 36.8066 28.7381 33.8464 33.2206 34.0268C36.1529 34.1435 36.1263 35.4167 40.3077 36.1488C43.6386 36.7324 46.8632 37.2947 48.2807 35.0878C48.8753 33.919 49.1121 32.5388 48.9505 31.1839C48.7889 29.8289 48.2389 28.5834 47.3948 27.6607C46.066 26.483 45.0029 27.735 42.9654 26.5997C42.1117 26.0391 41.3592 25.2817 40.751 24.3712C40.1428 23.4607 39.6911 22.4151 39.4218 21.2946C39.0306 19.5573 39.0306 17.7268 39.4218 15.9895C40.166 11.7455 38.7574 5.93109 36.3832 1.43238C34.3565 0.482421 32.199 -0.00343958 30.0226 1.83283e-05C20.6677 1.83283e-05 13.0845 8.68973 13.0845 19.406C13.0864 20.3972 13.1515 21.3869 13.2794 22.3662C12.2764 22.0063 11.2348 21.824 10.1877 21.8251C7.54495 21.7568 4.98765 22.9476 3.07746 25.1359C1.16728 27.3243 0.0604208 30.3312 0 33.4963C0.00240406 36.2296 0.833491 38.8689 2.33873 40.9234H5.88227C8.73481 36.7005 10.2585 35.7881 11.0735 36.1488Z" fill="#89C93C"/>
</svg>
