<svg width="232" height="228" viewBox="0 0 232 228" fill="none" xmlns="http://www.w3.org/2000/svg">
<path fill-rule="evenodd" clip-rule="evenodd" d="M115.785 208.708C168.401 208.708 211.055 168.636 211.055 119.206C211.055 69.7756 168.401 29.7043 115.785 29.7043C63.1694 29.7043 20.5157 69.7756 20.5157 119.206C20.5157 168.636 63.1694 208.708 115.785 208.708Z" stroke="#3AD29F" stroke-width="0.613889" stroke-dasharray="3.68 3.68"/>
<path fill-rule="evenodd" clip-rule="evenodd" d="M115.785 227.693C179.562 227.693 231.264 179.122 231.264 119.206C231.264 59.2904 179.562 10.7191 115.785 10.7191C52.0084 10.7191 0.306999 59.2904 0.306999 119.206C0.306999 179.122 52.0084 227.693 115.785 227.693Z" stroke="#3AD29F" stroke-width="0.613889" stroke-dasharray="3.68 3.68"/>
<path d="M193.072 153.768C193.076 141.138 182.847 130.579 169.461 129.397C156.076 128.214 143.931 136.796 141.428 149.206L61.3661 147.165L62.245 160.087C62.245 160.087 50.8287 184.835 110.829 191.428V216.44H180.193V174.854C188.164 170.469 193.065 162.445 193.072 153.768Z" fill="url(#paint0_linear_93_891)"/>
<path d="M64.9941 160.63C64.9941 160.63 54.0621 184.328 111.522 190.651V214.614H177.951V151.152L64.1408 148.253L64.9941 160.63Z" fill="#BE7C5E"/>
<path d="M98.1942 61.7351C94.5883 67.0805 87.0643 68.6868 81.3536 65.3302L45.6868 43.2501C39.9969 39.8626 38.2871 32.794 41.86 27.4291C45.4653 22.091 52.9797 20.4856 58.6877 23.834L94.3545 45.9141C100.049 49.2976 101.765 56.367 98.1942 61.7351Z" fill="url(#paint1_linear_93_891)"/>
<path d="M96.2182 60.5297C92.8665 65.4984 85.8728 66.9915 80.5645 63.8717L47.3997 43.3315C42.1108 40.1827 40.5215 33.6124 43.8423 28.6255C47.194 23.6568 54.1878 22.1636 59.4961 25.2835L92.6544 45.8116C97.9534 48.9589 99.5466 55.5387 96.2182 60.5297Z" fill="#BE7C5E"/>
<path d="M165.342 178.012C179.119 178.012 190.288 167.519 190.288 154.576C190.288 141.632 179.119 131.14 165.342 131.14C151.564 131.14 140.395 141.632 140.395 154.576C140.395 167.519 151.564 178.012 165.342 178.012Z" fill="#BE7C5E"/>
<path d="M160.851 0H65.2861C63.1159 0 61.3566 1.65277 61.3566 3.69157V171.684C61.3566 173.722 63.1159 175.375 65.2861 175.375H160.851C163.021 175.375 164.78 173.722 164.78 171.684V3.69157C164.78 1.65277 163.021 0 160.851 0Z" fill="url(#paint2_linear_93_891)"/>
<path d="M159.003 2.37164H67.1272C64.7108 2.37164 62.7519 4.21195 62.7519 6.48209V168.899C62.7519 171.169 64.7108 173.009 67.1272 173.009H159.003C161.42 173.009 163.378 171.169 163.378 168.899V6.48209C163.378 4.21195 161.42 2.37164 159.003 2.37164Z" fill="white"/>
<path d="M138.345 6.65085C137.744 10.3901 134.329 13.158 130.304 13.1691H95.551C91.5269 13.1565 88.1137 10.3889 87.5124 6.65085H69.1C68.0862 6.65085 67.1137 7.02784 66.3965 7.70102C65.6793 8.37419 65.2764 9.28755 65.2764 10.24V165.135C65.2764 166.088 65.6777 167.001 66.3942 167.675C67.1108 168.349 68.083 168.727 69.0968 168.727H157.034C158.047 168.727 159.02 168.35 159.737 167.677C160.454 167.004 160.857 166.091 160.857 165.138V10.243C160.857 9.29057 160.456 8.37689 159.739 7.70315C159.023 7.02941 158.051 6.65085 157.037 6.65085H138.345Z" fill="#F10027"/>
<path d="M123.779 8.69101H102.637C102.283 8.69101 101.995 8.96085 101.995 9.29372V9.40522C101.995 9.73808 102.283 10.0079 102.637 10.0079H123.779C124.133 10.0079 124.421 9.73808 124.421 9.40522V9.29372C124.421 8.96085 124.133 8.69101 123.779 8.69101Z" fill="#DBDBDB"/>
<path d="M129.184 10.2002C129.761 10.2002 130.229 9.76059 130.229 9.21837C130.229 8.67615 129.761 8.23659 129.184 8.23659C128.607 8.23659 128.139 8.67615 128.139 9.21837C128.139 9.76059 128.607 10.2002 129.184 10.2002Z" fill="#DBDBDB"/>
<path d="M181.467 158.71C174.227 160.283 169.258 155.847 167.584 149.049L150.948 91.0175C149.293 84.1926 153.814 77.3928 161.069 75.7962C168.334 74.2412 175.572 78.4886 177.271 85.3039L190.846 144.833C192.521 151.635 188.704 157.137 181.467 158.71Z" fill="url(#paint3_linear_93_891)"/>
<path d="M175.405 86.7244C173.993 80.9856 167.897 77.4082 161.788 78.7342C155.68 80.0602 151.872 85.7873 153.283 91.5262L168.58 153.723C169.991 159.462 176.088 163.039 182.196 161.713C188.305 160.387 192.113 154.66 190.702 148.921L175.405 86.7244Z" fill="#BE7C5E"/>
<path d="M190.182 206.773H95.2334V227.566H190.182V206.773Z" fill="url(#paint4_linear_93_891)"/>
<path d="M187.616 209.184H97.7996V225.457H187.616V209.184Z" fill="#F10027"/>
<path d="M84.3495 123.988C80.7875 129.27 73.3534 130.858 67.711 127.541L43.791 113.001C38.1687 109.655 36.4789 102.671 40.0091 97.37C43.5711 92.0881 51.0052 90.5006 56.6476 93.8171L80.5676 108.357C86.1899 111.704 87.8797 118.688 84.3495 123.988Z" fill="url(#paint5_linear_93_891)"/>
<path d="M78.3447 154.766C74.7509 160.096 67.2491 161.698 61.5554 158.352L46.7389 148.202C41.065 144.826 39.3594 137.778 42.9217 132.429C46.5154 127.099 54.0172 125.497 59.7109 128.843L74.5275 138.996C80.1994 142.372 81.9048 149.417 78.3447 154.766Z" fill="url(#paint6_linear_93_891)"/>
<g opacity="0.5">
<path d="M113.065 114.794C128.999 114.794 141.916 102.659 141.916 87.6906C141.916 72.7216 128.999 60.5869 113.065 60.5869C97.1316 60.5869 84.2149 72.7216 84.2149 87.6906C84.2149 102.659 97.1316 114.794 113.065 114.794Z" fill="url(#paint7_linear_93_891)"/>
</g>
<path d="M113.065 113.2C128.062 113.2 140.219 101.779 140.219 87.6906C140.219 73.6021 128.062 62.1811 113.065 62.1811C98.0688 62.1811 85.9118 73.6021 85.9118 87.6906C85.9118 101.779 98.0688 113.2 113.065 113.2Z" fill="#69F0AE"/>
<path d="M101.28 84.2853L111.461 93.0546L125.887 73.1262L130.98 77.1131L111.461 101.028L97.0362 85.8824L101.28 84.2853Z" fill="white"/>
<path d="M77.1482 154.009C73.7965 158.978 66.8028 160.471 61.4945 157.351L47.6756 147.901C42.3867 144.752 40.7973 138.182 44.1182 133.195C47.4699 128.226 54.4636 126.733 59.7719 129.853L73.5876 139.321C78.866 142.468 80.4555 149.025 77.1482 154.009Z" fill="#BE7C5E"/>
<path d="M83.0344 123.19C79.6827 128.159 72.689 129.652 67.3807 126.532L44.8752 112.85C39.5863 109.702 37.997 103.131 41.3178 98.1445C44.6695 93.1758 51.6633 91.6827 56.9716 94.8025L79.477 108.484C84.7659 111.633 86.3553 118.203 83.0344 123.19Z" fill="#BE7C5E"/>
<path d="M90.5341 93.356C86.9545 98.6611 79.4868 100.255 73.8186 96.924L43.5055 78.3818C37.8585 75.0189 36.1618 68.0034 39.7075 62.6783C43.2871 57.3732 50.7548 55.7792 56.423 59.1103L86.7361 77.6525C92.3831 81.0154 94.0798 88.0309 90.5341 93.356Z" fill="url(#paint8_linear_93_891)"/>
<path d="M88.9238 92.3917C85.5721 97.3603 78.5783 98.8535 73.27 95.7337L44.8784 78.3667C39.5895 75.2179 38.0001 68.6476 41.321 63.6607C44.6727 58.692 51.6664 57.1989 56.9748 60.3187L85.3632 77.6857C90.6532 80.8334 92.2441 87.4039 88.9238 92.3917Z" fill="#BE7C5E"/>
<defs>
<linearGradient id="paint0_linear_93_891" x1="127.224" y1="216.455" x2="127.224" y2="129.292" gradientUnits="userSpaceOnUse">
<stop stop-color="#808080" stop-opacity="0.25"/>
<stop offset="0.54" stop-color="#808080" stop-opacity="0.12"/>
<stop offset="1" stop-color="#808080" stop-opacity="0.1"/>
</linearGradient>
<linearGradient id="paint1_linear_93_891" x1="70.0239" y1="67.0871" x2="70.0239" y2="22.0831" gradientUnits="userSpaceOnUse">
<stop stop-color="#808080" stop-opacity="0.25"/>
<stop offset="0.54" stop-color="#808080" stop-opacity="0.12"/>
<stop offset="1" stop-color="#808080" stop-opacity="0.1"/>
</linearGradient>
<linearGradient id="paint2_linear_93_891" x1="113.068" y1="175.372" x2="113.068" y2="-0.00301051" gradientUnits="userSpaceOnUse">
<stop stop-color="#808080" stop-opacity="0.25"/>
<stop offset="0.54" stop-color="#808080" stop-opacity="0.12"/>
<stop offset="1" stop-color="#808080" stop-opacity="0.1"/>
</linearGradient>
<linearGradient id="paint3_linear_93_891" x1="170.92" y1="159.024" x2="170.92" y2="75.4707" gradientUnits="userSpaceOnUse">
<stop stop-color="#808080" stop-opacity="0.25"/>
<stop offset="0.54" stop-color="#808080" stop-opacity="0.12"/>
<stop offset="1" stop-color="#808080" stop-opacity="0.1"/>
</linearGradient>
<linearGradient id="paint4_linear_93_891" x1="142.714" y1="227.56" x2="142.714" y2="206.767" gradientUnits="userSpaceOnUse">
<stop stop-color="#808080" stop-opacity="0.25"/>
<stop offset="0.54" stop-color="#808080" stop-opacity="0.12"/>
<stop offset="1" stop-color="#808080" stop-opacity="0.1"/>
</linearGradient>
<linearGradient id="paint5_linear_93_891" x1="62.1745" y1="129.274" x2="62.1745" y2="92.0873" gradientUnits="userSpaceOnUse">
<stop stop-color="#808080" stop-opacity="0.25"/>
<stop offset="0.54" stop-color="#808080" stop-opacity="0.12"/>
<stop offset="1" stop-color="#808080" stop-opacity="0.1"/>
</linearGradient>
<linearGradient id="paint6_linear_93_891" x1="60.6348" y1="160.1" x2="60.6348" y2="127.092" gradientUnits="userSpaceOnUse">
<stop stop-color="#808080" stop-opacity="0.25"/>
<stop offset="0.54" stop-color="#808080" stop-opacity="0.12"/>
<stop offset="1" stop-color="#808080" stop-opacity="0.1"/>
</linearGradient>
<linearGradient id="paint7_linear_93_891" x1="113.065" y1="114.794" x2="113.065" y2="60.5839" gradientUnits="userSpaceOnUse">
<stop stop-color="#808080" stop-opacity="0.25"/>
<stop offset="0.54" stop-color="#808080" stop-opacity="0.12"/>
<stop offset="1" stop-color="#808080" stop-opacity="0.1"/>
</linearGradient>
<linearGradient id="paint8_linear_93_891" x1="65.1192" y1="98.6749" x2="65.1192" y2="57.3805" gradientUnits="userSpaceOnUse">
<stop stop-color="#808080" stop-opacity="0.25"/>
<stop offset="0.54" stop-color="#808080" stop-opacity="0.12"/>
<stop offset="1" stop-color="#808080" stop-opacity="0.1"/>
</linearGradient>
</defs>
</svg>
