<svg width="20" height="18" viewBox="0 0 20 18" fill="none" xmlns="http://www.w3.org/2000/svg">
<path opacity="0.4" d="M19.25 10.4764C18.429 10.4764 17.761 9.81449 17.761 9.00099C17.761 8.1865 18.429 7.52461 19.25 7.52461C19.449 7.52461 19.64 7.44633 19.78 7.30761C19.921 7.1679 20 6.97864 20 6.78146L19.999 4.10415C19.999 1.84102 18.14 0 15.856 0H4.144C1.86 0 0.001 1.84102 0.001 4.10415L0 6.86766C0 7.06485 0.079 7.2541 0.22 7.39381C0.36 7.53253 0.551 7.61081 0.75 7.61081C1.599 7.61081 2.239 8.2083 2.239 9.00099C2.239 9.81449 1.571 10.4764 0.75 10.4764C0.336 10.4764 0 10.8093 0 11.2195V13.8949C0 16.158 1.858 18 4.143 18H15.857C18.142 18 20 16.158 20 13.8949V11.2195C20 10.8093 19.664 10.4764 19.25 10.4764Z" fill="white"/>
<path d="M13.4305 8.58856L12.2515 9.73656L12.5305 11.3596C12.5785 11.6406 12.4655 11.9176 12.2345 12.0836C12.0055 12.2516 11.7065 12.2726 11.4545 12.1386L9.99946 11.3736L8.54146 12.1396C8.43346 12.1966 8.31546 12.2266 8.19846 12.2266C8.04546 12.2266 7.89446 12.1786 7.76446 12.0846C7.53446 11.9176 7.42146 11.6406 7.46946 11.3596L7.74746 9.73656L6.56846 8.58856C6.36446 8.39056 6.29346 8.09956 6.38146 7.82856C6.47046 7.55856 6.70046 7.36656 6.98146 7.32656L8.60746 7.08956L9.33646 5.61256C9.46346 5.35856 9.71746 5.20056 9.99946 5.20056H10.0015C10.2845 5.20156 10.5385 5.35956 10.6635 5.61356L11.3925 7.08956L13.0215 7.32756C13.2995 7.36656 13.5295 7.55856 13.6175 7.82856C13.7065 8.09956 13.6355 8.39056 13.4305 8.58856Z" fill="white"/>
</svg>
