<svg width="21" height="17" viewBox="0 0 21 17" fill="none" xmlns="http://www.w3.org/2000/svg">
<g clip-path="url(#clip0_89_2309)">
<path d="M20.5856 8.51621C20.5856 8.39748 20.5423 8.30034 20.456 8.21398L13.1595 0.874348C12.9977 0.690856 12.8789 0.647682 12.7602 0.647682C12.5228 0.647682 12.3393 0.831173 12.3393 1.05784C12.3393 1.17656 12.3717 1.2845 12.458 1.36006L16.7647 5.67749L19.3444 8.17081L16.9805 8.10604H0.952028C0.725363 8.10604 0.541872 8.27874 0.541872 8.51621C0.541872 8.75366 0.725363 8.92636 0.952028 8.92636H16.9805L19.3444 8.87239L16.7647 11.3549L12.458 15.6724C12.3824 15.7479 12.3393 15.8667 12.3393 15.9854C12.3393 16.2012 12.5228 16.3847 12.7602 16.3847C12.8789 16.3847 12.976 16.3416 13.0625 16.2552L20.456 8.81843C20.5423 8.73208 20.5856 8.63494 20.5856 8.51621Z" fill="#F10027"/>
</g>
<defs>
<clipPath id="clip0_89_2309">
<rect width="20.4476" height="16.1429" fill="white" transform="scale(1.02701)"/>
</clipPath>
</defs>
</svg>
