<svg width="83" height="69" viewBox="0 0 83 69" fill="none" xmlns="http://www.w3.org/2000/svg">
<path d="M77.0715 17.2111H59.2857V5.73705C59.2857 4.21549 58.6611 2.75625 57.5493 1.68034C56.4375 0.604437 54.9295 0 53.3572 0H29.6429C28.0705 0 26.5626 0.604437 25.4507 1.68034C24.3389 2.75625 23.7143 4.21549 23.7143 5.73705V17.2111H5.92857C4.35622 17.2111 2.84826 17.8156 1.73644 18.8915C0.624615 19.9674 0 21.4266 0 22.9482V63.1075C0 64.6291 0.624615 66.0883 1.73644 67.1642C2.84826 68.2401 4.35622 68.8446 5.92857 68.8446H77.0715C78.6438 68.8446 80.1518 68.2401 81.2636 67.1642C82.3754 66.0883 83 64.6291 83 63.1075V22.9482C83 21.4266 82.3754 19.9674 81.2636 18.8915C80.1518 17.8156 78.6438 17.2111 77.0715 17.2111ZM29.6429 5.73705H53.3572V17.2111H29.6429V5.73705ZM5.92857 63.1075V22.9482H77.0715V63.1075H5.92857Z" fill="black"/>
</svg>
