<svg width="76" height="35" viewBox="0 0 76 35" fill="none" xmlns="http://www.w3.org/2000/svg">
<path d="M0 32.4359C0.0904727 31.3243 0.389066 30.2514 0.873563 29.2971C1.5258 28.0156 2.42433 26.9395 3.49425 26.1583C4.83137 25.1474 6.31171 24.4382 7.86207 24.0658C9.87582 23.5354 11.9198 23.1856 13.977 23.0195C17.7333 22.5173 19.6115 22.2662 20.092 21.9733C21.9352 20.8538 22.2322 19.2948 25.3333 12.5569C27.5522 7.72321 28.6878 5.29588 29.7012 4.18685C33.3526 0.190135 38.1572 0.00180799 39.3103 0.00180799C40.6644 0.00180799 46.229 -0.217907 49.7931 4.18685C51.7324 6.58278 51.0598 7.8383 54.1609 14.6494C56.1614 19.0333 57.1572 21.2304 58.5287 21.9733C61.9618 23.8356 64.7485 19.8807 69.0115 21.9733C70.3499 22.7089 71.5414 23.7791 72.5058 25.112C74.1565 27.1713 75.3568 29.6871 76 32.4359C17.3315 35.4177 0.165977 34.5493 0 32.4359Z" fill="#FBB039"/>
</svg>
