<svg width="136" height="83" viewBox="0 0 136 83" fill="none" xmlns="http://www.w3.org/2000/svg">
<path d="M91.9925 31.8193L4.94973 21.9788L126.702 76.7586L91.9925 31.8193Z" fill="#FFFCF0" stroke="#A07D36" stroke-width="0.818581" stroke-linecap="round" stroke-linejoin="round"/>
<path d="M126.684 76.7638L4.93747 21.9794L2.41069 27.8026L124.157 82.587L126.684 76.7638Z" fill="#A07D34" stroke="#A07D36" stroke-width="0.818581" stroke-linecap="round" stroke-linejoin="round"/>
<path d="M10.3632 18.7134C5.46143 16.589 -1.09803 20.4852 0.156319 21.1381C1.41067 21.791 5.94423 22.388 7.81774 24.5813C9.69124 26.7745 20.3191 38.9952 22.6074 36.473C24.8958 33.9507 35.0365 38.0149 35.0365 38.0149C35.0365 38.0149 33.1401 43.3728 37.2309 44.0098C41.3217 44.6467 44.3435 43.2125 46.4149 43.5529C48.4863 43.8933 51.6552 52.5872 55.8277 51.2572C60.0001 49.9273 73.3247 50.5946 74.9115 55.6155C76.4982 60.6363 78.1291 60.4459 80.2335 59.3112C82.3378 58.1764 85.5771 67.1205 87.0597 67.4571C88.5423 67.7937 93.5509 64.72 93.5509 64.72C93.5509 64.72 90.0785 70.76 95.7633 72.6465C101.448 74.5331 105.218 73.3485 106.352 71.9117C107.486 70.475 114.328 82.3482 117.994 80.3602C121.66 78.3722 127.653 82.7609 127.899 78.6427C128.145 74.5244 127.65 73.8839 122.604 71.1055C117.559 68.327 10.3632 18.7134 10.3632 18.7134Z" fill="#648E21"/>
<path d="M123.972 65.4019L13.1992 15.5557C11.4882 14.7858 9.56777 15.3909 8.90982 16.9072L8.17484 18.601C7.51689 20.1173 8.37052 21.9707 10.0815 22.7406L120.854 72.5868C122.565 73.3567 124.485 72.7516 125.143 71.2353L125.878 69.5415C126.536 68.0252 125.683 66.1718 123.972 65.4019Z" fill="#E1B186"/>
<path d="M125.784 64.4123L12.7005 13.5262C11.6277 13.0434 10.4235 13.4228 10.011 14.3736L9.14391 16.3718C8.73136 17.3226 9.26662 18.4847 10.3394 18.9674L123.423 69.8535C124.496 70.3363 125.7 69.9569 126.112 69.0061L126.979 67.0079C127.392 66.0571 126.857 64.895 125.784 64.4123Z" fill="#FFCF23"/>
<path d="M19.9103 8.75834C19.9103 8.75834 10.5997 5.7207 9.63412 8.83432C8.66856 11.9479 18.0197 23.9899 30.3494 29.0265C42.6792 34.0631 56.0103 31.3324 57.5379 28.0251C59.0654 24.7177 19.9103 8.75834 19.9103 8.75834Z" fill="#E25123"/>
<path d="M55.2144 22.0566C55.2144 22.0566 45.9038 19.0189 44.933 22.1282C43.9623 25.2374 53.3481 37.253 65.6454 42.294C77.9427 47.335 91.3114 44.6043 92.838 41.2882C94.3647 37.9721 55.2144 22.0566 55.2144 22.0566Z" fill="#E25123"/>
<path d="M90.8558 41.0708C90.8558 41.0708 81.5452 38.0332 80.5745 41.1424C79.6037 44.2517 88.9694 56.298 101.295 61.339C113.62 66.38 126.956 63.6449 128.482 60.3288C130.009 57.0126 90.8558 41.0708 90.8558 41.0708Z" fill="#E25123"/>
<path d="M16.4719 4.48112C11.5753 2.36108 5.00545 6.24851 6.2598 6.90142C7.51414 7.55432 12.0529 8.15571 13.9264 10.349C15.7999 12.5422 26.4277 24.7629 28.7161 22.2407C31.0044 19.7184 41.1493 23.7782 41.1493 23.7782C41.1493 23.7782 39.2529 29.1361 43.3438 29.7731C47.4346 30.41 50.4512 28.9714 52.5278 29.3162C54.6044 29.661 57.7681 38.3505 61.9405 37.0206C66.113 35.6906 79.4376 36.358 81.0243 41.3788C82.6111 46.3997 84.2367 46.2049 86.3674 45.0526C88.4981 43.9002 91.711 52.8619 93.1884 53.1941C94.6658 53.5263 99.6848 50.4613 99.6848 50.4613C99.6848 50.4613 96.2124 56.5013 101.913 58.4011C107.613 60.3008 111.367 59.103 112.501 57.6663C113.635 56.2295 120.473 68.0983 124.144 66.1147C127.815 64.1311 133.807 68.5198 134.053 64.4015C134.3 60.2833 133.804 59.6428 128.759 56.8644C123.714 54.0859 16.4719 4.48112 16.4719 4.48112Z" fill="#648E21"/>
<path d="M100.848 10.2502L13.8051 0.409711L135.557 55.1895L100.848 10.2502Z" fill="#FFF8DA" stroke="#A07D36" stroke-width="0.818581" stroke-linecap="round" stroke-linejoin="round"/>
<path d="M135.547 55.1974L13.8 0.412998L11.2732 6.2362L133.02 61.0206L135.547 55.1974Z" fill="#A07D34" stroke="#A07D36" stroke-width="0.818581" stroke-linecap="round" stroke-linejoin="round"/>
</svg>
