<svg width="9" height="7" viewBox="0 0 9 7" fill="none" xmlns="http://www.w3.org/2000/svg">
<path d="M4.19178 5.93099C4.40207 6.14127 4.74301 6.14127 4.9533 5.93099L8.38011 2.50417C8.5904 2.29389 8.5904 1.95294 8.38011 1.74266C8.16982 1.53237 7.82888 1.53237 7.61859 1.74266L4.57254 4.78871L1.52648 1.74266C1.3162 1.53237 0.975256 1.53237 0.76497 1.74266C0.554683 1.95294 0.554683 2.29389 0.76497 2.50417L4.19178 5.93099ZM5.11101 5.55023V2.05411e-05H4.03407L4.03407 5.55023H5.11101Z" fill="#999999"/>
<path d="M2.47242 6.46153L6.98447 6.46153" stroke="#999999"/>
<path d="M2.49534 6.4615C0.181402 6.4615 0.561754 5.47812 0.561754 3.6966M6.6851 6.4615C7.97426 6.4615 8.29655 6.00069 8.29655 3.6966" stroke="#999999"/>
</svg>
