<svg width="41" height="32" viewBox="0 0 41 32" fill="none" xmlns="http://www.w3.org/2000/svg">
<path d="M39.6125 4.98551C38.7945 4.13527 37.665 3.63285 36.3796 3.63285H29.9138V3.55556C29.9138 2.58937 29.5243 1.66184 28.8622 1.04348C28.2 0.386474 27.3042 0 26.3304 0H14.6453C13.6326 0 12.7368 0.386474 12.0746 1.04348C11.4124 1.70048 11.0229 2.58937 11.0229 3.55556V3.63285H4.59614C3.31078 3.63285 2.18122 4.13527 1.36326 4.98551C0.545304 5.7971 0 6.95652 0 8.19324V27.4396C0 28.715 0.506354 29.8358 1.36326 30.6474C2.18122 31.4589 3.34973 32 4.59614 32H36.3796C37.665 32 38.7945 31.4976 39.6125 30.6474C40.4304 29.8358 40.9757 28.6763 40.9757 27.4396V8.19324C40.9757 6.91788 40.4694 5.7971 39.6125 4.98551ZM38.9503 27.4396H38.9114C38.9114 28.1353 38.6387 28.7536 38.1713 29.2174C37.7039 29.6812 37.0807 29.9517 36.3796 29.9517H4.59614C3.89503 29.9517 3.27183 29.6812 2.80442 29.2174C2.33702 28.7536 2.06437 28.1353 2.06437 27.4396V8.19324C2.06437 7.49759 2.33702 6.87923 2.80442 6.41546C3.27183 5.95169 3.89503 5.68116 4.59614 5.68116H12.1135C12.6978 5.68116 13.1652 5.21739 13.1652 4.63768V3.51691C13.1652 3.09179 13.321 2.70531 13.5937 2.43478C13.8663 2.16425 14.2558 2.00966 14.6843 2.00966H26.3304C26.7589 2.00966 27.1484 2.16425 27.421 2.43478C27.6937 2.70531 27.8495 3.09179 27.8495 3.51691V4.63768C27.8495 5.21739 28.3169 5.68116 28.9011 5.68116H36.4185C37.1197 5.68116 37.7429 5.95169 38.2103 6.41546C38.6777 6.87923 38.9503 7.49759 38.9503 8.19324V27.4396Z" fill="white"/>
<path d="M20.4879 8.30918C17.8393 8.30918 15.4244 9.3913 13.7106 11.0918C11.9578 12.8309 10.9062 15.1884 10.9062 17.8164C10.9062 20.4444 11.9968 22.8406 13.7106 24.5411C15.4633 26.2802 17.8393 27.3237 20.4879 27.3237C23.1366 27.3237 25.5515 26.2415 27.2653 24.5411C29.0181 22.8019 30.0697 20.4444 30.0697 17.8164C30.0697 15.1884 28.9791 12.7923 27.2653 11.0918C25.5515 9.3913 23.1366 8.30918 20.4879 8.30918ZM25.7852 23.1111C24.4219 24.4251 22.5523 25.2754 20.4879 25.2754C18.4236 25.2754 16.554 24.4251 15.1907 23.1111C13.8274 21.7585 13.0095 19.9034 13.0095 17.8551C13.0095 15.8068 13.8664 13.9517 15.1907 12.599C16.554 11.2464 18.4236 10.4348 20.4879 10.4348C22.5523 10.4348 24.4219 11.285 25.7852 12.599C27.1484 13.9517 27.9664 15.8068 27.9664 17.8551C28.0053 19.9034 27.1484 21.7585 25.7852 23.1111Z" fill="white"/>
<path d="M34.3542 12.058C35.4083 12.058 36.2628 11.2101 36.2628 10.1643C36.2628 9.11839 35.4083 8.27055 34.3542 8.27055C33.3001 8.27055 32.4456 9.11839 32.4456 10.1643C32.4456 11.2101 33.3001 12.058 34.3542 12.058Z" fill="white"/>
</svg>
