<svg width="23" height="20" viewBox="0 0 23 20" fill="none" xmlns="http://www.w3.org/2000/svg">
<path fill-rule="evenodd" clip-rule="evenodd" d="M22.9959 5.97236H18.126C15.8598 5.97621 14.0239 7.70572 14.0198 9.84063C14.0167 11.9804 15.8547 13.7176 18.126 13.7204H23V14.0604C23 17.7929 20.6581 20 16.6949 20H6.30609C2.34191 20 0 17.7929 0 14.0604V5.93095C0 2.19847 2.34191 0 6.30609 0H16.6908C20.654 0 22.9959 2.19847 22.9959 5.93095V5.97236ZM5.4491 5.96489H11.9351H11.9392H11.9474C12.4329 5.96296 12.8255 5.59029 12.8234 5.13192C12.8214 4.6745 12.4247 4.30472 11.9392 4.30665H5.4491C4.96661 4.30857 4.5751 4.67739 4.57305 5.13288C4.57101 5.59029 4.96354 5.96296 5.4491 5.96489Z" fill="#959895"/>
<path opacity="0.4" d="M16.1431 10.329C16.3836 11.3858 17.3426 12.1294 18.4376 12.1101H22.175C22.6306 12.1101 23.0001 11.7456 23.0001 11.295V8.48212C22.9991 8.03249 22.6306 7.66698 22.175 7.66602H18.3496C17.1041 7.66988 16.0981 8.66874 16.1001 9.89966C16.1001 10.0437 16.1148 10.1878 16.1431 10.329Z" fill="#959895"/>
<ellipse cx="18.4" cy="9.88846" rx="1.15" ry="1.11111" fill="#959895"/>
</svg>
