<svg width="13" height="13" viewBox="0 0 13 13" fill="none" xmlns="http://www.w3.org/2000/svg">
<g clip-path="url(#clip0_89_2430)">
<path d="M9.71751 9.7175C8.79158 10.4233 7.66411 10.8143 6.50001 10.8333C2.70834 10.8333 0.541672 6.5 0.541672 6.5C1.21545 5.24436 2.14995 4.14733 3.28251 3.2825M5.36251 2.29667C5.73535 2.2094 6.11708 2.16577 6.50001 2.16667C10.2917 2.16667 12.4583 6.5 12.4583 6.5C12.1295 7.11512 11.7374 7.69424 11.2883 8.22792M7.64834 7.64834C7.49957 7.80799 7.32017 7.93605 7.12084 8.02486C6.92151 8.11368 6.70633 8.16144 6.48814 8.16529C6.26995 8.16914 6.05322 8.129 5.85088 8.04727C5.64854 7.96554 5.46473 7.84389 5.31042 7.68959C5.15611 7.53528 5.03447 7.35147 4.95274 7.14913C4.87101 6.94679 4.83087 6.73006 4.83472 6.51187C4.83857 6.29368 4.88633 6.0785 4.97515 5.87917C5.06396 5.67984 5.19202 5.50044 5.35167 5.35167" stroke="#898A8D" stroke-width="2" stroke-linecap="round" stroke-linejoin="round"/>
<path d="M0.541672 0.541656L12.4583 12.4583" stroke="#898A8D" stroke-width="2" stroke-linecap="round" stroke-linejoin="round"/>
</g>
<defs>
<clipPath id="clip0_89_2430">
<rect width="13" height="13" fill="white"/>
</clipPath>
</defs>
</svg>
