<svg width="10" height="7" viewBox="0 0 10 7" fill="none" xmlns="http://www.w3.org/2000/svg">
<path d="M7.60125 3.18194C7.57556 3.18194 7.55066 3.1849 7.52526 3.18614L7.08589 0.954582H8.18583V0.318194H6.72439C6.68078 0.31818 6.63773 0.328785 6.59838 0.349233C6.55903 0.369681 6.52439 0.399454 6.49698 0.436369C6.46957 0.473285 6.4501 0.516408 6.43998 0.562579C6.42987 0.608751 6.42937 0.656801 6.43853 0.703208L6.61332 1.59097H3.62238L3.33009 0.636388H4.09378V0H2.04776V0.636388H2.71418L3.01848 1.63011L2.2673 3.26537C1.92639 3.15171 1.56175 3.15386 1.22199 3.27155C0.882238 3.38923 0.583502 3.61686 0.365607 3.92408C0.147713 4.23131 0.0210119 4.60353 0.00239346 4.99114C-0.016225 5.37875 0.0741236 5.76333 0.261396 6.09362C0.448668 6.42391 0.723967 6.68421 1.0506 6.83983C1.37723 6.99545 1.73967 7.039 2.08961 6.96466C2.43955 6.89032 2.76036 6.70164 3.00929 6.42376C3.25822 6.14588 3.42343 5.792 3.4829 5.4093H4.24577C4.33345 5.40952 4.42005 5.38817 4.49909 5.34685C4.57812 5.30552 4.64756 5.24529 4.70221 5.17065L6.76531 2.36284L6.95342 3.31867C6.54909 3.49504 6.21969 3.82919 6.02956 4.25582C5.83943 4.68245 5.80224 5.17093 5.92526 5.62582C6.04827 6.0807 6.32265 6.46933 6.69479 6.71576C7.06693 6.9622 7.5101 7.04874 7.93773 6.95849C8.36535 6.86824 8.7467 6.60767 9.00729 6.2277C9.26787 5.84772 9.38897 5.37563 9.34692 4.90366C9.30487 4.43168 9.10269 3.99373 8.77989 3.67535C8.45708 3.35697 8.03684 3.18105 7.60125 3.18194ZM1.75547 6.36388C1.59129 6.36437 1.42886 6.32721 1.27875 6.25483C1.12864 6.18244 0.99422 6.07645 0.884235 5.94375C0.774251 5.81106 0.691171 5.65463 0.640405 5.48467C0.589639 5.3147 0.572326 5.13499 0.589591 4.95726C0.606857 4.77952 0.658315 4.60773 0.740614 4.45308C0.822914 4.29843 0.93421 4.16439 1.06726 4.05967C1.2003 3.95495 1.35212 3.88191 1.51282 3.84531C1.67351 3.80871 1.83949 3.80936 1.99994 3.84722L1.49402 4.94877L1.49665 4.95017C1.47547 4.99363 1.46401 5.04191 1.46318 5.0911C1.46273 5.16271 1.48464 5.23237 1.52532 5.28865C1.56599 5.34494 1.62302 5.38451 1.68706 5.40089C1.7511 5.41727 1.81836 5.40948 1.8778 5.3788C1.93724 5.34812 1.98535 5.29637 2.01423 5.23203L2.01692 5.23343L2.52074 4.13652C2.70098 4.30574 2.82924 4.53104 2.88826 4.78204C2.94728 5.03305 2.93422 5.29773 2.85084 5.54041C2.76746 5.78309 2.61777 5.99213 2.42192 6.13936C2.22607 6.28659 1.99348 6.36495 1.75547 6.36388ZM3.4829 4.77291C3.40638 4.28324 3.15753 3.84534 2.78921 3.55219L3.27988 2.48388L3.98067 4.77291H3.4829ZM4.49355 4.43562L3.81728 2.22736H6.11625L4.49355 4.43562ZM7.60125 6.36388C7.3381 6.36472 7.08243 6.2686 6.87583 6.09116C6.66923 5.91373 6.52386 5.66541 6.46336 5.38661C6.40286 5.10781 6.43079 4.81493 6.54262 4.5556C6.65444 4.29628 6.84358 4.08578 7.07925 3.95833L7.31539 5.15792L7.32124 5.15652C7.33411 5.22728 7.36898 5.29104 7.41998 5.33709C7.47098 5.38313 7.535 5.40863 7.60125 5.4093C7.67877 5.4093 7.75312 5.37577 7.80793 5.3161C7.86275 5.25643 7.89354 5.17549 7.89354 5.0911C7.89174 5.06887 7.88767 5.04693 7.88141 5.02568L7.88726 5.02428L7.65091 3.82377C7.9563 3.83728 8.24463 3.98065 8.45396 4.22309C8.66329 4.46553 8.77691 4.78769 8.7704 5.12034C8.7639 5.45299 8.63779 5.76959 8.41918 6.00211C8.20057 6.23463 7.90689 6.36453 7.60125 6.36388Z" fill="#999999"/>
</svg>
