<svg width="172" height="128" viewBox="0 0 172 128" fill="none" xmlns="http://www.w3.org/2000/svg">
<path d="M171.983 21.5288V127.604H0V21.9993C2.80638 21.1418 5.33896 19.3111 7.28024 16.7368C9.22152 14.1625 10.4851 10.9591 10.9126 7.52828V0H11.0785C11.0785 0.637813 11.0785 1.24426 11.0785 1.86116V4.54833C11.1049 5.07762 11.1049 5.60834 11.0785 6.13763C11.5582 10.6389 13.3906 14.7766 16.2331 17.7769C19.0755 20.7771 22.7332 22.4343 26.522 22.4384C28.5668 22.4384 30.5916 21.9559 32.4807 21.0183C34.3698 20.0808 36.0862 18.7066 37.5317 16.9744C38.9772 15.2421 40.1236 13.1857 40.9053 10.9226C41.6871 8.65954 42.0889 6.23415 42.0877 3.78505V5.43709C42.1104 9.86455 43.5744 14.1067 46.1682 17.2615C48.762 20.4162 52.281 22.2346 55.9769 22.3299C59.6727 22.4253 63.2539 20.79 65.9587 17.772C68.6635 14.7539 70.2786 10.5912 70.4605 6.169L70.5652 3.40863C70.5652 3.68049 70.5652 3.94189 70.5652 4.21374C70.5571 9.05278 72.1543 13.6975 75.0055 17.1261C77.8567 20.5546 81.7283 22.4863 85.7686 22.496C89.8089 22.5057 93.687 20.5927 96.5496 17.1778C99.4123 13.763 101.025 9.12597 101.033 4.28693C101.033 9.10101 102.63 13.7179 105.472 17.122C108.314 20.5261 112.169 22.4384 116.189 22.4384C120.208 22.4384 124.063 20.5261 126.905 17.122C129.747 13.7179 131.344 9.10101 131.344 4.28693V3.78505C131.344 8.73224 132.985 13.4768 135.906 16.975C138.826 20.4732 142.788 22.4384 146.918 22.4384C151.049 22.4384 155.011 20.4732 157.931 16.975C160.852 13.4768 162.493 8.73224 162.493 3.78505V5.43709C162.493 8.97411 163.407 12.4245 165.109 15.3149C166.811 18.2053 169.218 20.3941 172 21.5811L171.983 21.5288Z" fill="#FFD76F"/>
</svg>
