<svg width="39" height="87" viewBox="0 0 39 87" fill="none" xmlns="http://www.w3.org/2000/svg">
<path d="M39 0L31.1336 55.4825V67.6887C31.1347 70.1407 30.7325 72.569 29.9498 74.8347C29.1671 77.1005 28.0194 79.1594 26.5721 80.8937C25.1249 82.628 23.4065 84.0038 21.5152 84.9425C19.6238 85.8812 17.5966 86.3643 15.5493 86.3643C11.7561 86.3601 8.09399 84.701 5.24815 81.6972C2.40232 78.6933 0.567676 74.5507 0.0874101 70.0441C0.113873 69.5141 0.113873 68.9828 0.0874101 68.4529V65.7625C0.0874101 65.1449 0.131112 64.5377 0.0874101 63.8991L0 55.5244V55.1894L1.7918 47.6731L13.1544 0.0418746L39 0Z" fill="#FFC42E"/>
</svg>
