<svg width="45" height="35" viewBox="0 0 45 35" fill="none" xmlns="http://www.w3.org/2000/svg">
<path d="M3.79675 32.6215C3.96514 31.9228 4.06724 31.1913 4.31357 30.5314C5.30215 27.8785 6.86562 25.673 8.49724 23.5313C11.3011 19.851 14.4372 16.584 17.771 13.5665C17.865 13.4923 17.9621 13.4237 18.0619 13.3608C18.4582 13.9422 18.8356 14.5129 19.2287 15.0684C19.6862 15.7151 19.9895 15.7521 20.4559 15.137C22.1192 12.9505 24.1216 11.1456 26.3586 9.81655C26.9164 9.48097 27.4042 9.09093 27.6007 8.2909C27.7423 7.71394 28.2037 7.59337 28.6615 7.90307C29.0967 8.1978 29.514 8.52978 29.9298 8.86105C30.5153 9.32734 30.5215 9.52674 29.9603 10.0347C28.1161 11.7042 26.2696 13.37 24.4209 15.0322C19.5213 19.4355 14.6369 23.8622 9.70819 28.2224C8.06243 29.6787 6.30428 30.9643 4.59417 32.3219C4.40232 32.4743 4.18734 32.5878 3.98396 32.7193L3.79675 32.6215Z" fill="#F10027"/>
<path d="M23.1014 20.1669L22.8624 20.1655C22.8692 19.0015 22.8596 17.8369 22.8614 16.673L20.8193 18.2025C20.7211 21.0143 20.6245 23.826 20.5296 26.6376C20.5145 27.0751 20.5107 27.5133 20.5121 27.9514C20.5144 28.7106 21.0013 29.1257 21.9343 29.1049C22.8288 29.085 23.1935 28.62 23.1833 27.9365C23.1543 25.9665 23.1187 23.9965 23.0924 22.0265C23.0843 21.4062 23.0978 20.7866 23.1014 20.1669Z" fill="#F10027"/>
<path d="M19.9744 10.7165C20.9614 11.2578 21.0395 12.0869 21.0066 12.9607C20.9969 13.2192 20.9884 13.4777 20.9788 13.7363L22.9522 12.7571C22.9547 12.7097 22.9562 12.6622 22.9591 12.6149C23.0374 11.877 23.4423 11.187 24.0999 10.6707C27.0849 8.49802 27.7006 4.0431 25.2392 1.47171C23.3341 -0.518552 20.4258 -0.487004 18.6523 1.54704C16.3719 4.16296 16.8032 8.97685 19.9744 10.7165ZM24.5044 3.09223C25.6811 4.65327 25.6616 6.72852 24.4758 7.97052L24.5044 3.09223Z" fill="#F10027"/>
<path d="M31.5365 2.7318L31.4997 8.98061L30.9902 8.97874C30.9033 6.97061 30.8163 4.96252 30.7293 2.95449L30.403 2.94653L30.3674 9.00523L29.7945 9.00538L29.8306 2.86839L29.2902 2.86241L29.2543 8.9653L28.7458 8.97101L28.7814 2.91708L28.2465 2.90453L28.2107 8.99101L27.5747 8.99821L27.6116 2.72177L27.0509 2.69617C27.0004 3.17528 26.9251 3.65354 26.904 4.13381C26.8213 5.99386 26.7268 7.85426 26.702 9.71521C26.6945 10.2644 26.7144 10.938 27.0374 11.3475C29.3818 14.319 28.913 17.6606 28.5999 20.9494C28.3086 24.008 27.7769 27.0466 27.404 30.0995C27.2263 31.5496 27.9991 32.446 29.3165 32.4894C30.6809 32.5348 31.5508 31.5941 31.3861 30.1138C31.0459 27.0569 30.5189 24.0125 30.313 20.9496C30.1621 18.7059 30.3549 16.4383 30.4973 14.1868C30.5596 13.5787 30.8149 13.0005 31.2318 12.523C32.252 11.3578 32.3906 10.0643 32.3369 8.64685C32.2625 6.67981 32.3386 4.70804 32.3502 2.73814L31.5365 2.7318ZM28.8392 23.0087L29.0045 22.9731L28.9533 31.6786C28.0212 31.4002 27.7408 30.9387 27.8509 30.1811C28.1981 27.7926 28.5122 25.3999 28.8392 23.0087Z" fill="#F10027"/>
<path d="M20.8545 30.9219C16.0386 30.8792 11.2224 30.8529 6.40605 30.8429C5.97089 31.0974 5.53583 31.3521 5.10439 31.6106C4.94831 31.7042 4.77288 31.7744 4.60633 31.8556L4.45148 31.7981C4.54758 31.4864 4.61458 31.1645 4.72064 30.8565C4.22872 30.8863 3.73144 30.9586 3.57347 31.1052C2.32318 32.2615 1.24464 33.4742 5.2239e-05 34.7799C13.498 34.8593 26.6434 34.9396 39.7891 35C40.1922 35.0023 40.7872 34.8569 40.9682 34.6796C42.1413 33.5301 43.2243 32.3528 44.4415 31.0739L30.5938 30.9925C30.5401 31.8673 29.8917 32.4025 28.9392 32.3725C28.0206 32.3436 27.4353 31.8272 27.4019 30.9737L20.855 30.9352L20.8545 30.9219Z" fill="#F10027"/>
</svg>
